<svg xmlns="http://www.w3.org/2000/svg" xmlns:xlink="http://www.w3.org/1999/xlink" width="500" zoomAndPan="magnify" viewBox="0 0 375 374.999991" height="500" preserveAspectRatio="xMidYMid meet" version="1.0"><path fill="#303848" d="M 109.796875 1.289062 C 89.855469 2.226562 76.238281 5.421875 64.332031 10.085938 C 52 14.890625 41.5625 21.320312 31.175781 31.757812 C 20.773438 42.199219 14.378906 52.65625 9.625 65.003906 C 5.015625 76.941406 1.890625 90.5625 1.007812 110.523438 C 0.125 130.5 -0.0703125 136.875 0.0195312 187.78125 C 0.105469 238.671875 0.335938 245.066406 1.289062 265.0625 C 2.242188 285.003906 5.421875 298.605469 10.085938 310.527344 C 14.890625 322.855469 21.320312 333.277344 31.757812 343.683594 C 42.199219 354.085938 52.65625 360.460938 65.003906 365.230469 C 76.925781 369.84375 90.5625 372.984375 110.503906 373.851562 C 130.5 374.734375 136.875 374.929688 187.765625 374.824219 C 238.671875 374.734375 245.046875 374.503906 265.042969 373.550781 C 284.984375 372.597656 298.585938 369.402344 310.511719 364.753906 C 322.839844 359.933594 333.277344 353.519531 343.664062 343.082031 C 354.050781 332.640625 360.445312 322.1875 365.214844 309.839844 C 369.824219 297.914062 372.96875 284.28125 373.835938 264.355469 C 374.699219 244.359375 374.910156 237.964844 374.824219 187.074219 C 374.734375 136.1875 374.488281 129.808594 373.550781 109.816406 C 372.597656 89.855469 369.417969 76.253906 364.753906 64.332031 C 359.933594 52 353.519531 41.582031 343.082031 31.175781 C 332.640625 20.789062 322.1875 14.378906 309.839844 9.625 C 297.914062 5.015625 284.28125 1.871094 264.335938 1.007812 C 244.339844 0.125 237.949219 -0.0703125 187.058594 0.0195312 C 136.167969 0.105469 129.792969 0.335938 109.796875 1.289062 M 111.988281 340.097656 C 93.722656 339.300781 83.796875 336.261719 77.171875 333.71875 C 68.410156 330.328125 62.175781 326.265625 55.585938 319.746094 C 49.015625 313.195312 44.953125 306.960938 41.527344 298.234375 C 38.964844 291.628906 35.875 281.71875 35.007812 263.4375 C 34.074219 243.6875 33.859375 237.753906 33.773438 187.710938 C 33.683594 137.6875 33.859375 131.753906 34.726562 111.988281 C 35.503906 93.722656 38.558594 83.796875 41.101562 77.191406 C 44.496094 68.429688 48.539062 62.195312 55.074219 55.605469 C 61.628906 49.035156 67.863281 44.972656 76.605469 41.546875 C 83.214844 38.964844 93.121094 35.894531 111.386719 35.027344 C 131.152344 34.089844 137.070312 33.898438 187.113281 33.789062 C 237.152344 33.683594 243.085938 33.859375 262.851562 34.746094 C 281.117188 35.539062 291.042969 38.558594 297.652344 41.121094 C 306.410156 44.511719 312.664062 48.539062 319.234375 55.09375 C 325.804688 61.644531 329.886719 67.863281 333.296875 76.625 C 335.875 83.214844 338.949219 93.140625 339.8125 111.386719 C 340.75 131.152344 340.960938 137.085938 341.050781 187.113281 C 341.140625 237.152344 340.960938 243.085938 340.097656 262.835938 C 339.300781 281.101562 336.261719 291.042969 333.71875 297.652344 C 330.328125 306.394531 326.285156 312.648438 319.730469 319.21875 C 313.175781 325.769531 306.960938 329.851562 298.199219 333.277344 C 291.609375 335.855469 281.683594 338.929688 263.4375 339.796875 C 243.671875 340.734375 237.753906 340.945312 187.695312 341.03125 C 137.671875 341.121094 131.734375 340.945312 111.96875 340.078125 M 264.777344 87.242188 C 264.796875 99.660156 274.898438 109.710938 287.300781 109.671875 C 299.71875 109.65625 309.769531 99.570312 309.75 87.152344 C 309.734375 74.734375 299.628906 64.683594 287.210938 64.703125 C 274.792969 64.71875 264.742188 74.824219 264.761719 87.222656 M 91.179688 187.605469 C 91.285156 240.757812 134.457031 283.75 187.589844 283.644531 C 240.738281 283.539062 283.75 240.386719 283.644531 187.234375 C 283.539062 134.101562 240.367188 91.089844 187.21875 91.179688 C 134.085938 91.285156 91.074219 134.457031 91.179688 187.605469 M 124.933594 187.535156 C 124.882812 153.039062 152.789062 125.007812 187.289062 124.953125 C 221.785156 124.882812 249.816406 152.789062 249.886719 187.304688 C 249.957031 221.804688 222.03125 249.835938 187.535156 249.886719 C 153.039062 249.957031 125.007812 222.03125 124.953125 187.535156 " fill-opacity="1" fill-rule="nonzero"/></svg>