<svg xmlns="http://www.w3.org/2000/svg" xmlns:xlink="http://www.w3.org/1999/xlink" width="500" zoomAndPan="magnify" viewBox="0 0 375 374.999991" height="500" preserveAspectRatio="xMidYMid meet" version="1.0"><defs><clipPath id="51231f8415"><path d="M 193 3.046875 L 375 3.046875 L 375 184 L 193 184 Z M 193 3.046875 " clip-rule="nonzero"/></clipPath></defs><path fill="#7ba862" d="M 193.277344 65.574219 C 193.277344 65.203125 193.3125 64.835938 193.386719 64.472656 C 193.457031 64.105469 193.566406 63.753906 193.707031 63.410156 C 193.851562 63.066406 194.023438 62.742188 194.230469 62.429688 C 194.4375 62.121094 194.671875 61.835938 194.933594 61.574219 C 195.195312 61.3125 195.484375 61.078125 195.792969 60.871094 C 196.101562 60.664062 196.425781 60.488281 196.769531 60.347656 C 197.113281 60.207031 197.464844 60.097656 197.832031 60.027344 C 198.195312 59.953125 198.5625 59.917969 198.933594 59.917969 C 200.871094 59.917969 202.804688 59.96875 204.742188 60.066406 C 206.675781 60.164062 208.605469 60.308594 210.535156 60.5 C 212.460938 60.691406 214.382812 60.929688 216.296875 61.214844 C 218.214844 61.5 220.121094 61.832031 222.019531 62.210938 C 223.917969 62.589844 225.808594 63.015625 227.6875 63.488281 C 229.566406 63.960938 231.429688 64.476562 233.285156 65.042969 C 235.136719 65.605469 236.972656 66.214844 238.796875 66.867188 C 240.621094 67.519531 242.425781 68.21875 244.214844 68.960938 C 246.003906 69.703125 247.773438 70.488281 249.523438 71.316406 C 251.273438 72.144531 253.003906 73.015625 254.710938 73.929688 C 256.417969 74.84375 258.105469 75.800781 259.765625 76.796875 C 261.425781 77.792969 263.0625 78.828125 264.671875 79.902344 C 266.28125 80.980469 267.863281 82.097656 269.417969 83.25 C 270.976562 84.402344 272.5 85.59375 274 86.824219 C 275.496094 88.054688 276.960938 89.316406 278.394531 90.617188 C 279.832031 91.917969 281.234375 93.253906 282.601562 94.625 C 283.972656 95.992188 285.308594 97.394531 286.609375 98.832031 C 287.910156 100.265625 289.171875 101.730469 290.402344 103.226562 C 291.632812 104.726562 292.824219 106.25 293.976562 107.808594 C 295.132812 109.363281 296.246094 110.945312 297.324219 112.554688 C 298.398438 114.164062 299.433594 115.800781 300.429688 117.460938 C 301.425781 119.121094 302.382812 120.808594 303.296875 122.515625 C 304.210938 124.222656 305.082031 125.953125 305.910156 127.703125 C 306.738281 129.453125 307.523438 131.222656 308.265625 133.011719 C 309.007812 134.800781 309.707031 136.605469 310.359375 138.429688 C 311.011719 140.253906 311.621094 142.089844 312.183594 143.945312 C 312.75 145.796875 313.265625 147.660156 313.738281 149.539062 C 314.210938 151.417969 314.636719 153.308594 315.015625 155.207031 C 315.394531 157.105469 315.726562 159.011719 316.011719 160.929688 C 316.296875 162.84375 316.535156 164.765625 316.726562 166.691406 C 316.917969 168.621094 317.0625 170.550781 317.160156 172.484375 C 317.257812 174.421875 317.308594 176.355469 317.308594 178.292969 C 317.308594 178.664062 317.273438 179.03125 317.199219 179.394531 C 317.128906 179.761719 317.019531 180.113281 316.878906 180.457031 C 316.738281 180.800781 316.5625 181.125 316.355469 181.433594 C 316.148438 181.742188 315.914062 182.03125 315.652344 182.292969 C 315.390625 182.554688 315.105469 182.789062 314.796875 182.996094 C 314.484375 183.203125 314.160156 183.375 313.816406 183.519531 C 313.472656 183.660156 313.121094 183.769531 312.757812 183.839844 C 312.390625 183.914062 312.023438 183.949219 311.652344 183.949219 C 311.28125 183.949219 310.914062 183.914062 310.546875 183.839844 C 310.183594 183.769531 309.832031 183.660156 309.488281 183.519531 C 309.144531 183.375 308.816406 183.203125 308.507812 182.996094 C 308.199219 182.789062 307.914062 182.554688 307.652344 182.292969 C 307.390625 182.03125 307.15625 181.742188 306.949219 181.433594 C 306.742188 181.125 306.566406 180.800781 306.425781 180.457031 C 306.285156 180.113281 306.175781 179.761719 306.105469 179.394531 C 306.03125 179.03125 305.996094 178.664062 305.996094 178.292969 C 305.992188 176.539062 305.949219 174.789062 305.859375 173.039062 C 305.773438 171.292969 305.640625 169.546875 305.46875 167.800781 C 305.296875 166.058594 305.078125 164.320312 304.820312 162.589844 C 304.5625 160.855469 304.261719 159.132812 303.917969 157.414062 C 303.574219 155.695312 303.191406 153.988281 302.761719 152.289062 C 302.335938 150.589844 301.867188 148.902344 301.359375 147.226562 C 300.847656 145.550781 300.296875 143.890625 299.707031 142.242188 C 299.117188 140.589844 298.484375 138.957031 297.8125 137.339844 C 297.140625 135.722656 296.433594 134.121094 295.683594 132.539062 C 294.933594 130.957031 294.144531 129.390625 293.316406 127.847656 C 292.492188 126.304688 291.628906 124.78125 290.726562 123.277344 C 289.824219 121.777344 288.890625 120.296875 287.914062 118.839844 C 286.941406 117.382812 285.933594 115.953125 284.890625 114.546875 C 283.847656 113.140625 282.769531 111.757812 281.65625 110.40625 C 280.546875 109.050781 279.402344 107.726562 278.226562 106.429688 C 277.046875 105.128906 275.839844 103.863281 274.601562 102.625 C 273.363281 101.386719 272.097656 100.179688 270.796875 99 C 269.5 97.824219 268.175781 96.679688 266.820312 95.570312 C 265.46875 94.457031 264.085938 93.382812 262.679688 92.335938 C 261.273438 91.292969 259.84375 90.285156 258.386719 89.3125 C 256.929688 88.335938 255.449219 87.402344 253.949219 86.5 C 252.445312 85.597656 250.921875 84.734375 249.378906 83.910156 C 247.835938 83.082031 246.269531 82.292969 244.6875 81.542969 C 243.105469 80.792969 241.503906 80.085938 239.886719 79.414062 C 238.269531 78.742188 236.636719 78.109375 234.984375 77.519531 C 233.335938 76.929688 231.675781 76.378906 230 75.867188 C 228.324219 75.359375 226.636719 74.890625 224.9375 74.464844 C 223.238281 74.035156 221.53125 73.652344 219.8125 73.308594 C 218.09375 72.964844 216.371094 72.664062 214.636719 72.40625 C 212.90625 72.148438 211.167969 71.929688 209.425781 71.757812 C 207.679688 71.585938 205.933594 71.453125 204.1875 71.367188 C 202.4375 71.277344 200.6875 71.234375 198.933594 71.230469 C 198.5625 71.230469 198.195312 71.195312 197.832031 71.121094 C 197.464844 71.050781 197.113281 70.941406 196.769531 70.800781 C 196.425781 70.660156 196.101562 70.484375 195.792969 70.277344 C 195.484375 70.070312 195.195312 69.835938 194.933594 69.574219 C 194.671875 69.3125 194.4375 69.027344 194.230469 68.71875 C 194.023438 68.410156 193.851562 68.082031 193.707031 67.738281 C 193.566406 67.394531 193.457031 67.042969 193.386719 66.679688 C 193.3125 66.3125 193.277344 65.945312 193.277344 65.574219 Z M 193.277344 65.574219 " fill-opacity="1" fill-rule="nonzero"/><g clip-path="url(#51231f8415)"><path fill="#7ba862" d="M 374.359375 178.292969 C 374.359375 178.664062 374.324219 179.03125 374.25 179.394531 C 374.179688 179.761719 374.070312 180.113281 373.929688 180.457031 C 373.789062 180.800781 373.613281 181.125 373.40625 181.433594 C 373.199219 181.742188 372.964844 182.03125 372.703125 182.292969 C 372.441406 182.554688 372.15625 182.789062 371.847656 182.996094 C 371.539062 183.203125 371.210938 183.375 370.867188 183.519531 C 370.523438 183.660156 370.171875 183.769531 369.808594 183.839844 C 369.441406 183.914062 369.074219 183.949219 368.703125 183.949219 C 368.332031 183.949219 367.964844 183.914062 367.601562 183.839844 C 367.234375 183.769531 366.882812 183.660156 366.539062 183.519531 C 366.195312 183.375 365.871094 183.203125 365.558594 182.996094 C 365.25 182.789062 364.964844 182.554688 364.703125 182.292969 C 364.441406 182.03125 364.207031 181.742188 364 181.433594 C 363.792969 181.125 363.617188 180.800781 363.476562 180.457031 C 363.335938 180.113281 363.226562 179.761719 363.15625 179.394531 C 363.082031 179.03125 363.046875 178.664062 363.046875 178.292969 C 363.042969 175.605469 362.976562 172.921875 362.84375 170.242188 C 362.710938 167.558594 362.511719 164.878906 362.246094 162.207031 C 361.980469 159.535156 361.648438 156.871094 361.253906 154.214844 C 360.859375 151.558594 360.398438 148.914062 359.875 146.28125 C 359.347656 143.644531 358.757812 141.027344 358.105469 138.421875 C 357.453125 135.816406 356.734375 133.230469 355.953125 130.660156 C 355.171875 128.089844 354.328125 125.542969 353.425781 123.011719 C 352.519531 120.484375 351.550781 117.980469 350.523438 115.5 C 349.496094 113.019531 348.40625 110.5625 347.257812 108.136719 C 346.109375 105.707031 344.902344 103.3125 343.632812 100.941406 C 342.367188 98.574219 341.042969 96.238281 339.664062 93.933594 C 338.28125 91.632812 336.847656 89.363281 335.355469 87.128906 C 333.863281 84.898438 332.316406 82.703125 330.714844 80.546875 C 329.117188 78.386719 327.464844 76.269531 325.761719 74.195312 C 324.058594 72.117188 322.304688 70.085938 320.5 68.097656 C 318.695312 66.105469 316.847656 64.160156 314.949219 62.261719 C 313.050781 60.363281 311.105469 58.511719 309.117188 56.707031 C 307.125 54.902344 305.09375 53.148438 303.019531 51.445312 C 300.941406 49.738281 298.828125 48.085938 296.667969 46.484375 C 294.511719 44.886719 292.320312 43.339844 290.085938 41.847656 C 287.855469 40.351562 285.585938 38.914062 283.285156 37.535156 C 280.980469 36.152344 278.644531 34.828125 276.277344 33.558594 C 273.910156 32.292969 271.511719 31.085938 269.085938 29.933594 C 266.65625 28.785156 264.203125 27.695312 261.722656 26.667969 C 259.242188 25.636719 256.738281 24.667969 254.210938 23.761719 C 251.683594 22.855469 249.132812 22.011719 246.5625 21.230469 C 243.996094 20.449219 241.40625 19.730469 238.804688 19.074219 C 236.199219 18.421875 233.578125 17.832031 230.945312 17.304688 C 228.3125 16.777344 225.667969 16.316406 223.011719 15.921875 C 220.355469 15.523438 217.691406 15.191406 215.019531 14.925781 C 212.347656 14.660156 209.667969 14.460938 206.984375 14.328125 C 204.304688 14.191406 201.621094 14.121094 198.933594 14.121094 C 198.5625 14.121094 198.195312 14.082031 197.832031 14.011719 C 197.464844 13.9375 197.113281 13.832031 196.769531 13.691406 C 196.425781 13.546875 196.101562 13.375 195.792969 13.167969 C 195.484375 12.960938 195.195312 12.726562 194.933594 12.464844 C 194.671875 12.199219 194.4375 11.914062 194.230469 11.605469 C 194.023438 11.296875 193.851562 10.972656 193.707031 10.628906 C 193.566406 10.285156 193.457031 9.929688 193.386719 9.566406 C 193.3125 9.203125 193.277344 8.835938 193.277344 8.464844 C 193.277344 8.089844 193.3125 7.722656 193.386719 7.359375 C 193.457031 6.996094 193.566406 6.640625 193.707031 6.296875 C 193.851562 5.957031 194.023438 5.628906 194.230469 5.320312 C 194.4375 5.011719 194.671875 4.726562 194.933594 4.464844 C 195.195312 4.199219 195.484375 3.964844 195.792969 3.757812 C 196.101562 3.554688 196.425781 3.378906 196.769531 3.238281 C 197.113281 3.09375 197.464844 2.988281 197.832031 2.914062 C 198.195312 2.84375 198.5625 2.804688 198.933594 2.804688 C 201.804688 2.808594 204.671875 2.882812 207.539062 3.027344 C 210.40625 3.171875 213.269531 3.386719 216.125 3.671875 C 218.980469 3.957031 221.828125 4.3125 224.667969 4.738281 C 227.507812 5.160156 230.335938 5.65625 233.148438 6.21875 C 235.964844 6.78125 238.761719 7.414062 241.546875 8.113281 C 244.332031 8.8125 247.09375 9.582031 249.839844 10.417969 C 252.585938 11.253906 255.3125 12.15625 258.015625 13.125 C 260.714844 14.09375 263.390625 15.128906 266.042969 16.230469 C 268.695312 17.332031 271.316406 18.496094 273.910156 19.722656 C 276.503906 20.953125 279.066406 22.246094 281.597656 23.601562 C 284.128906 24.953125 286.625 26.371094 289.085938 27.847656 C 291.546875 29.324219 293.972656 30.859375 296.359375 32.457031 C 298.742188 34.054688 301.089844 35.707031 303.394531 37.417969 C 305.699219 39.128906 307.960938 40.894531 310.179688 42.714844 C 312.398438 44.539062 314.570312 46.414062 316.695312 48.339844 C 318.824219 50.269531 320.902344 52.25 322.929688 54.277344 C 324.960938 56.308594 326.9375 58.386719 328.867188 60.515625 C 330.792969 62.640625 332.667969 64.816406 334.488281 67.035156 C 336.308594 69.253906 338.074219 71.515625 339.785156 73.820312 C 341.496094 76.125 343.148438 78.472656 344.742188 80.859375 C 346.335938 83.246094 347.875 85.667969 349.351562 88.132812 C 350.824219 90.59375 352.242188 93.089844 353.59375 95.621094 C 354.949219 98.152344 356.238281 100.714844 357.46875 103.308594 C 358.695312 105.902344 359.859375 108.527344 360.960938 111.179688 C 362.058594 113.832031 363.09375 116.507812 364.0625 119.210938 C 365.03125 121.910156 365.933594 124.636719 366.765625 127.382812 C 367.601562 130.128906 368.367188 132.894531 369.066406 135.679688 C 369.765625 138.460938 370.398438 141.261719 370.960938 144.078125 C 371.523438 146.890625 372.015625 149.71875 372.4375 152.558594 C 372.863281 155.398438 373.214844 158.246094 373.5 161.101562 C 373.78125 163.957031 373.996094 166.820312 374.140625 169.6875 C 374.285156 172.554688 374.355469 175.421875 374.359375 178.292969 Z M 374.359375 178.292969 " fill-opacity="1" fill-rule="nonzero"/></g><path fill="#7ba862" d="M 193.277344 122.625 C 193.277344 122.253906 193.3125 121.886719 193.386719 121.523438 C 193.457031 121.15625 193.566406 120.804688 193.707031 120.460938 C 193.851562 120.117188 194.023438 119.792969 194.230469 119.484375 C 194.4375 119.171875 194.671875 118.886719 194.933594 118.625 C 195.195312 118.363281 195.484375 118.128906 195.792969 117.921875 C 196.101562 117.714844 196.425781 117.542969 196.769531 117.398438 C 197.113281 117.257812 197.464844 117.148438 197.832031 117.078125 C 198.195312 117.003906 198.5625 116.96875 198.933594 116.96875 C 200.9375 116.976562 202.9375 117.082031 204.929688 117.285156 C 206.921875 117.488281 208.898438 117.789062 210.863281 118.1875 C 212.828125 118.585938 214.765625 119.078125 216.683594 119.664062 C 218.597656 120.253906 220.480469 120.933594 222.328125 121.707031 C 224.175781 122.476562 225.984375 123.339844 227.746094 124.289062 C 229.511719 125.234375 231.226562 126.269531 232.886719 127.386719 C 234.550781 128.503906 236.15625 129.699219 237.703125 130.972656 C 239.246094 132.25 240.726562 133.59375 242.140625 135.015625 C 243.554688 136.433594 244.894531 137.917969 246.164062 139.46875 C 247.433594 141.019531 248.621094 142.628906 249.734375 144.296875 C 250.84375 145.964844 251.871094 147.683594 252.8125 149.449219 C 253.753906 151.21875 254.609375 153.027344 255.371094 154.878906 C 256.136719 156.730469 256.808594 158.617188 257.390625 160.535156 C 257.96875 162.453125 258.457031 164.394531 258.84375 166.359375 C 259.234375 168.324219 259.527344 170.300781 259.722656 172.296875 C 259.917969 174.289062 260.015625 176.289062 260.015625 178.292969 C 260.019531 178.664062 259.988281 179.035156 259.917969 179.398438 C 259.847656 179.765625 259.742188 180.121094 259.601562 180.464844 C 259.460938 180.8125 259.289062 181.140625 259.082031 181.449219 C 258.875 181.761719 258.640625 182.046875 258.378906 182.308594 C 258.113281 182.574219 257.828125 182.808594 257.519531 183.015625 C 257.207031 183.222656 256.878906 183.394531 256.535156 183.535156 C 256.191406 183.675781 255.835938 183.78125 255.46875 183.851562 C 255.101562 183.921875 254.734375 183.953125 254.359375 183.949219 C 253.996094 183.929688 253.636719 183.875 253.28125 183.785156 C 252.925781 183.699219 252.582031 183.582031 252.246094 183.433594 C 251.914062 183.28125 251.597656 183.105469 251.296875 182.894531 C 250.996094 182.6875 250.714844 182.457031 250.457031 182.195312 C 250.199219 181.9375 249.964844 181.660156 249.757812 181.359375 C 249.550781 181.054688 249.371094 180.738281 249.222656 180.40625 C 249.070312 180.070312 248.953125 179.726562 248.867188 179.371094 C 248.777344 179.015625 248.726562 178.65625 248.703125 178.292969 C 248.703125 176.65625 248.625 175.023438 248.464844 173.394531 C 248.304688 171.765625 248.0625 170.148438 247.742188 168.542969 C 247.425781 166.9375 247.027344 165.351562 246.554688 163.785156 C 246.078125 162.21875 245.527344 160.679688 244.902344 159.167969 C 244.277344 157.65625 243.578125 156.179688 242.808594 154.734375 C 242.035156 153.289062 241.195312 151.886719 240.289062 150.527344 C 239.378906 149.164062 238.40625 147.851562 237.367188 146.585938 C 236.332031 145.320312 235.234375 144.109375 234.078125 142.953125 C 232.921875 141.792969 231.710938 140.695312 230.445312 139.65625 C 229.179688 138.617188 227.867188 137.640625 226.507812 136.730469 C 225.148438 135.820312 223.746094 134.980469 222.304688 134.207031 C 220.863281 133.433594 219.386719 132.734375 217.875 132.105469 C 216.363281 131.480469 214.824219 130.925781 213.257812 130.449219 C 211.691406 129.972656 210.105469 129.574219 208.5 129.253906 C 206.898438 128.933594 205.28125 128.691406 203.652344 128.527344 C 202.023438 128.367188 200.390625 128.285156 198.753906 128.28125 C 198.390625 128.269531 198.03125 128.222656 197.675781 128.144531 C 197.320312 128.0625 196.976562 127.949219 196.644531 127.800781 C 196.3125 127.652344 195.996094 127.476562 195.699219 127.269531 C 195.398438 127.058594 195.121094 126.824219 194.871094 126.5625 C 194.617188 126.300781 194.390625 126.019531 194.191406 125.714844 C 193.992188 125.40625 193.828125 125.085938 193.691406 124.75 C 193.554688 124.410156 193.449219 124.066406 193.382812 123.707031 C 193.3125 123.351562 193.277344 122.988281 193.277344 122.625 Z M 193.277344 122.625 " fill-opacity="1" fill-rule="nonzero"/><path fill="#7ba862" d="M 354.980469 299.132812 L 354.980469 310.085938 C 354.972656 312.207031 354.757812 314.304688 354.339844 316.382812 C 353.917969 318.460938 353.300781 320.476562 352.484375 322.433594 C 351.667969 324.390625 350.671875 326.246094 349.492188 328.007812 C 348.3125 329.769531 346.972656 331.398438 345.472656 332.894531 L 315.863281 362.265625 C 314.386719 363.734375 312.78125 365.046875 311.046875 366.203125 C 309.3125 367.359375 307.484375 368.335938 305.558594 369.136719 C 303.632812 369.9375 301.652344 370.542969 299.609375 370.957031 C 297.566406 371.367188 295.5 371.582031 293.417969 371.59375 L 292.09375 371.59375 C 287.390625 371.390625 282.695312 371.078125 278.007812 370.65625 C 273.320312 370.238281 268.644531 369.707031 263.980469 369.070312 C 259.320312 368.433594 254.671875 367.6875 250.042969 366.835938 C 245.414062 365.984375 240.808594 365.023438 236.226562 363.957031 C 231.640625 362.890625 227.085938 361.71875 222.554688 360.4375 C 218.023438 359.160156 213.527344 357.777344 209.0625 356.292969 C 204.597656 354.804688 200.167969 353.214844 195.777344 351.523438 C 191.386719 349.828125 187.035156 348.035156 182.726562 346.140625 C 178.417969 344.246094 174.15625 342.253906 169.941406 340.160156 C 165.722656 338.070312 161.558594 335.878906 157.445312 333.59375 C 153.328125 331.308594 149.269531 328.929688 145.265625 326.457031 C 141.261719 323.980469 137.320312 321.417969 133.433594 318.757812 C 129.550781 316.101562 125.726562 313.355469 121.972656 310.523438 C 118.214844 307.6875 114.523438 304.765625 110.902344 301.761719 C 107.28125 298.757812 103.730469 295.667969 100.25 292.496094 C 96.773438 289.328125 93.371094 286.078125 90.042969 282.75 C 86.714844 279.421875 83.464844 276.015625 80.296875 272.539062 C 77.125 269.058594 74.039062 265.507812 71.035156 261.886719 C 68.03125 258.261719 65.109375 254.574219 62.277344 250.816406 C 59.441406 247.058594 56.699219 243.234375 54.042969 239.351562 C 51.386719 235.464844 48.820312 231.519531 46.347656 227.515625 C 43.875 223.511719 41.496094 219.453125 39.210938 215.335938 C 36.925781 211.222656 34.738281 207.054688 32.648438 202.839844 C 30.554688 198.625 28.5625 194.359375 26.667969 190.050781 C 24.777344 185.742188 22.984375 181.394531 21.292969 177 C 19.601562 172.609375 18.011719 168.179688 16.523438 163.714844 C 15.039062 159.25 13.65625 154.75 12.378906 150.21875 C 11.101562 145.691406 9.929688 141.132812 8.863281 136.550781 C 7.800781 131.964844 6.839844 127.359375 5.988281 122.730469 C 5.136719 118.101562 4.390625 113.453125 3.757812 108.792969 C 3.121094 104.128906 2.59375 99.453125 2.171875 94.765625 C 1.753906 90.078125 1.441406 85.382812 1.242188 80.679688 C 1.125 78.460938 1.242188 76.253906 1.589844 74.058594 C 1.941406 71.863281 2.515625 69.730469 3.3125 67.65625 C 4.109375 65.582031 5.117188 63.613281 6.328125 61.753906 C 7.542969 59.890625 8.933594 58.175781 10.507812 56.609375 L 39.878906 27.300781 C 41.375 25.800781 43.007812 24.464844 44.765625 23.285156 C 46.527344 22.105469 48.386719 21.109375 50.34375 20.292969 C 52.296875 19.476562 54.316406 18.859375 56.390625 18.4375 C 58.46875 18.015625 60.566406 17.800781 62.6875 17.792969 L 73.457031 17.792969 C 75.082031 17.792969 76.695312 17.917969 78.296875 18.164062 C 79.902344 18.410156 81.476562 18.773438 83.027344 19.257812 C 84.574219 19.742188 86.078125 20.339844 87.539062 21.050781 C 88.996094 21.761719 90.394531 22.578125 91.726562 23.496094 C 93.0625 24.417969 94.324219 25.4375 95.503906 26.546875 C 96.6875 27.660156 97.777344 28.851562 98.78125 30.128906 C 99.78125 31.40625 100.683594 32.75 101.480469 34.160156 C 102.28125 35.574219 102.96875 37.039062 103.546875 38.554688 L 129.546875 107.640625 C 130.066406 109.042969 130.484375 110.472656 130.804688 111.933594 C 131.125 113.394531 131.34375 114.867188 131.460938 116.359375 C 131.578125 117.847656 131.589844 119.339844 131.5 120.832031 C 131.40625 122.324219 131.214844 123.804688 130.917969 125.269531 C 130.621094 126.734375 130.226562 128.171875 129.730469 129.582031 C 129.234375 130.992188 128.644531 132.363281 127.957031 133.691406 C 127.269531 135.019531 126.496094 136.292969 125.632812 137.515625 C 124.773438 138.734375 123.828125 139.890625 122.804688 140.980469 L 112.035156 152.355469 C 111.21875 153.210938 110.484375 154.132812 109.832031 155.113281 C 109.175781 156.097656 108.609375 157.128906 108.128906 158.207031 C 107.648438 159.289062 107.265625 160.398438 106.976562 161.546875 C 106.6875 162.691406 106.5 163.851562 106.410156 165.03125 C 106.320312 166.207031 106.332031 167.386719 106.441406 168.5625 C 106.554688 169.738281 106.765625 170.894531 107.074219 172.035156 C 107.382812 173.175781 107.789062 174.28125 108.289062 175.351562 C 108.789062 176.421875 109.375 177.441406 110.046875 178.414062 C 121.429688 194.953125 134.195312 210.339844 148.351562 224.578125 C 162.507812 238.816406 177.824219 251.671875 194.300781 263.148438 C 195.273438 263.78125 196.289062 264.328125 197.351562 264.789062 C 198.417969 265.253906 199.511719 265.625 200.636719 265.902344 C 201.761719 266.183594 202.902344 266.363281 204.058594 266.453125 C 205.214844 266.539062 206.371094 266.53125 207.527344 266.425781 C 208.679688 266.320312 209.820312 266.121094 210.941406 265.824219 C 212.0625 265.527344 213.152344 265.140625 214.207031 264.660156 C 215.261719 264.179688 216.273438 263.617188 217.234375 262.96875 C 218.195312 262.320312 219.097656 261.597656 219.9375 260.800781 L 231.492188 249.847656 C 232.582031 248.824219 233.738281 247.882812 234.957031 247.019531 C 236.179688 246.15625 237.453125 245.382812 238.78125 244.695312 C 240.109375 244.011719 241.480469 243.417969 242.890625 242.921875 C 244.300781 242.429688 245.738281 242.03125 247.203125 241.734375 C 248.667969 241.4375 250.148438 241.246094 251.640625 241.15625 C 253.132812 241.0625 254.621094 241.074219 256.113281 241.191406 C 257.605469 241.308594 259.078125 241.527344 260.539062 241.847656 C 262 242.167969 263.429688 242.585938 264.832031 243.105469 L 333.917969 269.105469 C 335.445312 269.667969 336.921875 270.347656 338.347656 271.136719 C 339.773438 271.925781 341.128906 272.816406 342.421875 273.808594 C 343.710938 274.804688 344.917969 275.890625 346.042969 277.066406 C 347.167969 278.246094 348.199219 279.5 349.132812 280.835938 C 350.070312 282.167969 350.898438 283.5625 351.625 285.023438 C 352.347656 286.480469 352.957031 287.988281 353.453125 289.539062 C 353.949219 291.089844 354.324219 292.671875 354.582031 294.277344 C 354.835938 295.886719 354.972656 297.507812 354.980469 299.132812 Z M 354.980469 299.132812 " fill-opacity="1" fill-rule="nonzero"/></svg>