<svg xmlns="http://www.w3.org/2000/svg" xmlns:xlink="http://www.w3.org/1999/xlink" width="500" zoomAndPan="magnify" viewBox="0 0 375 374.999991" height="500" preserveAspectRatio="xMidYMid meet" version="1.0"><defs><clipPath id="57338e1381"><path d="M 10 160 L 363 160 L 363 374.226562 L 10 374.226562 Z M 10 160 " clip-rule="nonzero"/></clipPath></defs><path fill="#303848" d="M 129.640625 198.246094 C 129.707031 182.265625 116.789062 169.25 100.839844 169.214844 C 84.859375 169.148438 71.84375 182.066406 71.777344 198.046875 C 71.777344 198.113281 71.777344 198.179688 71.777344 198.246094 C 71.742188 214.226562 84.628906 227.210938 100.609375 227.277344 C 116.589844 227.34375 129.605469 214.425781 129.640625 198.445312 C 129.640625 198.378906 129.640625 198.3125 129.640625 198.246094 " fill-opacity="1" fill-rule="nonzero"/><g clip-path="url(#57338e1381)"><path fill="#303848" d="M 334.316406 374.226562 L 334.316406 322.59375 L 38.652344 322.59375 L 38.652344 374.226562 L 10.585938 374.226562 L 10.585938 174.644531 C 10.585938 166.886719 16.878906 160.625 24.636719 160.625 C 32.359375 160.625 38.652344 166.886719 38.652344 174.644531 L 38.652344 294.527344 L 362.382812 294.527344 L 362.382812 374.226562 L 334.316406 374.226562 " fill-opacity="1" fill-rule="nonzero"/></g><path fill="#303848" d="M 142.023438 181.433594 L 142.023438 234.535156 L 88.921875 234.535156 C 81.164062 234.601562 74.90625 240.894531 74.972656 248.652344 C 75.007812 256.339844 81.230469 262.566406 88.921875 262.601562 L 152.875 262.601562 C 162.363281 262.601562 170.089844 254.910156 170.089844 245.386719 L 170.089844 181.433594 C 170.089844 173.675781 163.796875 167.386719 156.039062 167.386719 C 148.316406 167.386719 142.023438 173.675781 142.023438 181.433594 " fill-opacity="1" fill-rule="nonzero"/><path fill="#303848" d="M 279.453125 198.113281 L 183.605469 198.113281 L 183.605469 262.601562 L 313.875 262.601562 L 313.875 232.539062 C 313.875 213.527344 298.460938 198.113281 279.453125 198.113281 " fill-opacity="1" fill-rule="nonzero"/><path fill="#303848" d="M 0 95.109375 L 12.652344 120.175781 L 187.5 31.820312 L 362.347656 120.175781 L 375 95.109375 L 187.5 0.394531 L 0 95.109375 " fill-opacity="1" fill-rule="nonzero"/></svg>