<svg xmlns="http://www.w3.org/2000/svg" xmlns:xlink="http://www.w3.org/1999/xlink" width="500" zoomAndPan="magnify" viewBox="0 0 375 374.999991" height="500" preserveAspectRatio="xMidYMid meet" version="1.0"><defs><clipPath id="f32f988509"><path d="M 274 229 L 375 229 L 375 302.550781 L 274 302.550781 Z M 274 229 " clip-rule="nonzero"/></clipPath><clipPath id="657d128f3e"><path d="M 0 141.050781 L 275 141.050781 L 275 302.550781 L 0 302.550781 Z M 0 141.050781 " clip-rule="nonzero"/></clipPath><clipPath id="0090a375ca"><path d="M 75 72.871094 L 314 72.871094 L 314 302.550781 L 75 302.550781 Z M 75 72.871094 " clip-rule="nonzero"/></clipPath></defs><g clip-path="url(#f32f988509)"><path fill="#303848" d="M 274.691406 247.585938 L 331.554688 239.792969 L 358.886719 292.496094 L 291.902344 292.5625 L 297.128906 302.382812 L 375 302.285156 L 337.046875 229.109375 L 326.726562 230.472656 L 326.761719 230.539062 L 275.65625 237.53125 L 274.691406 247.585938 " fill-opacity="1" fill-rule="nonzero"/></g><g clip-path="url(#657d128f3e)"><path fill="#303848" d="M 83.328125 141.484375 L 0 302.21875 L 77.871094 302.316406 L 83.097656 292.496094 L 16.113281 292.429688 L 85.894531 157.863281 L 132.003906 204.007812 L 131.96875 204.171875 L 134.066406 206.101562 L 135.332031 207.335938 L 135.332031 207.269531 L 186.699219 254.476562 L 226.652344 217.753906 L 274.691406 247.585938 L 272.226562 234.835938 L 225.550781 205.472656 L 225.519531 205.4375 L 225.484375 205.4375 L 225.453125 205.503906 L 186.699219 241.125 L 137.59375 196.015625 L 137.628906 195.78125 L 90.621094 148.742188 L 90.621094 148.707031 L 90.585938 148.675781 L 85.695312 143.8125 L 84.160156 142.28125 L 84.160156 142.316406 L 83.328125 141.484375 " fill-opacity="1" fill-rule="nonzero"/></g><g clip-path="url(#0090a375ca)"><path fill="#303848" d="M 193.992188 72.871094 L 128.539062 199.113281 L 135.332031 207.335938 L 193.992188 94.175781 L 296.898438 292.730469 L 91.1875 292.496094 L 82.429688 292.5625 L 80.132812 292.460938 L 75.074219 302.285156 L 313.042969 302.550781 L 193.992188 72.871094 " fill-opacity="1" fill-rule="nonzero"/></g></svg>