<svg xmlns="http://www.w3.org/2000/svg" xmlns:xlink="http://www.w3.org/1999/xlink" width="500" zoomAndPan="magnify" viewBox="0 0 375 374.999991" height="500" preserveAspectRatio="xMidYMid meet" version="1.0"><defs><clipPath id="9b2e5c3eca"><path d="M 335 186 L 367.789062 186 L 367.789062 200 L 335 200 Z M 335 186 " clip-rule="nonzero"/></clipPath></defs><path fill="#303848" d="M 59.070312 37.28125 L 31.660156 35.9375 L 54.652344 50.953125 L 44.882812 76.601562 L 66.25 59.375 L 87.722656 76.601562 L 77.917969 50.953125 L 100.910156 35.9375 L 73.5 37.28125 L 66.25 10.804688 L 59.070312 37.28125 " fill-opacity="1" fill-rule="nonzero"/><path fill="#303848" d="M 21.0625 105.21875 L 7.21875 104.5625 L 18.851562 112.15625 L 13.882812 125.101562 L 24.6875 116.4375 L 35.527344 125.101562 L 30.589844 112.15625 L 42.222656 104.5625 L 28.347656 105.253906 L 24.722656 91.894531 L 21.0625 105.21875 " fill-opacity="1" fill-rule="nonzero"/><path fill="#303848" d="M 183.03125 0 L 190.523438 0 L 190.523438 388.839844 L 183.03125 388.839844 L 183.03125 0 " fill-opacity="1" fill-rule="nonzero"/><path fill="#303848" d="M 203.847656 77.429688 C 203.574219 77.429688 203.367188 77.464844 203.089844 77.464844 L 203.089844 310.410156 C 203.367188 310.410156 203.574219 310.476562 203.847656 310.476562 C 268.195312 310.476562 320.355469 258.316406 320.355469 193.972656 C 320.355469 129.589844 268.195312 77.429688 203.847656 77.429688 " fill-opacity="1" fill-rule="nonzero"/><path fill="#303848" d="M 172.296875 306.921875 C 121.414062 294.496094 83.578125 248.6875 83.578125 193.9375 C 83.578125 139.222656 121.414062 93.414062 172.296875 80.949219 L 172.296875 77.84375 C 169.328125 77.601562 166.289062 77.394531 163.21875 77.394531 C 98.835938 77.394531 46.675781 129.589844 46.675781 193.9375 C 46.675781 258.28125 98.835938 310.476562 163.21875 310.476562 C 166.289062 310.476562 169.328125 310.304688 172.296875 310.03125 L 172.296875 306.921875 " fill-opacity="1" fill-rule="nonzero"/><path fill="#303848" d="M 215.414062 53.886719 C 215.414062 57.269531 212.652344 60.03125 209.269531 60.03125 C 205.851562 60.03125 203.089844 57.269531 203.089844 53.886719 L 203.089844 34.039062 C 203.089844 30.652344 205.851562 27.894531 209.269531 27.894531 C 212.652344 27.894531 215.414062 30.652344 215.414062 34.039062 L 215.414062 53.886719 " fill-opacity="1" fill-rule="nonzero"/><path fill="#303848" d="M 281.484375 77.84375 C 279.828125 80.8125 276.101562 81.882812 273.097656 80.226562 C 270.128906 78.601562 269.058594 74.839844 270.714844 71.871094 L 280.347656 54.542969 C 282.003906 51.539062 285.765625 50.503906 288.734375 52.125 C 291.703125 53.78125 292.773438 57.511719 291.117188 60.480469 L 281.484375 77.84375 " fill-opacity="1" fill-rule="nonzero"/><path fill="#303848" d="M 327.605469 130.902344 C 324.707031 132.695312 320.910156 131.800781 319.148438 128.933594 C 317.351562 126.035156 318.214844 122.238281 321.117188 120.441406 L 337.925781 109.949219 C 340.828125 108.152344 344.625 109.050781 346.417969 111.949219 C 348.214844 114.816406 347.351562 118.613281 344.453125 120.441406 L 327.605469 130.902344 " fill-opacity="1" fill-rule="nonzero"/><g clip-path="url(#9b2e5c3eca)"><path fill="#303848" d="M 342.171875 199.667969 C 338.789062 199.804688 335.890625 197.214844 335.71875 193.796875 C 335.546875 190.414062 338.167969 187.550781 341.550781 187.378906 L 361.332031 186.375 C 364.75 186.203125 367.648438 188.863281 367.789062 192.246094 C 367.960938 195.628906 365.371094 198.527344 361.953125 198.699219 L 342.171875 199.667969 " fill-opacity="1" fill-rule="nonzero"/></g><path fill="#303848" d="M 321.53125 266.84375 C 318.457031 265.359375 317.179688 261.664062 318.699219 258.628906 C 320.21875 255.554688 323.878906 254.3125 326.914062 255.832031 L 344.691406 264.53125 C 347.765625 266.085938 349.007812 269.777344 347.523438 272.816406 C 346.003906 275.886719 342.34375 277.097656 339.273438 275.613281 L 321.53125 266.84375 " fill-opacity="1" fill-rule="nonzero"/><path fill="#303848" d="M 270.820312 315.550781 C 268.886719 312.757812 269.542969 308.925781 272.335938 306.992188 C 275.167969 305.058594 278.964844 305.714844 280.898438 308.546875 L 292.222656 324.804688 C 294.121094 327.636719 293.429688 331.464844 290.667969 333.398438 C 287.835938 335.332031 284.039062 334.609375 282.105469 331.847656 L 270.820312 315.550781 " fill-opacity="1" fill-rule="nonzero"/><path fill="#303848" d="M 203.089844 331.847656 C 203.089844 328.464844 205.851562 325.703125 209.269531 325.703125 C 212.652344 325.703125 215.414062 328.464844 215.414062 331.847656 L 215.414062 351.695312 C 215.414062 355.078125 212.652344 357.839844 209.269531 357.839844 C 205.851562 357.839844 203.089844 355.078125 203.089844 351.695312 L 203.089844 331.847656 " fill-opacity="1" fill-rule="nonzero"/></svg>