<svg xmlns="http://www.w3.org/2000/svg" xmlns:xlink="http://www.w3.org/1999/xlink" width="500" zoomAndPan="magnify" viewBox="0 0 375 374.999991" height="500" preserveAspectRatio="xMidYMid meet" version="1.0"><path fill="#607dfa" d="M 147.050781 247.511719 C 136.816406 222.25 134.566406 200.464844 152.867188 180.957031 C 166.59375 163.046875 202.453125 145.199219 205.558594 122.582031 C 211.996094 76.121094 151.910156 88.230469 156.71875 121.910156 C 159.179688 139.078125 152.082031 146.117188 139.304688 152.089844 C 121.960938 160.222656 109.886719 160.027344 108.234375 116.660156 C 107.113281 86.890625 129.667969 59.925781 158.640625 54.6875 C 193.574219 45.148438 247.613281 61.460938 259.625 97.605469 C 268.496094 123.726562 256.347656 155.679688 231.824219 173.171875 C 193.53125 200.519531 176.644531 207.425781 176.574219 240.59375 C 176.523438 256.480469 153.253906 262.777344 147.050781 247.511719 Z M 147.050781 247.511719 " fill-opacity="1" fill-rule="nonzero"/><path fill="#607dfa" d="M 198.21875 290.507812 C 200.417969 298.421875 199.988281 307.371094 195.464844 314.421875 C 185.675781 329.75 167.855469 327.839844 153.796875 321.980469 C 141.859375 317.03125 137.078125 302.191406 142.335938 290.765625 C 148.632812 277.101562 159.25 270.210938 171.234375 270.71875 C 187.257812 271.386719 194.316406 276.429688 198.21875 290.507812 Z M 198.21875 290.507812 " fill-opacity="1" fill-rule="nonzero"/></svg>