<svg xmlns="http://www.w3.org/2000/svg" xmlns:xlink="http://www.w3.org/1999/xlink" width="500" zoomAndPan="magnify" viewBox="0 0 375 374.999991" height="500" preserveAspectRatio="xMidYMid meet" version="1.0"><defs><clipPath id="63e2f32b07"><path d="M 280 135 L 367 135 L 367 290 L 280 290 Z M 280 135 " clip-rule="nonzero"/></clipPath><clipPath id="792aff7b71"><path d="M 72.949219 37.5 L 391.382812 144.71875 L 318.390625 361.507812 L -0.0429688 254.292969 Z M 72.949219 37.5 " clip-rule="nonzero"/></clipPath><clipPath id="569d7a8327"><path d="M 72.949219 37.5 L 391.382812 144.71875 L 318.390625 361.507812 L -0.0429688 254.292969 Z M 72.949219 37.5 " clip-rule="nonzero"/></clipPath><clipPath id="916ae5a7e5"><path d="M 213 125 L 333 125 L 333 251 L 213 251 Z M 213 125 " clip-rule="nonzero"/></clipPath><clipPath id="3ce3fbc1d6"><path d="M 72.949219 37.5 L 391.382812 144.71875 L 318.390625 361.507812 L -0.0429688 254.292969 Z M 72.949219 37.5 " clip-rule="nonzero"/></clipPath><clipPath id="326c8e4176"><path d="M 72.949219 37.5 L 391.382812 144.71875 L 318.390625 361.507812 L -0.0429688 254.292969 Z M 72.949219 37.5 " clip-rule="nonzero"/></clipPath><clipPath id="d4d7318c4a"><path d="M 13 115 L 93 115 L 93 266 L 13 266 Z M 13 115 " clip-rule="nonzero"/></clipPath><clipPath id="1366401d05"><path d="M 72.949219 37.5 L 391.382812 144.71875 L 318.390625 361.507812 L -0.0429688 254.292969 Z M 72.949219 37.5 " clip-rule="nonzero"/></clipPath><clipPath id="aaa97c81cb"><path d="M 72.949219 37.5 L 391.382812 144.71875 L 318.390625 361.507812 L -0.0429688 254.292969 Z M 72.949219 37.5 " clip-rule="nonzero"/></clipPath><clipPath id="77268b0167"><path d="M 90 118 L 161 118 L 161 276 L 90 276 Z M 90 118 " clip-rule="nonzero"/></clipPath><clipPath id="e0ca993a3e"><path d="M 72.949219 37.5 L 391.382812 144.71875 L 318.390625 361.507812 L -0.0429688 254.292969 Z M 72.949219 37.5 " clip-rule="nonzero"/></clipPath><clipPath id="ad40c6524a"><path d="M 72.949219 37.5 L 391.382812 144.71875 L 318.390625 361.507812 L -0.0429688 254.292969 Z M 72.949219 37.5 " clip-rule="nonzero"/></clipPath></defs><g clip-path="url(#63e2f32b07)"><g clip-path="url(#792aff7b71)"><g clip-path="url(#569d7a8327)"><path fill="#4d3d11" d="M 350.585938 136.484375 C 349.527344 134.527344 346.632812 134.800781 345.949219 136.917969 C 341.988281 149.152344 331.546875 178.675781 317.765625 196.578125 C 310.628906 205.847656 303.707031 215.277344 296.5625 224.542969 C 292.238281 230.148438 287.101562 235.234375 283.722656 241.507812 C 280.941406 246.667969 279.796875 252.488281 280.738281 258.296875 C 282.734375 270.59375 291.390625 280.773438 302.332031 286.3125 C 312.320312 291.367188 324.285156 289.792969 333.300781 283.425781 C 347.410156 273.457031 354.753906 253.75 359.898438 237.914062 C 365.730469 219.953125 367.921875 200.757812 365.519531 181.992188 C 363.472656 166.035156 358.207031 150.628906 350.585938 136.484375 Z M 350.585938 136.484375 " fill-opacity="1" fill-rule="nonzero"/></g></g></g><g clip-path="url(#916ae5a7e5)"><g clip-path="url(#3ce3fbc1d6)"><g clip-path="url(#326c8e4176)"><path fill="#4d3d11" d="M 330.253906 125.003906 C 332.476562 124.894531 333.738281 127.515625 332.277344 129.195312 C 323.84375 138.902344 303.945312 163.085938 295.730469 184.128906 C 291.472656 195.027344 286.972656 205.824219 282.726562 216.726562 C 280.15625 223.320312 278.453125 230.34375 274.824219 236.480469 C 271.839844 241.527344 267.445312 245.507812 261.980469 247.703125 C 250.421875 252.339844 237.234375 250.183594 226.84375 243.667969 C 217.359375 237.722656 212.527344 226.667969 213.328125 215.65625 C 214.582031 198.425781 227.671875 181.964844 238.578125 169.382812 C 250.949219 155.113281 266.257812 143.332031 283.570312 135.699219 C 298.292969 129.214844 314.207031 125.777344 330.253906 125.003906 Z M 330.253906 125.003906 " fill-opacity="1" fill-rule="nonzero"/></g></g></g><g clip-path="url(#d4d7318c4a)"><g clip-path="url(#1366401d05)"><g clip-path="url(#aaa97c81cb)"><path fill="#4d3d11" d="M 88.636719 116.078125 C 90.648438 115.125 92.820312 117.058594 92.117188 119.171875 C 88.054688 131.371094 78.964844 161.339844 79.457031 183.925781 C 79.710938 195.621094 79.699219 207.324219 79.960938 219.019531 C 80.121094 226.09375 81.242188 233.234375 80.25 240.292969 C 79.429688 246.097656 76.902344 251.464844 72.699219 255.585938 C 63.804688 264.304688 50.800781 267.378906 38.707031 265.351562 C 27.664062 263.503906 18.960938 255.144531 15.472656 244.671875 C 10.015625 228.28125 15.78125 208.054688 21.023438 192.25 C 26.96875 174.328125 36.578125 157.570312 49.640625 143.878906 C 60.742188 132.238281 74.117188 122.949219 88.636719 116.078125 Z M 88.636719 116.078125 " fill-opacity="1" fill-rule="nonzero"/></g></g></g><g clip-path="url(#77268b0167)"><g clip-path="url(#e0ca993a3e)"><g clip-path="url(#ad40c6524a)"><path fill="#4d3d11" d="M 111.820312 118.875 C 110.089844 117.472656 107.523438 118.835938 107.703125 121.054688 C 108.746094 133.871094 110.4375 165.140625 104.585938 186.960938 C 101.554688 198.261719 98.777344 209.625 95.738281 220.921875 C 93.898438 227.757812 91.109375 234.425781 90.394531 241.515625 C 89.808594 247.351562 90.988281 253.164062 94.089844 258.167969 C 100.648438 268.753906 112.550781 274.832031 124.78125 275.746094 C 135.941406 276.578125 146.386719 270.535156 152.265625 261.191406 C 161.46875 246.570312 160.683594 225.554688 159.355469 208.957031 C 157.847656 190.132812 152.503906 171.566406 143.078125 155.160156 C 135.0625 141.210938 124.285156 129.007812 111.820312 118.875 Z M 111.820312 118.875 " fill-opacity="1" fill-rule="nonzero"/></g></g></g></svg>