<svg xmlns="http://www.w3.org/2000/svg" xmlns:xlink="http://www.w3.org/1999/xlink" width="500" zoomAndPan="magnify" viewBox="0 0 375 374.999991" height="500" preserveAspectRatio="xMidYMid meet" version="1.0"><defs><clipPath id="3405e5ad62"><path d="M 181 37.5 L 194 37.5 L 194 67 L 181 67 Z M 181 37.5 " clip-rule="nonzero"/></clipPath><clipPath id="239d96ce81"><path d="M 1 310 L 372 310 L 372 328.5 L 1 328.5 Z M 1 310 " clip-rule="nonzero"/></clipPath></defs><path fill="#303848" d="M 7.167969 206.0625 C 8.621094 206.0625 10.074219 205.480469 11.234375 204.609375 L 47.273438 170.316406 L 55.410156 178.164062 C 56.574219 179.324219 58.027344 179.90625 59.480469 179.90625 C 60.933594 179.90625 62.386719 179.324219 63.546875 178.164062 L 101.039062 139.21875 L 122.253906 160.144531 L 130.390625 152.007812 L 104.816406 126.722656 C 103.65625 125.558594 102.203125 125.269531 100.75 124.976562 C 99.296875 124.976562 97.84375 125.558594 96.679688 126.722656 L 59.1875 165.375 L 51.34375 157.820312 C 49.015625 155.785156 45.53125 155.785156 43.203125 157.820312 L 3.097656 195.890625 C 0.773438 198.214844 0.773438 201.703125 2.808594 204.027344 C 3.96875 205.480469 5.714844 206.0625 7.167969 206.0625 Z M 7.167969 206.0625 " fill-opacity="1" fill-rule="nonzero"/><g clip-path="url(#3405e5ad62)"><path fill="#303848" d="M 187.355469 66.5625 C 190.550781 66.5625 193.167969 63.945312 193.167969 60.75 L 193.167969 43.3125 C 193.167969 40.117188 190.550781 37.5 187.355469 37.5 C 184.15625 37.5 181.542969 40.117188 181.542969 43.3125 L 181.542969 60.75 C 181.542969 63.945312 184.15625 66.5625 187.355469 66.5625 Z M 187.355469 66.5625 " fill-opacity="1" fill-rule="nonzero"/></g><path fill="#303848" d="M 136.203125 82.257812 C 137.367188 83.417969 138.820312 83.710938 140.273438 83.710938 C 141.726562 83.710938 143.46875 83.128906 144.632812 81.964844 C 146.957031 79.640625 146.667969 75.863281 144.34375 73.828125 L 131.84375 62.203125 C 129.519531 59.878906 125.742188 60.167969 123.707031 62.492188 C 121.382812 64.820312 121.671875 68.597656 124 70.632812 Z M 136.203125 82.257812 " fill-opacity="1" fill-rule="nonzero"/><path fill="#303848" d="M 235.308594 83.710938 C 236.761719 83.710938 238.214844 83.128906 239.375 82.257812 L 251.875 70.632812 C 254.199219 68.304688 254.488281 64.820312 252.164062 62.492188 C 249.839844 60.167969 246.351562 59.878906 244.027344 62.203125 L 231.53125 73.828125 C 229.203125 76.152344 228.914062 79.640625 231.238281 81.964844 C 232.109375 83.128906 233.855469 83.710938 235.308594 83.710938 Z M 235.308594 83.710938 " fill-opacity="1" fill-rule="nonzero"/><path fill="#303848" d="M 156.839844 66.851562 C 157.710938 68.886719 160.035156 70.339844 162.070312 70.339844 C 162.941406 70.339844 163.523438 70.050781 164.394531 69.757812 C 167.300781 68.597656 168.753906 65.109375 167.300781 62.203125 L 160.617188 47.089844 C 159.164062 44.183594 155.96875 42.730469 153.0625 44.183594 C 150.15625 45.347656 148.703125 48.835938 150.15625 51.742188 Z M 156.839844 66.851562 " fill-opacity="1" fill-rule="nonzero"/><path fill="#303848" d="M 211.1875 69.757812 C 212.058594 70.050781 212.640625 70.339844 213.511719 70.339844 C 215.835938 70.339844 217.871094 69.179688 218.742188 66.851562 L 225.425781 51.742188 C 226.878906 48.835938 225.425781 45.347656 222.519531 44.183594 C 219.613281 42.730469 216.125 44.183594 214.964844 47.089844 L 208.28125 62.203125 C 207.117188 65.109375 208.28125 68.304688 211.1875 69.757812 Z M 211.1875 69.757812 " fill-opacity="1" fill-rule="nonzero"/><path fill="#303848" d="M 244.316406 99.984375 C 245.1875 102.308594 247.515625 103.761719 249.839844 103.761719 C 250.421875 103.761719 251.292969 103.761719 251.875 103.472656 L 268.148438 97.078125 C 271.054688 95.914062 272.507812 92.429688 271.34375 89.523438 C 270.183594 86.617188 266.695312 85.164062 263.789062 86.324219 L 247.515625 92.71875 C 244.609375 93.589844 243.15625 97.078125 244.316406 99.984375 Z M 244.316406 99.984375 " fill-opacity="1" fill-rule="nonzero"/><path fill="#303848" d="M 106.851562 99.113281 L 123.125 104.925781 C 123.707031 105.214844 124.578125 105.214844 125.160156 105.214844 C 127.484375 105.214844 129.8125 103.761719 130.683594 101.4375 C 131.84375 98.53125 130.101562 95.042969 127.195312 93.882812 L 110.921875 88.070312 C 108.015625 86.90625 104.527344 88.648438 103.363281 91.554688 C 102.203125 94.460938 103.945312 97.949219 106.851562 99.113281 Z M 106.851562 99.113281 " fill-opacity="1" fill-rule="nonzero"/><path fill="#303848" d="M 149.574219 124.6875 C 149.574219 104.632812 166.429688 88.359375 187.355469 88.359375 C 208.28125 88.359375 225.136719 104.632812 225.136719 124.6875 C 225.136719 127.882812 227.75 130.5 230.949219 130.5 C 234.144531 130.5 236.761719 127.882812 236.761719 124.6875 C 236.761719 98.242188 214.671875 76.734375 187.355469 76.734375 C 160.035156 76.734375 137.949219 98.242188 137.949219 124.6875 C 137.949219 127.882812 140.5625 130.5 143.761719 130.5 C 146.957031 130.5 149.574219 127.882812 149.574219 124.6875 Z M 149.574219 124.6875 " fill-opacity="1" fill-rule="nonzero"/><path fill="#303848" d="M 7.167969 229.3125 C 12.980469 229.3125 15.59375 230.476562 18.792969 231.636719 C 22.570312 233.089844 26.929688 235.125 34.777344 235.125 C 42.914062 235.125 46.984375 233.382812 50.761719 231.636719 C 53.957031 230.183594 56.574219 229.3125 62.386719 229.3125 C 68.199219 229.3125 70.8125 230.476562 74.011719 231.636719 C 77.789062 233.089844 82.148438 235.125 89.996094 235.125 C 97.84375 235.125 102.492188 233.382812 105.980469 231.636719 C 109.175781 230.183594 111.792969 229.3125 117.605469 229.3125 C 123.417969 229.3125 126.03125 230.476562 129.230469 231.636719 C 133.007812 233.089844 137.367188 235.125 145.214844 235.125 C 153.0625 235.125 157.710938 233.382812 161.199219 231.636719 C 164.394531 230.183594 167.011719 229.3125 172.824219 229.3125 C 178.636719 229.3125 181.25 230.476562 184.449219 231.636719 C 188.226562 233.089844 192.585938 235.125 200.433594 235.125 C 208.570312 235.125 212.640625 233.382812 216.417969 231.636719 C 219.613281 230.183594 222.230469 229.3125 228.042969 229.3125 C 233.855469 229.3125 236.46875 230.476562 239.667969 231.636719 C 243.445312 233.089844 247.804688 235.125 255.652344 235.125 C 263.5 235.125 268.148438 233.382812 271.636719 231.636719 C 274.832031 230.183594 277.449219 229.3125 283.261719 229.3125 C 289.074219 229.3125 291.6875 230.476562 294.886719 231.636719 C 298.664062 233.089844 303.023438 235.125 310.871094 235.125 C 319.007812 235.125 323.367188 233.382812 326.855469 231.636719 C 330.050781 230.183594 332.667969 229.3125 338.480469 229.3125 C 344.292969 229.3125 346.90625 230.476562 350.105469 231.636719 C 353.882812 233.089844 358.242188 235.125 366.089844 235.125 C 369.285156 235.125 371.902344 232.507812 371.902344 229.3125 C 371.902344 226.117188 369.285156 223.5 366.089844 223.5 C 360.277344 223.5 357.660156 222.335938 354.464844 221.175781 C 350.6875 219.722656 346.328125 217.6875 338.480469 217.6875 C 330.632812 217.6875 325.984375 219.429688 322.496094 221.175781 C 319.296875 222.628906 316.683594 223.5 310.871094 223.5 C 305.058594 223.5 302.441406 222.335938 299.246094 221.175781 C 295.46875 219.722656 291.109375 217.6875 283.261719 217.6875 C 275.125 217.6875 270.765625 219.429688 267.277344 221.175781 C 264.078125 222.628906 261.464844 223.5 255.652344 223.5 C 249.839844 223.5 247.222656 222.335938 244.027344 221.175781 C 240.25 219.722656 235.890625 217.6875 228.042969 217.6875 C 219.90625 217.6875 215.835938 219.429688 212.058594 221.175781 C 208.859375 222.628906 206.246094 223.5 200.433594 223.5 C 194.621094 223.5 192.003906 222.335938 188.808594 221.175781 C 185.902344 219.429688 181.542969 217.6875 173.40625 217.6875 C 165.265625 217.6875 160.90625 219.429688 157.421875 221.175781 C 154.222656 222.628906 151.609375 223.5 145.796875 223.5 C 139.984375 223.5 137.367188 222.335938 134.171875 221.175781 C 130.390625 219.722656 126.03125 217.6875 118.1875 217.6875 C 110.046875 217.6875 105.6875 219.429688 102.203125 221.175781 C 99.003906 222.628906 96.390625 223.5 90.578125 223.5 C 84.765625 223.5 82.148438 222.335938 78.953125 221.175781 C 75.171875 219.722656 70.8125 217.6875 62.96875 217.6875 C 54.828125 217.6875 50.761719 219.429688 46.984375 221.175781 C 43.785156 222.628906 41.171875 223.5 35.359375 223.5 C 29.546875 223.5 26.929688 222.335938 23.734375 221.175781 C 19.664062 219.429688 15.304688 217.6875 7.167969 217.6875 C 3.96875 217.6875 1.355469 220.304688 1.355469 223.5 C 1.355469 226.695312 3.96875 229.3125 7.167969 229.3125 Z M 7.167969 229.3125 " fill-opacity="1" fill-rule="nonzero"/><path fill="#303848" d="M 367.542969 246.75 C 361.730469 246.75 359.113281 245.585938 355.917969 244.425781 C 352.140625 242.972656 347.78125 240.9375 339.933594 240.9375 C 332.085938 240.9375 327.4375 242.679688 323.949219 244.425781 C 320.75 245.878906 318.136719 246.75 312.324219 246.75 C 306.511719 246.75 303.894531 245.585938 300.699219 244.425781 C 296.921875 242.972656 292.5625 240.9375 284.714844 240.9375 C 276.578125 240.9375 272.21875 242.679688 268.730469 244.425781 C 265.53125 245.878906 262.917969 246.75 257.105469 246.75 C 251.292969 246.75 248.675781 245.585938 245.480469 244.425781 C 241.703125 242.972656 237.34375 240.9375 229.496094 240.9375 C 221.359375 240.9375 217.289062 242.679688 213.511719 244.425781 C 210.3125 245.878906 207.699219 246.75 201.886719 246.75 C 196.074219 246.75 193.457031 245.585938 190.261719 244.425781 C 185.902344 242.679688 181.542969 240.9375 173.40625 240.9375 C 165.265625 240.9375 160.90625 242.679688 157.421875 244.425781 C 154.222656 245.878906 151.609375 246.75 145.796875 246.75 C 139.984375 246.75 137.367188 245.585938 134.171875 244.425781 C 130.390625 242.972656 126.03125 240.9375 118.1875 240.9375 C 110.046875 240.9375 105.6875 242.679688 102.203125 244.425781 C 99.003906 245.878906 96.390625 246.75 90.578125 246.75 C 84.765625 246.75 82.148438 245.585938 78.953125 244.425781 C 75.171875 242.972656 70.8125 240.9375 62.96875 240.9375 C 54.828125 240.9375 50.761719 242.679688 46.984375 244.425781 C 43.785156 245.878906 41.171875 246.75 35.359375 246.75 C 29.546875 246.75 26.929688 245.585938 23.734375 244.425781 C 19.664062 242.679688 15.304688 240.9375 7.167969 240.9375 C 3.96875 240.9375 1.355469 243.554688 1.355469 246.75 C 1.355469 249.945312 3.96875 252.5625 7.167969 252.5625 C 12.980469 252.5625 15.59375 253.726562 18.792969 254.886719 C 22.570312 256.339844 26.929688 258.375 34.777344 258.375 C 42.914062 258.375 46.984375 256.632812 50.761719 254.886719 C 53.957031 253.433594 56.574219 252.5625 62.386719 252.5625 C 68.199219 252.5625 70.8125 253.726562 74.011719 254.886719 C 77.789062 256.339844 82.148438 258.375 89.996094 258.375 C 97.84375 258.375 102.492188 256.632812 105.980469 254.886719 C 109.175781 253.433594 111.792969 252.5625 117.605469 252.5625 C 123.417969 252.5625 126.03125 253.726562 129.230469 254.886719 C 133.007812 256.339844 137.367188 258.375 145.214844 258.375 C 153.0625 258.375 157.710938 256.632812 161.199219 254.886719 C 164.394531 253.433594 167.011719 252.5625 172.824219 252.5625 C 178.636719 252.5625 181.25 253.726562 184.449219 254.886719 C 188.226562 256.339844 192.585938 258.375 200.433594 258.375 C 208.570312 258.375 212.640625 256.632812 216.417969 254.886719 C 219.613281 253.433594 222.230469 252.5625 228.042969 252.5625 C 233.855469 252.5625 236.46875 253.726562 239.667969 254.886719 C 243.445312 256.339844 247.804688 258.375 255.652344 258.375 C 263.5 258.375 268.148438 256.632812 271.636719 254.886719 C 274.832031 253.433594 277.449219 252.5625 283.261719 252.5625 C 289.074219 252.5625 291.6875 253.726562 294.886719 254.886719 C 298.664062 256.339844 303.023438 258.375 310.871094 258.375 C 319.007812 258.375 323.367188 256.632812 326.855469 254.886719 C 330.050781 253.433594 332.667969 252.5625 338.480469 252.5625 C 344.292969 252.5625 346.90625 253.726562 350.105469 254.886719 C 353.882812 256.339844 358.242188 258.375 366.089844 258.375 C 369.285156 258.375 371.902344 255.757812 371.902344 252.5625 C 371.902344 249.367188 370.738281 246.75 367.542969 246.75 Z M 367.542969 246.75 " fill-opacity="1" fill-rule="nonzero"/><path fill="#303848" d="M 367.542969 270 C 361.730469 270 359.113281 268.835938 355.917969 267.675781 C 352.140625 266.222656 347.78125 264.1875 339.933594 264.1875 C 332.085938 264.1875 327.4375 265.929688 323.949219 267.675781 C 320.75 269.128906 318.136719 270 312.324219 270 C 306.511719 270 303.894531 268.835938 300.699219 267.675781 C 296.921875 266.222656 292.5625 264.1875 284.714844 264.1875 C 276.578125 264.1875 272.21875 265.929688 268.730469 267.675781 C 265.53125 269.128906 262.917969 270 257.105469 270 C 251.292969 270 248.675781 268.835938 245.480469 267.675781 C 241.703125 266.222656 237.34375 264.1875 229.496094 264.1875 C 221.359375 264.1875 217.289062 265.929688 213.511719 267.675781 C 210.3125 269.128906 207.699219 270 201.886719 270 C 196.074219 270 193.457031 268.835938 190.261719 267.675781 C 185.902344 265.929688 181.542969 264.1875 173.40625 264.1875 C 165.265625 264.1875 160.90625 265.929688 157.421875 267.675781 C 154.222656 269.128906 151.609375 270 145.796875 270 C 139.984375 270 137.367188 268.835938 134.171875 267.675781 C 130.390625 266.222656 126.03125 264.1875 118.1875 264.1875 C 110.046875 264.1875 105.6875 265.929688 102.203125 267.675781 C 99.003906 269.128906 96.390625 270 90.578125 270 C 84.765625 270 82.148438 268.835938 78.953125 267.675781 C 75.171875 266.222656 70.8125 264.1875 62.96875 264.1875 C 54.828125 264.1875 50.761719 265.929688 46.984375 267.675781 C 43.785156 269.128906 41.171875 270 35.359375 270 C 29.546875 270 26.929688 268.835938 23.734375 267.675781 C 19.664062 265.929688 15.304688 264.1875 7.167969 264.1875 C 3.96875 264.1875 1.355469 266.804688 1.355469 270 C 1.355469 273.195312 3.96875 275.8125 7.167969 275.8125 C 12.980469 275.8125 15.59375 276.976562 18.792969 278.136719 C 22.570312 279.589844 26.929688 281.625 34.777344 281.625 C 42.914062 281.625 46.984375 279.882812 50.761719 278.136719 C 53.957031 276.683594 56.574219 275.8125 62.386719 275.8125 C 68.199219 275.8125 70.8125 276.976562 74.011719 278.136719 C 77.789062 279.589844 82.148438 281.625 89.996094 281.625 C 97.84375 281.625 102.492188 279.882812 105.980469 278.136719 C 109.175781 276.683594 111.792969 275.8125 117.605469 275.8125 C 123.417969 275.8125 126.03125 276.976562 129.230469 278.136719 C 133.007812 279.589844 137.367188 281.625 145.214844 281.625 C 153.0625 281.625 157.710938 279.882812 161.199219 278.136719 C 164.394531 276.683594 167.011719 275.8125 172.824219 275.8125 C 178.636719 275.8125 181.25 276.976562 184.449219 278.136719 C 188.226562 279.589844 192.585938 281.625 200.433594 281.625 C 208.570312 281.625 212.640625 279.882812 216.417969 278.136719 C 219.613281 276.683594 222.230469 275.8125 228.042969 275.8125 C 233.855469 275.8125 236.46875 276.976562 239.667969 278.136719 C 243.445312 279.589844 247.804688 281.625 255.652344 281.625 C 263.5 281.625 268.148438 279.882812 271.636719 278.136719 C 274.832031 276.683594 277.449219 275.8125 283.261719 275.8125 C 289.074219 275.8125 291.6875 276.976562 294.886719 278.136719 C 298.664062 279.589844 303.023438 281.625 310.871094 281.625 C 319.007812 281.625 323.367188 279.882812 326.855469 278.136719 C 330.050781 276.683594 332.667969 275.8125 338.480469 275.8125 C 344.292969 275.8125 346.90625 276.976562 350.105469 278.136719 C 353.882812 279.589844 358.242188 281.625 366.089844 281.625 C 369.285156 281.625 371.902344 279.007812 371.902344 275.8125 C 371.902344 272.617188 370.738281 270 367.542969 270 Z M 367.542969 270 " fill-opacity="1" fill-rule="nonzero"/><path fill="#303848" d="M 26.929688 135.148438 C 29.253906 137.183594 33.03125 136.601562 35.066406 134.277344 C 38.554688 129.917969 46.691406 128.464844 49.597656 128.464844 C 52.503906 128.464844 54.828125 126.140625 55.121094 123.234375 C 55.703125 118.003906 57.734375 114.515625 61.804688 113.0625 C 64.710938 111.898438 66.164062 108.414062 65 105.507812 C 63.839844 102.601562 60.351562 101.148438 57.445312 102.308594 C 50.761719 104.925781 46.109375 110.445312 44.078125 117.710938 C 38.84375 118.585938 31 121.199219 25.765625 127.304688 C 23.734375 129.335938 24.3125 133.117188 26.929688 135.148438 Z M 26.929688 135.148438 " fill-opacity="1" fill-rule="nonzero"/><path fill="#303848" d="M 313.195312 112.773438 C 317.265625 114.515625 319.589844 117.710938 319.878906 122.945312 C 320.171875 125.851562 322.496094 128.175781 325.402344 128.175781 C 328.308594 128.175781 336.15625 129.628906 339.933594 133.988281 C 341.96875 136.3125 345.746094 136.894531 348.070312 134.859375 C 350.6875 132.824219 350.976562 129.335938 348.941406 126.722656 C 344 120.328125 335.863281 118.003906 330.632812 117.132812 C 328.890625 109.867188 324.238281 104.632812 317.265625 101.726562 C 314.359375 100.566406 310.871094 102.019531 309.707031 104.925781 C 308.546875 108.121094 310 111.320312 313.195312 112.773438 Z M 313.195312 112.773438 " fill-opacity="1" fill-rule="nonzero"/><path fill="#303848" d="M 118.1875 174.382812 C 115.859375 172.351562 112.375 172.640625 110.339844 174.964844 L 96.097656 189.789062 C 93.773438 192.113281 94.0625 195.890625 96.097656 197.925781 C 98.421875 200.25 102.203125 200.25 104.234375 197.925781 L 114.988281 186.882812 L 118.1875 189.496094 C 120.511719 191.53125 124 191.242188 126.03125 189.207031 L 147.25 167.699219 L 183.285156 199.085938 C 184.449219 199.667969 185.902344 200.25 187.355469 200.25 C 188.808594 200.25 190.261719 199.667969 191.132812 198.796875 L 227.171875 167.410156 L 248.386719 188.914062 C 250.421875 190.949219 253.90625 191.242188 256.234375 189.207031 L 259.429688 186.589844 L 270.183594 197.632812 C 272.507812 199.960938 275.996094 199.960938 278.320312 197.632812 C 280.644531 195.308594 280.644531 191.820312 278.320312 189.496094 L 264.078125 174.675781 C 262.046875 172.640625 258.558594 172.351562 256.234375 174.09375 L 253.035156 176.710938 L 231.53125 154.914062 C 229.496094 152.585938 226.007812 152.585938 223.683594 154.621094 L 187.355469 186.882812 L 150.734375 155.203125 C 148.410156 153.167969 144.921875 153.460938 142.890625 155.492188 L 121.382812 177.289062 Z M 118.1875 174.382812 " fill-opacity="1" fill-rule="nonzero"/><path fill="#303848" d="M 367.542969 293.25 C 361.730469 293.25 359.113281 292.085938 355.917969 290.925781 C 352.140625 289.472656 347.78125 287.4375 339.933594 287.4375 C 332.085938 287.4375 327.4375 289.179688 323.949219 290.925781 C 320.75 292.378906 318.136719 293.25 312.324219 293.25 C 306.511719 293.25 303.894531 292.085938 300.699219 290.925781 C 296.921875 289.472656 292.5625 287.4375 284.714844 287.4375 C 276.578125 287.4375 272.21875 289.179688 268.730469 290.925781 C 265.53125 292.378906 262.917969 293.25 257.105469 293.25 C 251.292969 293.25 248.675781 292.085938 245.480469 290.925781 C 241.703125 289.472656 237.34375 287.4375 229.496094 287.4375 C 221.359375 287.4375 217.289062 289.179688 213.511719 290.925781 C 210.3125 292.378906 207.699219 293.25 201.886719 293.25 C 196.074219 293.25 193.457031 292.085938 190.261719 290.925781 C 186.484375 289.472656 182.125 287.4375 174.277344 287.4375 C 166.140625 287.4375 161.78125 289.179688 158.292969 290.925781 C 155.09375 292.378906 152.480469 293.25 146.667969 293.25 C 140.855469 293.25 138.238281 292.085938 135.042969 290.925781 C 131.265625 289.472656 126.90625 287.4375 119.058594 287.4375 C 110.921875 287.4375 106.5625 289.179688 103.074219 290.925781 C 99.875 292.378906 97.261719 293.25 91.449219 293.25 C 85.636719 293.25 83.019531 292.085938 79.824219 290.925781 C 76.046875 289.472656 71.6875 287.4375 63.839844 287.4375 C 55.703125 287.4375 51.632812 289.179688 47.855469 290.925781 C 44.65625 292.378906 42.042969 293.25 36.230469 293.25 C 30.417969 293.25 27.800781 292.085938 24.605469 290.925781 C 19.664062 289.179688 15.304688 287.4375 7.167969 287.4375 C 3.96875 287.4375 1.355469 290.054688 1.355469 293.25 C 1.355469 296.445312 3.96875 299.0625 7.167969 299.0625 C 12.980469 299.0625 15.59375 300.226562 18.792969 301.386719 C 22.570312 302.839844 26.929688 304.875 34.777344 304.875 C 42.914062 304.875 46.984375 303.132812 50.761719 301.386719 C 53.957031 299.933594 56.574219 299.0625 62.386719 299.0625 C 68.199219 299.0625 70.8125 300.226562 74.011719 301.386719 C 77.789062 302.839844 82.148438 304.875 89.996094 304.875 C 97.84375 304.875 102.492188 303.132812 105.980469 301.386719 C 109.175781 299.933594 111.792969 299.0625 117.605469 299.0625 C 123.417969 299.0625 126.03125 300.226562 129.230469 301.386719 C 133.007812 302.839844 137.367188 304.875 145.214844 304.875 C 153.0625 304.875 157.710938 303.132812 161.199219 301.386719 C 164.394531 299.933594 167.011719 299.0625 172.824219 299.0625 C 178.636719 299.0625 181.25 300.226562 184.449219 301.386719 C 188.226562 302.839844 192.585938 304.875 200.433594 304.875 C 208.570312 304.875 212.640625 303.132812 216.417969 301.386719 C 219.613281 299.933594 222.230469 299.0625 228.042969 299.0625 C 233.855469 299.0625 236.46875 300.226562 239.667969 301.386719 C 243.445312 302.839844 247.804688 304.875 255.652344 304.875 C 263.5 304.875 268.148438 303.132812 271.636719 301.386719 C 274.832031 299.933594 277.449219 299.0625 283.261719 299.0625 C 289.074219 299.0625 291.6875 300.226562 294.886719 301.386719 C 298.664062 302.839844 303.023438 304.875 310.871094 304.875 C 319.007812 304.875 323.367188 303.132812 326.855469 301.386719 C 330.050781 299.933594 332.667969 299.0625 338.480469 299.0625 C 344.292969 299.0625 346.90625 300.226562 350.105469 301.386719 C 353.882812 302.839844 358.242188 304.875 366.089844 304.875 C 369.285156 304.875 371.902344 302.257812 371.902344 299.0625 C 371.902344 295.867188 370.738281 293.25 367.542969 293.25 Z M 367.542969 293.25 " fill-opacity="1" fill-rule="nonzero"/><g clip-path="url(#239d96ce81)"><path fill="#303848" d="M 367.542969 316.5 C 361.730469 316.5 359.113281 315.335938 355.917969 314.175781 C 352.140625 312.722656 347.78125 310.6875 339.933594 310.6875 C 332.085938 310.6875 327.4375 312.429688 323.949219 314.175781 C 320.75 315.628906 318.136719 316.5 312.324219 316.5 C 306.511719 316.5 303.894531 315.335938 300.699219 314.175781 C 296.921875 312.722656 292.5625 310.6875 284.714844 310.6875 C 276.578125 310.6875 272.21875 312.429688 268.730469 314.175781 C 265.53125 315.628906 262.917969 316.5 257.105469 316.5 C 251.292969 316.5 248.675781 315.335938 245.480469 314.175781 C 241.703125 312.722656 237.34375 310.6875 229.496094 310.6875 C 221.359375 310.6875 217.289062 312.429688 213.511719 314.175781 C 210.3125 315.628906 207.699219 316.5 201.886719 316.5 C 196.074219 316.5 193.457031 315.335938 190.261719 314.175781 C 186.484375 312.722656 182.125 310.6875 174.277344 310.6875 C 166.140625 310.6875 161.78125 312.429688 158.292969 314.175781 C 155.09375 315.628906 152.480469 316.5 146.667969 316.5 C 140.855469 316.5 138.238281 315.335938 135.042969 314.175781 C 131.265625 312.722656 126.90625 310.6875 119.058594 310.6875 C 110.921875 310.6875 106.5625 312.429688 103.074219 314.175781 C 99.875 315.628906 97.261719 316.5 91.449219 316.5 C 85.636719 316.5 83.019531 315.335938 79.824219 314.175781 C 76.046875 312.722656 71.6875 310.6875 63.839844 310.6875 C 55.703125 310.6875 51.632812 312.429688 47.855469 314.175781 C 44.65625 315.628906 42.042969 316.5 36.230469 316.5 C 30.417969 316.5 27.800781 315.335938 24.605469 314.175781 C 19.664062 312.429688 15.304688 310.6875 7.167969 310.6875 C 3.96875 310.6875 1.355469 313.304688 1.355469 316.5 C 1.355469 319.695312 3.96875 322.3125 7.167969 322.3125 C 12.980469 322.3125 15.59375 323.476562 18.792969 324.636719 C 22.570312 326.089844 26.929688 328.125 34.777344 328.125 C 42.914062 328.125 46.984375 326.382812 50.761719 324.636719 C 53.957031 323.183594 56.574219 322.3125 62.386719 322.3125 C 68.199219 322.3125 70.8125 323.476562 74.011719 324.636719 C 77.789062 326.089844 82.148438 328.125 89.996094 328.125 C 97.84375 328.125 102.492188 326.382812 105.980469 324.636719 C 109.175781 323.183594 111.792969 322.3125 117.605469 322.3125 C 123.417969 322.3125 126.03125 323.476562 129.230469 324.636719 C 133.007812 326.089844 137.367188 328.125 145.214844 328.125 C 153.0625 328.125 157.710938 326.382812 161.199219 324.636719 C 164.394531 323.183594 167.011719 322.3125 172.824219 322.3125 C 178.636719 322.3125 181.25 323.476562 184.449219 324.636719 C 188.226562 326.089844 192.585938 328.125 200.433594 328.125 C 208.570312 328.125 212.640625 326.382812 216.417969 324.636719 C 219.613281 323.183594 222.230469 322.3125 228.042969 322.3125 C 233.855469 322.3125 236.46875 323.476562 239.667969 324.636719 C 243.445312 326.089844 247.804688 328.125 255.652344 328.125 C 263.5 328.125 268.148438 326.382812 271.636719 324.636719 C 274.832031 323.183594 277.449219 322.3125 283.261719 322.3125 C 289.074219 322.3125 291.6875 323.476562 294.886719 324.636719 C 298.664062 326.089844 303.023438 328.125 310.871094 328.125 C 319.007812 328.125 323.367188 326.382812 326.855469 324.636719 C 330.050781 323.183594 332.667969 322.3125 338.480469 322.3125 C 344.292969 322.3125 346.90625 323.476562 350.105469 324.636719 C 353.882812 326.089844 358.242188 328.125 366.089844 328.125 C 369.285156 328.125 371.902344 325.507812 371.902344 322.3125 C 371.902344 319.117188 370.738281 316.5 367.542969 316.5 Z M 367.542969 316.5 " fill-opacity="1" fill-rule="nonzero"/></g><path fill="#303848" d="M 244.316406 151.425781 L 252.453125 159.5625 L 273.671875 138.636719 L 311.160156 177.582031 C 312.324219 178.742188 313.777344 179.324219 315.230469 179.324219 C 316.683594 179.324219 318.136719 178.742188 319.296875 177.582031 L 327.4375 169.734375 L 363.472656 204.027344 C 364.636719 205.191406 366.089844 205.480469 367.542969 205.480469 C 368.996094 205.480469 370.738281 204.898438 371.902344 203.738281 C 374.226562 201.414062 373.9375 197.632812 371.609375 195.601562 L 331.503906 157.527344 C 329.179688 155.492188 325.691406 155.492188 323.367188 157.527344 L 315.519531 165.085938 L 278.03125 126.429688 C 276.867188 125.269531 275.414062 124.6875 273.960938 124.6875 C 272.507812 124.6875 271.054688 125.269531 269.890625 126.429688 Z M 244.316406 151.425781 " fill-opacity="1" fill-rule="nonzero"/></svg>