<svg xmlns="http://www.w3.org/2000/svg" xmlns:xlink="http://www.w3.org/1999/xlink" width="500" zoomAndPan="magnify" viewBox="0 0 375 374.999991" height="500" preserveAspectRatio="xMidYMid meet" version="1.0"><defs><clipPath id="e24ad72242"><path d="M 120 247 L 256 247 L 256 360 L 120 360 Z M 120 247 " clip-rule="nonzero"/></clipPath></defs><path fill="#303848" d="M 165 52.5 C 165 53.726562 164.941406 54.953125 164.820312 56.175781 C 164.699219 57.398438 164.519531 58.609375 164.28125 59.816406 C 164.039062 61.019531 163.742188 62.210938 163.386719 63.386719 C 163.027344 64.5625 162.617188 65.714844 162.144531 66.851562 C 161.675781 67.984375 161.152344 69.09375 160.570312 70.175781 C 159.992188 71.261719 159.363281 72.3125 158.679688 73.332031 C 157.996094 74.355469 157.265625 75.339844 156.488281 76.289062 C 155.707031 77.238281 154.886719 78.148438 154.015625 79.015625 C 153.148438 79.886719 152.238281 80.707031 151.289062 81.488281 C 150.339844 82.265625 149.355469 82.996094 148.332031 83.679688 C 147.3125 84.363281 146.261719 84.992188 145.175781 85.570312 C 144.09375 86.152344 142.984375 86.675781 141.851562 87.144531 C 140.714844 87.617188 139.5625 88.027344 138.386719 88.386719 C 137.210938 88.742188 136.019531 89.039062 134.816406 89.28125 C 133.609375 89.519531 132.398438 89.699219 131.175781 89.820312 C 129.953125 89.941406 128.726562 90 127.5 90 C 126.273438 90 125.046875 89.941406 123.824219 89.820312 C 122.601562 89.699219 121.386719 89.519531 120.183594 89.28125 C 118.980469 89.039062 117.789062 88.742188 116.613281 88.386719 C 115.4375 88.027344 114.285156 87.617188 113.148438 87.144531 C 112.015625 86.675781 110.90625 86.152344 109.824219 85.570312 C 108.738281 84.992188 107.6875 84.363281 106.667969 83.679688 C 105.644531 82.996094 104.660156 82.265625 103.710938 81.488281 C 102.761719 80.707031 101.851562 79.886719 100.984375 79.015625 C 100.113281 78.148438 99.292969 77.238281 98.511719 76.289062 C 97.734375 75.339844 97.003906 74.355469 96.320312 73.332031 C 95.636719 72.3125 95.007812 71.261719 94.429688 70.175781 C 93.847656 69.09375 93.324219 67.984375 92.855469 66.851562 C 92.382812 65.714844 91.972656 64.5625 91.613281 63.386719 C 91.257812 62.210938 90.960938 61.019531 90.71875 59.816406 C 90.480469 58.609375 90.300781 57.398438 90.179688 56.175781 C 90.058594 54.953125 90 53.726562 90 52.5 C 90 51.273438 90.058594 50.046875 90.179688 48.824219 C 90.300781 47.601562 90.480469 46.390625 90.71875 45.183594 C 90.960938 43.980469 91.257812 42.789062 91.613281 41.613281 C 91.972656 40.4375 92.382812 39.285156 92.855469 38.148438 C 93.324219 37.015625 93.847656 35.90625 94.429688 34.824219 C 95.007812 33.738281 95.636719 32.6875 96.320312 31.667969 C 97.003906 30.644531 97.734375 29.660156 98.511719 28.710938 C 99.292969 27.761719 100.113281 26.851562 100.984375 25.984375 C 101.851562 25.113281 102.761719 24.292969 103.710938 23.511719 C 104.660156 22.734375 105.644531 22.003906 106.667969 21.320312 C 107.6875 20.636719 108.738281 20.007812 109.824219 19.429688 C 110.90625 18.847656 112.015625 18.324219 113.148438 17.855469 C 114.285156 17.382812 115.4375 16.972656 116.613281 16.613281 C 117.789062 16.257812 118.980469 15.960938 120.183594 15.71875 C 121.386719 15.480469 122.601562 15.300781 123.824219 15.179688 C 125.046875 15.058594 126.273438 15 127.5 15 C 128.726562 15 129.953125 15.058594 131.175781 15.179688 C 132.398438 15.300781 133.609375 15.480469 134.816406 15.71875 C 136.019531 15.960938 137.210938 16.257812 138.386719 16.613281 C 139.5625 16.972656 140.714844 17.382812 141.851562 17.855469 C 142.984375 18.324219 144.09375 18.847656 145.175781 19.429688 C 146.261719 20.007812 147.3125 20.636719 148.332031 21.320312 C 149.355469 22.003906 150.339844 22.734375 151.289062 23.511719 C 152.238281 24.292969 153.148438 25.113281 154.015625 25.984375 C 154.886719 26.851562 155.707031 27.761719 156.488281 28.710938 C 157.265625 29.660156 157.996094 30.644531 158.679688 31.667969 C 159.363281 32.6875 159.992188 33.738281 160.570312 34.824219 C 161.152344 35.90625 161.675781 37.015625 162.144531 38.148438 C 162.617188 39.285156 163.027344 40.4375 163.386719 41.613281 C 163.742188 42.789062 164.039062 43.980469 164.28125 45.183594 C 164.519531 46.390625 164.699219 47.601562 164.820312 48.824219 C 164.941406 50.046875 165 51.273438 165 52.5 Z M 165 52.5 " fill-opacity="1" fill-rule="nonzero"/><path fill="#303848" d="M 283.5 52.5 C 283.5 53.726562 283.441406 54.953125 283.320312 56.175781 C 283.199219 57.398438 283.019531 58.609375 282.78125 59.816406 C 282.539062 61.019531 282.242188 62.210938 281.886719 63.386719 C 281.527344 64.5625 281.117188 65.714844 280.644531 66.851562 C 280.175781 67.984375 279.652344 69.09375 279.070312 70.175781 C 278.492188 71.261719 277.863281 72.3125 277.179688 73.332031 C 276.496094 74.355469 275.765625 75.339844 274.988281 76.289062 C 274.207031 77.238281 273.386719 78.148438 272.515625 79.015625 C 271.648438 79.886719 270.738281 80.707031 269.789062 81.488281 C 268.839844 82.265625 267.855469 82.996094 266.832031 83.679688 C 265.8125 84.363281 264.761719 84.992188 263.675781 85.570312 C 262.59375 86.152344 261.484375 86.675781 260.351562 87.144531 C 259.214844 87.617188 258.0625 88.027344 256.886719 88.386719 C 255.710938 88.742188 254.519531 89.039062 253.316406 89.28125 C 252.109375 89.519531 250.898438 89.699219 249.675781 89.820312 C 248.453125 89.941406 247.226562 90 246 90 C 244.773438 90 243.546875 89.941406 242.324219 89.820312 C 241.101562 89.699219 239.886719 89.519531 238.683594 89.28125 C 237.480469 89.039062 236.289062 88.742188 235.113281 88.386719 C 233.9375 88.027344 232.785156 87.617188 231.648438 87.144531 C 230.515625 86.675781 229.40625 86.152344 228.324219 85.570312 C 227.238281 84.992188 226.1875 84.363281 225.167969 83.679688 C 224.144531 82.996094 223.160156 82.265625 222.210938 81.488281 C 221.261719 80.707031 220.351562 79.886719 219.484375 79.015625 C 218.613281 78.148438 217.792969 77.238281 217.011719 76.289062 C 216.234375 75.339844 215.503906 74.355469 214.820312 73.332031 C 214.136719 72.3125 213.507812 71.261719 212.929688 70.175781 C 212.347656 69.09375 211.824219 67.984375 211.355469 66.851562 C 210.882812 65.714844 210.472656 64.5625 210.113281 63.386719 C 209.757812 62.210938 209.460938 61.019531 209.21875 59.816406 C 208.980469 58.609375 208.800781 57.398438 208.679688 56.175781 C 208.558594 54.953125 208.5 53.726562 208.5 52.5 C 208.5 51.273438 208.558594 50.046875 208.679688 48.824219 C 208.800781 47.601562 208.980469 46.390625 209.21875 45.183594 C 209.460938 43.980469 209.757812 42.789062 210.113281 41.613281 C 210.472656 40.4375 210.882812 39.285156 211.355469 38.148438 C 211.824219 37.015625 212.347656 35.90625 212.929688 34.824219 C 213.507812 33.738281 214.136719 32.6875 214.820312 31.667969 C 215.503906 30.644531 216.234375 29.660156 217.011719 28.710938 C 217.792969 27.761719 218.613281 26.851562 219.484375 25.984375 C 220.351562 25.113281 221.261719 24.292969 222.210938 23.511719 C 223.160156 22.734375 224.144531 22.003906 225.167969 21.320312 C 226.1875 20.636719 227.238281 20.007812 228.324219 19.429688 C 229.40625 18.847656 230.515625 18.324219 231.648438 17.855469 C 232.785156 17.382812 233.9375 16.972656 235.113281 16.613281 C 236.289062 16.257812 237.480469 15.960938 238.683594 15.71875 C 239.886719 15.480469 241.101562 15.300781 242.324219 15.179688 C 243.546875 15.058594 244.773438 15 246 15 C 247.226562 15 248.453125 15.058594 249.675781 15.179688 C 250.898438 15.300781 252.109375 15.480469 253.316406 15.71875 C 254.519531 15.960938 255.710938 16.257812 256.886719 16.613281 C 258.0625 16.972656 259.214844 17.382812 260.351562 17.855469 C 261.484375 18.324219 262.59375 18.847656 263.675781 19.429688 C 264.761719 20.007812 265.8125 20.636719 266.832031 21.320312 C 267.855469 22.003906 268.839844 22.734375 269.789062 23.511719 C 270.738281 24.292969 271.648438 25.113281 272.515625 25.984375 C 273.386719 26.851562 274.207031 27.761719 274.988281 28.710938 C 275.765625 29.660156 276.496094 30.644531 277.179688 31.667969 C 277.863281 32.6875 278.492188 33.738281 279.070312 34.824219 C 279.652344 35.90625 280.175781 37.015625 280.644531 38.148438 C 281.117188 39.285156 281.527344 40.4375 281.886719 41.613281 C 282.242188 42.789062 282.539062 43.980469 282.78125 45.183594 C 283.019531 46.390625 283.199219 47.601562 283.320312 48.824219 C 283.441406 50.046875 283.5 51.273438 283.5 52.5 Z M 283.5 52.5 " fill-opacity="1" fill-rule="nonzero"/><path fill="#303848" d="M 232.703125 195.203125 C 232.703125 196.675781 232.628906 198.148438 232.484375 199.613281 C 232.339844 201.078125 232.125 202.535156 231.835938 203.980469 C 231.550781 205.425781 231.191406 206.855469 230.765625 208.265625 C 230.335938 209.675781 229.839844 211.0625 229.277344 212.421875 C 228.714844 213.785156 228.082031 215.117188 227.390625 216.414062 C 226.695312 217.714844 225.9375 218.976562 225.117188 220.203125 C 224.300781 221.429688 223.421875 222.609375 222.488281 223.75 C 221.554688 224.890625 220.5625 225.980469 219.523438 227.023438 C 218.480469 228.0625 217.390625 229.054688 216.25 229.988281 C 215.109375 230.921875 213.929688 231.800781 212.703125 232.617188 C 211.476562 233.4375 210.214844 234.195312 208.914062 234.890625 C 207.617188 235.582031 206.285156 236.214844 204.921875 236.777344 C 203.5625 237.339844 202.175781 237.835938 200.765625 238.265625 C 199.355469 238.691406 197.925781 239.050781 196.480469 239.335938 C 195.035156 239.625 193.578125 239.839844 192.113281 239.984375 C 190.648438 240.128906 189.175781 240.203125 187.703125 240.203125 C 186.230469 240.203125 184.757812 240.128906 183.292969 239.984375 C 181.824219 239.839844 180.367188 239.625 178.921875 239.335938 C 177.476562 239.050781 176.050781 238.691406 174.640625 238.265625 C 173.230469 237.835938 171.84375 237.339844 170.480469 236.777344 C 169.121094 236.214844 167.789062 235.582031 166.488281 234.890625 C 165.191406 234.195312 163.925781 233.4375 162.703125 232.617188 C 161.476562 231.800781 160.292969 230.921875 159.15625 229.988281 C 158.015625 229.054688 156.925781 228.0625 155.882812 227.023438 C 154.839844 225.980469 153.851562 224.890625 152.917969 223.75 C 151.980469 222.609375 151.105469 221.429688 150.285156 220.203125 C 149.46875 218.976562 148.710938 217.714844 148.015625 216.414062 C 147.320312 215.117188 146.691406 213.785156 146.128906 212.421875 C 145.5625 211.0625 145.066406 209.675781 144.640625 208.265625 C 144.210938 206.855469 143.855469 205.425781 143.566406 203.980469 C 143.28125 202.535156 143.0625 201.078125 142.917969 199.613281 C 142.773438 198.148438 142.703125 196.675781 142.703125 195.203125 C 142.703125 193.730469 142.773438 192.257812 142.917969 190.792969 C 143.0625 189.324219 143.28125 187.867188 143.566406 186.421875 C 143.855469 184.976562 144.210938 183.550781 144.640625 182.140625 C 145.066406 180.730469 145.5625 179.34375 146.128906 177.980469 C 146.691406 176.621094 147.320312 175.289062 148.015625 173.988281 C 148.710938 172.691406 149.46875 171.425781 150.285156 170.203125 C 151.105469 168.976562 151.980469 167.792969 152.917969 166.65625 C 153.851562 165.515625 154.839844 164.425781 155.882812 163.382812 C 156.925781 162.339844 158.015625 161.351562 159.15625 160.417969 C 160.292969 159.480469 161.476562 158.605469 162.703125 157.785156 C 163.925781 156.96875 165.191406 156.210938 166.488281 155.515625 C 167.789062 154.820312 169.121094 154.191406 170.480469 153.628906 C 171.84375 153.0625 173.230469 152.566406 174.640625 152.140625 C 176.050781 151.710938 177.476562 151.355469 178.921875 151.066406 C 180.367188 150.78125 181.824219 150.5625 183.292969 150.417969 C 184.757812 150.273438 186.230469 150.203125 187.703125 150.203125 C 189.175781 150.203125 190.648438 150.273438 192.113281 150.417969 C 193.578125 150.5625 195.035156 150.78125 196.480469 151.066406 C 197.925781 151.355469 199.355469 151.710938 200.765625 152.140625 C 202.175781 152.566406 203.5625 153.0625 204.921875 153.628906 C 206.285156 154.191406 207.617188 154.820312 208.914062 155.515625 C 210.214844 156.210938 211.476562 156.96875 212.703125 157.785156 C 213.929688 158.605469 215.109375 159.480469 216.25 160.417969 C 217.390625 161.351562 218.480469 162.339844 219.523438 163.382812 C 220.5625 164.425781 221.554688 165.515625 222.488281 166.65625 C 223.421875 167.792969 224.300781 168.976562 225.117188 170.203125 C 225.9375 171.425781 226.695312 172.691406 227.390625 173.988281 C 228.082031 175.289062 228.714844 176.621094 229.277344 177.980469 C 229.839844 179.34375 230.335938 180.730469 230.765625 182.140625 C 231.191406 183.550781 231.550781 184.976562 231.835938 186.421875 C 232.125 187.867188 232.339844 189.324219 232.484375 190.792969 C 232.628906 192.257812 232.703125 193.730469 232.703125 195.203125 Z M 232.703125 195.203125 " fill-opacity="1" fill-rule="nonzero"/><g clip-path="url(#e24ad72242)"><path fill="#303848" d="M 187.703125 360.203125 C 141.53125 360.203125 124.941406 348.757812 123.203125 347.453125 C 121.3125 346.042969 120.203125 343.816406 120.203125 341.453125 L 120.203125 315.203125 C 120.203125 277.980469 150.488281 247.703125 187.703125 247.703125 C 224.925781 247.703125 255.203125 277.980469 255.203125 315.203125 L 255.203125 341.453125 C 255.203125 343.808594 254.09375 346.035156 252.203125 347.453125 C 250.46875 348.757812 233.871094 360.203125 187.703125 360.203125 Z M 187.703125 360.203125 " fill-opacity="1" fill-rule="nonzero"/></g><path fill="#303848" d="M 132.921875 253.6875 C 125.601562 224.339844 99.082031 202.5 67.5 202.5 C 30.285156 202.5 0 232.777344 0 270 L 0 296.25 C 0 298.605469 1.109375 300.832031 3 302.25 C 4.738281 303.554688 21.328125 315 67.5 315 C 83.496094 315 95.871094 313.613281 105.382812 311.761719 C 106.335938 288.699219 116.765625 268.085938 132.921875 253.6875 Z M 132.921875 253.6875 " fill-opacity="1" fill-rule="nonzero"/><path fill="#303848" d="M 307.5 202.5 C 276.023438 202.5 249.585938 224.191406 242.152344 253.386719 C 258.515625 267.816406 269.09375 288.585938 270.039062 311.84375 C 279.496094 313.648438 291.734375 315 307.5 315 C 353.664062 315 370.261719 303.554688 372 302.25 C 373.890625 300.839844 375 298.613281 375 296.25 L 375 270 C 375 232.777344 344.722656 202.5 307.5 202.5 Z M 307.5 202.5 " fill-opacity="1" fill-rule="nonzero"/><path fill="#303848" d="M 352.703125 150.203125 C 352.703125 151.675781 352.628906 153.148438 352.484375 154.613281 C 352.339844 156.078125 352.125 157.535156 351.835938 158.980469 C 351.550781 160.425781 351.191406 161.855469 350.765625 163.265625 C 350.335938 164.675781 349.839844 166.0625 349.277344 167.421875 C 348.714844 168.785156 348.082031 170.117188 347.390625 171.414062 C 346.695312 172.714844 345.9375 173.976562 345.117188 175.203125 C 344.300781 176.429688 343.421875 177.609375 342.488281 178.75 C 341.554688 179.890625 340.5625 180.980469 339.523438 182.023438 C 338.480469 183.0625 337.390625 184.054688 336.25 184.988281 C 335.109375 185.921875 333.929688 186.800781 332.703125 187.617188 C 331.476562 188.4375 330.214844 189.195312 328.914062 189.890625 C 327.617188 190.582031 326.285156 191.214844 324.921875 191.777344 C 323.5625 192.339844 322.175781 192.835938 320.765625 193.265625 C 319.355469 193.691406 317.925781 194.050781 316.480469 194.335938 C 315.035156 194.625 313.578125 194.839844 312.113281 194.984375 C 310.648438 195.128906 309.175781 195.203125 307.703125 195.203125 C 306.230469 195.203125 304.757812 195.128906 303.292969 194.984375 C 301.824219 194.839844 300.367188 194.625 298.921875 194.335938 C 297.476562 194.050781 296.050781 193.691406 294.640625 193.265625 C 293.230469 192.835938 291.84375 192.339844 290.480469 191.777344 C 289.121094 191.214844 287.789062 190.582031 286.488281 189.890625 C 285.191406 189.195312 283.925781 188.4375 282.703125 187.617188 C 281.476562 186.800781 280.292969 185.921875 279.15625 184.988281 C 278.015625 184.054688 276.925781 183.0625 275.882812 182.023438 C 274.839844 180.980469 273.851562 179.890625 272.917969 178.75 C 271.980469 177.609375 271.105469 176.429688 270.285156 175.203125 C 269.46875 173.976562 268.710938 172.714844 268.015625 171.414062 C 267.320312 170.117188 266.691406 168.785156 266.128906 167.421875 C 265.5625 166.0625 265.066406 164.675781 264.640625 163.265625 C 264.210938 161.855469 263.855469 160.425781 263.566406 158.980469 C 263.28125 157.535156 263.0625 156.078125 262.917969 154.613281 C 262.773438 153.148438 262.703125 151.675781 262.703125 150.203125 C 262.703125 148.730469 262.773438 147.257812 262.917969 145.792969 C 263.0625 144.324219 263.28125 142.867188 263.566406 141.421875 C 263.855469 139.976562 264.210938 138.550781 264.640625 137.140625 C 265.066406 135.730469 265.5625 134.34375 266.128906 132.980469 C 266.691406 131.621094 267.320312 130.289062 268.015625 128.988281 C 268.710938 127.691406 269.46875 126.425781 270.285156 125.203125 C 271.105469 123.976562 271.980469 122.792969 272.917969 121.65625 C 273.851562 120.515625 274.839844 119.425781 275.882812 118.382812 C 276.925781 117.339844 278.015625 116.351562 279.15625 115.417969 C 280.292969 114.480469 281.476562 113.605469 282.703125 112.785156 C 283.925781 111.96875 285.191406 111.210938 286.488281 110.515625 C 287.789062 109.820312 289.121094 109.191406 290.480469 108.628906 C 291.84375 108.0625 293.230469 107.566406 294.640625 107.140625 C 296.050781 106.710938 297.476562 106.355469 298.921875 106.066406 C 300.367188 105.78125 301.824219 105.5625 303.292969 105.417969 C 304.757812 105.273438 306.230469 105.203125 307.703125 105.203125 C 309.175781 105.203125 310.648438 105.273438 312.113281 105.417969 C 313.578125 105.5625 315.035156 105.78125 316.480469 106.066406 C 317.925781 106.355469 319.355469 106.710938 320.765625 107.140625 C 322.175781 107.566406 323.5625 108.0625 324.921875 108.628906 C 326.285156 109.191406 327.617188 109.820312 328.914062 110.515625 C 330.214844 111.210938 331.476562 111.96875 332.703125 112.785156 C 333.929688 113.605469 335.109375 114.480469 336.25 115.417969 C 337.390625 116.351562 338.480469 117.339844 339.523438 118.382812 C 340.5625 119.425781 341.554688 120.515625 342.488281 121.65625 C 343.421875 122.792969 344.300781 123.976562 345.117188 125.203125 C 345.9375 126.425781 346.695312 127.691406 347.390625 128.988281 C 348.082031 130.289062 348.714844 131.621094 349.277344 132.980469 C 349.839844 134.34375 350.335938 135.730469 350.765625 137.140625 C 351.191406 138.550781 351.550781 139.976562 351.835938 141.421875 C 352.125 142.867188 352.339844 144.324219 352.484375 145.792969 C 352.628906 147.257812 352.703125 148.730469 352.703125 150.203125 Z M 352.703125 150.203125 " fill-opacity="1" fill-rule="nonzero"/><path fill="#303848" d="M 112.703125 150.203125 C 112.703125 151.675781 112.628906 153.148438 112.484375 154.613281 C 112.339844 156.078125 112.125 157.535156 111.835938 158.980469 C 111.550781 160.425781 111.191406 161.855469 110.765625 163.265625 C 110.335938 164.675781 109.839844 166.0625 109.277344 167.421875 C 108.714844 168.785156 108.082031 170.117188 107.390625 171.414062 C 106.695312 172.714844 105.9375 173.976562 105.117188 175.203125 C 104.300781 176.429688 103.421875 177.609375 102.488281 178.75 C 101.554688 179.890625 100.5625 180.980469 99.523438 182.023438 C 98.480469 183.0625 97.390625 184.054688 96.25 184.988281 C 95.109375 185.921875 93.929688 186.800781 92.703125 187.617188 C 91.476562 188.4375 90.214844 189.195312 88.914062 189.890625 C 87.617188 190.582031 86.285156 191.214844 84.921875 191.777344 C 83.5625 192.339844 82.175781 192.835938 80.765625 193.265625 C 79.355469 193.691406 77.925781 194.050781 76.480469 194.335938 C 75.035156 194.625 73.578125 194.839844 72.113281 194.984375 C 70.648438 195.128906 69.175781 195.203125 67.703125 195.203125 C 66.230469 195.203125 64.757812 195.128906 63.292969 194.984375 C 61.824219 194.839844 60.367188 194.625 58.921875 194.335938 C 57.476562 194.050781 56.050781 193.691406 54.640625 193.265625 C 53.230469 192.835938 51.84375 192.339844 50.480469 191.777344 C 49.121094 191.214844 47.789062 190.582031 46.488281 189.890625 C 45.191406 189.195312 43.925781 188.4375 42.703125 187.617188 C 41.476562 186.800781 40.292969 185.921875 39.15625 184.988281 C 38.015625 184.054688 36.925781 183.0625 35.882812 182.023438 C 34.839844 180.980469 33.851562 179.890625 32.917969 178.75 C 31.980469 177.609375 31.105469 176.429688 30.285156 175.203125 C 29.46875 173.976562 28.710938 172.714844 28.015625 171.414062 C 27.320312 170.117188 26.691406 168.785156 26.128906 167.421875 C 25.5625 166.0625 25.066406 164.675781 24.640625 163.265625 C 24.210938 161.855469 23.855469 160.425781 23.566406 158.980469 C 23.28125 157.535156 23.0625 156.078125 22.917969 154.613281 C 22.773438 153.148438 22.703125 151.675781 22.703125 150.203125 C 22.703125 148.730469 22.773438 147.257812 22.917969 145.792969 C 23.0625 144.324219 23.28125 142.867188 23.566406 141.421875 C 23.855469 139.976562 24.210938 138.550781 24.640625 137.140625 C 25.066406 135.730469 25.5625 134.34375 26.128906 132.980469 C 26.691406 131.621094 27.320312 130.289062 28.015625 128.988281 C 28.710938 127.691406 29.46875 126.425781 30.285156 125.203125 C 31.105469 123.976562 31.980469 122.792969 32.917969 121.65625 C 33.851562 120.515625 34.839844 119.425781 35.882812 118.382812 C 36.925781 117.339844 38.015625 116.351562 39.15625 115.417969 C 40.292969 114.480469 41.476562 113.605469 42.703125 112.785156 C 43.925781 111.96875 45.191406 111.210938 46.488281 110.515625 C 47.789062 109.820312 49.121094 109.191406 50.480469 108.628906 C 51.84375 108.0625 53.230469 107.566406 54.640625 107.140625 C 56.050781 106.710938 57.476562 106.355469 58.921875 106.066406 C 60.367188 105.78125 61.824219 105.5625 63.292969 105.417969 C 64.757812 105.273438 66.230469 105.203125 67.703125 105.203125 C 69.175781 105.203125 70.648438 105.273438 72.113281 105.417969 C 73.578125 105.5625 75.035156 105.78125 76.480469 106.066406 C 77.925781 106.355469 79.355469 106.710938 80.765625 107.140625 C 82.175781 107.566406 83.5625 108.0625 84.921875 108.628906 C 86.285156 109.191406 87.617188 109.820312 88.914062 110.515625 C 90.214844 111.210938 91.476562 111.96875 92.703125 112.785156 C 93.929688 113.605469 95.109375 114.480469 96.25 115.417969 C 97.390625 116.351562 98.480469 117.339844 99.523438 118.382812 C 100.5625 119.425781 101.554688 120.515625 102.488281 121.65625 C 103.421875 122.792969 104.300781 123.976562 105.117188 125.203125 C 105.9375 126.425781 106.695312 127.691406 107.390625 128.988281 C 108.082031 130.289062 108.714844 131.621094 109.277344 132.980469 C 109.839844 134.34375 110.335938 135.730469 110.765625 137.140625 C 111.191406 138.550781 111.550781 139.976562 111.835938 141.421875 C 112.125 142.867188 112.339844 144.324219 112.484375 145.792969 C 112.628906 147.257812 112.703125 148.730469 112.703125 150.203125 Z M 112.703125 150.203125 " fill-opacity="1" fill-rule="nonzero"/><path fill="#303848" d="M 247.703125 195.203125 C 247.703125 203.609375 245.953125 211.613281 242.820312 218.871094 C 250.132812 209.609375 259.363281 202.066406 269.820312 196.671875 C 256.335938 185.664062 247.710938 168.921875 247.710938 150.203125 C 247.710938 131.371094 256.449219 114.5625 270.058594 103.550781 C 262.890625 99.726562 254.796875 97.5 246 97.5 C 221.707031 97.5 201.644531 113.578125 195.523438 135.773438 C 224.910156 139.628906 247.703125 164.773438 247.703125 195.203125 Z M 247.703125 195.203125 " fill-opacity="1" fill-rule="nonzero"/><path fill="#303848" d="M 127.703125 150.203125 C 127.703125 168.988281 119.003906 185.78125 105.433594 196.792969 C 116.355469 202.460938 125.894531 210.511719 133.320312 220.386719 C 129.75 212.722656 127.703125 204.203125 127.703125 195.203125 C 127.703125 165.40625 149.558594 140.683594 178.058594 136.050781 C 172.035156 113.714844 151.898438 97.5 127.5 97.5 C 119.160156 97.5 111.425781 99.480469 104.535156 102.945312 C 118.605469 113.933594 127.703125 131.011719 127.703125 150.203125 Z M 127.703125 150.203125 " fill-opacity="1" fill-rule="nonzero"/></svg>