<svg xmlns="http://www.w3.org/2000/svg" xmlns:xlink="http://www.w3.org/1999/xlink" width="500" zoomAndPan="magnify" viewBox="0 0 375 374.999991" height="500" preserveAspectRatio="xMidYMid meet" version="1.0"><path fill="#313a4d" d="M 164.214844 49.019531 C 186.292969 48.152344 209.296875 48.171875 229.367188 42.714844 C 272.914062 30.875 335.652344 26.3125 357.996094 82.300781 C 374.597656 123.910156 368.097656 180.476562 369.800781 225.011719 C 371.164062 260.761719 373.242188 301.511719 353.019531 330.023438 C 316.144531 382.023438 237.414062 360.234375 182.148438 363.597656 C 137.1875 366.328125 89.308594 380.726562 45.492188 358.421875 C 6.632812 338.644531 5.191406 285.425781 9.359375 244.605469 C 12.714844 211.746094 15.109375 193.921875 10.882812 160.839844 C 6.429688 126 0.355469 77.757812 28.429688 55.941406 C 52.53125 37.210938 83.359375 37.21875 111.96875 42.546875 Z M 164.214844 49.019531 " fill-opacity="1" fill-rule="nonzero"/><path fill="#e6ecf0" d="M 169.460938 90.757812 C 187.09375 90.066406 205.457031 90.074219 221.484375 85.769531 C 256.257812 76.429688 306.355469 72.808594 324.171875 116.871094 C 337.410156 149.613281 332.195312 194.144531 333.535156 229.199219 C 334.609375 257.339844 336.25 289.414062 320.09375 311.867188 C 290.625 352.8125 227.769531 335.699219 183.640625 338.367188 C 147.742188 340.539062 109.503906 351.894531 74.527344 334.355469 C 43.511719 318.804688 42.382812 276.914062 45.730469 244.78125 C 48.421875 218.917969 50.34375 204.886719 46.984375 178.847656 C 43.441406 151.425781 38.613281 113.453125 61.039062 96.269531 C 80.292969 81.515625 104.90625 81.503906 127.75 85.6875 Z M 169.460938 90.757812 " fill-opacity="1" fill-rule="nonzero"/><path fill="#4d3d11" d="M 104.625 131.476562 C 107.710938 131.355469 110.921875 131.355469 113.726562 130.601562 C 119.8125 128.96875 128.582031 128.335938 131.699219 136.046875 C 134.015625 141.777344 133.101562 149.570312 133.335938 155.703125 C 133.523438 160.628906 133.8125 166.238281 130.984375 170.167969 C 125.828125 177.335938 114.828125 174.339844 107.105469 174.808594 C 100.824219 175.1875 94.132812 177.171875 88.011719 174.105469 C 82.582031 171.382812 82.386719 164.050781 82.972656 158.429688 C 83.441406 153.902344 83.78125 151.445312 83.191406 146.890625 C 82.574219 142.089844 81.726562 135.445312 85.652344 132.4375 C 89.023438 129.855469 93.328125 129.855469 97.328125 130.585938 Z M 104.625 131.476562 " fill-opacity="1" fill-rule="nonzero"/><path fill="#4d3d11" d="M 182.371094 129.753906 C 185.457031 129.632812 188.671875 129.636719 191.476562 128.882812 C 197.558594 127.246094 206.328125 126.613281 209.445312 134.324219 C 211.761719 140.054688 210.851562 147.847656 211.082031 153.980469 C 211.269531 158.90625 211.558594 164.519531 208.730469 168.449219 C 203.574219 175.613281 192.574219 172.617188 184.851562 173.085938 C 178.570312 173.464844 171.878906 175.453125 165.757812 172.382812 C 160.328125 169.660156 160.132812 162.328125 160.71875 156.707031 C 161.191406 152.179688 161.527344 149.722656 160.9375 145.167969 C 160.320312 140.371094 159.472656 133.722656 163.398438 130.714844 C 166.765625 128.132812 171.074219 128.132812 175.074219 128.863281 Z M 182.371094 129.753906 " fill-opacity="1" fill-rule="nonzero"/><path fill="#4d3d11" d="M 258.128906 129.015625 C 261.210938 128.894531 264.425781 128.898438 267.230469 128.144531 C 273.316406 126.507812 282.085938 125.875 285.203125 133.585938 C 287.519531 139.316406 286.605469 147.109375 286.839844 153.242188 C 287.027344 158.167969 287.316406 163.78125 284.488281 167.710938 C 279.332031 174.875 268.332031 171.882812 260.609375 172.347656 C 254.328125 172.726562 247.636719 174.714844 241.515625 171.644531 C 236.085938 168.925781 235.890625 161.59375 236.476562 155.96875 C 236.945312 151.441406 237.28125 148.988281 236.695312 144.429688 C 236.074219 139.632812 235.230469 132.984375 239.15625 129.980469 C 242.523438 127.398438 246.832031 127.394531 250.828125 128.128906 Z M 258.128906 129.015625 " fill-opacity="1" fill-rule="nonzero"/><path fill="#4d3d11" d="M 104.625 201.042969 C 107.710938 200.921875 110.921875 200.921875 113.726562 200.167969 C 119.8125 198.535156 128.582031 197.898438 131.699219 205.613281 C 134.015625 211.339844 133.101562 219.132812 133.335938 225.269531 C 133.523438 230.195312 133.8125 235.804688 130.984375 239.734375 C 125.828125 246.898438 114.828125 243.90625 107.105469 244.371094 C 100.824219 244.753906 94.132812 246.738281 88.011719 243.667969 C 82.582031 240.949219 82.386719 233.617188 82.972656 227.992188 C 83.441406 223.464844 83.78125 221.011719 83.191406 216.453125 C 82.574219 211.65625 81.726562 205.011719 85.652344 202.003906 C 89.023438 199.421875 93.328125 199.421875 97.328125 200.152344 Z M 104.625 201.042969 " fill-opacity="1" fill-rule="nonzero"/><path fill="#4d3d11" d="M 184.09375 198.828125 C 187.179688 198.707031 190.390625 198.707031 193.195312 197.953125 C 199.28125 196.320312 208.050781 195.6875 211.167969 203.398438 C 213.484375 209.128906 212.570312 216.921875 212.804688 223.054688 C 212.992188 227.980469 213.28125 233.589844 210.453125 237.519531 C 205.296875 244.6875 194.296875 241.691406 186.574219 242.160156 C 180.292969 242.539062 173.601562 244.527344 167.480469 241.457031 C 162.050781 238.734375 161.855469 231.402344 162.441406 225.78125 C 162.910156 221.253906 163.25 218.796875 162.660156 214.242188 C 162.042969 209.441406 161.195312 202.796875 165.121094 199.789062 C 168.492188 197.207031 172.796875 197.207031 176.796875 197.9375 Z M 184.09375 198.828125 " fill-opacity="1" fill-rule="nonzero"/><path fill="#4d3d11" d="M 259.113281 197.351562 C 262.195312 197.230469 265.410156 197.234375 268.214844 196.480469 C 274.300781 194.84375 283.066406 194.210938 286.1875 201.921875 C 288.503906 207.652344 287.589844 215.445312 287.824219 221.578125 C 288.011719 226.503906 288.300781 232.117188 285.472656 236.046875 C 280.316406 243.210938 269.316406 240.21875 261.59375 240.683594 C 255.3125 241.0625 248.617188 243.050781 242.5 239.980469 C 237.070312 237.261719 236.875 229.929688 237.460938 224.304688 C 237.929688 219.777344 238.265625 217.324219 237.679688 212.765625 C 237.058594 207.96875 236.214844 201.320312 240.140625 198.316406 C 243.507812 195.734375 247.816406 195.730469 251.8125 196.464844 Z M 259.113281 197.351562 " fill-opacity="1" fill-rule="nonzero"/><path fill="#4d3d11" d="M 105.609375 266.183594 C 108.695312 266.0625 111.90625 266.0625 114.710938 265.308594 C 120.796875 263.671875 129.566406 263.039062 132.683594 270.75 C 135 276.480469 134.085938 284.273438 134.320312 290.410156 C 134.507812 295.332031 134.796875 300.945312 131.96875 304.875 C 126.8125 312.039062 115.8125 309.046875 108.089844 309.511719 C 101.808594 309.890625 95.117188 311.878906 88.996094 308.808594 C 83.566406 306.089844 83.371094 298.757812 83.957031 293.132812 C 84.425781 288.605469 84.765625 286.152344 84.175781 281.59375 C 83.558594 276.796875 82.710938 270.152344 86.636719 267.144531 C 90.007812 264.5625 94.3125 264.558594 98.308594 265.292969 Z M 105.609375 266.183594 " fill-opacity="1" fill-rule="nonzero"/><path fill="#4d3d11" d="M 183.601562 266.183594 C 186.6875 266.0625 189.902344 266.0625 192.707031 265.308594 C 198.789062 263.671875 207.558594 263.039062 210.675781 270.75 C 212.992188 276.480469 212.082031 284.273438 212.3125 290.410156 C 212.5 295.332031 212.789062 300.945312 209.960938 304.875 C 204.804688 312.039062 193.804688 309.046875 186.082031 309.511719 C 179.800781 309.890625 173.109375 311.878906 166.988281 308.808594 C 161.558594 306.089844 161.363281 298.757812 161.949219 293.132812 C 162.421875 288.605469 162.757812 286.152344 162.167969 281.59375 C 161.550781 276.796875 160.703125 270.152344 164.628906 267.144531 C 168 264.5625 172.304688 264.558594 176.304688 265.292969 Z M 183.601562 266.183594 " fill-opacity="1" fill-rule="nonzero"/><path fill="#7ba862" d="M 259.347656 264.902344 C 262.433594 264.78125 265.648438 264.78125 268.453125 264.027344 C 274.539062 262.394531 283.304688 261.761719 286.421875 269.472656 C 288.738281 275.203125 287.828125 282.996094 288.0625 289.128906 C 288.25 294.054688 288.535156 299.664062 285.710938 303.59375 C 280.550781 310.761719 269.554688 307.765625 261.832031 308.234375 C 255.546875 308.613281 248.855469 310.597656 242.734375 307.53125 C 237.308594 304.808594 237.113281 297.476562 237.699219 291.855469 C 238.167969 287.328125 238.503906 284.871094 237.917969 280.316406 C 237.296875 275.515625 236.453125 268.871094 240.375 265.863281 C 243.746094 263.28125 248.054688 263.28125 252.050781 264.011719 Z M 259.347656 264.902344 " fill-opacity="1" fill-rule="nonzero"/><path fill="#4d3d11" d="M 95.503906 45.511719 C 94.226562 44.976562 91.671875 46.535156 90.414062 47.167969 C 88.199219 48.277344 86.542969 50.058594 85.5 52.269531 C 83.425781 56.660156 83.769531 62.527344 85.09375 67.105469 C 86.074219 70.507812 88.277344 76.601562 92.140625 77.863281 C 95.605469 78.996094 99.765625 78.636719 103.414062 78.636719 C 106.324219 78.636719 109.175781 78.289062 112.03125 77.75 C 114.210938 77.339844 116.363281 77.671875 118.507812 78.082031 C 121.378906 78.628906 125.847656 78.746094 128.003906 76.546875 C 130.492188 74.011719 130.398438 70.453125 130.777344 67.214844 C 131.207031 63.5 131.914062 59.957031 130.53125 56.382812 C 129.757812 54.378906 128.507812 51.632812 126.84375 50.171875 C 123.691406 47.402344 119.847656 46.914062 115.84375 46.398438 C 111.40625 45.824219 106.789062 46.492188 102.402344 45.734375 C 100.367188 45.378906 97.304688 44.699219 95.253906 45.386719 " fill-opacity="1" fill-rule="nonzero"/><path fill="#4d3d11" d="M 260.242188 44.011719 C 258.960938 43.476562 256.40625 45.035156 255.148438 45.667969 C 252.933594 46.777344 251.277344 48.558594 250.234375 50.769531 C 248.164062 55.160156 248.507812 61.027344 249.828125 65.601562 C 250.8125 69.003906 253.011719 75.101562 256.875 76.363281 C 260.34375 77.496094 264.5 77.136719 268.148438 77.136719 C 271.058594 77.136719 273.914062 76.789062 276.769531 76.25 C 278.949219 75.839844 281.097656 76.171875 283.246094 76.578125 C 286.113281 77.128906 290.585938 77.242188 292.742188 75.046875 C 295.226562 72.511719 295.136719 68.953125 295.511719 65.710938 C 295.945312 62 296.652344 58.457031 295.269531 54.882812 C 294.492188 52.875 293.242188 50.132812 291.582031 48.671875 C 288.425781 45.902344 284.582031 45.414062 280.582031 44.898438 C 276.144531 44.324219 271.523438 44.992188 267.140625 44.230469 C 265.101562 43.878906 262.042969 43.199219 259.992188 43.886719 " fill-opacity="1" fill-rule="nonzero"/><path fill="#7ba862" d="M 105.285156 6.460938 C 100.667969 6.347656 96.945312 6.238281 94.171875 11.859375 C 92.042969 16.167969 93.652344 20.484375 93.6875 25.101562 C 93.773438 35.664062 93.441406 46.011719 93.589844 56.363281 C 93.6875 63.03125 91.503906 65.710938 99.078125 67.765625 C 104.320312 69.191406 111.003906 68.601562 116.582031 68.488281 C 127.9375 68.257812 123.808594 56.46875 123.113281 47.339844 C 121.84375 30.71875 129.308594 5.675781 112.761719 6.539062 Z M 105.285156 6.460938 " fill-opacity="1" fill-rule="nonzero"/><path fill="#7ba862" d="M 269.894531 6.460938 C 265.28125 6.347656 261.558594 6.238281 258.78125 11.859375 C 256.652344 16.167969 258.261719 20.484375 258.300781 25.101562 C 258.386719 35.664062 258.054688 46.011719 258.203125 56.363281 C 258.296875 63.03125 256.113281 65.710938 263.6875 67.765625 C 268.929688 69.191406 275.617188 68.601562 281.191406 68.488281 C 292.550781 68.257812 288.417969 56.46875 287.722656 47.339844 C 286.453125 30.71875 293.917969 5.675781 277.375 6.539062 Z M 269.894531 6.460938 " fill-opacity="1" fill-rule="nonzero"/></svg>