<svg xmlns="http://www.w3.org/2000/svg" xmlns:xlink="http://www.w3.org/1999/xlink" width="500" zoomAndPan="magnify" viewBox="0 0 375 374.999991" height="500" preserveAspectRatio="xMidYMid meet" version="1.0"><defs><clipPath id="7b37c9ae77"><path d="M 0 0.683594 L 375 0.683594 L 375 374.933594 L 0 374.933594 Z M 0 0.683594 " clip-rule="nonzero"/></clipPath></defs><g clip-path="url(#7b37c9ae77)"><path fill="#7ba862" d="M 187.921875 0.808594 C 84.117188 0.808594 0 84.925781 0 188.730469 C 0 281.960938 68.007812 359.40625 157.007812 374.050781 L 157.007812 246.652344 L 109.171875 246.652344 L 109.171875 190.847656 L 157.007812 190.847656 L 157.007812 150.332031 C 157.007812 106.402344 192.640625 76.628906 236.570312 76.628906 C 256.09375 76.628906 268.296875 79.558594 268.296875 79.558594 L 268.296875 126.414062 L 236.570312 126.414062 C 223.390625 126.414062 212.652344 137.15625 212.652344 150.332031 L 212.652344 190.847656 L 263.902344 190.847656 L 256.746094 246.652344 L 212.652344 246.652344 L 212.652344 374.863281 C 304.578125 362.660156 375.515625 283.910156 375.515625 188.730469 C 375.679688 84.925781 291.5625 0.808594 187.921875 0.808594 Z M 187.921875 0.808594 " fill-opacity="1" fill-rule="nonzero"/></g></svg>