<svg xmlns="http://www.w3.org/2000/svg" xmlns:xlink="http://www.w3.org/1999/xlink" width="1280" zoomAndPan="magnify" viewBox="0 0 960 540.000001" height="720" preserveAspectRatio="xMidYMid meet" version="1.0"><defs><clipPath id="b0ad251a2d"><path d="M 5.050781 430.003906 L 954.957031 430.003906 L 954.957031 539 L 5.050781 539 Z M 5.050781 430.003906 " clip-rule="nonzero"/></clipPath></defs><g clip-path="url(#b0ad251a2d)"><path fill="#618c27" d="M 451.511719 539.019531 L 5.050781 539.019531 L 5.050781 453.8125 L 7.195312 451.589844 L 7.519531 451.589844 C 8.023438 452.542969 8.53125 453.488281 8.921875 454.441406 C 9.941406 452.175781 11.125 449.882812 12.5625 448.234375 C 13.089844 447.632812 14.179688 447.148438 15.128906 446.632812 L 15.199219 446.636719 L 15.265625 446.644531 C 15.644531 447.265625 15.992188 447.878906 16.09375 448.515625 L 16.121094 448.441406 L 16.300781 454.914062 L 24.160156 448.335938 L 24.097656 448.46875 C 25.019531 447.644531 26.027344 446.863281 27.242188 446.097656 L 27.394531 446.121094 L 27.550781 446.140625 C 27.746094 446.871094 28.429688 448.019531 28.023438 448.761719 L 26.539062 450.964844 C 27.597656 450.234375 28.800781 449.519531 30.464844 449.007812 L 33.308594 448.449219 L 33.492188 448.550781 L 33.683594 448.648438 L 30.976562 451.960938 L 30.332031 452.960938 L 29.042969 456.335938 L 29.039062 456.582031 C 29.589844 456.660156 30.113281 456.777344 30.578125 456.929688 L 33.359375 456.929688 L 33.78125 452.929688 C 33.871094 452.246094 34.605469 451.921875 35.355469 451.328125 L 35.992188 451.328125 L 37.59375 452.804688 L 37.566406 452.679688 L 39.9375 455.890625 L 41.332031 455.207031 L 43.730469 443.703125 C 44.105469 442.398438 45.636719 441.191406 46.738281 439.957031 L 50.1875 436.386719 L 50.347656 436.398438 L 48.890625 444.027344 L 48.960938 443.839844 L 49.195312 451.386719 L 59.3125 446.464844 C 60.164062 446.101562 62.265625 445.8125 63.566406 445.59375 C 63.976562 445.007812 64.386719 444.433594 65.375 443.921875 L 67.109375 443.105469 L 67.632812 443.105469 C 67.898438 443.480469 67.984375 443.671875 67.800781 444.070312 C 67.652344 444.402344 67.292969 444.726562 67.3125 445.066406 C 67.351562 445.71875 67.546875 446.25 67.296875 446.914062 C 67.054688 447.546875 66.183594 448.097656 65.753906 448.71875 C 65.589844 448.953125 65.921875 449.140625 65.777344 449.378906 C 65.539062 449.777344 65.101562 450.15625 64.945312 450.5625 C 64.648438 451.339844 64.898438 452.058594 64.421875 452.835938 L 63.652344 453.683594 L 62.835938 454.402344 L 62.570312 454.640625 L 62.070312 456.929688 L 64.457031 456.929688 L 65.582031 453.53125 C 65.9375 452.695312 66.117188 452.707031 66.96875 452.007812 C 67.230469 451.796875 67.746094 451.671875 67.917969 451.445312 C 68.171875 451.109375 68.085938 450.746094 68.246094 450.402344 C 68.378906 450.113281 68.6875 449.84375 68.996094 449.578125 L 70.539062 448.015625 L 72.417969 446.582031 L 72.789062 446.582031 L 73.796875 448.1875 L 73.925781 449.488281 L 73.59375 450.1875 L 73.484375 450.429688 L 73.640625 450.925781 L 73.796875 451.445312 L 73.480469 452.277344 L 73.007812 452.96875 L 72.617188 453.5625 L 72.648438 453.53125 L 72.777344 456.25 L 72.804688 456.523438 L 74.203125 453.054688 L 77.527344 448.085938 L 82.378906 442.367188 L 90.105469 437.125 L 90.347656 437.175781 L 90.589844 437.222656 L 84.433594 448.664062 L 82.34375 456.015625 L 83.570312 455.136719 C 84.046875 454.769531 84.582031 454.429688 85.191406 454.09375 L 85.773438 454.09375 C 86.378906 454.429688 87.121094 454.738281 87.390625 455.136719 C 87.625 455.484375 87.730469 455.84375 87.761719 456.207031 L 88.007812 455.597656 L 87.992188 455.753906 L 92.527344 439.070312 L 92.847656 439.070312 C 94.480469 445.191406 96.980469 449.714844 96.492188 455.90625 L 96.355469 456.671875 L 96.785156 456.417969 L 97.902344 455.902344 L 99.121094 455.484375 L 99.742188 455.484375 C 100.058594 455.964844 100.304688 456.433594 100.332031 456.929688 L 100.644531 456.929688 L 100.941406 456.359375 L 102.261719 454.015625 L 103.972656 451.492188 L 106.773438 449.378906 L 106.949219 449.054688 L 107.5 448.449219 L 108.300781 447.90625 L 109.480469 447.53125 L 109.6875 447.582031 L 109.894531 447.640625 L 109.910156 448.671875 C 109.949219 449.136719 110.15625 449.53125 109.949219 449.980469 L 108.394531 454.015625 L 107.976562 456.929688 L 109.421875 456.929688 L 110.144531 456.101562 L 110.125 456.273438 L 110.40625 455.144531 L 110.707031 454.015625 L 111.789062 450.800781 L 111.980469 450.363281 C 112.480469 449.589844 113.125 448.847656 113.859375 448.105469 L 114.230469 448.105469 C 114.527344 448.40625 114.808594 448.707031 115.078125 449.011719 L 115.871094 445.671875 C 116.636719 443.402344 119.390625 442.46875 122.132812 440.59375 L 122.523438 440.671875 L 120.9375 445.691406 L 121.972656 453.664062 L 123.007812 456.929688 L 125.859375 456.929688 L 126.3125 456.652344 L 132.324219 451.296875 L 138.480469 446.019531 L 140.835938 444.0625 L 144.429688 442.507812 L 144.558594 442.542969 L 144.683594 442.582031 L 142.785156 446.363281 L 135.132812 456.929688 L 138.726562 456.929688 L 138.890625 456.613281 L 139.320312 456.273438 L 139.441406 455.578125 C 140.125 452.820312 142.117188 450.179688 144.332031 447.558594 C 145.160156 446.578125 145.515625 445.492188 147.019531 444.648438 C 147.601562 444.324219 148.71875 444.234375 149.617188 444.054688 L 149.960938 444.164062 C 149.710938 444.550781 149.210938 444.910156 149.070312 445.304688 L 149.335938 445.082031 L 149.140625 447.914062 L 148.523438 450.636719 L 148.300781 451.496094 L 148.054688 452.378906 L 148.097656 452.28125 L 147.945312 453.683594 L 147.769531 455.085938 L 147.804688 454.882812 L 147.929688 455.578125 L 148.050781 456.273438 L 147.820312 456.929688 L 150.585938 456.929688 L 152.445312 454.683594 L 152.492188 454.585938 L 153.113281 453.910156 L 153.746094 453.234375 L 153.683594 453.375 L 154.140625 452.605469 L 154.613281 451.929688 L 156.214844 450.390625 L 158.738281 449.125 L 158.941406 449.144531 L 159.140625 449.167969 L 158.910156 451.929688 L 158.972656 453.609375 L 158.910156 453.746094 L 158.667969 454.460938 L 158.414062 455.175781 L 158.464844 455.082031 L 158.378906 455.609375 L 158.285156 456.140625 L 157.941406 456.929688 L 163.082031 456.929688 L 165.980469 448.800781 C 167.382812 444.910156 168.363281 440.617188 171.496094 436.855469 C 171.800781 436.492188 172.566406 436.222656 173.160156 435.917969 L 173.324219 435.941406 L 173.492188 435.964844 L 173.414062 437.113281 L 173.460938 437.023438 L 172.828125 448.800781 L 172.644531 450.117188 L 175.960938 446.003906 L 182.527344 437.996094 C 183.441406 436.902344 184.3125 435.371094 186.167969 434.328125 L 187.371094 433.679688 L 188.050781 433.679688 C 188.082031 434.019531 188.105469 434.351562 187.945312 434.683594 C 187.878906 434.816406 187.707031 434.9375 187.671875 435.070312 L 185.699219 441.53125 L 182.550781 447.433594 C 183.019531 448.023438 183.433594 448.621094 183.785156 449.226562 L 184.375 450.964844 L 185.738281 456.929688 L 187.550781 456.929688 L 188.25 456.351562 L 188.683594 455.992188 L 188.757812 456.097656 L 189.289062 454.566406 L 190.097656 453.410156 L 190.742188 452.292969 L 191.394531 451.179688 L 192.058594 450.0625 L 192.742188 448.949219 L 192.707031 449.144531 L 193.292969 446.800781 L 194.046875 444.457031 L 194.144531 444.210938 C 194.410156 443.855469 195.035156 443.558594 195.476562 443.226562 L 195.398438 443.414062 L 196.226562 442.023438 L 196.628906 442.023438 C 197.289062 442.472656 198.003906 442.910156 198.328125 443.414062 L 198.25 443.597656 L 198.0625 444.152344 L 197.9375 444.457031 L 198.691406 446.800781 L 199.277344 449.144531 L 199.238281 449.347656 L 198.628906 452.777344 L 198.007812 455.066406 C 197.898438 455.601562 197.9375 456.140625 197.796875 456.675781 L 208.019531 443.566406 L 211.085938 439.96875 C 211.925781 439.035156 213.328125 438.195312 214.21875 437.269531 L 220.183594 430.46875 C 220.375 430.289062 220.75 430.152344 221.054688 430.003906 L 221.273438 430.03125 L 221.492188 430.0625 L 221.542969 430.359375 L 221.492188 430.640625 L 220.621094 434.316406 L 218.738281 438.085938 L 217.671875 439.382812 L 216.640625 440.601562 L 215.566406 442.453125 L 214.472656 444.300781 L 209.507812 452.644531 L 207.742188 455.761719 L 214.082031 450.382812 L 216.773438 448.136719 L 221.546875 442.636719 C 221.816406 442.324219 222.589844 442.167969 223.1875 441.96875 L 223.453125 442.023438 L 223.722656 442.074219 L 223.523438 442.90625 L 223.617188 442.800781 C 223.429688 444.917969 223.171875 447.023438 222.28125 449.117188 C 221.953125 449.890625 221.25 450.636719 220.617188 451.386719 L 216.03125 456.929688 L 220.363281 456.929688 L 225.582031 447.238281 C 226.03125 446.417969 227.109375 445.582031 227.910156 444.804688 L 228.582031 444.804688 C 228.894531 445.660156 229.105469 446.507812 229.132812 447.375 L 229.167969 447.238281 L 228.632812 452.339844 L 228.765625 452.101562 C 229.324219 451.492188 230.042969 450.929688 230.863281 450.363281 C 231.683594 450.929688 232.398438 451.492188 232.960938 452.101562 C 233.21875 452.386719 233.332031 452.761719 233.472656 453.058594 L 234.695312 456.710938 C 235.640625 455.585938 236.699219 454.472656 237.96875 453.394531 C 241.085938 450.734375 245.375 448.324219 249.375 445.863281 C 249.992188 445.484375 251.015625 445.40625 252 445.234375 L 252.222656 445.324219 L 252.441406 445.410156 C 252.09375 445.730469 251.601562 446.019531 251.304688 446.347656 L 251.578125 446.179688 L 248.109375 450.253906 L 248.117188 450.253906 L 248.894531 449.847656 L 248.769531 449.9375 L 249.308594 449.609375 L 249.855469 449.285156 L 249.777344 449.351562 L 250.632812 448.777344 L 251.667969 448.078125 L 254.980469 446.761719 L 258.457031 445.632812 L 258.761719 445.671875 L 259.058594 445.710938 L 256.261719 449.175781 C 255.914062 449.5625 255.796875 450.007812 255.457031 450.402344 L 254.800781 451.140625 L 254.675781 451.230469 L 254.148438 451.695312 L 254.0625 451.769531 L 253.609375 453.738281 L 252.574219 455.675781 L 252.625 455.921875 L 252.699219 456.273438 L 252.644531 456.554688 C 252.597656 456.683594 252.511719 456.8125 252.394531 456.929688 L 256.636719 456.929688 L 262.742188 446.714844 C 263.066406 446.144531 263.460938 445.574219 264.117188 445.046875 L 266.339844 443.71875 L 266.871094 443.804688 L 266.949219 446.855469 L 266.980469 446.714844 L 265.351562 455.984375 L 266.773438 454.257812 C 267.410156 453.546875 267.882812 452.8125 268.800781 452.152344 C 269.132812 451.910156 269.621094 451.722656 270.136719 451.539062 L 270.492188 450.625 L 270.894531 449.839844 C 271.3125 449.300781 271.875 448.789062 272.484375 448.277344 L 272.929688 448.277344 C 274.167969 449.320312 273.949219 448.753906 274.519531 449.839844 L 275.59375 452.273438 L 275.773438 452.796875 L 275.941406 453.320312 L 275.925781 453.175781 L 277.617188 455.4375 L 278.394531 456.929688 L 282.042969 456.929688 C 282.183594 456.777344 282.316406 456.628906 282.4375 456.46875 L 284.648438 452.808594 L 284.925781 452.453125 L 286.027344 451.804688 L 285.828125 452.019531 L 286.171875 451.683594 L 286.515625 451.351562 L 286.566406 451.277344 L 287.210938 450.785156 L 290.816406 448.609375 L 291.015625 448.628906 L 291.210938 448.648438 L 291.589844 449.855469 C 291.691406 449.855469 291.792969 449.851562 291.886719 449.839844 C 292 450.21875 291.683594 450.589844 291.964844 450.949219 L 292.308594 450.539062 C 293.75 451.949219 294.289062 453.550781 294.890625 455.054688 L 295.457031 456.570312 C 300.179688 451.421875 305.203125 445.828125 311.480469 441.390625 C 311.964844 441.050781 313.070312 440.945312 313.898438 440.738281 L 314.117188 440.808594 L 314.332031 440.875 C 314.011719 441.246094 313.515625 441.582031 313.261719 441.960938 L 313.417969 441.855469 L 303.964844 456.929688 L 308.953125 456.929688 L 309.152344 456.097656 L 309.324219 455.40625 L 309.507812 454.710938 L 309.773438 453.753906 L 310.0625 452.796875 L 310.289062 452.101562 L 310.535156 451.40625 L 310.84375 450.625 L 311.195312 449.839844 C 311.695312 449.121094 312.371094 448.441406 313.125 447.757812 L 313.363281 447.757812 C 314.117188 448.441406 314.796875 449.121094 315.292969 449.839844 C 315.792969 450.5625 315.945312 451.359375 316.199219 452.101562 L 317.339844 456.097656 L 317.523438 456.871094 L 317.753906 456.539062 L 318.367188 456.121094 L 318.78125 455.859375 L 318.859375 455.875 L 319.171875 455.535156 L 319.480469 455.199219 L 319.792969 454.859375 L 320.097656 454.535156 L 320.203125 454.1875 L 321.066406 452.792969 C 321.453125 452.207031 321.859375 451.316406 322.777344 450.761719 L 326.902344 448.597656 L 327.191406 448.628906 C 326.757812 449.324219 325.449219 450.539062 325.011719 451.058594 L 324.578125 451.582031 C 324.578125 452.203125 324.128906 453.003906 323.875 453.597656 L 324.558594 453.3125 L 325.277344 453 L 325.554688 453.050781 L 326.25 452.351562 L 327.28125 451.882812 L 328.371094 451.511719 L 329.390625 451.3125 L 329.898438 451.3125 C 330.128906 451.703125 330.292969 452.078125 330.265625 452.480469 L 330.25 453.050781 L 329.980469 453.832031 L 329.503906 454.441406 L 329.027344 454.925781 L 328.796875 455.140625 L 329.480469 454.789062 L 329.625 455.136719 L 329.261719 455.753906 L 328.308594 456.929688 L 329.75 456.929688 C 329.820312 456.554688 329.929688 456.1875 330.183594 455.8125 L 333.347656 451.65625 L 336.433594 447.847656 C 337.292969 446.996094 338.445312 446.144531 339.558594 445.339844 L 342.304688 443.476562 L 344.929688 442.1875 L 345.066406 442.195312 L 345.203125 442.207031 L 345.210938 443.960938 L 344.476562 445.246094 L 344.03125 446.007812 L 343.589844 446.734375 L 343.597656 446.726562 L 342.992188 447.714844 L 342.363281 448.707031 L 342.472656 448.5625 L 341.089844 452.375 L 339.574219 456.167969 L 339.457031 456.554688 L 339.414062 456.6875 L 339.449219 456.929688 L 339.722656 456.929688 L 340.519531 455.316406 C 340.625 455.027344 340.585938 454.726562 340.800781 454.445312 L 342.175781 453.136719 L 345.101562 450.222656 C 345.933594 449.433594 347.597656 449.117188 349.214844 448.597656 L 349.421875 448.628906 L 349.632812 448.652344 L 349.1875 450.75 L 349.386719 450.507812 L 349.464844 452.296875 L 348.824219 454.195312 L 348.707031 454.6875 L 348.617188 454.910156 L 348.734375 455.316406 L 348.859375 455.753906 L 348.816406 456.78125 L 348.847656 456.929688 L 352.695312 456.929688 C 352.761719 456.816406 352.839844 456.707031 352.929688 456.59375 C 353.273438 456.15625 353.941406 455.769531 354.351562 455.339844 C 354.90625 454.753906 354.992188 454.132812 355.300781 453.519531 L 356.132812 451.621094 L 356.328125 450.75 L 356.421875 450.445312 L 357.027344 449.765625 L 357.628906 449.097656 L 358.050781 447.621094 L 358.695312 445.886719 L 358.816406 445.636719 C 359.535156 445.046875 360.828125 444.605469 361.9375 444.117188 L 362.292969 444.175781 L 361.921875 446.128906 L 362.042969 445.886719 L 363.183594 449.359375 L 363.097656 449.632812 L 362.839844 450.34375 L 362.675781 450.785156 L 362.863281 451.621094 L 363.046875 452.488281 L 362.824219 453.980469 C 362.734375 454.773438 362.714844 455.570312 362.355469 456.347656 C 362.3125 456.445312 362.097656 456.679688 361.886719 456.929688 L 365.292969 456.929688 L 365.457031 456.671875 L 366.34375 455.964844 L 366.4375 455.441406 L 366.519531 454.96875 L 366.332031 454.378906 L 365.984375 453.183594 L 365.710938 450.445312 C 365.5 449.269531 364.617188 448.101562 364.898438 446.925781 C 365.210938 445.621094 366.21875 444.371094 367.054688 443.105469 L 367.632812 443.105469 L 369.792969 446.925781 L 369.761719 446.765625 L 373.9375 453.183594 C 374.238281 453.660156 374.78125 454.105469 375.058594 454.585938 C 375.191406 454.820312 375.265625 455.054688 375.300781 455.289062 L 375.425781 455.195312 L 375.554688 455.074219 C 376.882812 454.4375 378.425781 453.894531 379.988281 453.351562 L 380.457031 453.445312 L 379.714844 455.726562 L 380.097656 455.238281 L 380.054688 455.308594 L 380.617188 454.449219 L 381.253906 453.476562 L 384.554688 449.246094 L 388.285156 444.667969 L 388.230469 444.839844 L 388.507812 444.050781 L 388.90625 443.277344 L 389.550781 442.5625 L 390.699219 442.023438 L 390.890625 442.058594 L 391.082031 442.097656 L 391.558594 444.078125 C 391.644531 444.390625 391.847656 444.699219 391.753906 445.011719 L 388.324219 454.28125 L 387.246094 456.929688 L 388.40625 456.929688 L 389.269531 452.835938 L 389.441406 452.410156 L 390.003906 451.910156 L 390.5 451.464844 L 390.601562 451.097656 L 390.800781 450.402344 C 390.90625 450.054688 390.90625 449.699219 391.128906 449.359375 C 391.90625 448.167969 393.058594 447.027344 394.214844 445.886719 L 394.542969 445.886719 L 395.886719 449.359375 C 396.101562 450.15625 396.597656 450.992188 396.597656 451.792969 L 396.4375 452.183594 L 396.136719 452.722656 L 396.019531 452.925781 L 396.316406 454.226562 L 396.609375 455.617188 L 396.863281 456.929688 L 399.136719 456.929688 C 398.558594 456.046875 398.367188 455.136719 398.242188 454.226562 L 398.511719 453.183594 L 398.796875 452.140625 L 399.003906 451.445312 L 399.226562 450.75 L 399.339844 450.402344 L 399.464844 450.054688 L 399.84375 448.238281 L 401.117188 446.230469 L 401.589844 446.230469 C 402.886719 447.488281 404.09375 448.742188 404.988281 450.054688 L 405.226562 450.75 L 405.941406 453.183594 C 406.035156 453.53125 406 453.886719 406.207031 454.226562 C 406.503906 454.703125 406.871094 455.171875 407.4375 455.609375 L 409.292969 456.929688 L 410.128906 456.929688 C 410.59375 456.195312 411.21875 455.492188 411.945312 454.792969 L 413.289062 453.53125 L 415.636719 450.496094 L 416.882812 448.789062 C 417.722656 447.878906 419.957031 447.347656 420.964844 446.472656 L 422.96875 444.144531 L 423.082031 444.335938 C 423.128906 444.058594 422.914062 443.785156 422.875 443.507812 L 423.152344 443.449219 L 423.433594 443.394531 C 424.078125 443.609375 424.957031 443.78125 425.082031 444.144531 C 425.554688 445.46875 425.601562 446.914062 424.097656 448.148438 L 423.199219 448.683594 L 422.777344 449.085938 L 422.414062 449.351562 L 422.207031 450.117188 L 421.953125 451.003906 L 421.394531 452.128906 C 421.710938 452.195312 422.011719 452.273438 422.285156 452.375 C 422.929688 452.601562 423.125 452.972656 423.527344 453.277344 C 423.929688 453.582031 424.222656 453.894531 424.480469 454.226562 C 424.90625 454.761719 425.304688 455.300781 425.957031 455.792969 L 427.546875 456.929688 L 428.484375 456.929688 C 428.417969 456.683594 428.382812 456.433594 428.335938 456.1875 C 428.21875 455.53125 428.109375 454.882812 428.210938 454.226562 L 428.914062 451.792969 L 429.148438 451.097656 L 431.578125 447.273438 L 432.171875 447.273438 L 434.601562 451.097656 L 435.539062 454.226562 L 435.71875 454.921875 L 436.28125 455.480469 L 436.710938 456.289062 L 437.625 456.929688 L 440.992188 456.929688 L 441.300781 456.640625 L 441.835938 456.128906 L 441.703125 456.332031 L 442.308594 455.476562 L 442.921875 454.621094 L 444.550781 451.773438 L 447.289062 448.394531 L 447.183594 448.664062 L 449.058594 445.886719 L 449.574219 445.886719 C 450.300781 446.800781 451.21875 447.703125 451.449219 448.664062 C 451.722656 449.800781 450.65625 450.933594 450.8125 452.074219 L 451.507812 457.269531 C 451.507812 456.878906 452.304688 454.664062 454.785156 454.5 L 454.929688 454.542969 L 455.082031 454.582031 L 455.175781 455.734375 L 455.449219 455.484375 L 455.253906 456.929688 L 456.71875 456.929688 L 463.332031 452.265625 L 470.660156 448.359375 L 472.695312 444.984375 L 472.792969 444.988281 L 472.894531 444.992188 C 472.9375 445.761719 473 446.484375 473.066406 447.167969 L 473.304688 447.058594 L 473.445312 447.074219 L 473.59375 447.089844 C 473.769531 447.347656 474.113281 447.601562 474 447.863281 C 473.832031 448.238281 473.570312 448.605469 473.257812 448.964844 C 473.570312 451.707031 473.875 454.035156 473.613281 456.929688 L 475.128906 456.929688 L 501.21875 437.414062 L 501.324219 437.433594 L 501.4375 437.453125 L 489.402344 451.058594 L 489.566406 451.066406 L 489.847656 451.082031 C 490.191406 451.351562 490.628906 451.609375 490.746094 451.910156 C 491.039062 452.664062 490.972656 453.429688 490.984375 454.191406 L 490.554688 456.929688 L 493.828125 456.929688 L 502.3125 448.445312 C 503.457031 447.207031 503.851562 447.09375 505.441406 445.9375 L 505.6875 445.941406 L 505.925781 445.953125 C 506.21875 446.875 506.53125 447.785156 506.417969 448.710938 L 506.445312 448.652344 C 505.46875 451.433594 504.355469 454.199219 502.835938 456.929688 L 503.054688 456.929688 L 505.050781 452.371094 C 505.511719 451.488281 506.460938 451.265625 507.726562 450.699219 L 507.972656 449.660156 L 508.980469 447.433594 L 509.167969 447.421875 L 509.359375 447.40625 C 510.988281 448.800781 512.734375 450.164062 513.457031 451.675781 C 514.285156 453.410156 514.714844 455.167969 514.996094 456.929688 L 515.300781 456.929688 L 515.6875 454.542969 L 517.136719 450.441406 L 520.386719 446.546875 L 520.496094 446.554688 L 520.609375 446.554688 L 522.695312 454.542969 L 523.179688 456.644531 L 523.238281 456.597656 L 523.183594 456.675781 L 523.203125 456.742188 L 528.175781 451.589844 L 528.503906 451.589844 C 529 452.542969 529.515625 453.488281 529.902344 454.441406 C 530.925781 452.175781 532.105469 449.882812 533.542969 448.234375 C 534.070312 447.632812 535.164062 447.148438 536.113281 446.632812 L 536.175781 446.636719 L 536.25 446.644531 C 536.625 447.265625 536.972656 447.878906 537.074219 448.515625 L 537.101562 448.441406 L 537.28125 454.914062 L 545.140625 448.335938 L 545.078125 448.46875 C 546 447.644531 547.003906 446.863281 548.21875 446.097656 L 548.375 446.121094 L 548.53125 446.140625 C 548.726562 446.871094 549.414062 448.019531 549.003906 448.761719 L 547.519531 450.964844 C 548.578125 450.234375 549.78125 449.519531 551.445312 449.007812 L 554.289062 448.449219 L 554.476562 448.550781 L 554.664062 448.648438 L 551.957031 451.960938 L 551.3125 452.960938 L 550.027344 456.335938 L 550.019531 456.582031 C 550.570312 456.660156 551.09375 456.777344 551.558594 456.929688 L 554.339844 456.929688 L 554.757812 452.929688 C 554.851562 452.246094 555.589844 451.921875 556.332031 451.328125 L 556.96875 451.328125 L 558.574219 452.804688 L 558.550781 452.679688 L 560.917969 455.890625 L 562.316406 455.207031 L 564.710938 443.703125 C 565.089844 442.398438 566.613281 441.191406 567.71875 439.957031 L 571.167969 436.386719 L 571.246094 436.390625 L 571.332031 436.398438 L 569.867188 444.027344 L 569.941406 443.839844 L 570.171875 451.386719 L 580.292969 446.464844 C 581.144531 446.101562 583.246094 445.8125 584.550781 445.59375 C 584.957031 445.007812 585.367188 444.433594 586.355469 443.921875 L 588.09375 443.105469 L 588.617188 443.105469 C 588.882812 443.480469 588.960938 443.671875 588.78125 444.070312 C 588.628906 444.402344 588.273438 444.726562 588.296875 445.066406 C 588.332031 445.71875 588.527344 446.25 588.277344 446.914062 C 588.035156 447.546875 587.164062 448.097656 586.738281 448.71875 C 586.574219 448.953125 586.902344 449.140625 586.757812 449.378906 C 586.519531 449.777344 586.085938 450.15625 585.925781 450.5625 C 585.625 451.339844 585.882812 452.058594 585.40625 452.835938 L 584.632812 453.683594 L 583.816406 454.402344 L 583.554688 454.640625 L 583.050781 456.929688 L 585.4375 456.929688 L 586.5625 453.53125 C 586.917969 452.695312 587.097656 452.707031 587.953125 452.007812 C 588.214844 451.796875 588.734375 451.671875 588.894531 451.445312 C 589.152344 451.109375 589.066406 450.746094 589.222656 450.402344 C 589.355469 450.113281 589.671875 449.84375 589.972656 449.578125 L 591.519531 448.015625 L 593.394531 446.582031 L 593.769531 446.582031 L 594.777344 448.1875 L 594.902344 449.488281 L 594.570312 450.1875 L 594.460938 450.429688 L 594.621094 450.925781 L 594.78125 451.445312 L 594.460938 452.277344 L 593.988281 452.96875 L 593.597656 453.5625 L 593.632812 453.53125 L 593.761719 456.25 L 593.785156 456.523438 L 595.183594 453.054688 L 598.511719 448.085938 L 603.359375 442.367188 L 611.089844 437.125 L 611.328125 437.175781 L 611.566406 437.222656 L 605.417969 448.664062 L 603.324219 456.015625 L 604.550781 455.136719 C 605.027344 454.769531 605.5625 454.429688 606.167969 454.09375 L 606.757812 454.09375 C 607.359375 454.429688 608.105469 454.738281 608.371094 455.136719 C 608.605469 455.484375 608.710938 455.84375 608.738281 456.207031 L 608.992188 455.597656 L 608.972656 455.753906 L 613.507812 439.070312 L 613.828125 439.070312 C 615.464844 445.191406 617.957031 449.714844 617.472656 455.90625 L 617.335938 456.671875 L 617.765625 456.417969 L 618.878906 455.902344 L 620.101562 455.484375 L 620.726562 455.484375 C 621.042969 455.964844 621.285156 456.433594 621.316406 456.929688 L 621.625 456.929688 L 621.921875 456.359375 L 623.242188 454.015625 L 624.953125 451.492188 L 627.753906 449.378906 L 627.929688 449.054688 L 628.484375 448.449219 L 629.28125 447.90625 L 630.457031 447.53125 L 630.667969 447.582031 L 630.871094 447.640625 L 630.890625 448.671875 C 630.929688 449.136719 631.140625 449.53125 630.929688 449.980469 L 629.375 454.015625 L 628.953125 456.929688 L 630.402344 456.929688 L 631.128906 456.101562 L 631.105469 456.273438 L 631.386719 455.144531 L 631.6875 454.015625 L 632.765625 450.800781 L 632.957031 450.363281 C 633.464844 449.589844 634.105469 448.847656 634.84375 448.105469 L 635.214844 448.105469 C 635.507812 448.40625 635.789062 448.707031 636.058594 449.011719 L 636.851562 445.671875 C 637.617188 443.402344 640.371094 442.46875 643.117188 440.59375 L 643.308594 440.632812 L 643.507812 440.671875 L 641.921875 445.691406 L 642.953125 453.664062 L 643.988281 456.929688 L 646.839844 456.929688 L 647.289062 456.652344 L 653.308594 451.296875 L 659.460938 446.019531 L 661.816406 444.0625 L 665.414062 442.507812 L 665.535156 442.542969 L 665.664062 442.582031 L 663.769531 446.363281 L 656.117188 456.929688 L 659.707031 456.929688 L 659.875 456.613281 L 660.300781 456.273438 L 660.425781 455.578125 C 661.105469 452.820312 663.09375 450.179688 665.3125 447.558594 C 666.140625 446.578125 666.496094 445.492188 667.996094 444.648438 C 668.582031 444.324219 669.703125 444.234375 670.597656 444.054688 L 670.941406 444.164062 C 670.691406 444.550781 670.191406 444.910156 670.050781 445.304688 L 670.3125 445.082031 L 670.121094 447.914062 L 669.503906 450.636719 L 669.28125 451.496094 L 669.039062 452.378906 L 669.078125 452.28125 L 668.925781 453.683594 L 668.75 455.085938 L 668.78125 454.882812 L 668.910156 455.578125 L 669.03125 456.273438 L 668.800781 456.929688 L 671.566406 456.929688 L 673.425781 454.683594 L 673.472656 454.585938 L 674.089844 453.910156 L 674.726562 453.234375 L 674.667969 453.375 L 675.121094 452.605469 L 675.59375 451.929688 L 677.195312 450.390625 L 679.71875 449.125 L 679.925781 449.144531 L 680.121094 449.167969 L 679.894531 451.929688 L 679.953125 453.609375 L 679.886719 453.746094 L 679.648438 454.460938 L 679.398438 455.175781 L 679.445312 455.082031 L 679.359375 455.609375 L 679.269531 456.140625 L 678.921875 456.929688 L 684.066406 456.929688 L 686.957031 448.800781 C 688.363281 444.910156 689.339844 440.617188 692.484375 436.855469 C 692.777344 436.492188 693.550781 436.222656 694.136719 435.917969 L 694.308594 435.941406 L 694.476562 435.964844 L 694.394531 437.113281 L 694.441406 437.023438 L 693.804688 448.800781 L 693.625 450.117188 L 696.945312 446.003906 L 703.507812 437.996094 C 704.421875 436.902344 705.292969 435.371094 707.148438 434.328125 L 708.351562 433.679688 L 709.035156 433.679688 C 709.0625 434.019531 709.085938 434.351562 708.929688 434.683594 C 708.863281 434.816406 708.691406 434.9375 708.652344 435.070312 L 706.679688 441.53125 L 703.535156 447.433594 C 703.996094 448.023438 704.410156 448.621094 704.765625 449.226562 L 705.355469 450.964844 L 706.722656 456.929688 L 708.53125 456.929688 L 709.230469 456.351562 L 709.667969 455.992188 L 709.738281 456.097656 L 710.269531 454.566406 L 711.078125 453.410156 L 711.71875 452.292969 L 712.371094 451.179688 L 713.035156 450.0625 L 713.722656 448.949219 L 713.6875 449.144531 L 714.269531 446.800781 L 715.027344 444.457031 L 715.121094 444.210938 C 715.390625 443.855469 716.019531 443.558594 716.457031 443.226562 L 716.382812 443.414062 L 717.210938 442.023438 L 717.609375 442.023438 C 718.269531 442.472656 718.980469 442.910156 719.308594 443.414062 L 719.238281 443.597656 L 719.039062 444.152344 L 718.921875 444.457031 L 719.667969 446.800781 L 720.261719 449.144531 L 720.222656 449.347656 L 719.609375 452.777344 L 718.988281 455.066406 C 718.875 455.601562 718.917969 456.140625 718.777344 456.675781 L 729.003906 443.566406 L 732.070312 439.96875 C 732.90625 439.035156 734.308594 438.195312 735.199219 437.269531 L 741.160156 430.46875 C 741.351562 430.289062 741.730469 430.152344 742.039062 430.003906 L 742.25 430.03125 L 742.472656 430.0625 L 742.523438 430.359375 L 742.472656 430.640625 L 741.601562 434.316406 L 739.714844 438.085938 L 738.648438 439.382812 L 737.625 440.601562 L 736.546875 442.453125 L 735.457031 444.300781 L 730.484375 452.644531 L 728.722656 455.761719 L 735.066406 450.382812 L 737.75 448.136719 L 742.527344 442.636719 C 742.796875 442.324219 743.574219 442.167969 744.167969 441.96875 L 744.433594 442.023438 L 744.703125 442.074219 L 744.507812 442.90625 L 744.597656 442.800781 C 744.40625 444.917969 744.15625 447.023438 743.265625 449.117188 C 742.933594 449.890625 742.234375 450.636719 741.597656 451.386719 L 737.011719 456.929688 L 741.339844 456.929688 L 746.570312 447.238281 C 747.011719 446.417969 748.089844 445.582031 748.894531 444.804688 L 749.5625 444.804688 C 749.871094 445.660156 750.082031 446.507812 750.113281 447.375 L 750.144531 447.238281 L 749.617188 452.339844 L 749.746094 452.101562 C 750.304688 451.492188 751.019531 450.929688 751.84375 450.363281 C 752.664062 450.929688 753.382812 451.492188 753.941406 452.101562 C 754.199219 452.386719 754.3125 452.761719 754.453125 453.058594 L 755.671875 456.710938 C 756.621094 455.585938 757.679688 454.472656 758.945312 453.394531 C 762.066406 450.734375 766.351562 448.324219 770.355469 445.863281 C 770.96875 445.484375 771.996094 445.40625 772.980469 445.234375 L 773.199219 445.324219 L 773.421875 445.410156 C 773.074219 445.730469 772.582031 446.019531 772.285156 446.347656 L 772.558594 446.179688 L 769.09375 450.253906 L 769.871094 449.847656 L 769.75 449.9375 L 770.292969 449.609375 L 770.835938 449.285156 L 770.757812 449.351562 L 771.609375 448.777344 L 772.652344 448.078125 L 775.957031 446.761719 L 779.441406 445.632812 L 780.039062 445.710938 L 777.238281 449.175781 C 776.894531 449.5625 776.78125 450.007812 776.441406 450.402344 L 775.777344 451.140625 L 775.660156 451.230469 L 775.128906 451.695312 L 775.042969 451.769531 L 774.589844 453.738281 L 773.554688 455.675781 L 773.605469 455.921875 L 773.679688 456.273438 L 773.625 456.554688 C 773.574219 456.683594 773.492188 456.8125 773.382812 456.929688 L 777.617188 456.929688 L 783.726562 446.714844 C 784.046875 446.144531 784.441406 445.574219 785.101562 445.046875 L 787.320312 443.71875 L 787.589844 443.761719 L 787.851562 443.804688 L 787.933594 446.855469 L 787.960938 446.714844 L 786.332031 455.984375 L 787.753906 454.257812 C 788.386719 453.546875 788.863281 452.8125 789.78125 452.152344 C 790.113281 451.910156 790.601562 451.722656 791.113281 451.539062 L 791.476562 450.625 L 791.878906 449.839844 C 792.292969 449.300781 792.859375 448.789062 793.460938 448.277344 L 793.90625 448.277344 C 795.148438 449.320312 794.925781 448.753906 795.503906 449.839844 L 796.574219 452.273438 L 796.925781 453.320312 L 796.90625 453.175781 L 798.597656 455.4375 L 799.375 456.929688 L 803.019531 456.929688 C 803.164062 456.777344 803.300781 456.628906 803.417969 456.46875 L 805.632812 452.808594 L 805.90625 452.453125 L 806.453125 452.128906 L 807.007812 451.804688 L 806.808594 452.019531 L 807.148438 451.683594 L 807.496094 451.351562 L 807.550781 451.277344 L 808.1875 450.785156 L 811.796875 448.609375 L 812.191406 448.648438 L 812.574219 449.855469 C 812.675781 449.855469 812.769531 449.851562 812.867188 449.839844 C 812.980469 450.21875 812.667969 450.589844 812.945312 450.949219 L 813.289062 450.539062 C 814.734375 451.949219 815.269531 453.550781 815.871094 455.054688 L 816.441406 456.570312 C 821.160156 451.421875 826.183594 445.828125 832.460938 441.390625 C 832.945312 441.050781 834.054688 440.945312 834.878906 440.738281 L 835.097656 440.808594 L 835.316406 440.875 C 834.992188 441.246094 834.496094 441.582031 834.246094 441.960938 L 834.402344 441.855469 L 824.949219 456.929688 L 829.933594 456.929688 L 830.132812 456.097656 L 830.304688 455.40625 L 830.492188 454.710938 L 830.753906 453.753906 L 831.039062 452.796875 L 831.265625 452.101562 L 831.515625 451.40625 L 831.820312 450.625 L 832.175781 449.839844 C 832.675781 449.121094 833.351562 448.441406 834.109375 447.757812 L 834.34375 447.757812 C 835.097656 448.441406 835.777344 449.121094 836.273438 449.839844 C 836.773438 450.5625 836.925781 451.359375 837.183594 452.101562 L 838.320312 456.097656 L 838.507812 456.871094 L 838.730469 456.539062 L 839.351562 456.121094 L 839.757812 455.859375 L 839.839844 455.875 L 840.148438 455.535156 L 840.457031 455.199219 L 840.773438 454.859375 L 841.082031 454.535156 L 841.1875 454.1875 L 842.046875 452.792969 C 842.433594 452.207031 842.839844 451.316406 843.761719 450.761719 L 847.886719 448.597656 L 848.171875 448.628906 C 847.742188 449.324219 846.429688 450.539062 845.992188 451.058594 L 845.5625 451.582031 C 845.5625 452.203125 845.109375 453.003906 844.859375 453.597656 L 845.539062 453.3125 L 846.261719 453 L 846.535156 453.050781 L 847.234375 452.351562 L 848.261719 451.882812 L 849.351562 451.511719 L 850.375 451.3125 L 850.882812 451.3125 C 851.109375 451.703125 851.273438 452.078125 851.246094 452.480469 L 851.226562 453.050781 L 850.960938 453.832031 L 850.480469 454.441406 L 850.007812 454.925781 L 849.777344 455.140625 L 850.464844 454.789062 L 850.609375 455.136719 L 850.242188 455.753906 L 849.292969 456.929688 L 850.730469 456.929688 C 850.800781 456.554688 850.910156 456.1875 851.167969 455.8125 L 854.328125 451.65625 L 857.417969 447.847656 C 858.273438 446.996094 859.425781 446.144531 860.539062 445.339844 L 863.285156 443.476562 L 865.914062 442.1875 L 866.046875 442.195312 L 866.179688 442.207031 L 866.191406 443.960938 L 865.457031 445.246094 L 865.011719 446.007812 L 864.570312 446.734375 L 864.578125 446.726562 L 863.976562 447.714844 L 863.34375 448.707031 L 863.453125 448.5625 L 862.070312 452.375 L 860.554688 456.167969 L 860.433594 456.554688 L 860.394531 456.6875 L 860.433594 456.929688 L 860.703125 456.929688 L 861.5 455.316406 C 861.605469 455.027344 861.566406 454.726562 861.78125 454.445312 L 863.15625 453.136719 L 866.082031 450.222656 C 866.914062 449.433594 868.582031 449.117188 870.195312 448.597656 L 870.40625 448.628906 L 870.617188 448.652344 L 870.164062 450.75 L 870.367188 450.507812 L 870.445312 452.296875 L 869.804688 454.195312 L 869.683594 454.6875 L 869.59375 454.910156 L 869.71875 455.316406 L 869.839844 455.753906 L 869.800781 456.78125 L 869.828125 456.929688 L 873.675781 456.929688 C 873.746094 456.816406 873.820312 456.707031 873.90625 456.59375 C 874.257812 456.15625 874.925781 455.769531 875.328125 455.339844 C 875.890625 454.753906 875.972656 454.132812 876.28125 453.519531 L 877.113281 451.621094 L 877.3125 450.75 L 877.40625 450.445312 L 878.003906 449.765625 L 878.609375 449.097656 L 879.035156 447.621094 L 879.675781 445.886719 L 879.792969 445.636719 C 880.515625 445.046875 881.804688 444.605469 882.917969 444.117188 L 883.09375 444.144531 L 883.273438 444.175781 L 882.90625 446.128906 L 883.023438 445.886719 L 884.164062 449.359375 L 884.082031 449.632812 L 883.820312 450.34375 L 883.652344 450.785156 L 883.84375 451.621094 L 884.023438 452.488281 L 883.804688 453.980469 C 883.714844 454.773438 883.699219 455.570312 883.339844 456.347656 C 883.296875 456.445312 883.082031 456.679688 882.863281 456.929688 L 886.273438 456.929688 L 886.4375 456.671875 L 887.324219 455.964844 L 887.417969 455.441406 L 887.5 454.96875 L 887.3125 454.378906 L 886.96875 453.183594 L 886.695312 450.445312 C 886.476562 449.269531 885.597656 448.101562 885.878906 446.925781 C 886.1875 445.621094 887.199219 444.371094 888.035156 443.105469 L 888.617188 443.105469 L 890.773438 446.925781 L 890.742188 446.765625 L 894.917969 453.183594 C 895.21875 453.660156 895.761719 454.105469 896.035156 454.585938 C 896.167969 454.820312 896.246094 455.054688 896.28125 455.289062 L 896.410156 455.195312 L 896.535156 455.074219 C 897.867188 454.4375 899.40625 453.894531 900.972656 453.351562 L 901.203125 453.398438 L 901.4375 453.445312 L 900.695312 455.726562 L 901.082031 455.238281 L 901.035156 455.308594 L 901.601562 454.449219 L 902.230469 453.476562 L 905.535156 449.246094 L 909.265625 444.667969 L 909.210938 444.839844 L 909.484375 444.050781 L 909.886719 443.277344 L 910.535156 442.5625 L 911.683594 442.023438 L 911.871094 442.058594 L 912.0625 442.097656 L 912.539062 444.078125 C 912.628906 444.390625 912.832031 444.699219 912.730469 445.011719 L 909.304688 454.28125 L 908.226562 456.929688 L 909.386719 456.929688 L 910.25 452.835938 L 910.425781 452.410156 L 910.988281 451.910156 L 911.476562 451.464844 L 911.582031 451.097656 L 911.78125 450.402344 C 911.886719 450.054688 911.886719 449.699219 912.109375 449.359375 C 912.890625 448.167969 914.042969 447.027344 915.191406 445.886719 L 915.523438 445.886719 L 916.871094 449.359375 C 917.078125 450.15625 917.578125 450.992188 917.574219 451.792969 L 917.421875 452.183594 L 917.113281 452.722656 L 917.003906 452.925781 L 917.300781 454.226562 L 917.589844 455.617188 L 917.84375 456.929688 L 920.121094 456.929688 C 919.539062 456.046875 919.34375 455.136719 919.222656 454.226562 L 919.492188 453.183594 L 919.777344 452.140625 L 919.988281 451.445312 L 920.210938 450.75 L 920.324219 450.402344 L 920.449219 450.054688 L 920.828125 448.238281 L 922.101562 446.230469 L 922.574219 446.230469 C 923.867188 447.488281 925.074219 448.742188 925.972656 450.054688 L 926.210938 450.75 L 926.921875 453.183594 C 927.015625 453.53125 926.980469 453.886719 927.191406 454.226562 C 927.480469 454.703125 927.855469 455.171875 928.414062 455.609375 L 930.273438 456.929688 L 931.113281 456.929688 C 931.574219 456.195312 932.203125 455.492188 932.929688 454.792969 L 934.273438 453.53125 L 936.621094 450.496094 L 937.859375 448.789062 C 938.707031 447.878906 940.9375 447.347656 941.945312 446.472656 L 943.949219 444.144531 L 944.0625 444.335938 C 944.113281 444.058594 943.894531 443.785156 943.855469 443.507812 L 944.132812 443.449219 L 944.417969 443.394531 C 945.058594 443.609375 945.929688 443.78125 946.066406 444.144531 C 946.53125 445.46875 946.578125 446.914062 945.082031 448.148438 L 944.183594 448.683594 L 943.757812 449.085938 L 943.398438 449.351562 L 943.1875 450.117188 L 942.9375 451.003906 L 942.371094 452.128906 C 942.691406 452.195312 942.996094 452.273438 943.269531 452.375 C 943.910156 452.601562 944.105469 452.972656 944.503906 453.277344 C 944.914062 453.582031 945.203125 453.894531 945.464844 454.226562 C 945.886719 454.761719 946.285156 455.300781 946.933594 455.792969 L 948.53125 456.929688 L 949.460938 456.929688 C 949.40625 456.683594 949.359375 456.433594 949.316406 456.1875 C 949.199219 455.53125 949.089844 454.882812 949.1875 454.226562 L 949.894531 451.792969 L 950.125 451.097656 L 952.558594 447.273438 L 953.15625 447.273438 L 954.957031 450.121094 L 954.957031 539.019531 Z M 570.351562 456.929688 L 574.425781 456.929688 L 575.679688 453.964844 C 576.109375 453.1875 577.664062 452.605469 578.519531 451.898438 C 578.890625 451.597656 578.835938 451.253906 579.039062 450.921875 C 579.644531 449.929688 580.632812 449.042969 581.78125 448.136719 L 583.5 446.78125 L 582.382812 447.433594 L 582.679688 447.332031 L 570.308594 455.683594 Z M 49.367188 456.929688 L 53.445312 456.929688 L 54.699219 453.964844 C 55.128906 453.1875 56.679688 452.605469 57.535156 451.898438 C 57.910156 451.597656 57.855469 451.253906 58.058594 450.921875 C 58.667969 449.929688 59.652344 449.042969 60.800781 448.136719 L 62.519531 446.78125 L 61.398438 447.433594 L 61.695312 447.332031 L 49.328125 455.683594 L 49.367188 456.929688 " fill-opacity="1" fill-rule="evenodd"/></g></svg>