<svg xmlns="http://www.w3.org/2000/svg" xmlns:xlink="http://www.w3.org/1999/xlink" width="500" zoomAndPan="magnify" viewBox="0 0 375 374.999991" height="500" preserveAspectRatio="xMidYMid meet" version="1.0"><defs><clipPath id="8d9b1597ef"><path d="M 328 164 L 351 164 L 351 175 L 328 175 Z M 328 164 " clip-rule="nonzero"/></clipPath><clipPath id="631b643638"><path d="M 191.808594 374.949219 L -0.167969 182.972656 L 182.792969 0.0078125 L 374.773438 191.988281 Z M 191.808594 374.949219 " clip-rule="nonzero"/></clipPath><clipPath id="1a6564c7db"><path d="M 191.808594 374.949219 L -0.167969 182.972656 L 182.792969 0.0078125 L 374.773438 191.988281 Z M 191.808594 374.949219 " clip-rule="nonzero"/></clipPath><clipPath id="20689aaa52"><path d="M 328 172 L 349 172 L 349 185 L 328 185 Z M 328 172 " clip-rule="nonzero"/></clipPath><clipPath id="e9d3a48b3d"><path d="M 191.808594 374.949219 L -0.167969 182.972656 L 182.792969 0.0078125 L 374.773438 191.988281 Z M 191.808594 374.949219 " clip-rule="nonzero"/></clipPath><clipPath id="a7c0a8b987"><path d="M 191.808594 374.949219 L -0.167969 182.972656 L 182.792969 0.0078125 L 374.773438 191.988281 Z M 191.808594 374.949219 " clip-rule="nonzero"/></clipPath><clipPath id="124250b23e"><path d="M 337 200 L 360 200 L 360 211 L 337 211 Z M 337 200 " clip-rule="nonzero"/></clipPath><clipPath id="591023ae87"><path d="M 191.808594 374.949219 L -0.167969 182.972656 L 182.792969 0.0078125 L 374.773438 191.988281 Z M 191.808594 374.949219 " clip-rule="nonzero"/></clipPath><clipPath id="6e963b11bf"><path d="M 191.808594 374.949219 L -0.167969 182.972656 L 182.792969 0.0078125 L 374.773438 191.988281 Z M 191.808594 374.949219 " clip-rule="nonzero"/></clipPath><clipPath id="33ef3207cb"><path d="M 337 190 L 358 190 L 358 203 L 337 203 Z M 337 190 " clip-rule="nonzero"/></clipPath><clipPath id="5cd112d652"><path d="M 191.808594 374.949219 L -0.167969 182.972656 L 182.792969 0.0078125 L 374.773438 191.988281 Z M 191.808594 374.949219 " clip-rule="nonzero"/></clipPath><clipPath id="5f71a83b24"><path d="M 191.808594 374.949219 L -0.167969 182.972656 L 182.792969 0.0078125 L 374.773438 191.988281 Z M 191.808594 374.949219 " clip-rule="nonzero"/></clipPath><clipPath id="bfaf8c919f"><path d="M 289 164 L 312 164 L 312 175 L 289 175 Z M 289 164 " clip-rule="nonzero"/></clipPath><clipPath id="79d448608d"><path d="M 191.808594 374.949219 L -0.167969 182.972656 L 182.792969 0.0078125 L 374.773438 191.988281 Z M 191.808594 374.949219 " clip-rule="nonzero"/></clipPath><clipPath id="71c6c00647"><path d="M 191.808594 374.949219 L -0.167969 182.972656 L 182.792969 0.0078125 L 374.773438 191.988281 Z M 191.808594 374.949219 " clip-rule="nonzero"/></clipPath><clipPath id="147c0e5176"><path d="M 288 172 L 309 172 L 309 185 L 288 185 Z M 288 172 " clip-rule="nonzero"/></clipPath><clipPath id="6094176b77"><path d="M 191.808594 374.949219 L -0.167969 182.972656 L 182.792969 0.0078125 L 374.773438 191.988281 Z M 191.808594 374.949219 " clip-rule="nonzero"/></clipPath><clipPath id="8e8fbd32cc"><path d="M 191.808594 374.949219 L -0.167969 182.972656 L 182.792969 0.0078125 L 374.773438 191.988281 Z M 191.808594 374.949219 " clip-rule="nonzero"/></clipPath><clipPath id="e695dc7a99"><path d="M 298 200 L 320 200 L 320 211 L 298 211 Z M 298 200 " clip-rule="nonzero"/></clipPath><clipPath id="b9aad02e00"><path d="M 191.808594 374.949219 L -0.167969 182.972656 L 182.792969 0.0078125 L 374.773438 191.988281 Z M 191.808594 374.949219 " clip-rule="nonzero"/></clipPath><clipPath id="0c34d9aef0"><path d="M 191.808594 374.949219 L -0.167969 182.972656 L 182.792969 0.0078125 L 374.773438 191.988281 Z M 191.808594 374.949219 " clip-rule="nonzero"/></clipPath><clipPath id="5c70fc243c"><path d="M 297 190 L 318 190 L 318 203 L 297 203 Z M 297 190 " clip-rule="nonzero"/></clipPath><clipPath id="87f566fc8f"><path d="M 191.808594 374.949219 L -0.167969 182.972656 L 182.792969 0.0078125 L 374.773438 191.988281 Z M 191.808594 374.949219 " clip-rule="nonzero"/></clipPath><clipPath id="790a2ba284"><path d="M 191.808594 374.949219 L -0.167969 182.972656 L 182.792969 0.0078125 L 374.773438 191.988281 Z M 191.808594 374.949219 " clip-rule="nonzero"/></clipPath><clipPath id="98b59531d3"><path d="M 249 164 L 272 164 L 272 175 L 249 175 Z M 249 164 " clip-rule="nonzero"/></clipPath><clipPath id="3aecaa8f9d"><path d="M 191.808594 374.949219 L -0.167969 182.972656 L 182.792969 0.0078125 L 374.773438 191.988281 Z M 191.808594 374.949219 " clip-rule="nonzero"/></clipPath><clipPath id="757a543f19"><path d="M 191.808594 374.949219 L -0.167969 182.972656 L 182.792969 0.0078125 L 374.773438 191.988281 Z M 191.808594 374.949219 " clip-rule="nonzero"/></clipPath><clipPath id="4db1444261"><path d="M 249 172 L 270 172 L 270 185 L 249 185 Z M 249 172 " clip-rule="nonzero"/></clipPath><clipPath id="b7ed1af197"><path d="M 191.808594 374.949219 L -0.167969 182.972656 L 182.792969 0.0078125 L 374.773438 191.988281 Z M 191.808594 374.949219 " clip-rule="nonzero"/></clipPath><clipPath id="2d10889588"><path d="M 191.808594 374.949219 L -0.167969 182.972656 L 182.792969 0.0078125 L 374.773438 191.988281 Z M 191.808594 374.949219 " clip-rule="nonzero"/></clipPath><clipPath id="e913165e87"><path d="M 258 200 L 281 200 L 281 211 L 258 211 Z M 258 200 " clip-rule="nonzero"/></clipPath><clipPath id="ece4d0824c"><path d="M 191.808594 374.949219 L -0.167969 182.972656 L 182.792969 0.0078125 L 374.773438 191.988281 Z M 191.808594 374.949219 " clip-rule="nonzero"/></clipPath><clipPath id="214bdf8336"><path d="M 191.808594 374.949219 L -0.167969 182.972656 L 182.792969 0.0078125 L 374.773438 191.988281 Z M 191.808594 374.949219 " clip-rule="nonzero"/></clipPath><clipPath id="290a9c8b1d"><path d="M 258 190 L 279 190 L 279 203 L 258 203 Z M 258 190 " clip-rule="nonzero"/></clipPath><clipPath id="8e38e91951"><path d="M 191.808594 374.949219 L -0.167969 182.972656 L 182.792969 0.0078125 L 374.773438 191.988281 Z M 191.808594 374.949219 " clip-rule="nonzero"/></clipPath><clipPath id="5656ec55fe"><path d="M 191.808594 374.949219 L -0.167969 182.972656 L 182.792969 0.0078125 L 374.773438 191.988281 Z M 191.808594 374.949219 " clip-rule="nonzero"/></clipPath><clipPath id="cb0feb78af"><path d="M 210 164 L 233 164 L 233 175 L 210 175 Z M 210 164 " clip-rule="nonzero"/></clipPath><clipPath id="901aa15a3e"><path d="M 191.808594 374.949219 L -0.167969 182.972656 L 182.792969 0.0078125 L 374.773438 191.988281 Z M 191.808594 374.949219 " clip-rule="nonzero"/></clipPath><clipPath id="efc8188e7c"><path d="M 191.808594 374.949219 L -0.167969 182.972656 L 182.792969 0.0078125 L 374.773438 191.988281 Z M 191.808594 374.949219 " clip-rule="nonzero"/></clipPath><clipPath id="21548c4610"><path d="M 209 172 L 230 172 L 230 185 L 209 185 Z M 209 172 " clip-rule="nonzero"/></clipPath><clipPath id="469f362280"><path d="M 191.808594 374.949219 L -0.167969 182.972656 L 182.792969 0.0078125 L 374.773438 191.988281 Z M 191.808594 374.949219 " clip-rule="nonzero"/></clipPath><clipPath id="871fa7f177"><path d="M 191.808594 374.949219 L -0.167969 182.972656 L 182.792969 0.0078125 L 374.773438 191.988281 Z M 191.808594 374.949219 " clip-rule="nonzero"/></clipPath><clipPath id="252addd69c"><path d="M 219 200 L 241 200 L 241 211 L 219 211 Z M 219 200 " clip-rule="nonzero"/></clipPath><clipPath id="d244c7f3cd"><path d="M 191.808594 374.949219 L -0.167969 182.972656 L 182.792969 0.0078125 L 374.773438 191.988281 Z M 191.808594 374.949219 " clip-rule="nonzero"/></clipPath><clipPath id="a87f23791d"><path d="M 191.808594 374.949219 L -0.167969 182.972656 L 182.792969 0.0078125 L 374.773438 191.988281 Z M 191.808594 374.949219 " clip-rule="nonzero"/></clipPath><clipPath id="30f6747d20"><path d="M 218 190 L 239 190 L 239 203 L 218 203 Z M 218 190 " clip-rule="nonzero"/></clipPath><clipPath id="ba7b3ce6e0"><path d="M 191.808594 374.949219 L -0.167969 182.972656 L 182.792969 0.0078125 L 374.773438 191.988281 Z M 191.808594 374.949219 " clip-rule="nonzero"/></clipPath><clipPath id="ceeaf2be06"><path d="M 191.808594 374.949219 L -0.167969 182.972656 L 182.792969 0.0078125 L 374.773438 191.988281 Z M 191.808594 374.949219 " clip-rule="nonzero"/></clipPath><clipPath id="5c0f926416"><path d="M 170 164 L 193 164 L 193 175 L 170 175 Z M 170 164 " clip-rule="nonzero"/></clipPath><clipPath id="f05e7ecdb0"><path d="M 191.808594 374.949219 L -0.167969 182.972656 L 182.792969 0.0078125 L 374.773438 191.988281 Z M 191.808594 374.949219 " clip-rule="nonzero"/></clipPath><clipPath id="8b6b30d280"><path d="M 191.808594 374.949219 L -0.167969 182.972656 L 182.792969 0.0078125 L 374.773438 191.988281 Z M 191.808594 374.949219 " clip-rule="nonzero"/></clipPath><clipPath id="6ea82dcb1e"><path d="M 170 172 L 191 172 L 191 185 L 170 185 Z M 170 172 " clip-rule="nonzero"/></clipPath><clipPath id="5477682441"><path d="M 191.808594 374.949219 L -0.167969 182.972656 L 182.792969 0.0078125 L 374.773438 191.988281 Z M 191.808594 374.949219 " clip-rule="nonzero"/></clipPath><clipPath id="765d3b683b"><path d="M 191.808594 374.949219 L -0.167969 182.972656 L 182.792969 0.0078125 L 374.773438 191.988281 Z M 191.808594 374.949219 " clip-rule="nonzero"/></clipPath><clipPath id="2e9572d6ba"><path d="M 179 200 L 202 200 L 202 211 L 179 211 Z M 179 200 " clip-rule="nonzero"/></clipPath><clipPath id="c7a6aaf0ca"><path d="M 191.808594 374.949219 L -0.167969 182.972656 L 182.792969 0.0078125 L 374.773438 191.988281 Z M 191.808594 374.949219 " clip-rule="nonzero"/></clipPath><clipPath id="88929d4884"><path d="M 191.808594 374.949219 L -0.167969 182.972656 L 182.792969 0.0078125 L 374.773438 191.988281 Z M 191.808594 374.949219 " clip-rule="nonzero"/></clipPath><clipPath id="bd652f0974"><path d="M 179 190 L 200 190 L 200 203 L 179 203 Z M 179 190 " clip-rule="nonzero"/></clipPath><clipPath id="daf1e67d1e"><path d="M 191.808594 374.949219 L -0.167969 182.972656 L 182.792969 0.0078125 L 374.773438 191.988281 Z M 191.808594 374.949219 " clip-rule="nonzero"/></clipPath><clipPath id="f3913afd02"><path d="M 191.808594 374.949219 L -0.167969 182.972656 L 182.792969 0.0078125 L 374.773438 191.988281 Z M 191.808594 374.949219 " clip-rule="nonzero"/></clipPath><clipPath id="6da8b7c2bf"><path d="M 131 164 L 154 164 L 154 175 L 131 175 Z M 131 164 " clip-rule="nonzero"/></clipPath><clipPath id="55db323b80"><path d="M 191.808594 374.949219 L -0.167969 182.972656 L 182.792969 0.0078125 L 374.773438 191.988281 Z M 191.808594 374.949219 " clip-rule="nonzero"/></clipPath><clipPath id="a488d1f45f"><path d="M 191.808594 374.949219 L -0.167969 182.972656 L 182.792969 0.0078125 L 374.773438 191.988281 Z M 191.808594 374.949219 " clip-rule="nonzero"/></clipPath><clipPath id="6d4daf221b"><path d="M 130 172 L 152 172 L 152 185 L 130 185 Z M 130 172 " clip-rule="nonzero"/></clipPath><clipPath id="ba04865799"><path d="M 191.808594 374.949219 L -0.167969 182.972656 L 182.792969 0.0078125 L 374.773438 191.988281 Z M 191.808594 374.949219 " clip-rule="nonzero"/></clipPath><clipPath id="1d7e6e5278"><path d="M 191.808594 374.949219 L -0.167969 182.972656 L 182.792969 0.0078125 L 374.773438 191.988281 Z M 191.808594 374.949219 " clip-rule="nonzero"/></clipPath><clipPath id="0742867110"><path d="M 140 200 L 162 200 L 162 211 L 140 211 Z M 140 200 " clip-rule="nonzero"/></clipPath><clipPath id="067b291a6a"><path d="M 191.808594 374.949219 L -0.167969 182.972656 L 182.792969 0.0078125 L 374.773438 191.988281 Z M 191.808594 374.949219 " clip-rule="nonzero"/></clipPath><clipPath id="667e97d4d6"><path d="M 191.808594 374.949219 L -0.167969 182.972656 L 182.792969 0.0078125 L 374.773438 191.988281 Z M 191.808594 374.949219 " clip-rule="nonzero"/></clipPath><clipPath id="7bf033b08a"><path d="M 139 190 L 160 190 L 160 203 L 139 203 Z M 139 190 " clip-rule="nonzero"/></clipPath><clipPath id="d2dc07a1e8"><path d="M 191.808594 374.949219 L -0.167969 182.972656 L 182.792969 0.0078125 L 374.773438 191.988281 Z M 191.808594 374.949219 " clip-rule="nonzero"/></clipPath><clipPath id="f87eaa83e5"><path d="M 191.808594 374.949219 L -0.167969 182.972656 L 182.792969 0.0078125 L 374.773438 191.988281 Z M 191.808594 374.949219 " clip-rule="nonzero"/></clipPath><clipPath id="e8763cce29"><path d="M 92 164 L 114 164 L 114 175 L 92 175 Z M 92 164 " clip-rule="nonzero"/></clipPath><clipPath id="247fa3d924"><path d="M 191.808594 374.949219 L -0.167969 182.972656 L 182.792969 0.0078125 L 374.773438 191.988281 Z M 191.808594 374.949219 " clip-rule="nonzero"/></clipPath><clipPath id="3180c90967"><path d="M 191.808594 374.949219 L -0.167969 182.972656 L 182.792969 0.0078125 L 374.773438 191.988281 Z M 191.808594 374.949219 " clip-rule="nonzero"/></clipPath><clipPath id="cdccdfebab"><path d="M 91 172 L 112 172 L 112 185 L 91 185 Z M 91 172 " clip-rule="nonzero"/></clipPath><clipPath id="af59ad2a9b"><path d="M 191.808594 374.949219 L -0.167969 182.972656 L 182.792969 0.0078125 L 374.773438 191.988281 Z M 191.808594 374.949219 " clip-rule="nonzero"/></clipPath><clipPath id="01c65f69c9"><path d="M 191.808594 374.949219 L -0.167969 182.972656 L 182.792969 0.0078125 L 374.773438 191.988281 Z M 191.808594 374.949219 " clip-rule="nonzero"/></clipPath><clipPath id="dee11385f8"><path d="M 100 200 L 123 200 L 123 211 L 100 211 Z M 100 200 " clip-rule="nonzero"/></clipPath><clipPath id="42cf6bc587"><path d="M 191.808594 374.949219 L -0.167969 182.972656 L 182.792969 0.0078125 L 374.773438 191.988281 Z M 191.808594 374.949219 " clip-rule="nonzero"/></clipPath><clipPath id="83391c6a60"><path d="M 191.808594 374.949219 L -0.167969 182.972656 L 182.792969 0.0078125 L 374.773438 191.988281 Z M 191.808594 374.949219 " clip-rule="nonzero"/></clipPath><clipPath id="559512c6d1"><path d="M 100 190 L 121 190 L 121 203 L 100 203 Z M 100 190 " clip-rule="nonzero"/></clipPath><clipPath id="ad5056173e"><path d="M 191.808594 374.949219 L -0.167969 182.972656 L 182.792969 0.0078125 L 374.773438 191.988281 Z M 191.808594 374.949219 " clip-rule="nonzero"/></clipPath><clipPath id="c139155c3f"><path d="M 191.808594 374.949219 L -0.167969 182.972656 L 182.792969 0.0078125 L 374.773438 191.988281 Z M 191.808594 374.949219 " clip-rule="nonzero"/></clipPath><clipPath id="672dc9ac70"><path d="M 52 164 L 75 164 L 75 175 L 52 175 Z M 52 164 " clip-rule="nonzero"/></clipPath><clipPath id="ed288a7148"><path d="M 191.808594 374.949219 L -0.167969 182.972656 L 182.792969 0.0078125 L 374.773438 191.988281 Z M 191.808594 374.949219 " clip-rule="nonzero"/></clipPath><clipPath id="e6ed3f0511"><path d="M 191.808594 374.949219 L -0.167969 182.972656 L 182.792969 0.0078125 L 374.773438 191.988281 Z M 191.808594 374.949219 " clip-rule="nonzero"/></clipPath><clipPath id="18a0234bda"><path d="M 52 172 L 73 172 L 73 185 L 52 185 Z M 52 172 " clip-rule="nonzero"/></clipPath><clipPath id="3761621d73"><path d="M 191.808594 374.949219 L -0.167969 182.972656 L 182.792969 0.0078125 L 374.773438 191.988281 Z M 191.808594 374.949219 " clip-rule="nonzero"/></clipPath><clipPath id="a09080a0ae"><path d="M 191.808594 374.949219 L -0.167969 182.972656 L 182.792969 0.0078125 L 374.773438 191.988281 Z M 191.808594 374.949219 " clip-rule="nonzero"/></clipPath><clipPath id="75717cdc11"><path d="M 61 200 L 84 200 L 84 211 L 61 211 Z M 61 200 " clip-rule="nonzero"/></clipPath><clipPath id="2a9ea4fc0d"><path d="M 191.808594 374.949219 L -0.167969 182.972656 L 182.792969 0.0078125 L 374.773438 191.988281 Z M 191.808594 374.949219 " clip-rule="nonzero"/></clipPath><clipPath id="22aae58532"><path d="M 191.808594 374.949219 L -0.167969 182.972656 L 182.792969 0.0078125 L 374.773438 191.988281 Z M 191.808594 374.949219 " clip-rule="nonzero"/></clipPath><clipPath id="db3278b461"><path d="M 60 190 L 81 190 L 81 203 L 60 203 Z M 60 190 " clip-rule="nonzero"/></clipPath><clipPath id="bebb0ee316"><path d="M 191.808594 374.949219 L -0.167969 182.972656 L 182.792969 0.0078125 L 374.773438 191.988281 Z M 191.808594 374.949219 " clip-rule="nonzero"/></clipPath><clipPath id="93a4cf6632"><path d="M 191.808594 374.949219 L -0.167969 182.972656 L 182.792969 0.0078125 L 374.773438 191.988281 Z M 191.808594 374.949219 " clip-rule="nonzero"/></clipPath><clipPath id="ad5fb1dcec"><path d="M 13 164 L 35 164 L 35 175 L 13 175 Z M 13 164 " clip-rule="nonzero"/></clipPath><clipPath id="143c5ed26f"><path d="M 191.808594 374.949219 L -0.167969 182.972656 L 182.792969 0.0078125 L 374.773438 191.988281 Z M 191.808594 374.949219 " clip-rule="nonzero"/></clipPath><clipPath id="ba5857a731"><path d="M 191.808594 374.949219 L -0.167969 182.972656 L 182.792969 0.0078125 L 374.773438 191.988281 Z M 191.808594 374.949219 " clip-rule="nonzero"/></clipPath><clipPath id="cbeac27c85"><path d="M 12 172 L 33 172 L 33 185 L 12 185 Z M 12 172 " clip-rule="nonzero"/></clipPath><clipPath id="4047f9c7c2"><path d="M 191.808594 374.949219 L -0.167969 182.972656 L 182.792969 0.0078125 L 374.773438 191.988281 Z M 191.808594 374.949219 " clip-rule="nonzero"/></clipPath><clipPath id="874039cad5"><path d="M 191.808594 374.949219 L -0.167969 182.972656 L 182.792969 0.0078125 L 374.773438 191.988281 Z M 191.808594 374.949219 " clip-rule="nonzero"/></clipPath><clipPath id="3f1e5009f6"><path d="M 21 200 L 44 200 L 44 211 L 21 211 Z M 21 200 " clip-rule="nonzero"/></clipPath><clipPath id="28cf05c31f"><path d="M 191.808594 374.949219 L -0.167969 182.972656 L 182.792969 0.0078125 L 374.773438 191.988281 Z M 191.808594 374.949219 " clip-rule="nonzero"/></clipPath><clipPath id="4905e3e591"><path d="M 191.808594 374.949219 L -0.167969 182.972656 L 182.792969 0.0078125 L 374.773438 191.988281 Z M 191.808594 374.949219 " clip-rule="nonzero"/></clipPath><clipPath id="0c8e1aef0f"><path d="M 21 190 L 42 190 L 42 203 L 21 203 Z M 21 190 " clip-rule="nonzero"/></clipPath><clipPath id="2123823b27"><path d="M 191.808594 374.949219 L -0.167969 182.972656 L 182.792969 0.0078125 L 374.773438 191.988281 Z M 191.808594 374.949219 " clip-rule="nonzero"/></clipPath><clipPath id="314ffe7165"><path d="M 191.808594 374.949219 L -0.167969 182.972656 L 182.792969 0.0078125 L 374.773438 191.988281 Z M 191.808594 374.949219 " clip-rule="nonzero"/></clipPath></defs><g clip-path="url(#8d9b1597ef)"><g clip-path="url(#631b643638)"><g clip-path="url(#1a6564c7db)"><path fill="#4d3d11" d="M 328.941406 170.171875 C 328.734375 170.394531 328.894531 170.757812 329.199219 170.753906 C 330.960938 170.730469 335.242188 170.796875 338.167969 171.800781 C 339.679688 172.324219 341.203125 172.808594 342.71875 173.332031 C 343.632812 173.648438 344.515625 174.089844 345.476562 174.253906 C 346.265625 174.390625 347.074219 174.285156 347.785156 173.910156 C 349.289062 173.113281 350.234375 171.546875 350.472656 169.886719 C 350.691406 168.371094 349.96875 166.890625 348.746094 166 C 346.839844 164.601562 343.964844 164.511719 341.6875 164.535156 C 339.101562 164.566406 336.519531 165.117188 334.191406 166.25 C 332.210938 167.210938 330.445312 168.566406 328.941406 170.171875 Z M 328.941406 170.171875 " fill-opacity="1" fill-rule="nonzero"/></g></g></g><g clip-path="url(#20689aaa52)"><g clip-path="url(#e9d3a48b3d)"><g clip-path="url(#a7c0a8b987)"><path fill="#4d3d11" d="M 328.339844 173.308594 C 328.230469 173.023438 328.515625 172.746094 328.796875 172.863281 C 330.421875 173.53125 334.425781 175.058594 337.515625 175.203125 C 339.113281 175.277344 340.710938 175.390625 342.308594 175.464844 C 343.273438 175.511719 344.257812 175.425781 345.214844 175.628906 C 346 175.792969 346.707031 176.191406 347.226562 176.804688 C 348.335938 178.097656 348.632812 179.902344 348.238281 181.535156 C 347.882812 183.023438 346.660156 184.132812 345.199219 184.511719 C 342.910156 185.097656 340.203125 184.121094 338.097656 183.257812 C 335.707031 182.273438 333.511719 180.804688 331.765625 178.894531 C 330.28125 177.269531 329.140625 175.355469 328.339844 173.308594 Z M 328.339844 173.308594 " fill-opacity="1" fill-rule="nonzero"/></g></g></g><g clip-path="url(#124250b23e)"><g clip-path="url(#591023ae87)"><g clip-path="url(#6e963b11bf)"><path fill="#4d3d11" d="M 337.730469 205.023438 C 337.519531 204.804688 337.675781 204.4375 337.980469 204.4375 C 339.738281 204.429688 344.019531 204.300781 346.929688 203.25 C 348.433594 202.707031 349.949219 202.199219 351.457031 201.652344 C 352.367188 201.324219 353.242188 200.867188 354.203125 200.6875 C 354.988281 200.542969 355.792969 200.632812 356.511719 201 C 358.03125 201.773438 359 203.324219 359.261719 204.980469 C 359.503906 206.492188 358.800781 207.984375 357.597656 208.894531 C 355.710938 210.320312 352.835938 210.453125 350.558594 210.464844 C 347.972656 210.476562 345.382812 209.960938 343.035156 208.863281 C 341.042969 207.933594 339.257812 206.605469 337.730469 205.023438 Z M 337.730469 205.023438 " fill-opacity="1" fill-rule="nonzero"/></g></g></g><g clip-path="url(#33ef3207cb)"><g clip-path="url(#5cd112d652)"><g clip-path="url(#5f71a83b24)"><path fill="#4d3d11" d="M 337.082031 201.894531 C 336.976562 202.179688 337.265625 202.453125 337.542969 202.332031 C 339.160156 201.640625 343.140625 200.054688 346.222656 199.859375 C 347.820312 199.761719 349.414062 199.625 351.011719 199.523438 C 351.980469 199.464844 352.964844 199.535156 353.917969 199.320312 C 354.699219 199.140625 355.398438 198.734375 355.914062 198.113281 C 357 196.800781 357.269531 194.992188 356.851562 193.367188 C 356.472656 191.882812 355.234375 190.792969 353.765625 190.4375 C 351.46875 189.882812 348.777344 190.902344 346.683594 191.800781 C 344.308594 192.816406 342.136719 194.320312 340.421875 196.257812 C 338.960938 197.90625 337.851562 199.835938 337.082031 201.894531 Z M 337.082031 201.894531 " fill-opacity="1" fill-rule="nonzero"/></g></g></g><g clip-path="url(#bfaf8c919f)"><g clip-path="url(#79d448608d)"><g clip-path="url(#71c6c00647)"><path fill="#4d3d11" d="M 289.476562 170.171875 C 289.265625 170.394531 289.429688 170.757812 289.734375 170.753906 C 291.492188 170.730469 295.777344 170.796875 298.699219 171.800781 C 300.210938 172.324219 301.738281 172.808594 303.25 173.332031 C 304.164062 173.648438 305.046875 174.089844 306.007812 174.253906 C 306.800781 174.390625 307.605469 174.285156 308.316406 173.910156 C 309.824219 173.113281 310.765625 171.546875 311.007812 169.886719 C 311.226562 168.371094 310.5 166.890625 309.28125 166 C 307.371094 164.601562 304.496094 164.511719 302.21875 164.535156 C 299.632812 164.566406 297.050781 165.117188 294.722656 166.25 C 292.742188 167.210938 290.976562 168.566406 289.476562 170.171875 Z M 289.476562 170.171875 " fill-opacity="1" fill-rule="nonzero"/></g></g></g><g clip-path="url(#147c0e5176)"><g clip-path="url(#6094176b77)"><g clip-path="url(#8e8fbd32cc)"><path fill="#4d3d11" d="M 288.875 173.308594 C 288.761719 173.023438 289.046875 172.746094 289.328125 172.863281 C 290.953125 173.53125 294.957031 175.058594 298.046875 175.203125 C 299.644531 175.28125 301.242188 175.390625 302.839844 175.464844 C 303.804688 175.511719 304.792969 175.425781 305.746094 175.628906 C 306.527344 175.792969 307.238281 176.191406 307.761719 176.804688 C 308.867188 178.097656 309.164062 179.902344 308.769531 181.535156 C 308.414062 183.023438 307.191406 184.132812 305.730469 184.511719 C 303.441406 185.101562 300.734375 184.121094 298.628906 183.257812 C 296.238281 182.273438 294.042969 180.804688 292.296875 178.894531 C 290.816406 177.269531 289.675781 175.355469 288.875 173.308594 Z M 288.875 173.308594 " fill-opacity="1" fill-rule="nonzero"/></g></g></g><g clip-path="url(#e695dc7a99)"><g clip-path="url(#b9aad02e00)"><g clip-path="url(#0c34d9aef0)"><path fill="#4d3d11" d="M 298.261719 205.023438 C 298.050781 204.804688 298.207031 204.4375 298.511719 204.4375 C 300.273438 204.429688 304.554688 204.300781 307.460938 203.25 C 308.964844 202.707031 310.484375 202.199219 311.988281 201.652344 C 312.898438 201.324219 313.773438 200.867188 314.734375 200.6875 C 315.523438 200.542969 316.328125 200.636719 317.046875 201 C 318.566406 201.773438 319.53125 203.324219 319.796875 204.980469 C 320.039062 206.492188 319.335938 207.984375 318.128906 208.894531 C 316.242188 210.320312 313.367188 210.453125 311.089844 210.464844 C 308.507812 210.476562 305.914062 209.960938 303.570312 208.863281 C 301.578125 207.933594 299.789062 206.605469 298.261719 205.023438 Z M 298.261719 205.023438 " fill-opacity="1" fill-rule="nonzero"/></g></g></g><g clip-path="url(#5c70fc243c)"><g clip-path="url(#87f566fc8f)"><g clip-path="url(#790a2ba284)"><path fill="#4d3d11" d="M 297.613281 201.894531 C 297.507812 202.179688 297.796875 202.453125 298.074219 202.332031 C 299.691406 201.640625 303.671875 200.054688 306.757812 199.859375 C 308.355469 199.761719 309.949219 199.625 311.546875 199.523438 C 312.511719 199.464844 313.5 199.535156 314.449219 199.320312 C 315.230469 199.140625 315.933594 198.734375 316.445312 198.113281 C 317.53125 196.800781 317.800781 194.992188 317.386719 193.367188 C 317.007812 191.882812 315.765625 190.792969 314.296875 190.4375 C 312 189.882812 309.3125 190.902344 307.214844 191.800781 C 304.84375 192.816406 302.667969 194.320312 300.953125 196.257812 C 299.496094 197.90625 298.382812 199.835938 297.613281 201.894531 Z M 297.613281 201.894531 " fill-opacity="1" fill-rule="nonzero"/></g></g></g><g clip-path="url(#98b59531d3)"><g clip-path="url(#3aecaa8f9d)"><g clip-path="url(#757a543f19)"><path fill="#4d3d11" d="M 250.007812 170.171875 C 249.800781 170.394531 249.960938 170.757812 250.265625 170.753906 C 252.023438 170.730469 256.308594 170.796875 259.230469 171.800781 C 260.742188 172.324219 262.269531 172.808594 263.78125 173.332031 C 264.695312 173.648438 265.578125 174.089844 266.542969 174.253906 C 267.332031 174.390625 268.136719 174.285156 268.847656 173.910156 C 270.355469 173.113281 271.296875 171.546875 271.539062 169.886719 C 271.757812 168.371094 271.03125 166.890625 269.8125 166 C 267.902344 164.601562 265.027344 164.511719 262.75 164.535156 C 260.167969 164.566406 257.582031 165.117188 255.253906 166.25 C 253.273438 167.210938 251.507812 168.566406 250.007812 170.171875 Z M 250.007812 170.171875 " fill-opacity="1" fill-rule="nonzero"/></g></g></g><g clip-path="url(#4db1444261)"><g clip-path="url(#b7ed1af197)"><g clip-path="url(#2d10889588)"><path fill="#4d3d11" d="M 249.40625 173.308594 C 249.292969 173.023438 249.582031 172.746094 249.859375 172.863281 C 251.488281 173.53125 255.492188 175.058594 258.578125 175.203125 C 260.175781 175.28125 261.773438 175.390625 263.371094 175.46875 C 264.339844 175.511719 265.324219 175.425781 266.277344 175.628906 C 267.0625 175.796875 267.769531 176.191406 268.292969 176.804688 C 269.398438 178.101562 269.695312 179.902344 269.304688 181.535156 C 268.949219 183.023438 267.726562 184.132812 266.261719 184.511719 C 263.972656 185.101562 261.269531 184.121094 259.160156 183.257812 C 256.773438 182.273438 254.574219 180.804688 252.832031 178.894531 C 251.347656 177.269531 250.207031 175.355469 249.40625 173.308594 Z M 249.40625 173.308594 " fill-opacity="1" fill-rule="nonzero"/></g></g></g><g clip-path="url(#e913165e87)"><g clip-path="url(#ece4d0824c)"><g clip-path="url(#214bdf8336)"><path fill="#4d3d11" d="M 258.796875 205.023438 C 258.585938 204.804688 258.742188 204.4375 259.046875 204.4375 C 260.804688 204.429688 265.085938 204.300781 267.992188 203.25 C 269.5 202.707031 271.015625 202.199219 272.519531 201.652344 C 273.429688 201.324219 274.308594 200.867188 275.265625 200.6875 C 276.054688 200.539062 276.859375 200.632812 277.578125 201 C 279.097656 201.773438 280.0625 203.324219 280.328125 204.980469 C 280.570312 206.492188 279.867188 207.984375 278.660156 208.894531 C 276.773438 210.320312 273.898438 210.453125 271.621094 210.464844 C 269.039062 210.476562 266.449219 209.960938 264.101562 208.863281 C 262.109375 207.933594 260.320312 206.605469 258.796875 205.023438 Z M 258.796875 205.023438 " fill-opacity="1" fill-rule="nonzero"/></g></g></g><g clip-path="url(#290a9c8b1d)"><g clip-path="url(#8e38e91951)"><g clip-path="url(#5656ec55fe)"><path fill="#4d3d11" d="M 258.144531 201.894531 C 258.039062 202.179688 258.328125 202.453125 258.609375 202.332031 C 260.222656 201.640625 264.207031 200.054688 267.289062 199.859375 C 268.886719 199.761719 270.480469 199.625 272.078125 199.523438 C 273.042969 199.464844 274.03125 199.535156 274.980469 199.320312 C 275.761719 199.140625 276.464844 198.734375 276.980469 198.113281 C 278.0625 196.800781 278.332031 194.992188 277.917969 193.367188 C 277.539062 191.882812 276.300781 190.792969 274.832031 190.4375 C 272.535156 189.882812 269.84375 190.902344 267.75 191.800781 C 265.375 192.816406 263.199219 194.320312 261.484375 196.257812 C 260.027344 197.90625 258.917969 199.835938 258.144531 201.894531 Z M 258.144531 201.894531 " fill-opacity="1" fill-rule="nonzero"/></g></g></g><g clip-path="url(#cb0feb78af)"><g clip-path="url(#901aa15a3e)"><g clip-path="url(#efc8188e7c)"><path fill="#4d3d11" d="M 210.539062 170.171875 C 210.332031 170.394531 210.492188 170.757812 210.796875 170.753906 C 212.558594 170.730469 216.839844 170.796875 219.761719 171.800781 C 221.277344 172.324219 222.800781 172.808594 224.3125 173.332031 C 225.230469 173.648438 226.113281 174.089844 227.074219 174.253906 C 227.863281 174.390625 228.667969 174.285156 229.378906 173.910156 C 230.886719 173.113281 231.832031 171.546875 232.070312 169.886719 C 232.289062 168.371094 231.5625 166.890625 230.34375 166 C 228.4375 164.601562 225.5625 164.511719 223.28125 164.535156 C 220.699219 164.566406 218.113281 165.117188 215.785156 166.25 C 213.808594 167.210938 212.039062 168.566406 210.539062 170.171875 Z M 210.539062 170.171875 " fill-opacity="1" fill-rule="nonzero"/></g></g></g><g clip-path="url(#21548c4610)"><g clip-path="url(#469f362280)"><g clip-path="url(#871fa7f177)"><path fill="#4d3d11" d="M 209.9375 173.308594 C 209.828125 173.023438 210.113281 172.746094 210.394531 172.863281 C 212.019531 173.53125 216.023438 175.058594 219.109375 175.203125 C 220.710938 175.28125 222.304688 175.390625 223.902344 175.46875 C 224.871094 175.511719 225.855469 175.425781 226.808594 175.628906 C 227.59375 175.796875 228.304688 176.191406 228.824219 176.804688 C 229.929688 178.101562 230.226562 179.902344 229.835938 181.535156 C 229.480469 183.023438 228.257812 184.132812 226.796875 184.511719 C 224.507812 185.101562 221.800781 184.121094 219.691406 183.257812 C 217.304688 182.273438 215.109375 180.804688 213.363281 178.894531 C 211.878906 177.269531 210.738281 175.355469 209.9375 173.308594 Z M 209.9375 173.308594 " fill-opacity="1" fill-rule="nonzero"/></g></g></g><g clip-path="url(#252addd69c)"><g clip-path="url(#d244c7f3cd)"><g clip-path="url(#a87f23791d)"><path fill="#4d3d11" d="M 219.328125 205.023438 C 219.117188 204.804688 219.273438 204.4375 219.578125 204.4375 C 221.335938 204.429688 225.617188 204.300781 228.523438 203.25 C 230.03125 202.707031 231.546875 202.199219 233.050781 201.652344 C 233.960938 201.324219 234.839844 200.867188 235.800781 200.6875 C 236.585938 200.539062 237.390625 200.632812 238.109375 201 C 239.628906 201.773438 240.59375 203.324219 240.859375 204.980469 C 241.101562 206.492188 240.398438 207.984375 239.195312 208.894531 C 237.308594 210.320312 234.433594 210.453125 232.15625 210.464844 C 229.570312 210.476562 226.980469 209.960938 224.632812 208.863281 C 222.640625 207.933594 220.851562 206.605469 219.328125 205.023438 Z M 219.328125 205.023438 " fill-opacity="1" fill-rule="nonzero"/></g></g></g><g clip-path="url(#30f6747d20)"><g clip-path="url(#ba7b3ce6e0)"><g clip-path="url(#ceeaf2be06)"><path fill="#4d3d11" d="M 218.679688 201.894531 C 218.570312 202.179688 218.859375 202.453125 219.140625 202.332031 C 220.757812 201.640625 224.738281 200.054688 227.820312 199.859375 C 229.417969 199.761719 231.011719 199.625 232.609375 199.523438 C 233.578125 199.464844 234.5625 199.535156 235.515625 199.320312 C 236.296875 199.140625 236.996094 198.734375 237.511719 198.113281 C 238.597656 196.800781 238.867188 194.992188 238.449219 193.367188 C 238.070312 191.882812 236.832031 190.792969 235.363281 190.4375 C 233.066406 189.882812 230.375 190.902344 228.28125 191.800781 C 225.90625 192.816406 223.734375 194.320312 222.019531 196.257812 C 220.558594 197.90625 219.449219 199.835938 218.679688 201.894531 Z M 218.679688 201.894531 " fill-opacity="1" fill-rule="nonzero"/></g></g></g><g clip-path="url(#5c0f926416)"><g clip-path="url(#f05e7ecdb0)"><g clip-path="url(#8b6b30d280)"><path fill="#4d3d11" d="M 171.070312 170.171875 C 170.863281 170.394531 171.027344 170.757812 171.328125 170.753906 C 173.089844 170.730469 177.371094 170.796875 180.292969 171.804688 C 181.808594 172.324219 183.332031 172.808594 184.847656 173.332031 C 185.761719 173.648438 186.644531 174.089844 187.605469 174.253906 C 188.394531 174.390625 189.199219 174.285156 189.914062 173.910156 C 191.421875 173.113281 192.363281 171.546875 192.601562 169.886719 C 192.820312 168.371094 192.09375 166.890625 190.875 166 C 188.96875 164.605469 186.09375 164.511719 183.816406 164.535156 C 181.230469 164.566406 178.648438 165.117188 176.320312 166.25 C 174.339844 167.210938 172.570312 168.566406 171.070312 170.171875 Z M 171.070312 170.171875 " fill-opacity="1" fill-rule="nonzero"/></g></g></g><g clip-path="url(#6ea82dcb1e)"><g clip-path="url(#5477682441)"><g clip-path="url(#765d3b683b)"><path fill="#4d3d11" d="M 170.472656 173.308594 C 170.359375 173.023438 170.644531 172.746094 170.925781 172.863281 C 172.550781 173.53125 176.554688 175.058594 179.644531 175.203125 C 181.242188 175.28125 182.839844 175.390625 184.4375 175.46875 C 185.402344 175.511719 186.386719 175.425781 187.34375 175.628906 C 188.125 175.796875 188.835938 176.191406 189.359375 176.804688 C 190.464844 178.101562 190.757812 179.902344 190.367188 181.535156 C 190.011719 183.023438 188.789062 184.132812 187.328125 184.511719 C 185.039062 185.101562 182.332031 184.121094 180.226562 183.257812 C 177.835938 182.273438 175.640625 180.804688 173.894531 178.894531 C 172.414062 177.269531 171.269531 175.355469 170.472656 173.308594 Z M 170.472656 173.308594 " fill-opacity="1" fill-rule="nonzero"/></g></g></g><g clip-path="url(#2e9572d6ba)"><g clip-path="url(#c7a6aaf0ca)"><g clip-path="url(#88929d4884)"><path fill="#4d3d11" d="M 179.859375 205.023438 C 179.648438 204.804688 179.804688 204.4375 180.109375 204.4375 C 181.871094 204.429688 186.152344 204.300781 189.058594 203.25 C 190.5625 202.707031 192.078125 202.199219 193.585938 201.652344 C 194.496094 201.324219 195.371094 200.867188 196.328125 200.6875 C 197.117188 200.539062 197.925781 200.632812 198.644531 201 C 200.160156 201.773438 201.128906 203.324219 201.390625 204.980469 C 201.636719 206.492188 200.933594 207.984375 199.726562 208.894531 C 197.839844 210.316406 194.964844 210.453125 192.6875 210.460938 C 190.105469 210.472656 187.511719 209.960938 185.167969 208.863281 C 183.171875 207.933594 181.382812 206.605469 179.859375 205.023438 Z M 179.859375 205.023438 " fill-opacity="1" fill-rule="nonzero"/></g></g></g><g clip-path="url(#bd652f0974)"><g clip-path="url(#daf1e67d1e)"><g clip-path="url(#f3913afd02)"><path fill="#4d3d11" d="M 179.210938 201.894531 C 179.105469 202.179688 179.394531 202.453125 179.671875 202.332031 C 181.289062 201.640625 185.269531 200.054688 188.355469 199.859375 C 189.949219 199.761719 191.546875 199.625 193.140625 199.523438 C 194.109375 199.464844 195.097656 199.535156 196.046875 199.320312 C 196.828125 199.140625 197.53125 198.734375 198.042969 198.113281 C 199.128906 196.800781 199.398438 194.992188 198.980469 193.367188 C 198.601562 191.882812 197.363281 190.792969 195.894531 190.4375 C 193.597656 189.882812 190.90625 190.902344 188.8125 191.800781 C 186.4375 192.816406 184.265625 194.320312 182.550781 196.257812 C 181.09375 197.90625 179.980469 199.835938 179.210938 201.894531 Z M 179.210938 201.894531 " fill-opacity="1" fill-rule="nonzero"/></g></g></g><g clip-path="url(#6da8b7c2bf)"><g clip-path="url(#55db323b80)"><g clip-path="url(#a488d1f45f)"><path fill="#4d3d11" d="M 131.605469 170.171875 C 131.394531 170.394531 131.558594 170.757812 131.863281 170.753906 C 133.621094 170.730469 137.90625 170.796875 140.828125 171.800781 C 142.339844 172.324219 143.867188 172.808594 145.378906 173.332031 C 146.292969 173.648438 147.175781 174.089844 148.136719 174.253906 C 148.929688 174.390625 149.734375 174.285156 150.445312 173.910156 C 151.953125 173.113281 152.894531 171.546875 153.132812 169.886719 C 153.355469 168.371094 152.628906 166.890625 151.410156 166 C 149.5 164.601562 146.625 164.511719 144.347656 164.535156 C 141.765625 164.566406 139.179688 165.117188 136.851562 166.25 C 134.871094 167.210938 133.105469 168.566406 131.605469 170.171875 Z M 131.605469 170.171875 " fill-opacity="1" fill-rule="nonzero"/></g></g></g><g clip-path="url(#6d4daf221b)"><g clip-path="url(#ba04865799)"><g clip-path="url(#1d7e6e5278)"><path fill="#4d3d11" d="M 131.003906 173.308594 C 130.890625 173.023438 131.175781 172.746094 131.457031 172.863281 C 133.085938 173.53125 137.089844 175.058594 140.175781 175.203125 C 141.773438 175.28125 143.371094 175.390625 144.96875 175.46875 C 145.9375 175.511719 146.921875 175.425781 147.875 175.628906 C 148.660156 175.796875 149.367188 176.191406 149.890625 176.804688 C 150.996094 178.101562 151.292969 179.902344 150.902344 181.535156 C 150.542969 183.023438 149.320312 184.132812 147.859375 184.511719 C 145.570312 185.101562 142.863281 184.121094 140.757812 183.257812 C 138.367188 182.273438 136.171875 180.804688 134.425781 178.894531 C 132.945312 177.269531 131.804688 175.355469 131.003906 173.308594 Z M 131.003906 173.308594 " fill-opacity="1" fill-rule="nonzero"/></g></g></g><g clip-path="url(#0742867110)"><g clip-path="url(#067b291a6a)"><g clip-path="url(#667e97d4d6)"><path fill="#4d3d11" d="M 140.390625 205.023438 C 140.183594 204.804688 140.339844 204.4375 140.640625 204.4375 C 142.402344 204.429688 146.683594 204.300781 149.589844 203.25 C 151.09375 202.707031 152.613281 202.199219 154.117188 201.652344 C 155.027344 201.324219 155.90625 200.867188 156.863281 200.6875 C 157.652344 200.539062 158.457031 200.632812 159.175781 201 C 160.695312 201.773438 161.660156 203.324219 161.925781 204.980469 C 162.167969 206.492188 161.464844 207.984375 160.257812 208.894531 C 158.371094 210.316406 155.496094 210.453125 153.21875 210.460938 C 150.636719 210.472656 148.042969 209.960938 145.699219 208.863281 C 143.703125 207.933594 141.917969 206.605469 140.390625 205.023438 Z M 140.390625 205.023438 " fill-opacity="1" fill-rule="nonzero"/></g></g></g><g clip-path="url(#7bf033b08a)"><g clip-path="url(#d2dc07a1e8)"><g clip-path="url(#f87eaa83e5)"><path fill="#4d3d11" d="M 139.742188 201.894531 C 139.636719 202.179688 139.925781 202.453125 140.203125 202.332031 C 141.820312 201.640625 145.800781 200.054688 148.886719 199.859375 C 150.484375 199.761719 152.078125 199.625 153.675781 199.523438 C 154.640625 199.464844 155.628906 199.535156 156.578125 199.320312 C 157.359375 199.140625 158.0625 198.734375 158.574219 198.113281 C 159.660156 196.800781 159.929688 194.992188 159.515625 193.367188 C 159.136719 191.882812 157.894531 190.792969 156.429688 190.4375 C 154.128906 189.882812 151.441406 190.902344 149.347656 191.800781 C 146.972656 192.816406 144.796875 194.320312 143.082031 196.257812 C 141.625 197.90625 140.511719 199.835938 139.742188 201.894531 Z M 139.742188 201.894531 " fill-opacity="1" fill-rule="nonzero"/></g></g></g><g clip-path="url(#e8763cce29)"><g clip-path="url(#247fa3d924)"><g clip-path="url(#3180c90967)"><path fill="#4d3d11" d="M 92.136719 170.171875 C 91.929688 170.394531 92.089844 170.757812 92.394531 170.753906 C 94.152344 170.730469 98.4375 170.796875 101.359375 171.800781 C 102.875 172.324219 104.398438 172.808594 105.910156 173.332031 C 106.824219 173.648438 107.710938 174.089844 108.671875 174.253906 C 109.460938 174.390625 110.265625 174.285156 110.976562 173.910156 C 112.484375 173.113281 113.425781 171.546875 113.667969 169.886719 C 113.886719 168.371094 113.160156 166.890625 111.941406 166 C 110.03125 164.601562 107.15625 164.511719 104.878906 164.535156 C 102.296875 164.566406 99.710938 165.117188 97.382812 166.25 C 95.40625 167.210938 93.636719 168.566406 92.136719 170.171875 Z M 92.136719 170.171875 " fill-opacity="1" fill-rule="nonzero"/></g></g></g><g clip-path="url(#cdccdfebab)"><g clip-path="url(#af59ad2a9b)"><g clip-path="url(#01c65f69c9)"><path fill="#4d3d11" d="M 91.535156 173.308594 C 91.425781 173.023438 91.707031 172.746094 91.988281 172.863281 C 93.617188 173.53125 97.621094 175.058594 100.707031 175.203125 C 102.304688 175.28125 103.902344 175.390625 105.5 175.464844 C 106.46875 175.511719 107.453125 175.425781 108.40625 175.628906 C 109.191406 175.792969 109.902344 176.191406 110.421875 176.804688 C 111.527344 178.101562 111.824219 179.902344 111.433594 181.535156 C 111.078125 183.023438 109.855469 184.132812 108.390625 184.511719 C 106.105469 185.101562 103.398438 184.121094 101.289062 183.257812 C 98.902344 182.273438 96.707031 180.804688 94.960938 178.894531 C 93.476562 177.269531 92.335938 175.355469 91.535156 173.308594 Z M 91.535156 173.308594 " fill-opacity="1" fill-rule="nonzero"/></g></g></g><g clip-path="url(#dee11385f8)"><g clip-path="url(#42cf6bc587)"><g clip-path="url(#83391c6a60)"><path fill="#4d3d11" d="M 100.925781 205.023438 C 100.714844 204.804688 100.871094 204.4375 101.175781 204.4375 C 102.933594 204.429688 107.214844 204.300781 110.121094 203.25 C 111.628906 202.707031 113.144531 202.199219 114.648438 201.652344 C 115.558594 201.324219 116.4375 200.867188 117.394531 200.6875 C 118.183594 200.539062 118.988281 200.632812 119.707031 201 C 121.226562 201.773438 122.191406 203.324219 122.457031 204.980469 C 122.699219 206.492188 121.996094 207.984375 120.789062 208.894531 C 118.902344 210.320312 116.027344 210.453125 113.75 210.460938 C 111.167969 210.472656 108.574219 209.960938 106.230469 208.863281 C 104.238281 207.933594 102.449219 206.605469 100.925781 205.023438 Z M 100.925781 205.023438 " fill-opacity="1" fill-rule="nonzero"/></g></g></g><g clip-path="url(#559512c6d1)"><g clip-path="url(#ad5056173e)"><g clip-path="url(#c139155c3f)"><path fill="#4d3d11" d="M 100.277344 201.894531 C 100.167969 202.179688 100.457031 202.453125 100.738281 202.332031 C 102.351562 201.640625 106.332031 200.054688 109.417969 199.859375 C 111.015625 199.761719 112.609375 199.625 114.207031 199.523438 C 115.171875 199.464844 116.160156 199.535156 117.109375 199.320312 C 117.894531 199.140625 118.59375 198.734375 119.109375 198.113281 C 120.195312 196.800781 120.464844 194.992188 120.046875 193.367188 C 119.667969 191.882812 118.429688 190.792969 116.960938 190.4375 C 114.664062 189.882812 111.972656 190.902344 109.878906 191.800781 C 107.503906 192.816406 105.332031 194.320312 103.613281 196.257812 C 102.15625 197.90625 101.046875 199.835938 100.277344 201.894531 Z M 100.277344 201.894531 " fill-opacity="1" fill-rule="nonzero"/></g></g></g><g clip-path="url(#672dc9ac70)"><g clip-path="url(#ed288a7148)"><g clip-path="url(#e6ed3f0511)"><path fill="#4d3d11" d="M 52.667969 170.171875 C 52.460938 170.394531 52.625 170.757812 52.925781 170.753906 C 54.683594 170.730469 58.96875 170.796875 61.890625 171.800781 C 63.40625 172.324219 64.929688 172.808594 66.441406 173.332031 C 67.359375 173.648438 68.242188 174.089844 69.203125 174.253906 C 69.992188 174.390625 70.796875 174.285156 71.511719 173.910156 C 73.015625 173.113281 73.957031 171.546875 74.199219 169.886719 C 74.417969 168.371094 73.691406 166.890625 72.472656 166 C 70.566406 164.605469 67.6875 164.511719 65.414062 164.535156 C 62.828125 164.566406 60.246094 165.117188 57.914062 166.25 C 55.9375 167.210938 54.167969 168.566406 52.667969 170.171875 Z M 52.667969 170.171875 " fill-opacity="1" fill-rule="nonzero"/></g></g></g><g clip-path="url(#18a0234bda)"><g clip-path="url(#3761621d73)"><g clip-path="url(#a09080a0ae)"><path fill="#4d3d11" d="M 52.066406 173.308594 C 51.957031 173.023438 52.242188 172.746094 52.523438 172.863281 C 54.148438 173.53125 58.152344 175.058594 61.242188 175.203125 C 62.839844 175.28125 64.4375 175.390625 66.035156 175.464844 C 67 175.511719 67.984375 175.425781 68.9375 175.628906 C 69.722656 175.792969 70.433594 176.191406 70.953125 176.804688 C 72.0625 178.101562 72.355469 179.902344 71.964844 181.535156 C 71.609375 183.023438 70.386719 184.132812 68.925781 184.511719 C 66.636719 185.101562 63.929688 184.121094 61.824219 183.257812 C 59.433594 182.273438 57.238281 180.804688 55.492188 178.894531 C 54.007812 177.269531 52.867188 175.355469 52.066406 173.308594 Z M 52.066406 173.308594 " fill-opacity="1" fill-rule="nonzero"/></g></g></g><g clip-path="url(#75717cdc11)"><g clip-path="url(#2a9ea4fc0d)"><g clip-path="url(#22aae58532)"><path fill="#4d3d11" d="M 61.457031 205.023438 C 61.246094 204.804688 61.402344 204.4375 61.707031 204.4375 C 63.464844 204.429688 67.75 204.300781 70.65625 203.25 C 72.160156 202.707031 73.675781 202.199219 75.183594 201.652344 C 76.09375 201.324219 76.96875 200.867188 77.925781 200.6875 C 78.714844 200.539062 79.523438 200.632812 80.238281 201 C 81.757812 201.773438 82.722656 203.324219 82.988281 204.980469 C 83.230469 206.492188 82.527344 207.984375 81.320312 208.894531 C 79.4375 210.320312 76.5625 210.453125 74.285156 210.460938 C 71.699219 210.472656 69.109375 209.960938 66.761719 208.863281 C 64.769531 207.933594 62.980469 206.605469 61.457031 205.023438 Z M 61.457031 205.023438 " fill-opacity="1" fill-rule="nonzero"/></g></g></g><g clip-path="url(#db3278b461)"><g clip-path="url(#bebb0ee316)"><g clip-path="url(#93a4cf6632)"><path fill="#4d3d11" d="M 60.808594 201.894531 C 60.703125 202.179688 60.992188 202.453125 61.269531 202.332031 C 62.886719 201.640625 66.867188 200.054688 69.953125 199.859375 C 71.546875 199.761719 73.144531 199.625 74.738281 199.523438 C 75.707031 199.464844 76.691406 199.535156 77.644531 199.320312 C 78.425781 199.140625 79.128906 198.734375 79.640625 198.113281 C 80.726562 196.800781 80.996094 194.992188 80.578125 193.367188 C 80.199219 191.882812 78.960938 190.792969 77.492188 190.4375 C 75.195312 189.882812 72.503906 190.902344 70.410156 191.800781 C 68.035156 192.816406 65.863281 194.320312 64.148438 196.257812 C 62.691406 197.90625 61.578125 199.835938 60.808594 201.894531 Z M 60.808594 201.894531 " fill-opacity="1" fill-rule="nonzero"/></g></g></g><g clip-path="url(#ad5fb1dcec)"><g clip-path="url(#143c5ed26f)"><g clip-path="url(#ba5857a731)"><path fill="#4d3d11" d="M 13.203125 170.171875 C 12.992188 170.394531 13.15625 170.757812 13.460938 170.753906 C 15.21875 170.730469 19.503906 170.796875 22.425781 171.800781 C 23.9375 172.324219 25.460938 172.808594 26.976562 173.332031 C 27.890625 173.648438 28.773438 174.089844 29.734375 174.253906 C 30.523438 174.390625 31.328125 174.285156 32.042969 173.910156 C 33.550781 173.113281 34.492188 171.546875 34.730469 169.886719 C 34.949219 168.371094 34.222656 166.890625 33.003906 166 C 31.097656 164.605469 28.222656 164.511719 25.945312 164.535156 C 23.359375 164.566406 20.777344 165.117188 18.449219 166.25 C 16.46875 167.210938 14.703125 168.566406 13.203125 170.171875 Z M 13.203125 170.171875 " fill-opacity="1" fill-rule="nonzero"/></g></g></g><g clip-path="url(#cbeac27c85)"><g clip-path="url(#4047f9c7c2)"><g clip-path="url(#874039cad5)"><path fill="#4d3d11" d="M 12.601562 173.308594 C 12.488281 173.023438 12.773438 172.746094 13.054688 172.863281 C 14.679688 173.53125 18.683594 175.058594 21.773438 175.203125 C 23.371094 175.28125 24.96875 175.390625 26.566406 175.464844 C 27.535156 175.511719 28.519531 175.425781 29.472656 175.628906 C 30.257812 175.792969 30.964844 176.191406 31.488281 176.804688 C 32.59375 178.101562 32.890625 179.902344 32.5 181.535156 C 32.140625 183.023438 30.917969 184.132812 29.457031 184.511719 C 27.167969 185.101562 24.460938 184.121094 22.355469 183.257812 C 19.964844 182.273438 17.769531 180.804688 16.023438 178.894531 C 14.539062 177.269531 13.402344 175.355469 12.601562 173.308594 Z M 12.601562 173.308594 " fill-opacity="1" fill-rule="nonzero"/></g></g></g><g clip-path="url(#3f1e5009f6)"><g clip-path="url(#28cf05c31f)"><g clip-path="url(#4905e3e591)"><path fill="#4d3d11" d="M 21.988281 205.023438 C 21.777344 204.804688 21.933594 204.4375 22.238281 204.4375 C 23.996094 204.429688 28.28125 204.300781 31.1875 203.25 C 32.691406 202.707031 34.210938 202.199219 35.714844 201.652344 C 36.625 201.324219 37.5 200.867188 38.460938 200.6875 C 39.246094 200.539062 40.054688 200.632812 40.769531 201 C 42.289062 201.773438 43.257812 203.324219 43.519531 204.980469 C 43.765625 206.492188 43.0625 207.984375 41.855469 208.894531 C 39.96875 210.320312 37.09375 210.453125 34.816406 210.460938 C 32.234375 210.472656 29.640625 209.960938 27.296875 208.863281 C 25.300781 207.933594 23.515625 206.605469 21.988281 205.023438 Z M 21.988281 205.023438 " fill-opacity="1" fill-rule="nonzero"/></g></g></g><g clip-path="url(#0c8e1aef0f)"><g clip-path="url(#2123823b27)"><g clip-path="url(#314ffe7165)"><path fill="#4d3d11" d="M 21.339844 201.894531 C 21.234375 202.179688 21.523438 202.453125 21.800781 202.332031 C 23.417969 201.640625 27.398438 200.054688 30.484375 199.859375 C 32.082031 199.761719 33.675781 199.625 35.273438 199.523438 C 36.238281 199.464844 37.222656 199.535156 38.175781 199.320312 C 38.957031 199.140625 39.660156 198.734375 40.171875 198.113281 C 41.257812 196.800781 41.527344 194.992188 41.113281 193.367188 C 40.730469 191.882812 39.492188 190.792969 38.027344 190.4375 C 35.726562 189.882812 33.035156 190.902344 30.945312 191.800781 C 28.570312 192.816406 26.394531 194.320312 24.679688 196.257812 C 23.222656 197.90625 22.109375 199.835938 21.339844 201.894531 Z M 21.339844 201.894531 " fill-opacity="1" fill-rule="nonzero"/></g></g></g></svg>