<svg xmlns="http://www.w3.org/2000/svg" xmlns:xlink="http://www.w3.org/1999/xlink" width="500" zoomAndPan="magnify" viewBox="0 0 375 374.999991" height="500" preserveAspectRatio="xMidYMid meet" version="1.0"><path fill="#4d3d11" d="M 372.027344 215.261719 C 374.847656 210.785156 370.898438 205.109375 365.710938 206.167969 C 335.75 212.277344 262.398438 225.191406 209.210938 217.59375 C 181.667969 213.660156 154.042969 210.351562 126.503906 206.394531 C 109.839844 204 93.300781 199.3125 76.355469 199.648438 C 62.417969 199.925781 49.027344 204.367188 38.097656 213.117188 C 14.96875 231.628906 4.011719 261.457031 5.347656 290.59375 C 6.5625 317.1875 23.8125 340.117188 47.542969 351.339844 C 84.6875 368.902344 134.089844 361.050781 172.894531 353.183594 C 216.910156 344.257812 259.21875 326.34375 295.269531 299.410156 C 325.917969 276.511719 351.65625 247.582031 372.027344 215.261719 Z M 372.027344 215.261719 " fill-opacity="1" fill-rule="nonzero"/><path fill="#4d3d11" d="M 372.027344 159.730469 C 374.847656 164.207031 370.898438 169.886719 365.710938 168.828125 C 335.75 162.714844 262.398438 149.800781 209.210938 157.398438 C 181.667969 161.335938 154.042969 164.644531 126.503906 168.597656 C 109.839844 170.992188 93.300781 175.679688 76.355469 175.34375 C 62.417969 175.070312 49.027344 170.625 38.097656 161.878906 C 14.96875 143.367188 4.011719 113.535156 5.347656 84.402344 C 6.5625 57.808594 23.8125 34.875 47.542969 23.65625 C 84.6875 6.09375 134.089844 13.941406 172.894531 21.8125 C 216.910156 30.738281 259.21875 48.652344 295.269531 75.582031 C 325.917969 98.480469 351.65625 127.410156 372.027344 159.730469 Z M 372.027344 159.730469 " fill-opacity="1" fill-rule="nonzero"/></svg>