<svg xmlns="http://www.w3.org/2000/svg" xmlns:xlink="http://www.w3.org/1999/xlink" width="500" zoomAndPan="magnify" viewBox="0 0 375 374.999991" height="500" preserveAspectRatio="xMidYMid meet" version="1.0"><path fill="#303848" d="M 61.023438 239.859375 C 58.851562 239.859375 57.378906 239.832031 57.085938 239.773438 C 56.453125 239.640625 56 239.359375 55.742188 238.933594 C 55.644531 238.773438 55.585938 238.609375 55.554688 238.453125 C 54.183594 239.167969 52.230469 239.578125 49.382812 239.546875 C 42.570312 239.464844 39.988281 239.460938 17.085938 239.460938 C 14.988281 239.460938 12.722656 239.460938 10.261719 239.460938 L 0.34375 239.460938 C 0.152344 239.460938 0 239.304688 0 239.117188 C 0 238.925781 0.152344 238.773438 0.34375 238.773438 L 10.261719 238.769531 C 12.71875 238.769531 14.988281 238.769531 17.085938 238.769531 C 40 238.769531 42.574219 238.777344 49.390625 238.859375 C 52.199219 238.890625 54.214844 238.5 55.601562 237.644531 C 55.789062 236.972656 56.132812 236.027344 56.464844 235.113281 C 56.78125 234.246094 57.105469 233.347656 57.285156 232.734375 C 58.878906 227.199219 58.472656 225.429688 57.804688 222.5 L 57.761719 222.3125 C 57.667969 221.902344 57.578125 221.578125 57.476562 221.304688 C 57.417969 221.253906 57.355469 221.203125 57.292969 221.148438 C 55.8125 219.890625 53.808594 219.28125 52.070312 219.550781 C 50.800781 219.753906 50.039062 220.539062 49.234375 221.371094 C 48.539062 222.09375 47.820312 222.839844 46.742188 223.21875 C 46.535156 223.292969 46.328125 223.238281 46.199219 223.078125 C 46.089844 222.945312 45.867188 222.667969 46.421875 220.9375 C 46.699219 220.066406 47.070312 219.171875 47.324219 218.761719 C 48.257812 217.246094 49.617188 216.335938 51.152344 216.191406 C 52.859375 216.03125 54.625 216.804688 56 218.3125 C 56.28125 218.621094 56.523438 218.871094 56.738281 219.09375 C 57.34375 219.714844 57.734375 220.117188 58.054688 220.894531 C 60.34375 222.902344 61.027344 224.441406 59.554688 230.390625 C 59.410156 230.964844 59.292969 231.546875 59.179688 232.109375 C 58.710938 234.417969 58.257812 236.652344 56.21875 238.058594 C 56.207031 238.199219 56.21875 238.394531 56.332031 238.578125 C 56.484375 238.832031 56.785156 239.007812 57.226562 239.097656 C 58.367188 239.335938 81.019531 238.945312 89.652344 238.773438 C 89.65625 238.769531 89.65625 238.769531 89.660156 238.769531 C 100.160156 238.769531 105.222656 238.605469 107.710938 238.183594 C 108.671875 238.019531 109.292969 237.816406 109.636719 237.542969 C 109.007812 236.417969 108.707031 234.777344 108.691406 232.488281 C 108.675781 229.980469 109.007812 226.929688 109.355469 223.699219 C 109.535156 222.035156 109.722656 220.3125 109.875 218.570312 C 109.527344 215.140625 108.964844 212.15625 108.195312 209.632812 C 108.179688 209.578125 108.164062 209.523438 108.144531 209.46875 C 107.964844 209.859375 107.6875 210.21875 107.253906 210.222656 C 107.253906 210.222656 107.25 210.222656 107.246094 210.222656 C 106.859375 210.222656 106.476562 209.929688 106.082031 209.332031 C 105.792969 208.894531 105.496094 208.300781 105.203125 207.566406 C 104.703125 206.328125 104.285156 204.859375 104.265625 204.292969 C 104.21875 202.816406 103.171875 201.796875 102.300781 201.199219 C 102.207031 201.136719 102.117188 201.078125 102.019531 201.019531 C 101.898438 201 101.78125 201 101.664062 201.007812 C 100.148438 201.128906 98.894531 203.335938 97.882812 205.109375 C 97.832031 205.195312 97.785156 205.285156 97.734375 205.371094 C 96.699219 207.179688 96.21875 209.355469 95.796875 211.273438 C 95.558594 212.355469 95.332031 213.375 95.035156 214.207031 C 94.972656 214.386719 94.855469 214.710938 94.546875 214.875 C 94.109375 215.109375 93.578125 214.894531 93.164062 214.3125 C 92.003906 212.691406 91.066406 209.957031 90.777344 207.34375 C 90.582031 205.558594 90.523438 202.285156 92.34375 200.421875 C 92.78125 199.976562 93.351562 199.625 94.039062 199.386719 C 96.460938 198.535156 99.894531 198.960938 102.257812 200.359375 C 103.078125 200.515625 103.894531 201.105469 104.730469 202.144531 C 104.746094 202.164062 104.8125 202.222656 104.871094 202.277344 C 105.367188 202.726562 106.691406 203.917969 107.972656 206.976562 C 108.058594 206.148438 108.125 205.050781 108.140625 203.597656 C 108.152344 202.742188 108.425781 201.949219 108.976562 201.195312 C 108.992188 200.675781 109.042969 200.152344 109.128906 199.636719 C 109.363281 198.242188 109.867188 196.863281 110.625 195.53125 C 111.921875 193.25 113.957031 191.144531 116.359375 189.597656 C 117.726562 188.71875 119.375 188.335938 121 188.519531 C 122.632812 188.703125 124.148438 189.449219 125.269531 190.617188 C 126.925781 192.34375 129.257812 195.15625 130.957031 198.75 C 132.621094 202.269531 133.261719 205.65625 132.855469 208.820312 C 132.820312 209.085938 132.757812 209.582031 132.359375 209.839844 C 131.960938 210.101562 131.433594 210.003906 130.878906 209.566406 C 130.042969 208.917969 128.902344 207.875 127.582031 206.667969 C 125.398438 204.675781 122.683594 202.195312 120.183594 200.429688 C 117.378906 198.453125 115.371094 197.746094 114.207031 198.332031 L 114.167969 198.351562 C 112.644531 199.117188 110.734375 200.078125 109.660156 201.429688 C 109.65625 202.328125 109.769531 203.226562 109.996094 204.121094 C 111.121094 208.511719 110.988281 213.617188 110.5625 218.570312 C 111.050781 223.433594 111.117188 229.171875 110.757812 235.738281 C 110.746094 235.898438 110.746094 236.054688 110.742188 236.203125 C 110.730469 236.703125 110.722656 237.179688 110.488281 237.597656 C 110.546875 237.679688 110.609375 237.757812 110.675781 237.832031 C 111.257812 238.476562 112.054688 238.792969 113.109375 238.792969 C 113.828125 238.792969 184.6875 238.796875 187.523438 238.808594 C 189.078125 238.796875 189.910156 238.703125 190.421875 238.261719 C 190.234375 238.125 190.078125 237.976562 189.949219 237.8125 C 189.128906 236.765625 189.484375 235.304688 189.984375 233.277344 C 190.535156 231.023438 191.292969 227.933594 190.6875 223.984375 C 190.679688 223.941406 190.671875 223.882812 190.660156 223.816406 C 190.460938 222.460938 190.183594 221.074219 189.839844 219.671875 C 189.570312 219.835938 189.183594 220.027344 188.613281 220.246094 C 187.832031 220.546875 186.933594 220.808594 186.515625 220.886719 C 185.066406 221.164062 183.582031 221.292969 182.105469 221.265625 C 174.183594 221.117188 167.585938 217.167969 163.53125 210.152344 C 162.816406 208.914062 162.191406 207.609375 161.589844 206.347656 C 161.125 205.375 160.648438 204.375 160.132812 203.417969 C 158.707031 200.757812 157.242188 198.957031 155.527344 197.746094 C 155.414062 197.667969 155.359375 197.53125 155.386719 197.394531 C 155.417969 197.261719 155.519531 197.15625 155.65625 197.128906 C 158.410156 196.554688 161.234375 196.214844 164.046875 196.117188 C 168.714844 195.960938 172.566406 196.539062 175.824219 197.886719 C 177.746094 198.683594 179.6875 199.945312 181.4375 201.542969 C 183.179688 203.132812 184.621094 204.945312 185.601562 206.789062 C 187.492188 210.34375 188.992188 214.050781 190.058594 217.808594 C 190.160156 217.433594 190.253906 217.0625 190.34375 216.6875 C 190.058594 214.578125 189.925781 212.429688 190.21875 210.246094 C 190.433594 208.652344 190.734375 207.523438 191.136719 206.820312 C 191.054688 206.472656 190.953125 206.128906 190.828125 205.789062 C 190.347656 204.492188 189.554688 203.375 188.71875 202.191406 C 188.273438 201.5625 187.8125 200.910156 187.40625 200.234375 C 184.78125 195.855469 184.359375 190.007812 186.28125 184.59375 C 187.140625 182.179688 188.445312 179.824219 190.164062 177.59375 C 191.71875 175.574219 193.613281 173.648438 195.796875 171.871094 C 200.027344 168.425781 204.832031 165.867188 209.390625 163.539062 C 209.507812 163.480469 209.644531 163.492188 209.75 163.570312 C 209.855469 163.644531 209.910156 163.773438 209.886719 163.902344 C 209.203125 168.164062 209.601562 172.578125 209.984375 176.847656 C 210.132812 178.488281 210.285156 180.183594 210.375 181.847656 C 210.792969 189.589844 209.421875 195.28125 206.175781 199.25 C 202.878906 203.28125 197.980469 205.054688 194.453125 205.832031 L 194.308594 205.867188 C 193.464844 206.050781 192.59375 206.242188 192.007812 206.792969 C 191.964844 206.835938 191.917969 206.890625 191.867188 206.953125 C 192.242188 208.824219 192.078125 210.75 191.84375 212.445312 C 191.648438 213.878906 191.378906 215.308594 191.046875 216.71875 C 191.210938 217.914062 191.425781 219.097656 191.636719 220.265625 C 192.160156 223.171875 192.703125 226.179688 192.496094 229.246094 C 192.445312 230.015625 192.402344 230.738281 192.359375 231.378906 C 192.140625 234.921875 192.015625 236.90625 191.445312 238.035156 C 192.53125 238.472656 194.394531 238.660156 197.277344 238.65625 C 198.617188 238.605469 217.085938 238.585938 236.507812 238.585938 C 258.183594 238.585938 281.050781 238.613281 282.621094 238.667969 C 283.105469 238.664062 283.511719 238.417969 283.855469 237.910156 C 284.035156 237.644531 284.191406 237.316406 284.328125 236.925781 C 283.671875 234.597656 283.742188 230.742188 283.839844 225.59375 C 283.867188 224.023438 283.898438 222.367188 283.914062 220.613281 C 283.230469 216.722656 282.292969 213.039062 281.304688 210.460938 C 281.203125 210.484375 281.085938 210.5 280.953125 210.519531 C 280.054688 210.65625 278.1875 210.941406 275.902344 212.476562 C 273.863281 213.851562 271.863281 214.917969 269.957031 215.65625 C 267.707031 216.523438 265.496094 216.96875 263.386719 216.972656 C 263.367188 216.972656 263.347656 216.972656 263.332031 216.972656 C 260.273438 216.976562 257.140625 216.121094 254.011719 214.433594 C 251.363281 213.003906 248.714844 210.980469 246.148438 208.414062 C 244.148438 206.414062 242.28125 204.230469 240.476562 202.117188 C 238.132812 199.371094 235.707031 196.527344 232.976562 194.09375 C 232.890625 194.015625 232.847656 193.902344 232.863281 193.789062 C 232.878906 193.671875 232.953125 193.574219 233.058594 193.527344 C 237 191.667969 242.238281 189.402344 247.785156 188.371094 C 253.644531 187.28125 259.261719 187.789062 264.027344 189.839844 C 269.082031 192.019531 273.558594 195.542969 276.628906 199.765625 C 278.648438 202.542969 280.128906 205.746094 281.410156 208.867188 C 281.683594 207.757812 282.046875 206.570312 282.460938 205.34375 C 282.1875 205.132812 282.050781 204.742188 281.996094 204.582031 C 281.777344 203.945312 281.761719 203.148438 281.746094 202.445312 C 281.742188 202.183594 281.734375 201.9375 281.722656 201.710938 C 281.578125 199.539062 281.511719 197.179688 281.511719 194.28125 C 281.511719 192.605469 281.585938 191.859375 281.691406 190.828125 C 281.734375 190.386719 281.785156 189.894531 281.835938 189.246094 C 281.738281 187.085938 281.566406 185.238281 281.109375 184.808594 C 280.597656 184.332031 279.972656 184.191406 279.3125 184.039062 C 279.015625 183.972656 278.703125 183.902344 278.394531 183.800781 C 275.859375 182.953125 273.40625 181.273438 271.296875 178.941406 C 269.394531 176.839844 267.808594 174.222656 266.828125 171.574219 C 265.269531 167.359375 265.113281 162.933594 266.367188 158.429688 C 267.429688 154.605469 269.519531 150.667969 272.582031 146.71875 C 273.695312 145.285156 274.816406 143.734375 275.898438 142.234375 C 277.75 139.667969 279.5 137.242188 281.285156 135.253906 C 281.394531 135.132812 281.578125 135.105469 281.722656 135.191406 C 281.863281 135.28125 281.921875 135.457031 281.859375 135.609375 C 281.792969 135.816406 282.007812 136.917969 283.25 139.734375 C 284.105469 141.664062 285.070312 143.554688 285.40625 144.042969 C 286.984375 146.355469 289.453125 150.148438 291.21875 153.226562 C 292.316406 155.140625 293.171875 157.164062 293.757812 159.242188 C 294.367188 161.382812 294.675781 163.53125 294.679688 165.632812 C 294.691406 170.195312 293.242188 174.367188 290.492188 177.699219 C 289.542969 178.847656 288.347656 179.777344 287.191406 180.679688 C 285.648438 181.878906 284.1875 183.015625 283.25 184.636719 C 282.722656 185.546875 282.65625 186.902344 282.597656 188.101562 C 282.585938 188.382812 282.570312 188.652344 282.554688 188.90625 C 282.542969 189.027344 282.535156 189.148438 282.527344 189.261719 C 282.554688 189.929688 282.582031 190.660156 282.605469 191.460938 C 282.675781 193.644531 282.757812 196.121094 283.023438 198.300781 C 283.023438 198.304688 283.027344 198.308594 283.027344 198.308594 C 283.078125 198.875 283.253906 200.539062 283.46875 202.527344 C 283.933594 201.292969 284.425781 200.042969 284.921875 198.8125 C 286.6875 194.421875 289.785156 190.273438 293.878906 186.808594 C 297.296875 183.921875 300.570312 182.222656 303.890625 181.613281 C 309.417969 180.597656 314.851562 182.660156 320.105469 184.652344 C 322.617188 185.605469 325.214844 186.589844 327.777344 187.21875 C 330.632812 187.921875 333.152344 188.101562 335.476562 187.769531 C 335.609375 187.75 335.738281 187.808594 335.8125 187.917969 C 335.886719 188.03125 335.890625 188.171875 335.824219 188.285156 C 334.027344 191.304688 332.109375 194.046875 330.117188 196.433594 C 327.886719 199.101562 325.488281 201.425781 322.984375 203.339844 C 320.261719 205.421875 317.339844 207.074219 314.296875 208.242188 C 311.066406 209.488281 307.789062 210.152344 304.566406 210.214844 C 300.976562 210.289062 297.976562 209.570312 295.648438 208.078125 C 294.007812 207.03125 292.679688 205.578125 291.394531 204.175781 C 290.308594 202.992188 289.183594 201.765625 287.890625 200.808594 C 287.472656 200.5 286.976562 200.191406 286.488281 200.246094 C 285.757812 200.328125 285.289062 201.152344 284.929688 201.949219 C 284.855469 202.113281 284.757812 202.378906 284.644531 202.6875 C 284.316406 203.566406 284.023438 204.308594 283.714844 204.804688 C 284.097656 208.386719 284.496094 212.148438 284.515625 212.816406 C 284.609375 215.589844 284.621094 218.164062 284.601562 220.558594 C 284.867188 222.085938 285.097656 223.640625 285.273438 225.171875 C 285.648438 228.417969 286.046875 233.824219 285.050781 236.941406 C 285.238281 237.539062 285.484375 238 285.800781 238.3125 C 286.160156 238.664062 286.621094 238.828125 287.203125 238.804688 C 287.207031 238.804688 287.210938 238.804688 287.214844 238.804688 C 291.132812 238.8125 370.355469 238.710938 374.640625 238.539062 C 374.832031 238.53125 374.992188 238.679688 375 238.867188 C 375.007812 239.058594 374.859375 239.21875 374.667969 239.226562 C 370.378906 239.398438 291.21875 239.5 287.222656 239.492188 C 286.453125 239.519531 285.8125 239.289062 285.320312 238.800781 C 285.066406 238.554688 284.855469 238.242188 284.675781 237.867188 C 284.597656 238.019531 284.511719 238.164062 284.421875 238.296875 C 283.949219 238.996094 283.339844 239.355469 282.613281 239.355469 C 282.609375 239.355469 282.605469 239.355469 282.601562 239.355469 C 281.089844 239.300781 258.191406 239.273438 236.492188 239.273438 C 217.054688 239.273438 198.582031 239.292969 197.296875 239.34375 C 197.292969 239.34375 197.289062 239.34375 197.285156 239.34375 C 194.164062 239.347656 192.222656 239.136719 191.042969 238.617188 C 190.300781 239.410156 189.128906 239.488281 187.523438 239.496094 C 184.6875 239.484375 113.828125 239.480469 113.109375 239.480469 C 111.867188 239.480469 110.875 239.082031 110.164062 238.289062 C 110.117188 238.234375 110.066406 238.175781 110.019531 238.117188 C 109.570312 238.449219 108.871094 238.683594 107.824219 238.863281 C 105.261719 239.296875 100.339844 239.460938 89.660156 239.460938 C 88.59375 239.480469 69.496094 239.859375 61.023438 239.859375 Z M 190.410156 219.097656 C 191.003906 221.417969 191.242188 223.042969 191.339844 223.714844 C 191.351562 223.78125 191.359375 223.835938 191.367188 223.878906 C 191.992188 227.964844 191.21875 231.128906 190.652344 233.441406 C 190.199219 235.277344 189.875 236.605469 190.492188 237.386719 C 190.582031 237.503906 190.699219 237.609375 190.835938 237.710938 C 191.335938 236.710938 191.457031 234.777344 191.675781 231.335938 C 191.714844 230.695312 191.761719 229.972656 191.8125 229.203125 C 192.011719 226.21875 191.476562 223.253906 190.957031 220.390625 C 190.839844 219.734375 190.71875 219.074219 190.609375 218.410156 C 190.550781 218.625 190.488281 218.839844 190.425781 219.054688 C 190.417969 219.066406 190.414062 219.082031 190.410156 219.097656 Z M 58.449219 222.226562 L 58.476562 222.34375 C 59.167969 225.386719 59.589844 227.222656 57.945312 232.925781 C 57.761719 233.5625 57.433594 234.472656 57.113281 235.351562 C 56.925781 235.863281 56.734375 236.386719 56.574219 236.859375 C 57.765625 235.613281 58.125 233.84375 58.503906 231.972656 C 58.621094 231.402344 58.742188 230.8125 58.886719 230.222656 C 59.625 227.242188 59.808594 225.417969 59.5 224.128906 C 59.324219 223.386719 58.988281 222.8125 58.449219 222.226562 Z M 110.171875 222.5625 C 110.128906 222.96875 110.082031 223.371094 110.039062 223.773438 C 109.441406 229.296875 108.914062 234.167969 110.027344 236.773438 C 110.046875 236.601562 110.050781 236.410156 110.054688 236.191406 C 110.058594 236.035156 110.058594 235.875 110.070312 235.699219 C 110.335938 230.859375 110.367188 226.472656 110.171875 222.5625 Z M 284.542969 224.839844 C 284.535156 225.097656 284.53125 225.355469 284.527344 225.605469 C 284.453125 229.6875 284.386719 233.0625 284.714844 235.371094 C 285.117188 233.015625 285.082031 229.519531 284.589844 225.253906 C 284.574219 225.113281 284.558594 224.976562 284.542969 224.839844 Z M 51.59375 216.859375 C 51.46875 216.859375 51.34375 216.863281 51.214844 216.875 C 49.882812 217 48.738281 217.777344 47.910156 219.121094 C 47.703125 219.457031 47.371094 220.257812 47.117188 221.027344 C 46.867188 221.777344 46.78125 222.230469 46.757812 222.472656 C 47.550781 222.125 48.132812 221.527344 48.742188 220.894531 C 49.589844 220.015625 50.464844 219.109375 51.964844 218.871094 C 53.394531 218.648438 54.976562 218.957031 56.363281 219.695312 C 56.324219 219.65625 56.285156 219.613281 56.246094 219.574219 C 56.027344 219.347656 55.777344 219.09375 55.488281 218.777344 C 54.367188 217.542969 52.964844 216.859375 51.59375 216.859375 Z M 156.542969 197.652344 C 158.085938 198.90625 159.433594 200.65625 160.738281 203.089844 C 161.261719 204.0625 161.742188 205.074219 162.210938 206.050781 C 162.808594 207.300781 163.425781 208.59375 164.125 209.804688 C 168.058594 216.609375 174.449219 220.433594 182.117188 220.578125 C 183.550781 220.601562 184.984375 220.480469 186.382812 220.210938 C 186.757812 220.140625 187.578125 219.902344 188.304688 219.625 C 189.136719 219.308594 189.503906 219.082031 189.65625 218.957031 C 188.613281 214.984375 187.015625 210.910156 184.996094 207.113281 C 184.050781 205.335938 182.660156 203.585938 180.972656 202.050781 C 179.28125 200.507812 177.410156 199.289062 175.558594 198.523438 C 172.394531 197.210938 168.636719 196.652344 164.070312 196.804688 C 161.550781 196.890625 159.019531 197.175781 156.542969 197.652344 Z M 281.859375 209.980469 C 282.59375 211.851562 283.308594 214.339844 283.914062 217.082031 C 283.902344 215.71875 283.878906 214.308594 283.828125 212.839844 C 283.808594 212.238281 283.453125 208.847656 283.105469 205.582031 C 282.597656 207.09375 282.144531 208.621094 281.859375 209.980469 Z M 233.820312 193.929688 C 236.425781 196.3125 238.75 199.035156 241 201.667969 C 242.796875 203.773438 244.652344 205.949219 246.636719 207.929688 C 249.15625 210.445312 251.746094 212.429688 254.339844 213.828125 C 257.363281 215.460938 260.390625 216.285156 263.332031 216.285156 C 263.347656 216.285156 263.367188 216.285156 263.382812 216.285156 C 267.183594 216.273438 271.15625 214.839844 275.519531 211.90625 C 277.929688 210.285156 279.902344 209.984375 280.851562 209.839844 C 280.917969 209.832031 280.984375 209.820312 281.046875 209.808594 C 279.722656 206.515625 278.195312 203.089844 276.070312 200.167969 C 273.074219 196.046875 268.699219 192.601562 263.753906 190.472656 C 259.117188 188.476562 253.636719 187.984375 247.910156 189.046875 C 242.65625 190.027344 237.667969 192.132812 233.820312 193.929688 Z M 108.480469 208.300781 C 108.609375 208.65625 108.730469 209.035156 108.855469 209.433594 C 109.367188 211.109375 109.785156 212.984375 110.113281 215.054688 C 110.292969 211.292969 110.171875 207.574219 109.332031 204.289062 C 109.183594 203.710938 109.078125 203.128906 109.023438 202.542969 C 108.902344 202.875 108.835938 203.230469 108.828125 203.605469 C 108.804688 205.648438 108.6875 207.226562 108.480469 208.300781 Z M 191.34375 208.121094 C 191.1875 208.652344 191.03125 209.371094 190.902344 210.335938 C 190.714844 211.742188 190.707031 213.140625 190.808594 214.527344 C 190.945312 213.804688 191.0625 213.078125 191.164062 212.351562 C 191.34375 211.03125 191.484375 209.570312 191.34375 208.121094 Z M 96.859375 199.628906 C 95.9375 199.628906 95.042969 199.761719 94.265625 200.035156 C 93.679688 200.242188 93.195312 200.53125 92.835938 200.902344 C 92.214844 201.539062 91.78125 202.453125 91.554688 203.613281 C 91.347656 204.667969 91.316406 205.933594 91.460938 207.269531 C 91.738281 209.773438 92.625 212.382812 93.722656 213.914062 C 93.898438 214.15625 94.125 214.320312 94.222656 214.269531 C 94.296875 214.230469 94.359375 214.050781 94.386719 213.976562 C 94.671875 213.183594 94.890625 212.183594 95.125 211.125 C 95.558594 209.160156 96.050781 206.929688 97.136719 205.027344 C 97.1875 204.941406 97.234375 204.855469 97.285156 204.765625 C 98.246094 203.082031 99.410156 201.035156 100.957031 200.46875 C 99.699219 199.921875 98.242188 199.628906 96.859375 199.628906 Z M 104.726562 203.082031 C 104.863281 203.464844 104.941406 203.859375 104.953125 204.269531 C 104.964844 204.648438 105.308594 205.988281 105.839844 207.308594 C 106.574219 209.136719 107.105469 209.535156 107.246094 209.535156 C 107.253906 209.535156 107.527344 209.507812 107.769531 208.351562 C 106.632812 205.191406 105.398438 203.742188 104.726562 203.082031 Z M 286.597656 199.550781 C 287.253906 199.550781 287.847656 199.921875 288.300781 200.257812 C 289.644531 201.253906 290.792969 202.503906 291.902344 203.710938 C 293.15625 205.082031 294.453125 206.5 296.019531 207.5 C 298.230469 208.914062 301.101562 209.597656 304.550781 209.527344 C 307.695312 209.464844 310.890625 208.816406 314.050781 207.601562 C 317.03125 206.453125 319.894531 204.835938 322.566406 202.792969 C 325.03125 200.910156 327.390625 198.621094 329.585938 195.992188 C 331.425781 193.792969 333.199219 191.285156 334.871094 188.535156 C 334.296875 188.59375 333.726562 188.621094 333.160156 188.621094 C 328.625 188.621094 324.179688 186.933594 319.859375 185.296875 C 317.265625 184.308594 314.578125 183.292969 311.9375 182.667969 C 308.996094 181.976562 306.402344 181.851562 304.011719 182.289062 C 300.816406 182.878906 297.644531 184.527344 294.324219 187.335938 C 290.316406 190.726562 287.285156 194.78125 285.558594 199.066406 C 285.398438 199.464844 285.21875 199.917969 285.023438 200.410156 C 285.378906 199.960938 285.820312 199.628906 286.410156 199.5625 C 286.472656 199.554688 286.535156 199.550781 286.597656 199.550781 Z M 115.121094 197.445312 C 116.480469 197.445312 118.285156 198.246094 120.578125 199.867188 C 123.113281 201.65625 125.847656 204.152344 128.042969 206.160156 C 129.355469 207.355469 130.488281 208.390625 131.300781 209.027344 C 131.53125 209.207031 131.832031 209.363281 131.984375 209.265625 C 132.097656 209.191406 132.140625 208.964844 132.171875 208.734375 C 132.558594 205.703125 131.941406 202.441406 130.335938 199.042969 C 128.675781 195.535156 126.394531 192.785156 124.773438 191.09375 C 123.765625 190.042969 122.398438 189.371094 120.925781 189.203125 C 119.453125 189.039062 117.964844 189.382812 116.734375 190.175781 C 114.421875 191.664062 112.464844 193.6875 111.222656 195.871094 C 110.503906 197.132812 110.027344 198.4375 109.808594 199.75 C 109.773438 199.949219 109.746094 200.152344 109.722656 200.351562 C 109.871094 200.214844 110.027344 200.074219 110.195312 199.9375 C 111.320312 199.015625 112.726562 198.304688 113.859375 197.738281 L 113.898438 197.714844 C 114.257812 197.535156 114.664062 197.445312 115.121094 197.445312 Z M 209.109375 164.457031 C 204.765625 166.6875 200.226562 169.152344 196.234375 172.402344 C 194.089844 174.148438 192.230469 176.035156 190.707031 178.015625 C 189.035156 180.1875 187.765625 182.480469 186.929688 184.824219 C 185.078125 190.046875 185.476562 195.675781 187.996094 199.882812 C 188.386719 200.535156 188.839844 201.175781 189.28125 201.792969 C 190.105469 202.960938 190.960938 204.167969 191.472656 205.550781 C 191.550781 205.753906 191.617188 205.960938 191.675781 206.167969 C 192.386719 205.582031 193.328125 205.375 194.160156 205.195312 L 194.304688 205.160156 C 197.726562 204.40625 202.46875 202.695312 205.644531 198.8125 C 208.773438 194.984375 210.097656 189.449219 209.6875 181.886719 C 209.597656 180.230469 209.449219 178.542969 209.300781 176.910156 C 208.933594 172.820312 208.550781 168.59375 209.109375 164.457031 Z M 282.230469 197.355469 C 282.261719 198.921875 282.320312 200.332031 282.40625 201.667969 C 282.421875 201.910156 282.429688 202.164062 282.433594 202.433594 C 282.449219 203.085938 282.464844 203.824219 282.648438 204.359375 C 282.675781 204.441406 282.703125 204.507812 282.726562 204.5625 C 282.796875 204.371094 282.863281 204.175781 282.933594 203.984375 C 282.902344 203.695312 282.871094 203.414062 282.84375 203.140625 C 282.605469 200.925781 282.398438 199.007812 282.339844 198.378906 C 282.300781 198.042969 282.261719 197.703125 282.230469 197.355469 Z M 281.25 136.335938 C 279.675781 138.171875 278.105469 140.347656 276.453125 142.636719 C 275.371094 144.140625 274.246094 145.695312 273.125 147.140625 C 266.566406 155.597656 264.664062 163.738281 267.476562 171.335938 C 268.425781 173.902344 269.964844 176.441406 271.808594 178.480469 C 273.835938 180.726562 276.191406 182.339844 278.613281 183.148438 C 278.890625 183.238281 279.183594 183.304688 279.464844 183.367188 C 280.1875 183.53125 280.933594 183.703125 281.578125 184.304688 C 281.84375 184.554688 282.03125 184.984375 282.167969 185.605469 C 282.273438 185.132812 282.425781 184.683594 282.652344 184.292969 C 283.660156 182.554688 285.242188 181.324219 286.769531 180.136719 C 287.894531 179.257812 289.058594 178.351562 289.960938 177.261719 C 292.605469 174.054688 294 170.03125 293.992188 165.632812 C 293.988281 163.597656 293.6875 161.511719 293.097656 159.429688 C 292.523438 157.40625 291.691406 155.433594 290.621094 153.566406 C 288.867188 150.507812 286.410156 146.734375 284.835938 144.429688 C 284.476562 143.902344 283.492188 141.988281 282.605469 139.980469 C 281.769531 138.085938 281.402344 136.988281 281.25 136.335938 Z M 281.25 136.335938 " fill-opacity="1" fill-rule="nonzero"/></svg>