<svg xmlns="http://www.w3.org/2000/svg" xmlns:xlink="http://www.w3.org/1999/xlink" width="500" zoomAndPan="magnify" viewBox="0 0 375 374.999991" height="500" preserveAspectRatio="xMidYMid meet" version="1.0"><path fill="#303848" d="M 0.0273438 264.492188 C 0.015625 264.441406 0.0117188 264.386719 0.0117188 264.335938 C 0.0625 262.9375 4.785156 260.625 13.222656 259.03125 C 17.484375 258.226562 22.804688 257.585938 29.207031 257.335938 C 31.664062 257.242188 34.394531 257.140625 37.304688 257.03125 C 40.648438 256.90625 44.257812 256.773438 47.992188 256.628906 C 74.695312 255.597656 107.625 254.003906 108.644531 251.808594 L 108.609375 251.972656 L 108.644531 251.808594 C 108.644531 251.8125 108.640625 251.820312 108.640625 251.839844 C 108.636719 251.800781 108.253906 251.421875 106.292969 250.9375 C 103.792969 250.324219 94.75 250.179688 83.277344 250.003906 C 73.703125 249.855469 62.488281 249.683594 52.132812 249.175781 C 31.441406 248.164062 9.160156 241.976562 9.355469 237.960938 C 9.429688 236.503906 11.90625 235.726562 16.195312 235.378906 C 26.855469 234.515625 69.546875 238.859375 110.230469 242.996094 C 121.773438 244.171875 133.15625 245.328125 143.613281 246.347656 C 152.804688 247.246094 181.40625 247.769531 207.460938 247.925781 C 221.761719 248.011719 230.769531 249.898438 234.671875 250.714844 C 234.867188 250.753906 235.074219 250.796875 235.242188 250.832031 C 235.410156 250.867188 235.566406 250.90625 235.675781 250.960938 C 235.664062 250.957031 236.011719 251.097656 235.941406 251.4375 C 235.894531 251.671875 235.675781 251.753906 235.65625 251.761719 C 235.097656 251.996094 231.910156 252.132812 227.125 252.347656 C 218.644531 252.730469 204.703125 253.359375 189.492188 254.996094 C 176.671875 256.378906 121.527344 258.90625 121.5 258.90625 L 121.484375 258.53125 L 121.539062 258.15625 C 146.734375 261.765625 171.457031 262.359375 171.453125 262.359375 C 183.1875 262.644531 251.941406 261.519531 276.960938 260.722656 C 284.882812 260.46875 294.277344 259.453125 305.21875 258.265625 C 315.53125 257.148438 327.207031 255.882812 340.289062 254.976562 C 348.453125 254.410156 365.195312 249.535156 366.082031 248.472656 L 365.996094 248.71875 L 366.082031 248.472656 C 366.09375 248.460938 366.035156 248.519531 366.042969 248.632812 C 366.066406 248.949219 366.417969 248.839844 365.902344 248.820312 C 364.183594 248.753906 360.324219 248.929688 355.140625 249.164062 C 344.835938 249.628906 329.398438 250.324219 315.628906 249.792969 C 314.347656 249.746094 313.082031 249.683594 311.832031 249.613281 C 285.144531 248.078125 263.992188 243.039062 263.984375 243.039062 C 263.8125 242.996094 263.691406 242.847656 263.695312 242.671875 C 263.695312 242.496094 263.816406 242.34375 263.984375 242.304688 C 285.867188 237.230469 306.054688 234.554688 306.058594 234.554688 C 321.71875 232.476562 335.925781 232.390625 335.933594 232.390625 L 335.808594 232.410156 C 335.933594 232.367188 335.78125 232.40625 335.824219 232.527344 L 336.179688 232.40625 L 335.824219 232.535156 C 335.925781 232.8125 335.726562 232.269531 335.824219 232.53125 L 335.824219 232.527344 C 335.085938 230.453125 305.132812 219.683594 280.574219 223.539062 C 197.082031 236.652344 124.007812 225.253906 121.488281 223.21875 C 121.4375 223.175781 121.324219 223.074219 121.296875 222.90625 C 121.246094 222.574219 121.539062 222.4375 121.605469 222.410156 C 121.683594 222.375 121.773438 222.355469 121.859375 222.339844 L 121.878906 222.339844 C 147.882812 219.3125 169.757812 218.769531 169.765625 218.769531 C 173.875 218.667969 181.167969 218.523438 189.808594 218.347656 C 202.382812 218.097656 217.832031 217.789062 230.492188 217.472656 C 243.746094 217.144531 253.824219 216.8125 254.570312 216.558594 L 254.59375 216.550781 L 254.570312 216.558594 C 254.71875 216.507812 254.359375 216.566406 254.367188 216.890625 L 254.367188 216.886719 C 254.378906 217.277344 254.890625 217.242188 254.433594 217.175781 C 215.617188 211.753906 150.96875 209.507812 145.625 209.398438 C 133.152344 209.136719 116.742188 210.976562 96.203125 215.496094 C 92.191406 216.378906 78.648438 217.082031 55.804688 216.003906 C 30.222656 214.796875 13.800781 213.011719 0.484375 210.3125 C 0.339844 210.28125 0.226562 210.171875 0.191406 210.027344 C 0.160156 209.886719 0.210938 209.738281 0.324219 209.644531 C 8.136719 203.488281 22.40625 193.042969 32.273438 187.242188 C 37.960938 183.902344 34.953125 176.699219 30.164062 168.550781 C 29.242188 166.984375 28.257812 165.382812 27.292969 163.8125 C 26.339844 162.265625 25.394531 160.730469 24.515625 159.234375 C 22.8125 156.335938 21.34375 153.566406 20.558594 151.132812 C 20.539062 151.074219 20.472656 150.875 20.449219 150.800781 C 20.378906 150.585938 20.386719 150.605469 20.3125 150.375 C 18.992188 146.285156 15.792969 135.707031 20.683594 127.632812 C 30.242188 111.855469 45.304688 110.492188 50.445312 110.222656 C 53.246094 110.074219 67.804688 112.871094 68.011719 116.832031 C 68.011719 116.855469 68.011719 116.898438 68.011719 116.925781 C 68 121.960938 60.167969 126.171875 54.832031 129.078125 C 51.957031 130.644531 49.878906 131.800781 49.5 132.539062 C 47.054688 137.34375 47.558594 153.570312 53.121094 165.414062 C 56.574219 172.773438 70.40625 181.875 76.785156 178.878906 C 77.195312 178.6875 77.578125 178.441406 77.925781 178.144531 C 81.503906 175.058594 80.253906 173.128906 79.125 171.308594 C 78.929688 170.996094 78.738281 170.691406 78.570312 170.375 C 78.523438 170.285156 78.488281 170.191406 78.472656 170.089844 C 78.453125 169.945312 78.476562 169.8125 78.53125 169.691406 C 78.679688 169.359375 79.09375 169.140625 79.355469 168.992188 C 80.007812 168.617188 80.671875 168.21875 80.710938 167.257812 C 80.753906 166.308594 79.796875 165.441406 78.925781 164.6875 C 78.589844 164.394531 78.179688 164.054688 78.054688 163.757812 L 78.023438 163.617188 L 78.054688 163.757812 C 78.023438 163.6875 77.996094 163.59375 78 163.488281 L 78 163.492188 C 78.015625 163.148438 78.308594 163.007812 78.496094 162.953125 C 78.9375 162.824219 79.445312 162.765625 79.886719 162.710938 C 80.3125 162.660156 80.667969 162.617188 80.9375 162.539062 C 81.320312 162.425781 81.289062 162.34375 81.253906 162.21875 C 81.242188 162.1875 81.230469 162.152344 81.210938 162.109375 L 81.195312 162.066406 L 81.195312 162.0625 L 81.210938 162.109375 C 80.179688 159.777344 79.6875 157.859375 81.039062 156.230469 C 81.597656 155.554688 82.488281 155.121094 83.261719 154.742188 C 84.058594 154.351562 84.734375 154.007812 85.128906 153.535156 C 85.503906 153.082031 85.664062 152.441406 85.078125 151.273438 C 82.621094 146.363281 78.371094 141.34375 78.371094 141.347656 C 78.335938 141.304688 78.308594 141.253906 78.292969 141.199219 C 75.378906 130.105469 70.988281 125.675781 71.03125 125.71875 C 66.8125 121.441406 62.253906 123.457031 57.851562 125.585938 C 50.324219 129.222656 46.859375 135.816406 50.246094 151.828125 C 50.273438 151.957031 50.269531 152.292969 49.917969 152.367188 C 49.824219 152.386719 49.742188 152.371094 49.691406 152.363281 C 49.46875 152.3125 49.101562 152.109375 48.722656 151.902344 C 47.261719 151.105469 44.570312 149.652344 41.9375 150.207031 C 41.75 150.246094 41.5625 150.296875 41.375 150.359375 C 38.488281 151.304688 38.152344 153.429688 38.941406 155.832031 C 39.691406 158.125 41.457031 160.546875 42.886719 162.046875 C 45.160156 164.429688 53.4375 167.726562 53.480469 167.746094 L 53.550781 167.78125 C 71.5 179.699219 68.34375 187.007812 68.230469 187.25 L 67.890625 187.09375 L 68.152344 186.824219 C 68.136719 186.808594 68.113281 186.800781 68.109375 186.800781 C 68.226562 186.8125 68.53125 186.65625 69.28125 186.207031 C 71.402344 184.941406 75.703125 182.382812 83.683594 183.476562 C 84.324219 183.5625 85.128906 183.613281 86.085938 183.671875 C 87.386719 183.75 88.941406 183.847656 90.644531 184.078125 C 98.660156 185.175781 109.964844 189.308594 115.339844 208.863281 L 115.273438 208.734375 C 116.371094 210.144531 116.699219 210.019531 117.476562 209.414062 C 117.707031 209.234375 117.964844 209.011719 118.277344 208.738281 C 118.695312 208.375 119.191406 207.9375 119.808594 207.460938 C 121.398438 206.226562 123.742188 204.730469 127.480469 203.417969 C 132.601562 201.621094 142.046875 200.417969 150.417969 199.351562 C 153.585938 198.945312 156.597656 198.5625 159.1875 198.171875 L 158.96875 198.289062 C 159.015625 198.234375 159.070312 198.183594 159.132812 198.140625 C 159.304688 198.019531 159.570312 197.960938 159.792969 198.164062 C 159.839844 198.207031 159.878906 198.257812 159.90625 198.300781 L 159.902344 198.300781 C 160.082031 198.589844 160.148438 199.226562 160.234375 199.910156 C 160.492188 201.996094 160.972656 205.835938 163.53125 209.636719 L 162.847656 209.898438 C 162.191406 205.242188 163.585938 201.242188 165.050781 197.007812 C 165.917969 194.503906 166.816406 191.90625 167.371094 189.007812 L 167.378906 189.183594 C 166.648438 186.636719 165.738281 184.015625 164.777344 181.257812 C 163.726562 178.238281 162.621094 175.058594 161.652344 171.675781 C 160.835938 168.820312 160.113281 165.808594 159.605469 162.617188 L 159.628906 162.699219 C 158.542969 160.023438 155.566406 159.382812 154.605469 159.773438 C 154.433594 159.839844 154.410156 159.910156 154.410156 159.925781 C 153.269531 165.308594 157.65625 170.539062 159.71875 170.976562 C 160.15625 171.066406 160.398438 170.941406 160.496094 170.476562 C 160.519531 170.367188 160.535156 170.234375 160.539062 170.082031 L 160.625 170.332031 C 150.820312 158.699219 149.324219 148.578125 154.136719 136.832031 C 155.632812 133.171875 157.429688 130.558594 159.226562 129.734375 C 171.542969 124.089844 182.757812 121.605469 186.277344 123.417969 L 185.914062 123.429688 C 185.796875 123.496094 185.800781 123.609375 185.800781 123.609375 L 186.175781 123.578125 L 185.800781 123.609375 C 185.800781 123.589844 185.777344 123.5 185.675781 123.332031 C 184.632812 121.570312 178.9375 116.644531 174.085938 117.128906 C 166.378906 117.898438 163.460938 120.050781 162.667969 125.613281 L 162.238281 125.1875 C 174.273438 123.335938 176.738281 120.1875 176.414062 118.089844 C 176.242188 116.980469 175.304688 115.957031 174.179688 115.308594 C 170.234375 113.035156 160.382812 116.644531 157 122.519531 C 156.714844 123.011719 156.480469 123.511719 156.300781 124.027344 C 155.601562 126.003906 156.859375 129.203125 160.070312 131.851562 L 159.949219 131.785156 C 161.050781 132.152344 164.875 130.867188 169.609375 129.242188 C 174.714844 127.488281 180.667969 125.441406 184.460938 125.328125 C 194.355469 125.035156 198.425781 137.371094 198.527344 140.863281 C 198.539062 141.253906 198.511719 141.644531 198.359375 141.894531 L 198.359375 141.890625 C 198.28125 142.027344 198.136719 142.164062 197.914062 142.179688 C 197.835938 142.1875 197.761719 142.167969 197.695312 142.128906 C 192.683594 139.128906 190.816406 139.667969 188.574219 140.269531 C 186.921875 140.714844 185.054688 141.214844 181.804688 140.542969 C 181.542969 140.488281 181.234375 140.421875 180.953125 140.359375 C 180.640625 140.292969 180.308594 140.222656 179.976562 140.152344 C 175.476562 139.222656 169.824219 138.484375 167.628906 143.921875 C 167.105469 145.222656 166.5625 146.519531 166.09375 147.636719 C 165.660156 148.667969 165.265625 149.605469 164.890625 150.539062 C 162.109375 157.4375 160.949219 162.453125 163.421875 176.175781 C 164.390625 181.546875 171.984375 187.140625 179.242188 188.882812 C 186.382812 190.597656 187.941406 189.363281 192.324219 184.90625 C 202.570312 174.476562 202.761719 148.625 199.863281 144.867188 C 199.886719 144.898438 200.09375 145.089844 200.324219 144.914062 C 200.386719 144.863281 200.40625 144.8125 200.398438 144.828125 L 200.054688 144.675781 L 200.398438 144.828125 C 200.304688 145.046875 200.21875 146.203125 200.105469 147.917969 C 199.914062 150.773438 199.640625 154.890625 198.890625 157.164062 L 198.902344 156.964844 C 198.910156 157.011719 198.96875 157.109375 199.148438 157.375 C 199.507812 157.90625 200.101562 158.78125 200.429688 160.316406 C 200.441406 160.378906 200.457031 160.449219 200.46875 160.511719 C 201.300781 164.847656 199.722656 169.847656 198.0625 175.148438 C 196.523438 180.054688 194.890625 185.261719 194.835938 190.640625 C 194.773438 197.113281 199.070312 204.289062 200.796875 207.164062 C 201.003906 207.503906 201.179688 207.796875 201.296875 208.007812 L 201.171875 207.875 C 203.816406 209.582031 211.5 208.234375 211.585938 208.21875 L 211.652344 208.585938 L 211.375 208.84375 L 210.8125 208.230469 C 210.734375 208.148438 210.238281 207.609375 210.148438 207.511719 C 205.597656 202.5625 197.039062 193.277344 199.355469 191.148438 C 199.421875 191.085938 199.5 191.03125 199.582031 190.980469 C 199.632812 190.949219 199.695312 190.933594 199.757812 190.929688 C 219.046875 190.136719 224.164062 189.59375 224.152344 189.59375 C 235.765625 188.363281 243.261719 195.988281 247.691406 208.9375 L 247.058594 208.808594 C 247.207031 208.644531 247.351562 208.492188 247.472656 208.363281 C 247.578125 208.253906 247.683594 208.144531 247.769531 208.050781 C 248.816406 206.898438 249.148438 205.902344 252.195312 192.566406 C 252.839844 189.753906 257.464844 183.5625 261.921875 184.101562 C 264.761719 184.445312 267.09375 184.613281 269.058594 184.753906 C 270.484375 184.855469 271.726562 184.945312 272.828125 185.078125 C 274.871094 185.324219 276.472656 185.726562 277.945312 186.671875 C 278.105469 186.773438 278.164062 186.980469 278.078125 187.152344 C 277.296875 188.75 273.6875 193.867188 270.222656 198.789062 C 266.90625 203.496094 263.722656 208.023438 263.089844 209.316406 C 263.027344 209.4375 263.007812 209.496094 263.003906 209.515625 L 263.011719 209.429688 L 263.003906 209.511719 C 262.984375 209.613281 263.085938 209.324219 262.816406 209.191406 L 262.816406 209.195312 C 262.617188 209.09375 262.46875 209.246094 262.59375 209.164062 L 262.574219 209.179688 C 282.140625 194.410156 281.660156 175.550781 281.660156 175.53125 L 281.660156 175.527344 L 281.660156 175.53125 C 281.585938 172.808594 279.523438 171.746094 277.011719 170.488281 C 274.636719 169.300781 271.917969 167.960938 271.054688 164.671875 C 271.039062 164.609375 271.03125 164.546875 271.03125 164.488281 C 271.039062 164.003906 271.585938 163.375 272.007812 162.863281 C 272.753906 161.953125 273.5 161.011719 273.480469 160.207031 C 273.464844 159.617188 273.273438 159.039062 273.0625 158.421875 C 272.878906 157.875 272.671875 157.277344 272.660156 156.691406 C 272.648438 156.222656 272.757812 155.757812 273.074219 155.308594 C 273.835938 154.238281 275.34375 154.042969 276.507812 153.875 C 277.644531 153.710938 278.429688 153.570312 278.742188 153.128906 C 278.789062 153.0625 278.824219 152.992188 278.851562 152.90625 C 278.984375 152.476562 278.378906 151.894531 277.265625 150.96875 C 276.316406 150.183594 274.878906 149.066406 275.261719 147.839844 C 275.277344 147.78125 275.296875 147.726562 275.324219 147.671875 C 276.042969 146.070312 277.066406 145.160156 277.84375 144.472656 C 278.328125 144.039062 278.664062 143.730469 278.839844 143.40625 L 278.886719 143.828125 C 278.460938 143.335938 277.832031 142.847656 277.164062 142.328125 C 276.507812 141.824219 275.8125 141.289062 275.328125 140.722656 C 274.496094 139.757812 274.25 138.628906 275.597656 137.46875 L 275.605469 137.460938 L 275.609375 137.460938 C 277.667969 135.695312 279.28125 135.128906 280.820312 134.585938 C 282.140625 134.117188 283.390625 133.675781 284.882812 132.511719 L 284.808594 132.589844 C 295.09375 118.195312 306.382812 117.339844 306.460938 117.335938 C 311.195312 116.988281 318.773438 118.335938 319.363281 126.371094 L 319.367188 126.4375 L 319.367188 126.441406 C 319.589844 129.699219 316.859375 132.769531 314.0625 135.949219 C 310.554688 139.945312 306.808594 144.238281 307.179688 149.699219 C 307.203125 150.054688 307.246094 150.421875 307.308594 150.789062 L 307.3125 150.863281 C 307.3125 150.820312 307.273438 150.761719 307.238281 150.746094 L 307.089844 151.09375 L 307.238281 150.746094 C 307.242188 150.75 307.277344 150.761719 307.359375 150.761719 C 307.84375 150.777344 308.851562 150.476562 310.171875 150.078125 C 311.988281 149.53125 314.285156 148.832031 316.011719 148.882812 C 317.539062 148.929688 318.78125 149.59375 318.722656 151.496094 C 318.6875 152.824219 318.011719 154.730469 316.507812 157.417969 C 314.371094 161.238281 309.898438 163.507812 306.539062 163.3125 L 306.878906 163.136719 C 305.300781 165.671875 306.019531 170.738281 309.378906 178.550781 C 311.582031 183.667969 312.265625 193.867188 312.261719 193.84375 L 311.886719 193.875 L 311.539062 193.734375 C 313.78125 188.238281 320.9375 181.902344 333.796875 173.128906 C 341.140625 168.117188 342.90625 161.875 344.082031 157.71875 C 344.464844 156.359375 344.800781 155.164062 345.265625 154.34375 C 345.304688 154.273438 345.367188 154.214844 345.441406 154.183594 C 350.308594 152.03125 352.398438 156.320312 352.398438 156.316406 C 355.570312 162.839844 357.953125 169.710938 356.796875 174.921875 C 355.792969 179.460938 348.808594 187.75 342.414062 195.359375 C 340.449219 197.699219 338.554688 199.953125 336.855469 202.066406 C 336.738281 202.210938 336.535156 202.25 336.375 202.160156 C 336.214844 202.066406 336.144531 201.871094 336.210938 201.699219 C 338.300781 196.121094 340.179688 192.65625 341.414062 190.386719 C 342.019531 189.265625 342.453125 188.46875 342.6875 187.847656 C 343.058594 186.851562 342.921875 186.421875 341.863281 185.808594 L 342.359375 185.703125 C 339.882812 189.199219 334.902344 202.695312 334.886719 202.738281 L 334.535156 202.605469 L 334.167969 202.683594 C 330.988281 188.007812 332.96875 182.046875 333.019531 181.894531 L 333.011719 181.921875 C 333.019531 181.894531 333.027344 181.875 333.03125 181.863281 L 333.375 182.015625 L 333.019531 181.894531 C 334.542969 177.488281 336.203125 174.378906 337.347656 172.234375 C 337.964844 171.085938 338.410156 170.25 338.621094 169.632812 C 338.660156 169.527344 338.6875 169.425781 338.710938 169.339844 C 339.570312 165.710938 341.523438 162.238281 343.457031 158.789062 C 345.441406 155.253906 347.410156 151.738281 348.296875 148.015625 C 350.046875 140.644531 347.574219 132.292969 331.527344 121.429688 C 323.140625 115.753906 312.585938 115.96875 311.101562 118.164062 C 310.953125 118.378906 310.90625 118.609375 310.960938 118.875 C 311.671875 122.1875 314.339844 127.152344 317.585938 133.179688 C 322.367188 142.0625 328.335938 153.144531 330.707031 164.210938 C 330.820312 164.75 330.933594 165.320312 331.03125 165.859375 C 332.625 174.679688 324.597656 192.984375 324.613281 192.949219 L 324.644531 192.796875 L 324.628906 192.914062 C 323.921875 195.179688 323.835938 195.296875 322.128906 196.070312 C 321.324219 196.433594 320.105469 196.984375 318.183594 198.113281 L 318.355469 197.886719 C 316.332031 205.398438 307.535156 218.65625 305.855469 219.214844 C 305.84375 219.21875 305.832031 219.222656 305.816406 219.226562 L 305.785156 218.496094 C 306.664062 218.65625 308.574219 216.371094 311.34375 212.914062 C 315.621094 207.582031 321.585938 200.0625 327.148438 201.082031 C 327.441406 201.136719 327.730469 201.210938 328.015625 201.3125 C 333.964844 203.402344 336.726562 210.765625 339.042969 216.863281 C 340.003906 219.390625 340.886719 221.71875 341.882812 223.460938 L 341.628906 223.28125 C 355.464844 226.0625 368.152344 225.539062 374.542969 224.613281 C 374.75 224.582031 374.941406 224.726562 374.96875 224.929688 C 375 225.136719 374.855469 225.328125 374.652344 225.359375 C 368.183594 226.296875 355.410156 226.820312 341.480469 224.015625 C 341.375 223.996094 341.28125 223.929688 341.226562 223.835938 C 340.195312 222.03125 339.292969 219.640625 338.339844 217.128906 C 335.976562 210.902344 333.3125 203.972656 327.765625 202.023438 C 327.515625 201.933594 327.265625 201.867188 327.011719 201.820312 C 322.007812 200.902344 316.382812 207.832031 311.929688 213.386719 C 309.425781 216.511719 307.105469 219.5 305.652344 219.234375 C 305.476562 219.203125 305.351562 219.054688 305.34375 218.878906 C 305.335938 218.707031 305.449219 218.546875 305.621094 218.5 C 305.617188 218.503906 305.617188 218.503906 305.617188 218.503906 C 306.882812 218.078125 315.597656 205.222656 317.628906 197.691406 C 317.652344 197.597656 317.714844 197.515625 317.800781 197.464844 C 319.757812 196.316406 321 195.753906 321.820312 195.382812 C 323.277344 194.722656 323.246094 194.8125 323.910156 192.6875 L 323.890625 192.808594 L 323.921875 192.652344 C 323.953125 192.578125 331.835938 174.53125 330.292969 165.996094 C 330.195312 165.46875 330.082031 164.894531 329.96875 164.367188 C 327.628906 153.425781 321.714844 142.4375 316.921875 133.535156 C 313.707031 127.5625 310.964844 122.476562 310.226562 119.03125 C 310.125 118.5625 310.21875 118.121094 310.476562 117.742188 C 312.390625 114.914062 323.601562 115.160156 331.949219 120.808594 C 348.109375 131.746094 350.886719 140.375 349.027344 148.191406 C 348.113281 152.035156 346.085938 155.640625 344.113281 159.160156 C 342.167969 162.628906 340.273438 166.007812 339.441406 169.515625 C 339.414062 169.628906 339.375 169.757812 339.332031 169.878906 C 339.097656 170.566406 338.613281 171.46875 338.011719 172.589844 C 336.871094 174.726562 335.230469 177.792969 333.730469 182.140625 L 333.375 182.015625 L 333.71875 182.171875 C 333.722656 182.160156 333.734375 182.136719 333.738281 182.109375 L 333.730469 182.136719 C 333.734375 182.136719 331.746094 187.953125 334.902344 202.523438 L 334.535156 202.605469 L 334.183594 202.472656 C 334.171875 202.5 339.195312 188.867188 341.746094 185.265625 C 341.859375 185.109375 342.074219 185.0625 342.242188 185.160156 C 343.585938 185.9375 343.90625 186.734375 343.390625 188.109375 C 343.136719 188.792969 342.671875 189.644531 342.074219 190.746094 C 340.847656 193.003906 338.988281 196.429688 336.914062 201.964844 L 336.269531 201.59375 C 337.972656 199.472656 339.875 197.214844 341.835938 194.875 C 348.316406 187.164062 355.109375 179.0625 356.0625 174.761719 C 357.15625 169.832031 354.898438 163.179688 351.722656 156.648438 C 351.71875 156.644531 349.957031 153.007812 345.742188 154.871094 L 345.917969 154.710938 C 345.507812 155.4375 345.199219 156.527344 344.804688 157.925781 C 343.621094 162.109375 341.796875 168.582031 334.222656 173.75 C 321.324219 182.550781 314.375 188.765625 312.234375 194.015625 L 311.886719 193.875 L 311.511719 193.90625 C 311.507812 193.867188 310.828125 183.824219 308.6875 178.847656 C 305.355469 171.101562 304.425781 165.65625 306.242188 162.738281 C 306.3125 162.621094 306.445312 162.550781 306.582031 162.558594 C 309.640625 162.738281 313.847656 160.632812 315.851562 157.050781 C 317.347656 154.378906 317.9375 152.609375 317.972656 151.476562 C 318.011719 150.144531 317.277344 149.671875 315.988281 149.636719 C 314.414062 149.589844 312.25 150.238281 310.390625 150.800781 C 309.148438 151.175781 307.976562 151.535156 307.335938 151.515625 C 307.207031 151.511719 307.066406 151.492188 306.9375 151.4375 L 307.089844 151.09375 L 306.9375 151.4375 C 306.699219 151.332031 306.550781 151.117188 306.558594 150.839844 L 306.566406 150.914062 C 306.5 150.519531 306.457031 150.132812 306.429688 149.75 C 306.035156 143.921875 310.039062 139.390625 313.496094 135.453125 C 316.382812 132.167969 318.8125 129.363281 318.617188 126.492188 L 318.613281 126.425781 C 318.074219 119.101562 311.214844 117.742188 306.515625 118.085938 C 306.59375 118.082031 295.539062 118.863281 285.421875 133.027344 L 285.347656 133.105469 C 283.75 134.351562 282.402344 134.824219 281.070312 135.292969 C 279.558594 135.828125 278.050781 136.359375 276.097656 138.03125 L 276.101562 138.03125 L 276.089844 138.039062 C 275.125 138.871094 275.277344 139.511719 275.898438 140.230469 C 276.320312 140.726562 276.953125 141.214844 277.621094 141.734375 C 278.277344 142.238281 278.972656 142.773438 279.457031 143.339844 C 279.558594 143.457031 279.578125 143.625 279.503906 143.761719 C 279.25 144.230469 278.796875 144.628906 278.34375 145.03125 C 277.574219 145.714844 276.660156 146.535156 276.011719 147.976562 C 275.996094 148.007812 275.988281 148.035156 275.980469 148.0625 C 275.785156 148.6875 276.5625 149.410156 277.746094 150.390625 C 278.601562 151.101562 279.894531 152.089844 279.570312 153.128906 C 279.519531 153.292969 279.449219 153.433594 279.355469 153.5625 C 278.8125 154.332031 277.601562 154.476562 276.613281 154.621094 C 275.335938 154.804688 274.222656 154.992188 273.6875 155.746094 C 273.476562 156.042969 273.402344 156.34375 273.410156 156.671875 C 273.421875 157.121094 273.582031 157.605469 273.777344 158.179688 C 273.980469 158.777344 274.214844 159.464844 274.230469 160.1875 C 274.257812 161.339844 273.257812 162.523438 272.585938 163.339844 C 272.050781 163.996094 271.785156 164.351562 271.785156 164.5 C 271.785156 164.5 271.785156 164.492188 271.78125 164.480469 C 272.546875 167.394531 274.929688 168.605469 277.347656 169.816406 C 279.773438 171.027344 282.324219 172.269531 282.410156 175.511719 L 282.410156 175.515625 L 282.410156 175.511719 C 282.414062 175.636719 282.875 194.796875 263.027344 209.78125 L 263.003906 209.792969 C 262.984375 209.808594 262.738281 209.992188 262.488281 209.867188 C 262.175781 209.71875 262.265625 209.363281 262.269531 209.359375 L 262.261719 209.441406 L 262.269531 209.359375 C 262.292969 209.242188 262.347656 209.113281 262.414062 208.984375 C 263.078125 207.621094 266.324219 203.015625 269.605469 198.355469 C 273.105469 193.390625 276.65625 188.347656 277.402344 186.820312 L 277.539062 187.304688 C 276.203125 186.445312 274.730469 186.066406 272.738281 185.824219 C 271.65625 185.695312 270.4375 185.605469 269.003906 185.503906 C 267.039062 185.363281 264.691406 185.191406 261.832031 184.847656 C 257.972656 184.382812 253.546875 190.035156 252.929688 192.734375 C 249.917969 205.917969 249.546875 207.214844 248.324219 208.554688 L 248.328125 208.554688 C 248.230469 208.660156 248.121094 208.777344 248.015625 208.886719 C 247.886719 209.019531 247.761719 209.152344 247.613281 209.3125 C 247.523438 209.414062 247.390625 209.457031 247.257812 209.429688 C 247.128906 209.402344 247.023438 209.308594 246.980469 209.183594 C 242.597656 196.371094 235.324219 189.167969 224.230469 190.34375 C 224.21875 190.34375 219.082031 190.890625 199.785156 191.683594 L 199.960938 191.628906 C 199.925781 191.652344 199.890625 191.675781 199.863281 191.703125 C 198.28125 193.160156 205.597656 201.453125 210.703125 207 C 210.855469 207.171875 211.226562 207.570312 211.363281 207.722656 L 211.929688 208.332031 L 211.652344 208.585938 L 211.71875 208.957031 C 211.792969 208.945312 203.722656 210.414062 200.765625 208.507812 C 200.714844 208.476562 200.671875 208.429688 200.640625 208.378906 C 200.527344 208.175781 200.359375 207.898438 200.152344 207.550781 C 198.449219 204.714844 194.015625 197.355469 194.085938 190.632812 C 194.140625 185.125 195.808594 179.8125 197.34375 174.921875 C 199.027344 169.558594 200.519531 164.761719 199.730469 160.65625 C 199.722656 160.605469 199.703125 160.523438 199.695312 160.476562 C 199.394531 159.082031 198.867188 158.300781 198.523438 157.796875 C 198.386719 157.59375 198.214844 157.351562 198.164062 157.125 C 198.152344 157.058594 198.15625 156.988281 198.175781 156.925781 C 198.890625 154.769531 199.160156 150.769531 199.351562 147.871094 C 199.460938 146.277344 199.542969 144.90625 199.710938 144.527344 L 200.054688 144.675781 L 199.710938 144.523438 C 199.730469 144.480469 199.773438 144.386719 199.863281 144.316406 L 199.863281 144.320312 C 200.132812 144.109375 200.386719 144.3125 200.457031 144.40625 C 203.628906 148.523438 203.316406 174.792969 192.859375 185.433594 C 188.347656 190.023438 186.53125 191.410156 179.066406 189.617188 C 171.714844 187.851562 163.730469 182.132812 162.679688 176.308594 C 160.183594 162.464844 161.351562 157.304688 164.191406 150.257812 C 164.570312 149.324219 164.972656 148.367188 165.398438 147.34375 C 165.871094 146.222656 166.40625 144.945312 166.933594 143.640625 C 169.386719 137.554688 175.765625 138.511719 180.128906 139.417969 C 180.460938 139.484375 180.796875 139.558594 181.109375 139.625 C 181.398438 139.6875 181.691406 139.75 181.957031 139.804688 C 185.039062 140.441406 186.773438 139.976562 188.378906 139.542969 C 190.800781 138.894531 192.878906 138.371094 198.082031 141.484375 L 197.859375 141.429688 C 197.761719 141.4375 197.714844 141.503906 197.714844 141.503906 C 197.738281 141.464844 197.789062 141.28125 197.777344 140.886719 C 197.671875 137.4375 193.671875 125.808594 184.484375 126.082031 C 180.835938 126.191406 175.015625 128.183594 169.855469 129.953125 C 165.335938 131.503906 161.132812 132.972656 159.710938 132.5 C 159.667969 132.484375 159.625 132.460938 159.589844 132.433594 C 156.300781 129.71875 154.730469 126.214844 155.589844 123.777344 C 155.789062 123.214844 156.042969 122.671875 156.347656 122.144531 C 159.851562 116.0625 170.113281 112.097656 174.554688 114.65625 C 175.777344 115.363281 176.9375 116.546875 177.15625 117.976562 C 177.609375 120.910156 174.164062 124.113281 162.355469 125.933594 C 162.234375 125.949219 162.117188 125.910156 162.03125 125.828125 C 161.949219 125.742188 161.90625 125.625 161.925781 125.507812 C 162.789062 119.457031 166.132812 117.164062 174.011719 116.378906 C 179.269531 115.855469 185.199219 121.050781 186.324219 122.945312 C 186.433594 123.136719 186.535156 123.347656 186.550781 123.542969 L 186.175781 123.578125 L 186.550781 123.542969 C 186.566406 123.710938 186.523438 123.941406 186.296875 124.078125 C 186.183594 124.140625 186.046875 124.144531 185.933594 124.085938 C 182.800781 122.472656 171.960938 124.726562 159.542969 130.417969 C 158.035156 131.109375 156.332031 133.460938 154.832031 137.117188 C 150.136719 148.578125 151.554688 158.40625 161.199219 169.847656 C 161.257812 169.914062 161.292969 170.003906 161.289062 170.09375 C 161.285156 170.289062 161.269531 170.46875 161.234375 170.632812 C 161.039062 171.546875 160.363281 171.882812 159.5625 171.710938 C 157.039062 171.179688 152.460938 165.503906 153.671875 159.769531 C 153.746094 159.414062 154.03125 159.195312 154.324219 159.074219 C 155.695312 158.515625 159.09375 159.382812 160.324219 162.414062 L 160.347656 162.496094 C 160.851562 165.65625 161.5625 168.632812 162.375 171.464844 C 163.335938 174.828125 164.4375 177.988281 165.488281 181.011719 C 166.449219 183.765625 167.367188 186.402344 168.101562 188.976562 C 168.117188 189.03125 168.121094 189.089844 168.109375 189.148438 C 167.546875 192.105469 166.628906 194.753906 165.761719 197.253906 C 164.289062 201.511719 162.964844 205.34375 163.59375 209.792969 C 163.617188 209.96875 163.519531 210.136719 163.355469 210.199219 C 163.191406 210.261719 163.007812 210.203125 162.90625 210.058594 C 160.242188 206.097656 159.75 202.101562 159.488281 200.003906 C 159.386719 199.191406 159.328125 198.800781 159.261719 198.695312 C 159.261719 198.691406 159.269531 198.703125 159.285156 198.71875 C 159.402344 198.828125 159.546875 198.769531 159.5625 198.757812 C 159.5625 198.757812 159.546875 198.769531 159.519531 198.796875 C 159.464844 198.859375 159.386719 198.902344 159.300781 198.914062 C 156.699219 199.308594 153.675781 199.691406 150.511719 200.097656 C 142.097656 201.171875 132.753906 202.363281 127.730469 204.125 C 124.074219 205.410156 121.800781 206.867188 120.269531 208.054688 C 119.675781 208.515625 119.1875 208.941406 118.769531 209.304688 C 118.46875 209.570312 118.191406 209.816406 117.941406 210.007812 C 116.726562 210.953125 115.9375 210.816406 114.679688 209.195312 C 114.648438 209.15625 114.628906 209.113281 114.613281 209.0625 C 109.332031 189.847656 98.3125 185.886719 90.542969 184.824219 C 88.871094 184.597656 87.339844 184.5 86.039062 184.421875 C 85.09375 184.363281 84.257812 184.3125 83.582031 184.21875 C 75.839844 183.164062 71.714844 185.632812 69.667969 186.855469 C 69.070312 187.210938 68.46875 187.59375 68.03125 187.546875 C 67.882812 187.53125 67.742188 187.472656 67.625 187.363281 L 67.890625 187.09375 L 67.546875 186.933594 C 67.4375 187.171875 70.925781 180.222656 53.132812 168.410156 L 53.203125 168.445312 C 53.246094 168.460938 44.761719 165.097656 42.34375 162.566406 C 40.871094 161.023438 39.023438 158.507812 38.222656 156.066406 C 37.367188 153.441406 37.707031 150.769531 41.140625 149.644531 C 41.355469 149.574219 41.566406 149.515625 41.78125 149.472656 C 44.726562 148.847656 47.667969 150.46875 49.085938 151.242188 C 49.535156 151.488281 49.765625 151.609375 49.847656 151.625 C 49.859375 151.628906 49.820312 151.617188 49.761719 151.628906 C 49.488281 151.6875 49.507812 151.964844 49.511719 151.984375 C 46.089844 135.808594 49.550781 128.761719 57.523438 124.90625 C 61.855469 122.8125 66.929688 120.488281 71.566406 125.1875 C 71.609375 125.230469 76.070312 129.777344 79.023438 141.007812 L 78.945312 140.859375 C 78.945312 140.859375 83.25 145.933594 85.753906 150.933594 C 86.425781 152.28125 86.328125 153.265625 85.707031 154.015625 C 85.191406 154.640625 84.34375 155.046875 83.59375 155.417969 C 82.777344 155.820312 82.050781 156.183594 81.617188 156.707031 C 80.585938 157.953125 80.859375 159.453125 81.902344 161.804688 L 81.917969 161.847656 L 81.902344 161.804688 C 81.929688 161.871094 81.957031 161.941406 81.976562 162.003906 L 81.976562 162.007812 C 82.195312 162.761719 81.648438 163.113281 81.148438 163.261719 C 80.808594 163.359375 80.378906 163.410156 79.976562 163.457031 C 79.515625 163.511719 79.078125 163.566406 78.707031 163.675781 C 78.589844 163.710938 78.746094 163.699219 78.753906 163.523438 C 78.753906 163.480469 78.746094 163.460938 78.746094 163.460938 L 78.777344 163.605469 L 78.746094 163.460938 C 78.785156 163.554688 78.996094 163.75 79.417969 164.117188 C 80.183594 164.78125 81.523438 165.898438 81.464844 167.289062 C 81.402344 168.703125 80.359375 169.28125 79.730469 169.644531 C 79.359375 169.855469 79.242188 169.945312 79.214844 170 C 79.21875 169.996094 79.21875 169.984375 79.21875 169.980469 C 79.21875 169.984375 79.21875 169.992188 79.234375 170.019531 C 79.390625 170.308594 79.566406 170.59375 79.761719 170.910156 C 80.96875 172.851562 82.417969 175.261719 78.417969 178.714844 C 78.015625 179.058594 77.574219 179.339844 77.105469 179.5625 C 70.121094 182.839844 55.941406 173.195312 52.4375 165.734375 C 46.832031 153.789062 46.234375 137.296875 48.832031 132.199219 C 49.34375 131.1875 51.769531 129.890625 54.472656 128.417969 C 60.058594 125.375 67.25 121.394531 67.261719 116.921875 C 67.261719 116.910156 67.257812 116.882812 67.257812 116.871094 C 67.097656 113.796875 53.625 110.808594 50.484375 110.972656 C 45.410156 111.238281 30.6875 112.578125 21.328125 128.023438 C 16.636719 135.761719 19.691406 146.007812 21.027344 150.140625 C 21.082031 150.308594 21.117188 150.421875 21.164062 150.570312 C 21.195312 150.664062 21.246094 150.820312 21.273438 150.902344 C 22.03125 153.25 23.464844 155.960938 25.164062 158.851562 C 26.035156 160.339844 26.980469 161.875 27.933594 163.417969 C 28.90625 165 29.882812 166.585938 30.8125 168.167969 C 35.429688 176.019531 39.109375 184.097656 32.652344 187.890625 C 22.832031 193.664062 8.59375 204.085938 0.792969 210.238281 L 0.632812 209.574219 C 13.898438 212.261719 30.277344 214.046875 55.839844 215.253906 C 78.695312 216.332031 92.140625 215.617188 96.042969 214.761719 C 116.617188 210.230469 133.089844 208.382812 145.640625 208.644531 C 150.988281 208.757812 215.675781 211 254.535156 216.429688 C 254.425781 216.417969 255.113281 216.429688 255.121094 216.871094 C 255.128906 217.214844 254.738281 217.296875 254.8125 217.269531 L 254.789062 217.277344 L 254.8125 217.269531 C 253.921875 217.574219 243.636719 217.902344 230.511719 218.226562 C 217.847656 218.539062 202.398438 218.851562 189.824219 219.101562 C 181.179688 219.273438 173.894531 219.421875 169.78125 219.523438 C 169.789062 219.523438 147.9375 220.0625 121.964844 223.085938 L 121.988281 223.082031 C 121.925781 223.09375 121.898438 223.101562 121.894531 223.105469 C 121.839844 223.128906 122.078125 223.046875 122.039062 222.789062 C 122.019531 222.667969 121.945312 222.617188 121.960938 222.632812 C 124.179688 224.425781 196.894531 235.921875 280.457031 222.796875 C 304.910156 218.957031 335.566406 229.558594 336.53125 232.277344 L 336.53125 232.273438 C 336.472656 232.109375 336.585938 232.425781 336.53125 232.277344 L 336.179688 232.40625 L 336.535156 232.285156 C 336.683594 232.726562 336.378906 233.007812 336.0625 233.121094 C 336.019531 233.136719 335.980469 233.140625 335.9375 233.144531 C 335.941406 233.144531 321.769531 233.230469 306.160156 235.300781 C 306.164062 235.300781 286 237.972656 264.15625 243.039062 L 264.15625 242.304688 C 264.148438 242.304688 285.25 247.328125 311.878906 248.863281 C 313.117188 248.933594 314.382812 248.992188 315.660156 249.042969 C 329.390625 249.570312 344.796875 248.875 355.105469 248.410156 C 360.265625 248.179688 364.171875 248 365.933594 248.070312 C 366.085938 248.074219 366.761719 248.078125 366.792969 248.582031 L 366.792969 248.578125 C 366.804688 248.757812 366.714844 248.886719 366.660156 248.953125 L 366.746094 248.707031 L 366.660156 248.953125 C 365.53125 250.308594 348.425781 255.164062 340.34375 255.726562 C 327.277344 256.632812 315.613281 257.898438 305.300781 259.015625 C 294.371094 260.199219 284.945312 261.21875 276.984375 261.472656 C 251.964844 262.273438 183.195312 263.398438 171.4375 263.113281 C 171.433594 263.113281 146.671875 262.515625 121.429688 258.902344 L 121.484375 258.53125 L 121.46875 258.15625 C 121.511719 258.152344 176.625 255.625 189.410156 254.25 C 204.648438 252.609375 218.609375 251.980469 227.089844 251.597656 C 232.027344 251.375 234.96875 251.234375 235.363281 251.066406 C 235.421875 251.042969 235.246094 251.089844 235.207031 251.285156 L 235.203125 251.289062 C 235.144531 251.589844 235.449219 251.6875 235.347656 251.636719 C 235.328125 251.628906 235.257812 251.605469 235.089844 251.570312 C 234.9375 251.539062 234.695312 251.488281 234.515625 251.449219 C 230.640625 250.640625 221.6875 248.765625 207.457031 248.679688 C 181.414062 248.523438 152.773438 248 143.539062 247.097656 C 133.085938 246.078125 121.6875 244.917969 110.15625 243.746094 C 69.40625 239.601562 26.824219 235.273438 16.257812 236.128906 C 11.601562 236.507812 10.140625 237.351562 10.109375 237.996094 C 9.960938 241.054688 30.898438 247.382812 52.167969 248.425781 C 62.511719 248.929688 73.710938 249.105469 83.289062 249.25 C 94.683594 249.425781 103.863281 249.566406 106.472656 250.207031 C 108.089844 250.605469 109.363281 251.0625 109.390625 251.808594 C 109.394531 251.921875 109.371094 252.03125 109.328125 252.125 L 109.363281 251.960938 L 109.328125 252.125 C 108.046875 254.875 74.171875 256.371094 48.019531 257.382812 C 44.289062 257.523438 40.671875 257.660156 37.332031 257.785156 C 34.417969 257.890625 31.695312 257.992188 29.234375 258.089844 C 22.867188 258.335938 17.582031 258.972656 13.363281 259.769531 C 4.542969 261.433594 0.789062 263.71875 0.765625 264.359375 C 0.765625 264.363281 0.765625 264.355469 0.765625 264.351562 C 0.804688 264.558594 0.667969 264.753906 0.464844 264.792969 C 0.261719 264.832031 0.0625 264.699219 0.0273438 264.492188 Z M 0.0273438 264.492188 " fill-opacity="1" fill-rule="nonzero"/></svg>