<svg xmlns="http://www.w3.org/2000/svg" xmlns:xlink="http://www.w3.org/1999/xlink" width="500" zoomAndPan="magnify" viewBox="0 0 375 374.999991" height="500" preserveAspectRatio="xMidYMid meet" version="1.0"><defs><clipPath id="a5d3ac398f"><path d="M 0 145.15625 L 375 145.15625 L 375 229.90625 L 0 229.90625 Z M 0 145.15625 " clip-rule="nonzero"/></clipPath></defs><g clip-path="url(#a5d3ac398f)"><path fill="#303848" d="M 185.695312 229.773438 C 180.453125 229.773438 174.617188 229.65625 172.707031 229.324219 C 172.304688 229.253906 171.554688 229.125 171.566406 228.617188 C 171.570312 228.25 171.941406 228.015625 172.980469 227.730469 C 173.574219 227.5625 174.386719 227.386719 175.394531 227.203125 C 168.238281 227.0625 163.566406 226.882812 161.476562 226.667969 C 160.675781 226.585938 159.925781 226.441406 159.886719 225.917969 C 159.84375 225.277344 160.8125 224.710938 166.300781 223.3125 C 164.941406 223.128906 162.761719 222.832031 159.558594 222.394531 C 154.53125 221.710938 148.273438 220.855469 144.71875 220.40625 C 144.003906 220.316406 143.363281 220.199219 143.359375 219.734375 C 143.359375 219.332031 143.855469 219.132812 144.773438 218.898438 C 145.46875 218.726562 146.457031 218.53125 147.789062 218.308594 C 150.238281 217.898438 153.363281 217.46875 156.390625 217.054688 C 158.746094 216.730469 161.300781 216.382812 162.976562 216.101562 C 161.945312 216.066406 160.605469 216.027344 159.230469 215.992188 C 155.617188 215.894531 150.667969 215.761719 146.550781 215.488281 C 139.941406 215.054688 138.597656 214.46875 138.160156 214.066406 C 138.015625 213.933594 137.964844 213.75 138.023438 213.578125 C 138.140625 213.242188 138.503906 212.972656 142.117188 212.601562 C 144.359375 212.367188 147.34375 212.148438 150.503906 211.917969 C 154.316406 211.636719 158.257812 211.347656 161.382812 211 C 163.070312 210.8125 164.339844 210.628906 165.273438 210.441406 C 165.398438 210.414062 165.511719 210.390625 165.613281 210.367188 C 163.621094 210.332031 161.195312 210.324219 158.835938 210.316406 C 155.796875 210.304688 152.65625 210.296875 150.453125 210.226562 C 149.644531 210.199219 148.875 210.179688 148.128906 210.164062 C 140.945312 209.992188 136.609375 209.890625 130.597656 203.757812 C 129.957031 203.105469 128.25 201.121094 125.882812 198.375 C 122.3125 194.230469 117.425781 188.550781 113.136719 183.890625 C 110.796875 181.351562 108.871094 179.375 107.417969 178.015625 C 105.191406 175.933594 104.5 175.710938 104.304688 175.710938 C 104.203125 175.710938 103.605469 175.828125 101.722656 178.175781 C 101.472656 178.488281 101.207031 178.832031 100.929688 179.203125 C 104.488281 184.226562 108.414062 188.96875 112.660156 193.375 C 115.800781 196.628906 119.09375 199.664062 122.441406 202.386719 C 125.765625 205.089844 129.160156 207.503906 132.53125 209.558594 C 132.628906 209.617188 132.6875 209.71875 132.695312 209.832031 C 132.703125 209.941406 132.65625 210.050781 132.566406 210.121094 C 131.316406 211.117188 128.949219 210.863281 125.113281 209.316406 C 121.816406 207.984375 117.910156 205.910156 113.773438 203.714844 C 108.605469 200.976562 103.265625 198.140625 99.171875 196.847656 C 97.40625 196.289062 94.039062 199.832031 91.332031 202.679688 C 88.234375 205.941406 86.273438 207.90625 85.050781 207.238281 C 84.996094 207.207031 84.949219 207.160156 84.917969 207.105469 C 84.78125 206.863281 84.707031 206.429688 85.1875 205.058594 C 85.5 204.167969 86.007812 202.988281 86.699219 201.550781 C 87.996094 198.855469 89.898438 195.34375 92.050781 191.664062 C 94.570312 187.359375 97.121094 183.34375 99.238281 180.355469 C 99.53125 179.945312 99.8125 179.558594 100.082031 179.191406 C 98.25 176.582031 96.511719 173.894531 94.882812 171.144531 L 80.503906 148.945312 C 80.519531 149.691406 80.484375 150.746094 80.316406 152.132812 C 79.980469 154.9375 79.011719 159.710938 76.316406 166.519531 C 74.566406 170.941406 74.527344 176.894531 76.203125 184.214844 C 77.6875 190.707031 80.230469 197.046875 82.015625 201.246094 C 82.203125 201.6875 82.394531 202.140625 82.050781 202.339844 C 81.710938 202.539062 81.40625 202.210938 80.628906 201.230469 C 80.074219 200.535156 79.308594 199.511719 78.421875 198.332031 C 76.050781 195.167969 72.800781 190.839844 69.558594 187.222656 C 65.773438 183 62.972656 180.855469 61.234375 180.847656 C 60.910156 180.847656 60.648438 180.703125 60.503906 180.445312 C 60.164062 179.84375 60.21875 178.484375 63.191406 172.941406 C 65.140625 169.296875 67.832031 164.804688 70.433594 160.457031 C 72.601562 156.839844 74.648438 153.417969 76.128906 150.730469 C 76.914062 149.296875 77.472656 148.199219 77.828125 147.371094 C 78.226562 146.457031 78.285156 146.070312 78.289062 145.921875 C 78.273438 145.925781 78.25 145.929688 78.230469 145.941406 C 77.273438 146.304688 75.910156 147.367188 74.171875 149.105469 C 72.546875 150.726562 70.582031 152.953125 68.328125 155.722656 C 64.398438 160.558594 59.464844 167.222656 54.054688 174.996094 C 51.613281 178.507812 49.167969 182.113281 46.84375 185.609375 C 49.511719 188.75 53.128906 193.359375 56.046875 197.359375 C 57.984375 200.011719 59.550781 202.304688 60.570312 203.988281 C 62.238281 206.742188 62.207031 207.429688 61.925781 207.765625 C 61.550781 208.210938 60.828125 207.847656 60.238281 207.476562 C 59.300781 206.890625 58.054688 206.007812 56.738281 205.074219 C 54.664062 203.605469 52.316406 201.9375 50.3125 200.800781 C 47.484375 199.195312 46.601562 199.382812 46.324219 199.636719 C 42.25 203.398438 38.925781 206.175781 36.441406 207.886719 C 33.421875 209.96875 32.5625 209.835938 32.179688 209.554688 C 31.78125 209.261719 31.78125 208.679688 32.183594 207.832031 C 32.183594 207.828125 32.1875 207.828125 32.1875 207.824219 C 33.800781 204.613281 39.375 195.625 45.988281 185.660156 C 45.617188 185.226562 45.265625 184.828125 44.9375 184.464844 C 44.53125 184.019531 43.882812 183.746094 43.445312 184.09375 C 40.601562 186.351562 34.265625 193.976562 30.480469 198.53125 C 29.761719 199.394531 29.144531 200.140625 28.671875 200.699219 C 27.085938 202.582031 25.632812 204.257812 23.941406 205.710938 C 22.046875 207.335938 20.074219 208.457031 17.90625 209.136719 C 13.074219 210.652344 6.296875 210.492188 0.328125 210.222656 C 0.136719 210.210938 -0.0078125 210.050781 0 209.863281 C 0.0078125 209.675781 0.167969 209.527344 0.359375 209.535156 C 3 209.65625 6.074219 209.777344 9.125 209.675781 C 12.710938 209.558594 15.515625 209.167969 17.703125 208.480469 C 19.808594 207.820312 21.648438 206.773438 23.492188 205.191406 C 25.148438 203.769531 26.578125 202.117188 28.148438 200.257812 C 28.617188 199.699219 29.238281 198.957031 29.953125 198.09375 C 33.753906 193.519531 40.117188 185.859375 43.019531 183.558594 C 43.695312 183.019531 44.714844 183.207031 45.445312 184.003906 C 45.738281 184.328125 46.050781 184.683594 46.378906 185.066406 C 48.675781 181.621094 51.085938 178.066406 53.492188 174.605469 C 58.910156 166.816406 63.855469 160.136719 67.796875 155.289062 C 72.574219 149.417969 76 146.054688 77.984375 145.300781 C 78.445312 145.125 78.691406 145.269531 78.820312 145.421875 C 79.085938 145.738281 79.007812 146.3125 78.554688 147.414062 C 78.214844 148.242188 77.65625 149.359375 76.855469 150.832031 C 75.363281 153.5625 73.253906 157.082031 71.023438 160.8125 C 68.425781 165.148438 65.738281 169.636719 63.792969 173.261719 C 62.75 175.21875 62.019531 176.726562 61.570312 177.882812 C 60.914062 179.558594 61.042969 180.011719 61.101562 180.109375 C 61.113281 180.132812 61.128906 180.164062 61.238281 180.164062 C 63.207031 180.171875 66.09375 182.332031 70.070312 186.765625 C 73.332031 190.402344 76.589844 194.746094 78.96875 197.917969 C 79.714844 198.914062 80.4375 199.878906 80.996094 200.589844 C 79.234375 196.390625 76.925781 190.453125 75.535156 184.367188 C 74.746094 180.917969 74.324219 177.730469 74.289062 174.898438 C 74.246094 171.613281 74.714844 168.710938 75.679688 166.269531 C 78.335938 159.5625 79.292969 154.867188 79.628906 152.113281 C 79.992188 149.125 79.726562 147.707031 79.722656 147.695312 C 79.691406 147.53125 79.78125 147.371094 79.933594 147.308594 C 80.085938 147.25 80.257812 147.304688 80.347656 147.441406 L 95.460938 170.777344 C 95.464844 170.78125 95.464844 170.785156 95.46875 170.789062 C 97.054688 173.460938 98.738281 176.074219 100.515625 178.613281 C 101.140625 177.792969 101.699219 177.109375 102.1875 176.566406 C 103.425781 175.199219 103.972656 175.023438 104.304688 175.023438 C 105.050781 175.023438 106.78125 175.980469 113.640625 183.429688 C 117.9375 188.09375 122.828125 193.777344 126.402344 197.925781 C 128.671875 200.5625 130.460938 202.644531 131.085938 203.277344 C 133.835938 206.082031 136.3125 207.703125 139.121094 208.539062 C 141.769531 209.328125 144.582031 209.394531 148.144531 209.480469 C 148.894531 209.496094 149.664062 209.515625 150.476562 209.539062 C 152.667969 209.609375 155.804688 209.621094 158.835938 209.628906 C 161.875 209.640625 165.011719 209.648438 167.214844 209.71875 C 167.332031 209.722656 167.441406 209.789062 167.5 209.890625 C 167.558594 209.988281 167.5625 210.113281 167.507812 210.21875 C 167.378906 210.46875 167.042969 210.765625 165.523438 211.085938 C 164.582031 211.285156 163.292969 211.476562 161.574219 211.667969 C 158.421875 212.023438 154.421875 212.316406 150.554688 212.601562 C 147.539062 212.820312 144.691406 213.03125 142.5 213.25 C 140.367188 213.464844 139.398438 213.636719 138.957031 213.757812 C 139.675781 214.058594 141.585938 214.476562 146.597656 214.804688 C 150.699219 215.078125 155.640625 215.210938 159.25 215.308594 C 164.835938 215.457031 165.046875 215.492188 165.238281 215.652344 C 165.359375 215.75 165.40625 215.902344 165.363281 216.046875 C 165.292969 216.296875 165.039062 216.394531 164.367188 216.539062 C 163.929688 216.636719 163.300781 216.746094 162.453125 216.882812 C 160.875 217.132812 158.742188 217.425781 156.484375 217.734375 C 153.632812 218.125 150.6875 218.527344 148.308594 218.917969 C 146.125 219.273438 145.035156 219.523438 144.496094 219.683594 C 144.585938 219.699219 144.6875 219.714844 144.804688 219.726562 C 148.363281 220.175781 154.621094 221.03125 159.652344 221.71875 C 163.863281 222.292969 167.839844 222.835938 168.109375 222.847656 C 168.3125 222.851562 168.4375 223 168.457031 223.152344 C 168.46875 223.261719 168.445312 223.457031 168.144531 223.546875 C 168.097656 223.5625 168.03125 223.578125 167.9375 223.605469 C 167.765625 223.648438 167.523438 223.710938 167.21875 223.785156 C 166.246094 224.027344 164.621094 224.433594 163.21875 224.859375 C 161.550781 225.367188 160.921875 225.679688 160.6875 225.835938 C 160.828125 225.882812 161.085938 225.941406 161.546875 225.988281 C 163.972656 226.238281 169.953125 226.4375 179.324219 226.585938 C 179.503906 226.585938 179.648438 226.726562 179.660156 226.90625 C 179.671875 227.085938 179.542969 227.242188 179.363281 227.265625 C 179.347656 227.269531 177.679688 227.492188 175.953125 227.796875 C 173.875 228.164062 172.945312 228.429688 172.53125 228.589844 C 172.609375 228.609375 172.707031 228.628906 172.824219 228.648438 C 174.488281 228.9375 180.027344 229.109375 186.941406 229.085938 C 192.109375 229.066406 196.570312 228.941406 198.414062 228.78125 C 197.753906 228.613281 196.582031 228.363281 194.496094 228.019531 C 192.320312 227.660156 190.214844 227.371094 190.191406 227.367188 C 190.015625 227.34375 189.886719 227.1875 189.898438 227.011719 C 189.90625 226.832031 190.050781 226.691406 190.230469 226.6875 C 190.371094 226.683594 204.417969 226.300781 207.324219 225.71875 C 207.84375 225.617188 208.101562 225.519531 208.222656 225.457031 C 208.015625 225.3125 207.375 225.011719 205.4375 224.578125 C 203.945312 224.238281 202.273438 223.957031 201.375 223.804688 C 201.160156 223.765625 200.988281 223.738281 200.871094 223.714844 C 200.804688 223.703125 200.757812 223.695312 200.722656 223.6875 C 200.394531 223.621094 200.402344 223.363281 200.40625 223.3125 C 200.417969 223.152344 200.542969 222.996094 200.757812 222.996094 C 201.308594 222.980469 217.6875 221.203125 224.28125 220.371094 C 224.394531 220.359375 224.492188 220.34375 224.574219 220.328125 C 224.277344 220.226562 223.785156 220.085938 222.964844 219.90625 C 221.878906 219.664062 220.371094 219.386719 218.480469 219.078125 C 214.996094 218.507812 210.765625 217.921875 207.675781 217.492188 C 206.269531 217.296875 205.050781 217.128906 204.195312 217.003906 C 203.738281 216.933594 203.410156 216.882812 203.183594 216.84375 C 203.058594 216.820312 202.964844 216.804688 202.898438 216.789062 C 202.589844 216.714844 202.535156 216.535156 202.546875 216.398438 C 202.554688 216.246094 202.644531 216.066406 203.007812 216.066406 C 205.140625 216.066406 227.691406 215.148438 232 213.492188 C 231.542969 213.335938 230.347656 213.074219 227.230469 212.785156 C 224.734375 212.554688 221.355469 212.332031 217.195312 212.132812 C 210.105469 211.789062 203.113281 211.613281 203.042969 211.613281 C 202.949219 211.609375 202.863281 211.570312 202.800781 211.503906 C 202.738281 211.4375 202.703125 211.347656 202.707031 211.257812 L 202.75 210.097656 L 168.8125 210.785156 C 168.5625 210.789062 168.515625 210.792969 168.421875 210.714844 C 168.339844 210.648438 168.292969 210.550781 168.292969 210.445312 L 168.292969 208.503906 C 168.292969 206.019531 168.625 203.671875 169.285156 201.519531 C 169.988281 199.238281 171.042969 197.230469 172.421875 195.558594 C 173.902344 193.757812 175.75 192.359375 177.90625 191.398438 C 180.222656 190.371094 182.910156 189.847656 185.890625 189.84375 L 185.914062 189.84375 C 188.90625 189.84375 191.597656 190.363281 193.914062 191.390625 C 196.074219 192.347656 197.917969 193.746094 199.398438 195.550781 C 200.765625 197.222656 201.8125 199.230469 202.507812 201.519531 C 203.160156 203.664062 203.488281 206.015625 203.488281 208.503906 C 203.488281 208.507812 203.488281 208.511719 203.488281 208.515625 L 203.457031 209.398438 C 216.214844 209.136719 227.695312 208.90625 228.171875 208.894531 C 234.625 208.347656 236.449219 207.503906 237.378906 206.753906 C 239.109375 205.359375 242.269531 201.507812 245.621094 197.429688 C 248.246094 194.234375 250.960938 190.929688 253.332031 188.363281 C 256.128906 185.34375 257.941406 183.910156 259.042969 183.84375 C 259.375 183.824219 259.664062 183.925781 259.878906 184.132812 C 260.75 184.972656 261.773438 186.019531 262.878906 187.195312 C 265.054688 184.5625 267.472656 181.703125 270.082031 178.679688 C 279.773438 167.457031 290.785156 155.554688 292.308594 154.65625 C 292.429688 154.582031 292.582031 154.59375 292.695312 154.679688 C 293.195312 155.074219 293.132812 155.910156 292.496094 157.382812 C 292.007812 158.519531 291.175781 160.027344 289.957031 161.996094 C 287.726562 165.601562 284.636719 170.039062 281.648438 174.324219 C 279.492188 177.417969 277.457031 180.335938 275.984375 182.613281 C 275.195312 183.824219 274.632812 184.757812 274.253906 185.464844 C 273.90625 186.125 273.785156 186.472656 273.742188 186.644531 C 273.882812 186.589844 274.140625 186.460938 274.578125 186.152344 C 275.167969 185.738281 275.964844 185.09375 276.957031 184.230469 C 278.613281 182.785156 280.128906 181.148438 281.59375 179.5625 C 284.113281 176.835938 286.496094 174.261719 289.238281 173.074219 C 290.734375 172.429688 292.210938 172.238281 293.757812 172.5 C 295.457031 172.785156 297.199219 173.601562 299.089844 174.992188 C 299.671875 175.421875 299.945312 175.445312 300.007812 175.394531 C 300.03125 175.375 300.246094 175.175781 300.085938 174.019531 C 299.972656 173.234375 299.707031 172.15625 299.296875 170.808594 C 298.527344 168.296875 297.359375 165.226562 296.421875 162.757812 C 295.898438 161.378906 295.445312 160.1875 295.140625 159.300781 C 294.976562 158.824219 294.863281 158.46875 294.800781 158.21875 C 294.738281 157.964844 294.640625 157.585938 294.910156 157.40625 C 294.988281 157.351562 295.203125 157.253906 295.464844 157.5 C 299.460938 161.195312 307.890625 171.082031 316.820312 181.546875 C 317.097656 181.871094 317.375 182.199219 317.652344 182.523438 C 318.644531 181.644531 319.414062 180.984375 319.875 180.621094 C 320.328125 180.257812 320.808594 180.085938 321.234375 180.132812 C 321.558594 180.171875 321.847656 180.335938 322.0625 180.609375 C 325.207031 184.5625 332.089844 191.988281 337.617188 197.953125 C 338.21875 198.605469 338.804688 199.234375 339.367188 199.84375 C 340.996094 201.601562 342.800781 203.132812 344.738281 204.398438 C 346.578125 205.601562 348.597656 206.605469 350.738281 207.378906 C 354.683594 208.800781 359.105469 209.511719 364.261719 209.539062 C 368.199219 209.5625 368.894531 209.550781 369.570312 209.539062 C 370.230469 209.527344 370.917969 209.515625 374.660156 209.535156 C 374.847656 209.539062 375 209.691406 375 209.878906 C 375 210.070312 374.84375 210.222656 374.65625 210.222656 C 370.921875 210.199219 370.242188 210.210938 369.582031 210.222656 C 368.90625 210.234375 368.203125 210.25 364.257812 210.226562 C 359.023438 210.195312 354.523438 209.472656 350.507812 208.023438 C 348.316406 207.230469 346.246094 206.207031 344.363281 204.972656 C 342.378906 203.675781 340.53125 202.105469 338.867188 200.308594 C 338.300781 199.703125 337.71875 199.070312 337.113281 198.421875 C 331.578125 192.445312 324.6875 185.011719 321.527344 181.035156 C 321.421875 180.902344 321.300781 180.832031 321.15625 180.816406 C 320.917969 180.789062 320.605469 180.910156 320.300781 181.15625 C 319.84375 181.523438 319.078125 182.175781 318.09375 183.042969 C 326.816406 193.269531 335.640625 203.566406 340.832031 208.644531 C 340.925781 208.734375 340.957031 208.871094 340.917969 208.992188 C 340.878906 209.117188 340.773438 209.207031 340.648438 209.226562 C 339.054688 209.484375 335.265625 207.402344 330.019531 204.519531 C 324.476562 201.472656 317.578125 197.679688 311.988281 196.167969 C 311.21875 195.960938 309.988281 196.386719 308.324219 197.4375 C 306.78125 198.410156 305.078125 199.769531 303.429688 201.085938 C 299.976562 203.839844 297.800781 205.5 296.613281 204.945312 C 296.554688 204.917969 296.503906 204.875 296.472656 204.820312 C 296.246094 204.476562 296.40625 203.949219 297.015625 203.058594 C 297.476562 202.382812 298.203125 201.488281 299.183594 200.390625 C 300.890625 198.476562 303.328125 195.976562 306.433594 192.953125 C 310.3125 189.183594 314.40625 185.410156 317.136719 182.976562 C 316.859375 182.648438 316.578125 182.320312 316.296875 181.992188 C 307.828125 172.058594 299.800781 162.648438 295.625 158.59375 C 295.921875 159.507812 296.5 161.03125 297.0625 162.515625 C 298.003906 164.992188 299.175781 168.074219 299.949219 170.609375 C 301.199219 174.675781 300.886719 175.585938 300.421875 175.941406 C 299.828125 176.390625 298.964844 175.753906 298.683594 175.542969 C 295.292969 173.046875 292.378906 172.460938 289.511719 173.703125 C 286.898438 174.832031 284.566406 177.355469 282.097656 180.027344 C 280.621094 181.625 279.09375 183.277344 277.40625 184.75 C 276.25 185.757812 275.375 186.453125 274.734375 186.875 C 274.160156 187.253906 273.578125 187.558594 273.21875 187.234375 C 272.867188 186.921875 273.066406 186.3125 273.472656 185.492188 C 273.816406 184.796875 274.375 183.847656 275.179688 182.59375 C 276.675781 180.257812 278.816406 177.1875 281.085938 173.933594 C 284.070312 169.652344 287.152344 165.226562 289.375 161.632812 C 290.574219 159.695312 291.390625 158.214844 291.867188 157.109375 C 292.257812 156.210938 292.34375 155.734375 292.339844 155.480469 C 290.136719 157.316406 280.3125 167.886719 270.601562 179.128906 C 267.972656 182.171875 265.535156 185.050781 263.347656 187.699219 C 265.496094 190.015625 267.894531 192.757812 270.03125 195.355469 C 271.804688 197.515625 273.253906 199.402344 274.21875 200.820312 C 275.769531 203.097656 275.796875 203.722656 275.59375 204.058594 C 275.476562 204.25 275.222656 204.4375 274.660156 204.25 C 274.605469 204.230469 274.558594 204.199219 274.519531 204.15625 C 272.277344 201.742188 270.371094 200.03125 268.691406 198.921875 C 267.167969 197.914062 265.824219 197.40625 264.585938 197.367188 C 262.238281 197.292969 260.410156 198.902344 258.09375 200.933594 C 256.230469 202.570312 254.121094 204.429688 251.230469 205.84375 C 251.152344 205.882812 251.0625 205.890625 250.980469 205.867188 C 250.671875 205.773438 250.476562 205.535156 250.433594 205.191406 C 250.382812 204.773438 250.488281 203.9375 251.988281 201.523438 C 252.976562 199.933594 254.449219 197.851562 256.371094 195.335938 C 258.058594 193.125 260.101562 190.5625 262.4375 187.730469 C 261.316406 186.53125 260.28125 185.46875 259.402344 184.625 C 259.355469 184.578125 259.269531 184.515625 259.082031 184.527344 C 258.195312 184.578125 256.429688 186.027344 253.835938 188.828125 C 251.476562 191.382812 248.765625 194.679688 246.148438 197.867188 C 242.777344 201.96875 239.59375 205.847656 237.808594 207.285156 C 236.746094 208.144531 234.847656 209.019531 228.214844 209.578125 C 228.210938 209.578125 228.203125 209.578125 228.195312 209.578125 L 203.433594 210.082031 L 203.40625 210.9375 C 204.941406 210.976562 211.355469 211.15625 217.71875 211.472656 C 221.988281 211.683594 225.402344 211.914062 227.867188 212.160156 C 229.339844 212.304688 230.488281 212.457031 231.28125 212.613281 C 232.390625 212.832031 232.832031 213.046875 232.898438 213.410156 C 232.949219 213.691406 232.757812 213.925781 232.328125 214.097656 C 231.089844 214.601562 227.40625 215.355469 216.902344 216.074219 C 213.027344 216.339844 209.199219 216.53125 206.515625 216.640625 C 206.917969 216.695312 207.339844 216.753906 207.769531 216.8125 C 211.019531 217.265625 215.46875 217.882812 219.042969 218.476562 C 221 218.800781 222.519531 219.09375 223.566406 219.339844 C 225.328125 219.757812 225.652344 220.019531 225.648438 220.386719 C 225.644531 220.851562 225.011719 220.96875 224.367188 221.050781 C 219.097656 221.714844 208.171875 222.917969 203.25 223.433594 C 204.066406 223.585938 204.984375 223.765625 205.832031 223.964844 C 208.449219 224.574219 208.980469 224.988281 208.988281 225.464844 C 208.996094 226.007812 208.257812 226.230469 207.457031 226.390625 C 205.441406 226.792969 198.472656 227.09375 194.039062 227.25 C 194.328125 227.296875 194.617188 227.34375 194.90625 227.394531 C 196.253906 227.621094 197.332031 227.824219 198.109375 228.003906 C 199.554688 228.335938 199.8125 228.527344 199.84375 228.835938 C 199.851562 228.9375 199.832031 229.1875 199.460938 229.3125 C 198.597656 229.597656 192.367188 229.75 186.941406 229.769531 C 186.535156 229.769531 186.117188 229.773438 185.695312 229.773438 Z M 199.273438 228.652344 C 199.269531 228.652344 199.269531 228.652344 199.269531 228.652344 C 199.269531 228.652344 199.273438 228.652344 199.273438 228.652344 Z M 200.769531 223.679688 C 200.765625 223.679688 200.761719 223.679688 200.757812 223.679688 C 200.761719 223.679688 200.765625 223.679688 200.769531 223.679688 Z M 168.089844 223.53125 C 168.09375 223.53125 168.101562 223.53125 168.105469 223.53125 C 168.101562 223.53125 168.097656 223.53125 168.089844 223.53125 Z M 185.914062 190.53125 L 185.890625 190.53125 C 183.007812 190.53125 180.414062 191.035156 178.183594 192.027344 C 176.125 192.941406 174.363281 194.277344 172.949219 195.992188 C 171.628906 197.597656 170.617188 199.523438 169.941406 201.722656 C 169.300781 203.808594 168.976562 206.089844 168.976562 208.503906 L 168.976562 210.097656 C 171.550781 210.042969 187.90625 209.710938 202.773438 209.410156 L 202.804688 208.496094 C 202.804688 206.078125 202.484375 203.796875 201.851562 201.71875 C 201.183594 199.515625 200.179688 197.585938 198.867188 195.984375 C 197.457031 194.265625 195.699219 192.929688 193.636719 192.015625 C 191.410156 191.03125 188.8125 190.53125 185.914062 190.53125 Z M 98.78125 196.105469 C 98.988281 196.105469 99.1875 196.132812 99.378906 196.191406 C 103.53125 197.507812 108.902344 200.355469 114.09375 203.109375 C 118.214844 205.296875 122.105469 207.363281 125.367188 208.679688 C 128.449219 209.921875 130.527344 210.308594 131.6875 209.84375 C 128.449219 207.839844 125.195312 205.511719 122.007812 202.917969 C 118.640625 200.175781 115.328125 197.125 112.167969 193.847656 C 107.945312 189.472656 104.042969 184.765625 100.5 179.78125 C 99.527344 181.109375 98.417969 182.726562 97.226562 184.554688 C 94.402344 188.90625 91.320312 194.136719 88.988281 198.554688 C 87.808594 200.789062 86.871094 202.71875 86.277344 204.144531 C 85.570312 205.835938 85.492188 206.460938 85.5 206.675781 C 85.753906 206.710938 86.285156 206.5625 87.378906 205.640625 C 88.382812 204.789062 89.574219 203.535156 90.835938 202.207031 C 93.691406 199.203125 96.636719 196.105469 98.78125 196.105469 Z M 166.902344 209.898438 Z M 32.800781 208.128906 C 32.507812 208.753906 32.5625 208.984375 32.585938 209 C 32.589844 209.003906 33.117188 209.34375 36.054688 207.320312 C 38.507812 205.628906 41.808594 202.875 45.859375 199.132812 C 46.613281 198.4375 48.136719 198.777344 50.652344 200.207031 C 52.683594 201.359375 55.046875 203.035156 57.132812 204.515625 C 58.445312 205.441406 59.679688 206.320312 60.601562 206.898438 C 61.054688 207.179688 61.285156 207.257812 61.390625 207.28125 C 61.378906 206.921875 60.917969 205.160156 55.285156 197.472656 C 52.425781 193.570312 49.027344 189.242188 46.449219 186.203125 C 39.902344 196.070312 34.398438 204.945312 32.800781 208.128906 Z M 311.574219 195.433594 C 311.78125 195.433594 311.980469 195.457031 312.167969 195.507812 C 317.835938 197.042969 324.773438 200.855469 330.351562 203.917969 C 334.171875 206.019531 337.816406 208.019531 339.683594 208.472656 C 334.40625 203.179688 325.949219 193.304688 317.582031 183.496094 C 314.945312 185.84375 311.035156 189.449219 307.207031 193.160156 C 304.164062 196.113281 301.738281 198.585938 299.996094 200.507812 C 299.015625 201.597656 298.261719 202.496094 297.765625 203.183594 C 297.273438 203.863281 297.121094 204.207031 297.078125 204.367188 C 297.390625 204.386719 297.992188 204.214844 299.136719 203.46875 C 300.25 202.746094 301.585938 201.679688 303 200.550781 C 306.15625 198.03125 309.410156 195.433594 311.574219 195.433594 Z M 262.90625 188.234375 C 260.601562 191.035156 258.582031 193.566406 256.914062 195.753906 C 251.703125 202.582031 251.042969 204.542969 251.113281 205.105469 C 251.117188 205.117188 251.117188 205.125 251.117188 205.132812 C 253.832031 203.769531 255.855469 201.992188 257.640625 200.421875 C 259.972656 198.371094 261.988281 196.601562 264.609375 196.683594 C 267.378906 196.769531 270.570312 198.910156 274.957031 203.625 C 274.96875 203.628906 274.980469 203.628906 274.992188 203.632812 C 274.949219 203.40625 274.714844 202.734375 273.476562 200.953125 C 272.492188 199.535156 271.054688 197.671875 269.3125 195.5625 C 267.261719 193.074219 264.96875 190.457031 262.90625 188.234375 Z M 262.90625 188.234375 " fill-opacity="1" fill-rule="nonzero"/></g></svg>