<svg xmlns="http://www.w3.org/2000/svg" xmlns:xlink="http://www.w3.org/1999/xlink" width="500" zoomAndPan="magnify" viewBox="0 0 375 374.999991" height="500" preserveAspectRatio="xMidYMid meet" version="1.0"><defs><clipPath id="ad1c8413c9"><path d="M 63.515625 1 L 311 1 L 311 374 L 63.515625 374 Z M 63.515625 1 " clip-rule="nonzero"/></clipPath></defs><path fill="#607dfa" d="M 261.074219 146.617188 C 261.136719 138.074219 260.277344 129.714844 257.378906 121.492188 C 252.671875 108.121094 247.257812 95.191406 238.605469 83.824219 C 231.394531 74.355469 222.148438 67.90625 210.5 65.1875 C 206.679688 64.292969 202.769531 63.71875 198.867188 63.277344 C 191.972656 62.5 185.605469 63.234375 178.894531 66.257812 C 169.207031 70.625 160.570312 75.617188 152.96875 83.292969 C 145.53125 90.804688 140.402344 99.148438 137.566406 109.085938 C 133.136719 124.625 131.21875 140.382812 132.417969 156.625 C 133.574219 172.328125 139.242188 185.699219 149.957031 197.15625 C 162.089844 210.132812 177.214844 215.867188 194.667969 216.546875 C 206.808594 217.019531 217.894531 213.550781 228.796875 208.628906 C 239.164062 203.949219 246.785156 196.300781 251.578125 186.445312 C 257.632812 174.015625 261.585938 160.773438 261.074219 146.617188 Z M 80.988281 124.699219 C 80.011719 111.710938 85.070312 96.480469 90.449219 81.285156 C 93.324219 73.167969 96.871094 65.363281 102.488281 58.890625 C 111.898438 48.039062 121.03125 36.828125 133.507812 29.097656 C 144.484375 22.300781 156.230469 17.203125 168.722656 14.246094 C 187.648438 9.769531 206.40625 9.957031 224.484375 18.40625 C 230.125 21.046875 235.878906 23.445312 241.613281 25.878906 C 252.671875 30.566406 261.867188 37.800781 270.269531 46.265625 C 279.34375 55.402344 287.574219 65.136719 293.21875 76.800781 C 298.679688 88.078125 302.253906 99.941406 304.335938 112.316406 C 307.28125 129.800781 305.054688 146.941406 301.347656 163.980469 C 299.121094 174.226562 296.699219 184.4375 293.945312 194.546875 C 292.3125 200.53125 290.035156 206.359375 287.742188 212.136719 C 284.484375 220.359375 280.582031 228.347656 277.617188 236.671875 C 273.832031 247.292969 268.246094 256.867188 262.199219 266.261719 C 259.71875 270.113281 257.023438 273.949219 255.316406 278.152344 C 250.828125 289.21875 243.722656 298.613281 237.125 308.367188 C 232.535156 315.15625 228.21875 322.125 223.789062 329.023438 C 223.4375 329.574219 223.261719 330.25 222.855469 330.75 C 214.621094 340.941406 206.792969 351.476562 197.304688 360.589844 C 196.125 361.71875 194.917969 362.863281 193.566406 363.769531 C 188.707031 367.015625 185.503906 366.886719 181.378906 362.628906 C 174.558594 355.582031 167.503906 348.796875 161.972656 340.511719 C 156.355469 332.097656 150.015625 324.132812 143.578125 316.308594 C 131.980469 302.207031 123.652344 286.332031 117.09375 269.421875 C 116.621094 268.203125 116.449219 266.84375 115.859375 265.691406 C 105.589844 245.660156 101.164062 223.722656 95.210938 202.292969 C 91.699219 189.660156 88.496094 176.941406 85.3125 164.222656 C 82.355469 152.402344 81.117188 140.347656 80.988281 124.699219 " fill-opacity="1" fill-rule="nonzero"/><g clip-path="url(#ad1c8413c9)"><path fill="#303848" d="M 301.347656 163.980469 C 299.121094 174.226562 296.699219 184.4375 293.945312 194.546875 C 292.3125 200.53125 290.035156 206.359375 287.742188 212.136719 C 284.484375 220.359375 280.582031 228.347656 277.617188 236.671875 C 273.832031 247.292969 268.246094 256.867188 262.199219 266.261719 C 259.71875 270.113281 257.023438 273.949219 255.316406 278.152344 C 250.828125 289.21875 243.722656 298.613281 237.125 308.367188 C 232.535156 315.15625 228.21875 322.125 223.789062 329.023438 C 223.4375 329.574219 223.261719 330.25 222.855469 330.75 C 214.621094 340.941406 206.792969 351.476562 197.304688 360.589844 C 196.125 361.71875 194.917969 362.863281 193.566406 363.769531 C 188.707031 367.015625 185.503906 366.886719 181.378906 362.628906 C 174.558594 355.582031 167.503906 348.796875 161.972656 340.511719 C 156.355469 332.097656 150.015625 324.132812 143.578125 316.308594 C 131.980469 302.207031 123.652344 286.332031 117.09375 269.421875 C 116.621094 268.203125 116.449219 266.84375 115.859375 265.691406 C 105.589844 245.660156 101.164062 223.722656 95.207031 202.292969 C 91.699219 189.660156 88.496094 176.941406 85.3125 164.222656 C 82.355469 152.402344 81.117188 140.347656 80.988281 124.699219 C 80.011719 111.710938 85.070312 96.480469 90.449219 81.285156 C 93.324219 73.167969 96.871094 65.363281 102.488281 58.890625 C 111.898438 48.039062 121.03125 36.828125 133.507812 29.097656 C 144.484375 22.300781 156.230469 17.203125 168.722656 14.246094 C 187.648438 9.769531 206.40625 9.957031 224.484375 18.40625 C 230.125 21.046875 235.878906 23.445312 241.613281 25.878906 C 252.671875 30.566406 261.867188 37.800781 270.269531 46.265625 C 279.34375 55.402344 287.574219 65.136719 293.21875 76.800781 C 298.679688 88.078125 302.253906 99.941406 304.335938 112.316406 C 307.28125 129.800781 305.054688 146.941406 301.347656 163.980469 Z M 289.597656 58.394531 C 278.714844 42.605469 265.019531 29.363281 247.375 20.957031 C 239.390625 17.152344 231.273438 13.601562 223.105469 10.203125 C 215.1875 6.902344 207.007812 4.714844 198.257812 5.195312 C 195.714844 5.335938 192.214844 5.519531 190.730469 4.070312 C 186.550781 -0.0117188 182.160156 1.605469 177.84375 2.527344 C 169.195312 4.367188 160.695312 6.914062 152.015625 8.5625 C 144.550781 9.980469 137.5625 12.683594 130.441406 15.085938 C 121.5 18.109375 113.960938 23.507812 107.84375 30.367188 C 96.75 42.804688 86.308594 55.613281 78.433594 70.691406 C 67.445312 91.726562 63.570312 113.941406 63.609375 137.085938 C 63.632812 150.484375 65.339844 163.867188 65.714844 177.273438 C 65.917969 184.511719 66.867188 191.601562 67.863281 198.722656 C 68.3125 201.964844 68.910156 205.1875 69.421875 208.421875 C 73.363281 233.3125 81.464844 256.6875 94.6875 278.21875 C 98.121094 283.804688 101.652344 289.34375 104.820312 295.078125 C 112.921875 309.746094 122.261719 323.578125 132.492188 336.824219 C 136.898438 342.523438 141.664062 347.96875 145.703125 353.917969 C 152.070312 363.300781 160.390625 369.570312 171.417969 372.371094 C 181.785156 374.996094 191.425781 374.960938 199.304688 366.277344 C 201.726562 363.613281 204.734375 361.4375 206.929688 358.613281 C 216.574219 346.214844 226.851562 334.289062 235.066406 320.816406 C 239.496094 313.554688 244.082031 306.386719 248.625 299.191406 C 251.941406 293.941406 256.054688 289.03125 258.429688 283.386719 C 261.007812 277.265625 264.4375 271.8125 267.816406 266.203125 C 272.203125 258.917969 276.445312 251.496094 280.042969 243.800781 C 284.195312 234.910156 287.582031 225.660156 291.296875 216.5625 C 294.515625 208.675781 298.082031 200.925781 299.824219 192.5 C 300.820312 187.695312 302.109375 182.953125 303.351562 178.203125 C 307.335938 162.957031 310.722656 147.625 310.640625 131.6875 C 311.425781 105.050781 304.703125 80.320312 289.597656 58.394531 " fill-opacity="1" fill-rule="nonzero"/></g><path fill="#303848" d="M 228.636719 153.644531 C 227.195312 157.640625 225.878906 161.71875 224.003906 165.511719 C 217.527344 178.617188 208.058594 188.558594 193.664062 192.949219 C 191.8125 193.511719 189.832031 194.1875 187.957031 194.070312 C 185.925781 193.941406 183.902344 193.777344 181.894531 193.554688 C 178.191406 193.847656 174.457031 193.691406 170.816406 193.09375 C 164.960938 192.128906 159.164062 190.015625 153.875 187.324219 C 151.386719 186.058594 148.515625 184.222656 146.589844 181.851562 C 146.277344 181.832031 145.960938 181.804688 145.628906 181.769531 C 142.839844 173.871094 138.675781 167.144531 137.605469 159.167969 C 136.109375 148.027344 135.929688 137.050781 139.164062 126.15625 C 140.46875 121.773438 141.644531 117.339844 142.558594 112.863281 C 145.171875 100.121094 151.609375 89.886719 162.105469 82.199219 C 163.410156 81.242188 164.65625 80.210938 165.96875 79.1875 C 166.179688 79.257812 166.386719 79.347656 166.59375 79.453125 C 172.378906 74.605469 180.882812 73.953125 188.289062 75.585938 C 189.445312 75.84375 190.628906 76.171875 191.816406 76.566406 C 203.160156 78.390625 212.332031 83.585938 217.585938 94.984375 C 221.277344 102.996094 225.332031 110.871094 228.527344 119.082031 C 232.953125 130.464844 232.796875 142.121094 228.636719 153.644531 Z M 257.378906 121.492188 C 252.671875 108.121094 247.257812 95.191406 238.605469 83.824219 C 231.394531 74.355469 222.148438 67.90625 210.5 65.1875 C 206.679688 64.292969 202.769531 63.71875 198.867188 63.277344 C 191.972656 62.5 185.605469 63.234375 178.894531 66.257812 C 169.207031 70.625 160.570312 75.617188 152.96875 83.292969 C 145.53125 90.804688 140.402344 99.148438 137.566406 109.085938 C 133.136719 124.625 131.21875 140.382812 132.417969 156.625 C 133.574219 172.328125 139.242188 185.699219 149.957031 197.15625 C 162.089844 210.132812 177.214844 215.867188 194.667969 216.546875 C 206.808594 217.019531 217.894531 213.550781 228.796875 208.628906 C 239.164062 203.949219 246.785156 196.300781 251.578125 186.445312 C 257.632812 174.015625 261.585938 160.773438 261.074219 146.617188 C 261.136719 138.074219 260.277344 129.714844 257.378906 121.492188 " fill-opacity="1" fill-rule="nonzero"/></svg>