<svg xmlns="http://www.w3.org/2000/svg" xmlns:xlink="http://www.w3.org/1999/xlink" width="500" zoomAndPan="magnify" viewBox="0 0 375 374.999991" height="500" preserveAspectRatio="xMidYMid meet" version="1.0"><path fill="#5caa6b" d="M 108.027344 138.828125 C 131.011719 112.273438 153.3125 77.859375 170.730469 51.277344 L 269.882812 87.332031 L 266 96.390625 L 275.242188 99.480469 L 284.285156 110.882812 L 289.121094 121.265625 L 243.132812 176.785156 L 232.59375 180.191406 L 227.050781 178.582031 L 216.855469 187.6875 L 224.558594 195.183594 L 214.71875 207.523438 L 200.957031 189.484375 Z M 108.027344 138.828125 " fill-opacity="1" fill-rule="nonzero"/><path fill="#5caa6b" d="M 4.761719 230.417969 C 36.035156 205.453125 64.832031 179.941406 91.8125 154.976562 L 181.859375 210.925781 L 198.457031 227.417969 L 117.359375 321.332031 L 104.347656 317.125 L 95.421875 309.246094 L 83.726562 300.796875 C 53.789062 277.554688 29.3125 254.335938 4.761719 230.417969 Z M 4.761719 230.417969 " fill-opacity="1" fill-rule="nonzero"/><path fill="#b7dc98" d="M 122.515625 144.164062 L 130.191406 148.621094 C 130.191406 148.621094 143.226562 135.804688 167.277344 141.890625 C 177.109375 144.390625 188.695312 154.703125 192.394531 164.542969 C 193.964844 168.699219 196.824219 166.402344 200.324219 162.019531 L 240.796875 111.703125 C 233.796875 104.300781 232.410156 96.6875 234.480469 88.964844 L 192.917969 73.925781 C 186.46875 79.8125 180.679688 87.261719 169.050781 81.492188 Z M 122.515625 144.164062 " fill-opacity="1" fill-rule="nonzero"/><path fill="#b7dc98" d="M 102.957031 163.496094 L 40.691406 218.46875 C 44.640625 228.441406 42.777344 236.367188 38.667969 243.503906 L 69.738281 272.558594 C 81.867188 259.316406 91.765625 260.652344 100.574219 269.265625 L 160.441406 212.902344 C 114.179688 214.605469 105.503906 195.050781 110.160156 167.925781 Z M 102.957031 163.496094 " fill-opacity="1" fill-rule="nonzero"/><path fill="#333333" d="M 163.847656 253 C 149.703125 268.765625 126.375 294.003906 112.5 310.425781 C 110.976562 312.21875 108.636719 310.152344 110.09375 308.402344 C 119.945312 296.410156 131.917969 284.140625 142.820312 271.605469 C 146.859375 267.96875 163.035156 245.324219 163.847656 253 Z M 163.847656 253 " fill-opacity="1" fill-rule="nonzero"/><path fill="#e3e2db" d="M 105.753906 138.234375 L 89.3125 153.910156 L 181.15625 207.109375 L 198.660156 228.605469 L 216.421875 209.496094 L 199.617188 189.164062 Z M 105.753906 138.234375 " fill-opacity="1" fill-rule="nonzero"/><path fill="#e3e2db" d="M 94.21875 148.753906 C 85.023438 149.824219 76.027344 149.707031 68.941406 139.984375 C 52.835938 138.144531 49.09375 132.058594 49.546875 124.539062 C 38.550781 119.769531 34.691406 112.703125 38.488281 103.183594 C 32.695312 95.78125 28.648438 87.582031 38.035156 79.148438 C 37.308594 72.722656 38.261719 66.542969 42.050781 60.820312 C 45.09375 56.230469 51.203125 56.753906 53.3125 61.164062 C 53.3125 61.164062 56.0625 69.996094 59.109375 73.246094 C 76.253906 91.484375 90.359375 87.582031 103.417969 98.4375 C 111.09375 104.820312 122.71875 121.3125 122.71875 121.3125 Z M 94.21875 148.753906 " fill-opacity="1" fill-rule="nonzero"/><path fill="#333333" d="M 118.96875 112.679688 C 108.867188 90.851562 81.386719 89.238281 64.398438 75.085938 C 58.335938 70.628906 57.921875 63.773438 54.703125 57.707031 C 51.796875 52.230469 47.5 52.644531 43.640625 55.839844 C 37.621094 60.796875 32.582031 72.472656 35.308594 79.125 C 26.40625 83.171875 28.832031 97.324219 35.308594 102.980469 C 26.8125 110.65625 37.714844 123.199219 46.207031 125.21875 C 42.160156 136.144531 58.335938 142.210938 66.832031 141.390625 C 67.238281 148.277344 76.117188 150.707031 81.796875 150.707031 C 83.820312 150.707031 86.679688 150.253906 86.632812 147.871094 C 80.660156 147.074219 75.433594 146.121094 72.480469 141.390625 C 74.503906 140.984375 77.34375 141.390625 77.753906 138.167969 C 69.667969 136.941406 57.539062 136.554688 52.679688 129.671875 C 52.273438 129.261719 52.273438 128.058594 52.679688 127.648438 C 55.109375 128.46875 57.539062 128.851562 59.945312 128.851562 C 61.582031 128.851562 63.605469 128.851562 64.398438 126.835938 C 57.539062 124.421875 34.488281 117.136719 40.550781 107.433594 C 45.796875 110.273438 58.335938 119.152344 63.988281 114.316406 C 53.882812 109.046875 31.261719 100.164062 38.121094 85.605469 C 40.550781 90.054688 44.183594 94.101562 48.226562 96.914062 C 49.84375 97.734375 51.070312 99.753906 53.085938 100.164062 C 55.109375 100.550781 55.90625 97.734375 55.109375 96.117188 C 51.859375 92.078125 46.617188 89.238281 44.183594 84.378906 C 39.347656 77.515625 38.847656 62.796875 47.820312 58.503906 C 48.183594 58.320312 50.117188 57.777344 50.65625 59.726562 C 59.855469 92.28125 96.738281 88.417969 113.320312 111.882812 C 114.929688 113.5 115.335938 117.542969 118.5625 116.339844 C 119.382812 115.929688 119.789062 114.703125 118.96875 112.679688 Z M 118.96875 112.679688 " fill-opacity="1" fill-rule="nonzero"/><path fill="#e3e2db" d="M 225.347656 178.605469 L 216.695312 188.507812 L 225.988281 196.550781 C 238 206.679688 236.726562 217.90625 255.097656 213.449219 C 269 227.511719 276.632812 227.285156 285.308594 225.671875 C 302.835938 235.875 309.539062 231.601562 315.125 225.855469 C 326.886719 225.902344 336.085938 222.765625 339.789062 212.816406 C 354.503906 208.953125 356.683594 197.003906 358.910156 188.507812 C 375.148438 176.21875 373.0625 147.347656 355.324219 158.320312 C 344.808594 164.816406 337.65625 169.859375 323.347656 164.199219 C 276.71875 145.824219 268.613281 154.820312 257.644531 162.519531 C 246.742188 170.15625 245.382812 187.6875 225.347656 178.605469 Z M 225.347656 178.605469 " fill-opacity="1" fill-rule="nonzero"/><path fill="#333333" d="M 130.308594 136.144531 C 144.84375 122.789062 158.191406 101.371094 169.09375 84.378906 C 176.796875 88.035156 186.492188 86.011719 190.941406 78.3125 C 191.738281 77.515625 191.738281 75.902344 192.964844 76.289062 C 201.84375 79.539062 222.871094 87.214844 232.160156 90.441406 C 232.570312 90.851562 232.570312 91.257812 232.570312 91.257812 C 229.347656 97.324219 231.363281 107.023438 238.226562 109.867188 C 230.550781 126.039062 215.195312 140.1875 204.273438 154.75 C 203.457031 155.140625 195.777344 166.066406 194.988281 165.246094 C 188.921875 149.480469 175.15625 138.167969 157.375 136.941406 C 150.90625 135.324219 129.894531 142.210938 133.941406 145.4375 C 136.371094 145.847656 151.71875 141.390625 158.191406 142.210938 C 171.523438 143.414062 185.265625 152.730469 189.714844 165.652344 C 190.535156 170.515625 198.207031 171.3125 200.230469 167.269531 L 214.382812 149.886719 C 224.082031 137.757812 235 125.625 243.085938 111.882812 C 244.289062 109.046875 242.679688 105.820312 239.835938 105.003906 C 235.796875 102.574219 234.59375 97.324219 236.613281 92.875 C 238.632812 87.214844 233.386719 85.191406 229.347656 84.378906 C 218.832031 80.742188 207.90625 76.695312 197.394531 73.0625 C 193.347656 71.042969 189.308594 70.628906 187.285156 75.902344 C 183.242188 82.761719 175.570312 82.351562 169.503906 79.539062 C 167.480469 79.125 165.457031 80.328125 164.667969 81.96875 C 163.035156 86.011719 110.476562 153.933594 130.308594 136.144531 Z M 130.308594 136.144531 " fill-opacity="1" fill-rule="nonzero"/><path fill="#333333" d="M 362.75 180.628906 C 355.863281 191.53125 341.3125 195.183594 329.183594 192.347656 C 321.097656 201.25 349.394531 198.816406 353.050781 195.574219 C 350.214844 210.949219 331.613281 210.542969 319.488281 205.296875 C 315.851562 204.476562 310.992188 200.433594 307.359375 202.867188 C 315.441406 208.109375 324.730469 213.378906 334.859375 214.175781 C 331.203125 224.285156 318.285156 224.285156 310.195312 219.445312 C 306.15625 218.21875 302.109375 212.566406 297.25 214.996094 C 300.882812 219.039062 305.335938 222.265625 310.582031 225.105469 C 301.296875 233.191406 288.761719 224.695312 281.492188 217.425781 C 280.265625 216.199219 278.648438 214.582031 276.21875 215.402344 C 277.859375 218.21875 279.46875 220.648438 281.898438 223.082031 C 270.976562 224.285156 260.457031 216.609375 254.808594 207.703125 C 253.988281 206.5 252.785156 204.476562 250.355469 204.476562 C 250.761719 206.90625 251.582031 209.339844 252.785156 211.746094 C 239.453125 214.175781 239.046875 204.882812 231.753906 196.800781 C 229.730469 195.183594 220.035156 186.6875 219.625 192.753906 C 219.625 193.957031 220.445312 195.574219 221.648438 195.980469 C 219.625 198.410156 216.8125 201.25 214.789062 203.65625 C 213.179688 201.640625 211.953125 199.613281 210.335938 197.589844 C 215.585938 192.753906 220.445312 186.6875 224.894531 181.417969 C 232.160156 185.875 243.085938 183.847656 248.742188 177.785156 C 253.988281 170.515625 260.050781 163.222656 268.136719 159.585938 C 289.980469 149.480469 311.398438 166.878906 333.632812 168.496094 C 340.515625 168.902344 348.191406 167.269531 353.847656 163.222656 C 356.277344 161.613281 359.910156 158.382812 362.339844 158.382812 C 371.242188 161.203125 365.976562 175.351562 362.75 180.628906 Z M 210.75 213.378906 C 209.132812 215.402344 203.863281 221.46875 202.253906 223.492188 C 201.84375 223.875 199.824219 224.695312 198.621094 224.695312 C 198.621094 224.695312 188.511719 212.152344 188.511719 211.746094 C 187.285156 210.542969 185.265625 207.316406 183.648438 206.5 C 182.859375 206.085938 180.835938 204.882812 180.429688 204.476562 C 157.375 190.734375 125.035156 171.71875 101.597656 157.976562 L 97.144531 155.546875 C 95.941406 154.75 93.105469 153.523438 94.71875 151.910156 C 96.738281 149.480469 102.394531 144.234375 104.410156 141.804688 C 105.636719 139.78125 107.660156 141.390625 109.273438 142.210938 C 136.753906 157.15625 169.09375 174.5625 196.597656 189.507812 C 192.558594 193.550781 188.921875 196.800781 186.082031 201.25 C 184.0625 204.070312 188.511719 207.316406 190.535156 204.070312 C 190.941406 203.273438 191.738281 202.046875 192.558594 201.640625 C 195.777344 199.613281 197.394531 195.980469 200.230469 193.550781 C 201.050781 195.980469 204.273438 198.816406 205.886719 201.640625 C 207.90625 205.679688 210.335938 207.316406 213.179688 210.949219 Z M 151.71875 277.261719 C 142.023438 288.1875 125.035156 308.792969 115.75 319.714844 C 115.335938 319.308594 114.523438 318.898438 113.726562 318.511719 C 113.320312 318.101562 111.703125 316.875 111.296875 316.078125 C 109.683594 314.46875 106.84375 314.859375 104.824219 315.265625 C 103.621094 314.46875 103.621094 313.242188 102.394531 311.632812 C 100.777344 310.019531 98.761719 308.792969 96.738281 307.996094 C 122.605469 279.28125 156.96875 241.6875 182.859375 213.378906 L 188.921875 220.648438 C 185.265625 223.492188 180.835938 229.941406 176.796875 233.984375 C 172.34375 238.4375 170.320312 240.460938 167.074219 245.324219 C 166.277344 246.113281 166.277344 246.933594 167.074219 247.75 C 167.886719 248.546875 168.707031 248.136719 169.503906 247.34375 C 175.570312 240.460938 184.875 229.941406 190.941406 223.082031 C 192.144531 224.695312 193.347656 225.902344 194.574219 227.535156 Z M 92.695312 305.566406 C 91.085938 304.363281 89.46875 303.542969 87.859375 302.339844 C 101.191406 291.410156 113.320312 280.101562 125.855469 269.171875 C 118.96875 276.441406 98.761719 299.5 92.695312 305.566406 Z M 85.023438 297.476562 C 83.40625 298.679688 84.203125 298.679688 83.40625 298.296875 C 83 297.890625 80.570312 295.867188 80.160156 295.457031 C 58.335938 275.644531 32.464844 252.59375 10.230469 232.78125 C 10.230469 232.371094 7.394531 230.761719 7.800781 230.347656 C 8.214844 229.941406 10.644531 228.332031 11.050781 227.917969 C 39.347656 206.5 66.011719 183.054688 91.492188 158.796875 C 98.355469 163.222656 104.027344 166.066406 109.273438 169.699219 C 94.71875 198.003906 127.875 219.835938 154.558594 213.378906 C 154.945312 213.378906 156.582031 212.972656 156.96875 212.972656 C 157.375 212.566406 158.191406 212.972656 157.375 213.378906 C 143.636719 227.917969 128.667969 242.074219 113.726562 255.429688 C 110.476562 257.863281 104.027344 264.3125 100.777344 266.742188 C 92.289062 256.226562 76.933594 258.246094 70.464844 269.578125 C 70.464844 269.992188 70.050781 269.992188 70.050781 269.578125 C 62.378906 262.699219 48.636719 250.164062 40.957031 243.300781 C 40.144531 242.894531 40.550781 242.894531 40.550781 242.480469 C 45.003906 236.007812 49.84375 226.714844 43.777344 219.445312 C 59.5625 206.5 83 188.304688 95.125 173.742188 C 102.800781 164.449219 98.355469 164.449219 83.820312 177.785156 C 72.894531 187.898438 62.378906 198.003906 50.65625 207.316406 L 39.730469 216.199219 C 37.714844 217.8125 37.324219 221.0625 39.347656 222.671875 C 45.410156 227.917969 38.121094 235.625 35.308594 241.277344 C 34.488281 243.707031 36.097656 245.730469 38.121094 247.34375 C 47.820312 255.839844 57.539062 264.71875 67.238281 273.628906 C 72.074219 277.667969 74.503906 270.785156 77.34375 268.351562 C 82.179688 264.3125 89.46875 263.105469 94.71875 267.5625 C 97.144531 269.992188 100.371094 274.035156 103.621094 270.375 C 119.789062 255.839844 137.160156 240.050781 152.539062 225.105469 L 161.824219 215.789062 C 165.050781 212.972656 162.644531 207.703125 158.605469 208.109375 C 133.941406 214.996094 103.207031 199.613281 110.886719 171.3125 C 139.183594 188.304688 154.558594 197.207031 178 210.949219 C 148.882812 240.460938 117.359375 269.578125 85.023438 297.476562 Z M 112.5 136.941406 C 135.144531 111.882812 154.945312 83.988281 171.933594 54.871094 C 194.167969 62.140625 234.183594 77.515625 256.417969 85.191406 L 267.34375 89.238281 C 268.546875 89.238281 264.910156 94.890625 264.910156 95.304688 C 251.582031 125.21875 231.363281 150.300781 209.523438 174.96875 C 208.320312 176.992188 203.863281 178.605469 206.703125 181.035156 C 209.523438 183.441406 212.359375 179.808594 213.96875 177.785156 C 233.773438 154.34375 257.644531 128.058594 276.21875 105.410156 C 277.859375 107.433594 278.648438 110.273438 281.082031 111.070312 C 276.632812 115.113281 270.15625 124.015625 264.910156 129.671875 C 259.253906 135.738281 256.824219 138.960938 252.375 145.027344 C 251.582031 145.847656 251.582031 146.664062 252.375 147.457031 C 253.191406 148.277344 253.988281 147.871094 254.808594 147.050781 C 262.886719 137.351562 275.429688 123.199219 283.101562 113.5 C 283.511719 115.519531 285.941406 117.542969 286.738281 119.566406 C 286.738281 119.972656 285.125 121.992188 284.714844 121.992188 C 269.773438 139.375 251.582031 161.203125 236.613281 178.195312 C 233.773438 178.605469 231.363281 178.195312 228.527344 177.785156 C 231.363281 173.335938 252.785156 153.523438 247.921875 151.089844 C 244.695312 152.730469 240.25 157.976562 237.429688 161.613281 C 228.527344 173.335938 217.21875 184.261719 209.132812 195.980469 C 207.90625 194.371094 206.296875 191.9375 204.683594 190.734375 C 203.457031 189.507812 203.070312 186.6875 201.050781 185.875 C 169.480469 166.628906 137.347656 150.753906 112.5 136.941406 Z M 268.546875 99.347656 C 269.773438 99.753906 271.796875 100.550781 273 100.957031 C 273.40625 100.957031 273.40625 100.957031 273.40625 101.371094 C 268.953125 106.617188 263.300781 113.5 258.847656 118.746094 C 262.074219 112.679688 265.320312 106.230469 268.546875 99.347656 Z M 372.445312 162.429688 C 371.625 155.140625 363.15625 150.707031 356.683594 155.140625 C 350.621094 159.179688 344.558594 164.449219 335.65625 163.636719 C 306.15625 160.816406 286.738281 141.390625 260.871094 157.570312 C 268.546875 147.871094 281.492188 133.714844 288.761719 125.21875 C 293.207031 121.175781 291.183594 115.929688 287.550781 112.296875 C 287.550781 111.070312 287.144531 109.453125 286.738281 107.84375 C 285.535156 107.023438 283.917969 106.617188 282.285156 105.820312 C 280.671875 104.207031 279.0625 100.164062 276.632812 99.347656 C 275.835938 96.117188 272.179688 95.710938 269.773438 95.304688 C 275.835938 84.785156 268.546875 83.582031 259.253906 80.328125 C 231.753906 70.628906 202.660156 60.117188 180.429688 51.640625 C 171.933594 48.390625 168.707031 45.960938 163.847656 55.683594 C 146.859375 85.191406 128.285156 108.640625 107.253906 134.917969 C 101.597656 133.714844 98.761719 139.78125 95.535156 142.617188 C 92.695312 145.847656 87.859375 149.074219 89.0625 153.933594 C 62.378906 177.378906 36.097656 201.640625 6.597656 223.875 C 1.738281 226.714844 0.128906 231.964844 4.988281 235.625 C 20.34375 249.367188 63.195312 287.777344 78.136719 301.109375 C 79.773438 302.726562 81.386719 303.953125 83.820312 303.953125 C 84.609375 305.972656 87.039062 306.769531 88.242188 307.996094 C 89.46875 308.792969 90.671875 310.019531 91.898438 310.019531 C 93.511719 312.039062 95.941406 313.65625 98.355469 314.859375 C 99.988281 317.289062 101.191406 320.128906 104.410156 319.714844 C 105.230469 319.714844 106.84375 318.898438 107.660156 319.714844 C 108.867188 322.144531 111.296875 323.761719 113.726562 323.761719 C 117.359375 329.414062 139.59375 297.890625 146.070312 291.410156 C 163.441406 269.992188 183.242188 250.164062 198.621094 229.558594 C 207.113281 229.558594 210.75 219.835938 216.398438 214.175781 C 218.015625 212.972656 218.015625 210.542969 218.421875 208.929688 C 218.421875 207.316406 218.832031 207.703125 218.832031 206.90625 C 221.261719 204.070312 222.871094 202.046875 224.894531 198.816406 C 230.136719 202.453125 233.386719 214.175781 240.25 216.199219 C 243.882812 217.425781 251.171875 218.21875 253.988281 215.402344 C 260.457031 226.714844 275.015625 231.964844 287.550781 229.558594 C 296.433594 236.414062 309.789062 236.007812 317.871094 227.917969 C 328.773438 230.761719 338.90625 223.492188 342.539062 213.378906 C 351.417969 211.746094 358.296875 203.65625 359.5 195.183594 C 359.910156 193.164062 361.523438 191.9375 361.136719 189.914062 C 368.8125 183.847656 374.46875 173.335938 372.445312 162.429688 Z M 372.445312 162.429688 " fill-opacity="1" fill-rule="nonzero"/><path fill="#333333" d="M 196.597656 100.164062 C 199.824219 96.117188 208.320312 110.65625 211.539062 112.679688 C 213.179688 114.316406 226.503906 128.058594 218.015625 124.8125 C 211.15625 118.355469 204.273438 110.273438 198.207031 103.386719 C 197.003906 102.183594 196.191406 101.371094 196.597656 100.164062 Z M 196.597656 100.164062 " fill-opacity="1" fill-rule="nonzero"/><path fill="#333333" d="M 174.773438 98.527344 C 178 94.484375 191.332031 115.113281 195.371094 117.949219 C 199.824219 123.199219 206.703125 129.261719 209.132812 134.917969 C 207.5 138.578125 198.621094 126.835938 196.597656 124.8125 C 190.125 115.929688 179.203125 107.84375 174.773438 98.527344 Z M 174.773438 98.527344 " fill-opacity="1" fill-rule="nonzero"/><path fill="#333333" d="M 166.277344 107.023438 C 169.503906 102.980469 177.585938 117.136719 180.835938 119.152344 C 182.445312 120.769531 195.371094 133.714844 186.898438 130.878906 C 180.429688 124.8125 173.546875 117.136719 167.480469 110.273438 C 166.683594 108.640625 165.871094 108.25 166.277344 107.023438 Z M 166.277344 107.023438 " fill-opacity="1" fill-rule="nonzero"/><path fill="#333333" d="M 156.582031 114.703125 C 160.214844 111.476562 162.644531 119.566406 165.050781 121.175781 C 166.683594 122.789062 172.75 129.671875 167.074219 128.851562 C 163.441406 126.445312 161.824219 121.992188 158.605469 119.152344 C 157.375 117.542969 156.171875 115.929688 156.582031 114.703125 Z M 156.582031 114.703125 " fill-opacity="1" fill-rule="nonzero"/><path fill="#333333" d="M 78.546875 204.882812 C 80.976562 200.023438 98.761719 219.039062 103.207031 221.0625 C 108.457031 225.511719 116.953125 230.761719 120.585938 236.007812 C 119.382812 239.664062 108.457031 229.558594 105.636719 227.535156 C 97.964844 220.242188 85.023438 213.769531 78.546875 204.882812 Z M 78.546875 204.882812 " fill-opacity="1" fill-rule="nonzero"/><path fill="#333333" d="M 68.441406 214.996094 C 70.871094 210.136719 88.242188 229.144531 92.289062 231.167969 C 97.558594 235.625 105.636719 240.871094 108.867188 246.113281 C 107.660156 249.773438 96.738281 239.664062 94.308594 237.640625 C 87.039062 230.347656 74.503906 223.875 68.441406 214.996094 Z M 68.441406 214.996094 " fill-opacity="1" fill-rule="nonzero"/><path fill="#333333" d="M 60.765625 226.714844 C 63.605469 222.265625 73.707031 235.210938 77.34375 237.234375 C 79.367188 238.4375 94.308594 250.164062 85.429688 248.136719 C 77.753906 242.894531 70.050781 236.007812 62.378906 229.941406 C 61.582031 228.332031 60.765625 227.917969 60.765625 226.714844 Z M 60.765625 226.714844 " fill-opacity="1" fill-rule="nonzero"/><path fill="#333333" d="M 57.132812 242.074219 C 59.945312 238.03125 64.398438 245.730469 67.238281 246.933594 C 69.261719 248.136719 76.933594 253.8125 70.871094 254.203125 C 66.832031 252.179688 63.988281 248.136719 59.945312 246.113281 C 58.742188 244.910156 57.132812 243.300781 57.132812 242.074219 Z M 57.132812 242.074219 " fill-opacity="1" fill-rule="nonzero"/><path fill="#333333" d="M 97.144531 203.273438 C 99.574219 198.816406 112.117188 213.378906 115.75 214.996094 C 119.789062 218.21875 125.855469 222.265625 128.285156 226.714844 C 125.855469 231.167969 108.070312 212.152344 103.621094 210.136719 C 101.191406 208.519531 97.964844 205.679688 97.144531 203.273438 Z M 97.144531 203.273438 " fill-opacity="1" fill-rule="nonzero"/></svg>