<svg xmlns="http://www.w3.org/2000/svg" xmlns:xlink="http://www.w3.org/1999/xlink" width="500" zoomAndPan="magnify" viewBox="0 0 375 374.999991" height="500" preserveAspectRatio="xMidYMid meet" version="1.0"><defs><g/><clipPath id="6a922bbd3d"><path d="M 67 12.765625 L 307.699219 12.765625 L 307.699219 302.265625 L 67 302.265625 Z M 67 12.765625 " clip-rule="nonzero"/></clipPath></defs><g clip-path="url(#6a922bbd3d)"><path fill="#4c9d2b" d="M 89.769531 12.765625 L 200.832031 12.765625 C 204.652344 12.765625 207.984375 14.136719 210.730469 16.882812 L 269.644531 75.746094 C 272.339844 78.488281 273.710938 81.820312 273.710938 85.695312 L 273.710938 175.140625 C 267.832031 172.9375 261.554688 171.515625 255.039062 170.925781 L 255.039062 88.535156 L 217.640625 88.535156 C 206.808594 88.535156 197.9375 79.714844 197.9375 68.832031 L 197.9375 31.4375 L 89.769531 31.4375 C 87.757812 31.4375 86.09375 33.105469 86.09375 35.113281 L 86.09375 263.753906 C 86.09375 265.863281 87.710938 267.480469 89.769531 267.480469 L 181.128906 267.480469 C 183.628906 274.242188 187.15625 280.515625 191.46875 286.152344 L 89.769531 286.152344 C 77.515625 286.152344 67.417969 276.058594 67.417969 263.753906 L 67.417969 35.113281 C 67.417969 22.8125 77.46875 12.765625 89.769531 12.765625 Z M 263.761719 201.851562 L 263.761719 240.035156 C 263.761719 241.554688 265.035156 242.777344 266.554688 242.777344 L 276.996094 242.777344 C 278.074219 242.777344 279.003906 243.367188 279.445312 244.296875 C 279.9375 245.277344 279.839844 246.355469 279.199219 247.1875 L 250.773438 284.832031 C 250.234375 285.515625 249.449219 285.910156 248.566406 285.910156 C 247.636719 285.910156 246.902344 285.515625 246.363281 284.832031 L 217.886719 247.1875 C 217.25 246.355469 217.152344 245.277344 217.640625 244.296875 C 218.132812 243.367188 219.015625 242.777344 220.09375 242.777344 L 230.53125 242.777344 C 232.101562 242.777344 233.324219 241.554688 233.324219 240.035156 L 233.324219 201.851562 C 233.324219 200.332031 234.550781 199.058594 236.070312 199.058594 L 261.015625 199.058594 C 262.535156 199.058594 263.761719 200.332031 263.761719 201.851562 Z M 248.566406 182.589844 C 215.484375 182.589844 188.625 209.402344 188.625 242.484375 C 188.625 275.566406 215.484375 302.375 248.566406 302.375 C 281.652344 302.375 308.460938 275.566406 308.460938 242.484375 C 308.460938 209.402344 281.652344 182.589844 248.566406 182.589844 Z M 248.566406 182.589844 " fill-opacity="1" fill-rule="nonzero"/></g><g fill="#4c9d2b" fill-opacity="1"><g transform="translate(43.064356, 365.413567)"><g><path d="M 47.109375 -37.265625 C 47.109375 -34.765625 46.734375 -32.546875 45.984375 -30.609375 C 45.234375 -28.671875 44.207031 -26.976562 42.90625 -25.53125 C 41.601562 -24.082031 40.070312 -22.851562 38.3125 -21.84375 C 36.5625 -20.84375 34.679688 -20.023438 32.671875 -19.390625 C 30.671875 -18.753906 28.597656 -18.285156 26.453125 -17.984375 C 24.316406 -17.691406 22.210938 -17.535156 20.140625 -17.515625 L 20.140625 0.546875 L 2.09375 0.546875 C 2.09375 -5.367188 2.101562 -11.257812 2.125 -17.125 C 2.15625 -22.988281 2.195312 -28.90625 2.25 -34.875 C 2.300781 -38.019531 2.3125 -41.164062 2.28125 -44.3125 C 2.257812 -47.46875 2.328125 -50.644531 2.484375 -53.84375 C 5.785156 -54.832031 9.085938 -55.570312 12.390625 -56.0625 C 15.703125 -56.550781 19.113281 -56.796875 22.625 -56.796875 C 24.613281 -56.796875 26.601562 -56.632812 28.59375 -56.3125 C 30.582031 -55.988281 32.484375 -55.476562 34.296875 -54.78125 C 36.117188 -54.082031 37.8125 -53.207031 39.375 -52.15625 C 40.9375 -51.113281 42.285156 -49.867188 43.421875 -48.421875 C 44.566406 -46.984375 45.46875 -45.335938 46.125 -43.484375 C 46.78125 -41.640625 47.109375 -39.566406 47.109375 -37.265625 Z M 29.90625 -35.953125 C 29.90625 -37.628906 29.394531 -38.9375 28.375 -39.875 C 27.351562 -40.820312 26.03125 -41.296875 24.40625 -41.296875 C 23.863281 -41.296875 23.300781 -41.25 22.71875 -41.15625 C 22.132812 -41.070312 21.585938 -40.960938 21.078125 -40.828125 L 20.609375 -29.515625 C 20.972656 -29.460938 21.320312 -29.4375 21.65625 -29.4375 C 21.988281 -29.4375 22.335938 -29.4375 22.703125 -29.4375 C 23.628906 -29.4375 24.523438 -29.59375 25.390625 -29.90625 C 26.253906 -30.21875 27.019531 -30.660156 27.6875 -31.234375 C 28.363281 -31.816406 28.898438 -32.503906 29.296875 -33.296875 C 29.703125 -34.085938 29.90625 -34.972656 29.90625 -35.953125 Z M 29.90625 -35.953125 "/></g></g></g><g fill="#4c9d2b" fill-opacity="1"><g transform="translate(90.324373, 365.413567)"><g><path d="M 47.375 -37.34375 C 47.375 -35.332031 47.195312 -33.503906 46.84375 -31.859375 C 46.5 -30.222656 45.953125 -28.71875 45.203125 -27.34375 C 44.460938 -25.976562 43.5 -24.710938 42.3125 -23.546875 C 41.125 -22.390625 39.6875 -21.28125 38 -20.21875 L 47.234375 -3.796875 L 29.796875 -0.390625 L 23.828125 -16.890625 L 19.015625 -16.734375 L 18.328125 -0.625 L 1.671875 -0.625 C 1.796875 -6.507812 1.914062 -12.367188 2.03125 -18.203125 C 2.144531 -24.046875 2.28125 -29.910156 2.4375 -35.796875 C 2.488281 -38.765625 2.539062 -41.707031 2.59375 -44.625 C 2.644531 -47.550781 2.75 -50.5 2.90625 -53.46875 C 4.71875 -54.132812 6.5 -54.6875 8.25 -55.125 C 10.007812 -55.5625 11.769531 -55.90625 13.53125 -56.15625 C 15.300781 -56.40625 17.097656 -56.570312 18.921875 -56.65625 C 20.742188 -56.75 22.613281 -56.796875 24.53125 -56.796875 C 27.46875 -56.796875 30.3125 -56.390625 33.0625 -55.578125 C 35.8125 -54.765625 38.242188 -53.539062 40.359375 -51.90625 C 42.484375 -50.28125 44.179688 -48.253906 45.453125 -45.828125 C 46.734375 -43.398438 47.375 -40.570312 47.375 -37.34375 Z M 30.03125 -36.109375 C 30.03125 -37.191406 29.878906 -38.1875 29.578125 -39.09375 C 29.285156 -40 28.847656 -40.78125 28.265625 -41.4375 C 27.679688 -42.09375 26.957031 -42.609375 26.09375 -42.984375 C 25.226562 -43.359375 24.210938 -43.546875 23.046875 -43.546875 C 22.535156 -43.546875 22.03125 -43.515625 21.53125 -43.453125 C 21.039062 -43.390625 20.566406 -43.289062 20.109375 -43.15625 L 19.484375 -28.75 L 20.421875 -28.75 C 21.523438 -28.75 22.648438 -28.890625 23.796875 -29.171875 C 24.953125 -29.453125 25.988281 -29.890625 26.90625 -30.484375 C 27.820312 -31.078125 28.570312 -31.835938 29.15625 -32.765625 C 29.738281 -33.703125 30.03125 -34.816406 30.03125 -36.109375 Z M 30.03125 -36.109375 "/></g></g></g><g fill="#4c9d2b" fill-opacity="1"><g transform="translate(138.397886, 365.413567)"><g><path d="M 22.890625 -54.546875 L 18.640625 -1.78125 L 2.28125 -0.9375 L 2.28125 -53.46875 Z M 22.890625 -54.546875 "/></g></g></g><g fill="#4c9d2b" fill-opacity="1"><g transform="translate(161.989161, 365.413567)"><g><path d="M 40.375 -54.46875 L 38.203125 -38.125 C 37.453125 -38.332031 36.703125 -38.472656 35.953125 -38.546875 C 35.203125 -38.628906 34.453125 -38.671875 33.703125 -38.671875 C 31.796875 -38.671875 29.972656 -38.414062 28.234375 -37.90625 C 26.503906 -37.40625 24.972656 -36.632812 23.640625 -35.59375 C 22.316406 -34.5625 21.257812 -33.269531 20.46875 -31.71875 C 19.6875 -30.175781 19.296875 -28.359375 19.296875 -26.265625 C 19.296875 -24.921875 19.507812 -23.757812 19.9375 -22.78125 C 20.363281 -21.800781 20.960938 -20.988281 21.734375 -20.34375 C 22.503906 -19.695312 23.421875 -19.21875 24.484375 -18.90625 C 25.546875 -18.59375 26.707031 -18.4375 27.96875 -18.4375 C 28.925781 -18.4375 29.921875 -18.539062 30.953125 -18.75 C 31.984375 -18.957031 33.003906 -19.226562 34.015625 -19.5625 C 35.023438 -19.894531 36.003906 -20.28125 36.953125 -20.71875 C 37.910156 -21.164062 38.789062 -21.617188 39.59375 -22.078125 L 38.046875 -3.875 C 37.035156 -3.351562 35.941406 -2.890625 34.765625 -2.484375 C 33.597656 -2.085938 32.390625 -1.738281 31.140625 -1.4375 C 29.898438 -1.144531 28.660156 -0.921875 27.421875 -0.765625 C 26.179688 -0.617188 24.992188 -0.546875 23.859375 -0.546875 C 20.578125 -0.546875 17.515625 -1.148438 14.671875 -2.359375 C 11.835938 -3.578125 9.375 -5.242188 7.28125 -7.359375 C 5.1875 -9.472656 3.539062 -11.96875 2.34375 -14.84375 C 1.144531 -17.726562 0.546875 -20.835938 0.546875 -24.171875 C 0.546875 -28.585938 1.175781 -32.75 2.4375 -36.65625 C 3.707031 -40.570312 5.566406 -44.003906 8.015625 -46.953125 C 10.472656 -49.898438 13.515625 -52.222656 17.140625 -53.921875 C 20.773438 -55.628906 24.953125 -56.484375 29.671875 -56.484375 C 31.453125 -56.484375 33.28125 -56.34375 35.15625 -56.0625 C 37.03125 -55.78125 38.769531 -55.25 40.375 -54.46875 Z M 40.375 -54.46875 "/></g></g></g><g fill="#4c9d2b" fill-opacity="1"><g transform="translate(202.818725, 365.413567)"><g><path d="M 22.890625 -54.546875 L 18.640625 -1.78125 L 2.28125 -0.9375 L 2.28125 -53.46875 Z M 22.890625 -54.546875 "/></g></g></g><g fill="#4c9d2b" fill-opacity="1"><g transform="translate(226.410009, 365.413567)"><g><path d="M 54.671875 -55.5625 L 51.875 -3.015625 L 31.578125 -1.15625 L 20.734375 -29.28125 L 19.015625 -0.625 L 1.59375 -0.625 L 2.984375 -55.5625 L 22.359375 -56.484375 L 35.765625 -28.59375 L 36.375 -54.9375 Z M 54.671875 -55.5625 "/></g></g></g><g fill="#4c9d2b" fill-opacity="1"><g transform="translate(282.231075, 365.413567)"><g><path d="M 48.734375 -7.90625 C 47.523438 -6.382812 46.023438 -5.050781 44.234375 -3.90625 C 42.453125 -2.769531 40.539062 -1.828125 38.5 -1.078125 C 36.46875 -0.335938 34.378906 0.21875 32.234375 0.59375 C 30.085938 0.96875 28.046875 1.15625 26.109375 1.15625 C 22.367188 1.15625 18.921875 0.488281 15.765625 -0.84375 C 12.617188 -2.1875 9.898438 -4.039062 7.609375 -6.40625 C 5.328125 -8.769531 3.539062 -11.550781 2.25 -14.75 C 0.957031 -17.957031 0.3125 -21.410156 0.3125 -25.109375 C 0.3125 -27.921875 0.632812 -30.675781 1.28125 -33.375 C 1.925781 -36.070312 2.847656 -38.613281 4.046875 -41 C 5.242188 -43.394531 6.707031 -45.59375 8.4375 -47.59375 C 10.175781 -49.59375 12.140625 -51.316406 14.328125 -52.765625 C 16.523438 -54.210938 18.925781 -55.335938 21.53125 -56.140625 C 24.144531 -56.941406 26.9375 -57.34375 29.90625 -57.34375 C 31.019531 -57.34375 32.207031 -57.296875 33.46875 -57.203125 C 34.738281 -57.109375 36 -56.953125 37.25 -56.734375 C 38.5 -56.515625 39.71875 -56.210938 40.90625 -55.828125 C 42.09375 -55.441406 43.179688 -54.960938 44.171875 -54.390625 L 43.078125 -39.59375 C 41.628906 -40.132812 40.132812 -40.5 38.59375 -40.6875 C 37.0625 -40.882812 35.5625 -40.984375 34.09375 -40.984375 C 32.03125 -40.984375 30.097656 -40.664062 28.296875 -40.03125 C 26.503906 -39.40625 24.941406 -38.5 23.609375 -37.3125 C 22.285156 -36.125 21.234375 -34.675781 20.453125 -32.96875 C 19.679688 -31.257812 19.296875 -29.335938 19.296875 -27.203125 C 19.296875 -25.859375 19.472656 -24.554688 19.828125 -23.296875 C 20.191406 -22.046875 20.742188 -20.9375 21.484375 -19.96875 C 22.222656 -19 23.140625 -18.21875 24.234375 -17.625 C 25.328125 -17.03125 26.597656 -16.734375 28.046875 -16.734375 C 29.023438 -16.734375 30.035156 -16.863281 31.078125 -17.125 C 32.128906 -17.382812 33.03125 -17.820312 33.78125 -18.4375 L 33.9375 -21.46875 L 24.640625 -21.625 L 25.109375 -33.234375 C 28.953125 -33.367188 32.796875 -33.476562 36.640625 -33.5625 C 40.492188 -33.65625 44.367188 -33.78125 48.265625 -33.9375 Z M 48.734375 -7.90625 "/></g></g></g></svg>