<svg xmlns="http://www.w3.org/2000/svg" xmlns:xlink="http://www.w3.org/1999/xlink" width="500" zoomAndPan="magnify" viewBox="0 0 375 374.999991" height="500" preserveAspectRatio="xMidYMid meet" version="1.0"><defs><g/><clipPath id="7cc31c90d5"><path d="M 0 0 L 375 0 L 375 227.25 L 0 227.25 Z M 0 0 " clip-rule="nonzero"/></clipPath></defs><g clip-path="url(#7cc31c90d5)"><path fill="#303848" d="M 140.625 0 L 0 225 L 44.054688 225 L 140.625 70.679688 L 225.585938 206.542969 L 256.492188 185.339844 L 237.855469 155.53125 L 267.1875 120.375 L 331.128906 225 L 375 225 L 271.875 56.25 L 216.941406 122.058594 Z M 0 262.5 L 0 300 L 375 300 L 375 262.5 Z M 0 337.5 L 0 375 L 375 375 L 375 337.5 Z M 0 337.5 " fill-opacity="1" fill-rule="nonzero"/></g><g fill="#303848" fill-opacity="1"><g transform="translate(-0.129291, 366.769938)"><g><path d="M 112.71875 -102.90625 L 106.21875 0.703125 L 74.03125 2.125 L 74.3125 -52.515625 L 59.78125 -8.46875 L 47.359375 -8.46875 L 36.203125 -47.859375 L 36.0625 -2.125 L 3.453125 -1.125 L 4.875 -98.671875 L 41.140625 -100.078125 L 55.546875 -53.359375 L 74.75 -102.90625 Z M 112.71875 -102.90625 "/></g></g></g><g fill="#303848" fill-opacity="1"><g transform="translate(114.131476, 366.769938)"><g><path d="M 70.4375 -101.78125 C 70.15625 -97.351562 69.894531 -92.972656 69.65625 -88.640625 C 69.425781 -84.316406 69.125 -79.941406 68.75 -75.515625 L 38.8125 -73.96875 L 38.109375 -65.078125 L 59.140625 -65.078125 L 57.59375 -43.1875 L 36.421875 -42.484375 L 35.71875 -32.1875 L 65.640625 -32.1875 C 65.359375 -27.007812 65.0625 -21.867188 64.75 -16.765625 C 64.445312 -11.660156 64.175781 -6.539062 63.9375 -1.40625 L 3.109375 0 L 5.359375 -101.78125 Z M 70.4375 -101.78125 "/></g></g></g><g fill="#303848" fill-opacity="1"><g transform="translate(183.365459, 366.769938)"><g><path d="M 99.59375 -101.21875 L 94.5 -5.5 L 57.515625 -2.125 L 37.765625 -53.359375 L 34.65625 -1.125 L 2.890625 -1.125 L 5.4375 -101.21875 L 40.71875 -102.90625 L 65.140625 -52.09375 L 66.28125 -100.078125 Z M 99.59375 -101.21875 "/></g></g></g><g fill="#303848" fill-opacity="1"><g transform="translate(285.063895, 366.769938)"><g><path d="M 88.015625 -78.484375 C 88.015625 -75.003906 87.847656 -71.171875 87.515625 -66.984375 C 87.191406 -62.796875 86.648438 -58.460938 85.890625 -53.984375 C 85.140625 -49.515625 84.164062 -44.988281 82.96875 -40.40625 C 81.769531 -35.820312 80.273438 -31.410156 78.484375 -27.171875 C 76.691406 -22.941406 74.609375 -18.976562 72.234375 -15.28125 C 69.859375 -11.582031 67.128906 -8.359375 64.046875 -5.609375 C 60.960938 -2.859375 57.515625 -0.695312 53.703125 0.875 C 49.898438 2.457031 45.664062 3.25 41 3.25 C 35.539062 3.25 30.800781 2.363281 26.78125 0.59375 C 22.757812 -1.164062 19.3125 -3.539062 16.4375 -6.53125 C 13.570312 -9.519531 11.222656 -13 9.390625 -16.96875 C 7.554688 -20.945312 6.117188 -25.160156 5.078125 -29.609375 C 4.046875 -34.054688 3.328125 -38.597656 2.921875 -43.234375 C 2.523438 -47.867188 2.328125 -52.328125 2.328125 -56.609375 C 2.328125 -63.191406 2.65625 -69.765625 3.3125 -76.328125 C 3.976562 -82.890625 4.921875 -89.441406 6.140625 -95.984375 L 39.171875 -94.71875 C 37.898438 -87.332031 36.804688 -79.910156 35.890625 -72.453125 C 34.972656 -64.992188 34.515625 -57.5 34.515625 -49.96875 C 34.515625 -49.164062 34.546875 -47.976562 34.609375 -46.40625 C 34.679688 -44.832031 34.8125 -43.066406 35 -41.109375 C 35.195312 -39.160156 35.46875 -37.160156 35.8125 -35.109375 C 36.164062 -33.066406 36.648438 -31.195312 37.265625 -29.5 C 37.878906 -27.8125 38.617188 -26.425781 39.484375 -25.34375 C 40.359375 -24.257812 41.382812 -23.71875 42.5625 -23.71875 C 43.925781 -23.71875 45.148438 -24.363281 46.234375 -25.65625 C 47.316406 -26.945312 48.269531 -28.675781 49.09375 -30.84375 C 49.914062 -33.007812 50.628906 -35.503906 51.234375 -38.328125 C 51.847656 -41.148438 52.363281 -44.085938 52.78125 -47.140625 C 53.207031 -50.203125 53.550781 -53.257812 53.8125 -56.3125 C 54.070312 -59.375 54.285156 -62.222656 54.453125 -64.859375 C 54.617188 -67.492188 54.722656 -69.820312 54.765625 -71.84375 C 54.816406 -73.875 54.84375 -75.378906 54.84375 -76.359375 C 54.84375 -80.035156 54.78125 -83.695312 54.65625 -87.34375 C 54.539062 -90.988281 54.367188 -94.625 54.140625 -98.25 L 87.171875 -98.25 C 87.734375 -91.75 88.015625 -85.160156 88.015625 -78.484375 Z M 88.015625 -78.484375 "/></g></g></g></svg>