<svg xmlns="http://www.w3.org/2000/svg" xmlns:xlink="http://www.w3.org/1999/xlink" width="500" zoomAndPan="magnify" viewBox="0 0 375 374.999991" height="500" preserveAspectRatio="xMidYMid meet" version="1.0"><defs><clipPath id="225147aaec"><path d="M 0 3 L 375 3 L 375 230.25 L 0 230.25 Z M 0 3 " clip-rule="nonzero"/></clipPath></defs><g clip-path="url(#225147aaec)"><path fill="#303848" d="M 140.625 3 L 0 228 L 44.054688 228 L 140.625 73.679688 L 225.585938 209.542969 L 256.492188 188.339844 L 237.855469 158.53125 L 267.1875 123.375 L 331.128906 228 L 375 228 L 271.875 59.25 L 216.941406 125.058594 Z M 0 265.5 L 0 303 L 375 303 L 375 265.5 Z M 0 340.5 L 0 378 L 375 378 L 375 340.5 Z M 0 340.5 " fill-opacity="1" fill-rule="nonzero"/></g><path fill="#303848" d="M 112.589844 266.863281 L 106.089844 370.472656 L 73.902344 371.894531 L 74.183594 317.253906 L 59.652344 361.300781 L 47.230469 361.300781 L 36.074219 321.910156 L 35.933594 367.644531 L 3.324219 368.644531 L 4.746094 271.097656 L 41.011719 269.691406 L 55.417969 316.410156 L 74.621094 266.863281 Z M 112.589844 266.863281 " fill-opacity="1" fill-rule="nonzero"/><path fill="#303848" d="M 184.570312 267.988281 C 184.289062 272.417969 184.027344 276.796875 183.789062 281.128906 C 183.558594 285.453125 183.257812 289.828125 182.882812 294.253906 L 152.945312 295.800781 L 152.242188 304.691406 L 173.273438 304.691406 L 171.726562 326.582031 L 150.554688 327.285156 L 149.851562 337.582031 L 179.773438 337.582031 C 179.492188 342.761719 179.195312 347.902344 178.882812 353.003906 C 178.578125 358.109375 178.308594 363.230469 178.070312 368.363281 L 117.242188 369.769531 L 119.492188 267.988281 Z M 184.570312 267.988281 " fill-opacity="1" fill-rule="nonzero"/><path fill="#303848" d="M 282.957031 268.550781 L 277.863281 364.269531 L 240.878906 367.644531 L 221.128906 316.410156 L 218.019531 368.644531 L 186.253906 368.644531 L 188.800781 268.550781 L 224.082031 266.863281 L 248.503906 317.675781 L 249.644531 269.691406 Z M 282.957031 268.550781 " fill-opacity="1" fill-rule="nonzero"/><path fill="#303848" d="M 373.078125 291.285156 C 373.078125 294.765625 372.910156 298.597656 372.578125 302.785156 C 372.253906 306.972656 371.710938 311.308594 370.953125 315.785156 C 370.203125 320.253906 369.226562 324.78125 368.03125 329.363281 C 366.832031 333.949219 365.335938 338.359375 363.546875 342.597656 C 361.753906 346.828125 359.671875 350.792969 357.296875 354.488281 C 354.921875 358.1875 352.191406 361.410156 349.109375 364.160156 C 346.023438 366.910156 342.578125 369.074219 338.765625 370.644531 C 334.960938 372.226562 330.726562 373.019531 326.0625 373.019531 C 320.601562 373.019531 315.863281 372.132812 311.84375 370.363281 C 307.820312 368.605469 304.375 366.230469 301.5 363.238281 C 298.632812 360.25 296.285156 356.769531 294.453125 352.800781 C 292.617188 348.824219 291.179688 344.609375 290.140625 340.160156 C 289.109375 335.714844 288.390625 331.171875 287.984375 326.535156 C 287.585938 321.902344 287.390625 317.441406 287.390625 313.160156 C 287.390625 306.578125 287.71875 300.003906 288.375 293.441406 C 289.039062 286.878906 289.984375 280.328125 291.203125 273.785156 L 324.234375 275.050781 C 322.960938 282.4375 321.867188 289.859375 320.953125 297.316406 C 320.035156 304.777344 319.578125 312.269531 319.578125 319.800781 C 319.578125 320.605469 319.609375 321.792969 319.671875 323.363281 C 319.742188 324.9375 319.875 326.703125 320.0625 328.660156 C 320.257812 330.609375 320.53125 332.609375 320.875 334.660156 C 321.226562 336.703125 321.710938 338.574219 322.328125 340.269531 C 322.941406 341.957031 323.679688 343.34375 324.546875 344.425781 C 325.421875 345.511719 326.445312 346.050781 327.625 346.050781 C 328.988281 346.050781 330.210938 345.40625 331.296875 344.113281 C 332.378906 342.824219 333.332031 341.09375 334.15625 338.925781 C 334.976562 336.761719 335.691406 334.265625 336.296875 331.441406 C 336.910156 328.621094 337.425781 325.683594 337.84375 322.628906 C 338.269531 319.566406 338.613281 316.511719 338.875 313.457031 C 339.132812 310.394531 339.347656 307.546875 339.515625 304.910156 C 339.679688 302.277344 339.785156 299.949219 339.828125 297.925781 C 339.878906 295.894531 339.90625 294.390625 339.90625 293.410156 C 339.90625 289.734375 339.84375 286.074219 339.71875 282.425781 C 339.601562 278.78125 339.429688 275.144531 339.203125 271.519531 L 372.234375 271.519531 C 372.796875 278.019531 373.078125 284.609375 373.078125 291.285156 Z M 373.078125 291.285156 " fill-opacity="1" fill-rule="nonzero"/></svg>